<svg width="25" height="25" viewBox="0 0 25 25" fill="none" xmlns="http://www.w3.org/2000/svg">
<path d="M5.55556 2.77778H8.33333V0H5.55556V2.77778ZM5.55556 25H8.33333V22.2222H5.55556V25ZM11.1111 25H13.8889V22.2222H11.1111V25ZM0 25H2.77778V22.2222H0V25ZM0 19.4444H2.77778V16.6667H0V19.4444ZM0 13.8889H2.77778V11.1111H0V13.8889ZM0 8.33333H2.77778V5.55556H0V8.33333ZM0 2.77778H2.77778V0H0V2.77778ZM22.2222 19.4444H25V16.6667H22.2222V19.4444ZM22.2222 13.8889H25V11.1111H22.2222V13.8889ZM22.2222 25H25V22.2222H22.2222V25ZM22.2222 8.33333H25V5.55556H22.2222V8.33333ZM22.2222 0V2.77778H25V0H22.2222ZM11.1111 2.77778H13.8889V0H11.1111V2.77778ZM16.6667 25H19.4444V22.2222H16.6667V25ZM16.6667 2.77778H19.4444V0H16.6667V2.77778Z" fill="#323232"/>
<path fill-rule="evenodd" clip-rule="evenodd" d="M6 8C6 7.44772 6.44772 7 7 7H18C18.5523 7 19 7.44772 19 8C19 8.55228 18.5523 9 18 9H7C6.44772 9 6 8.55228 6 8Z" fill="#323232"/>
<path fill-rule="evenodd" clip-rule="evenodd" d="M6 12C6 11.4477 6.44772 11 7 11H15C15.5523 11 16 11.4477 16 12C16 12.5523 15.5523 13 15 13H7C6.44772 13 6 12.5523 6 12Z" fill="#323232"/>
<path fill-rule="evenodd" clip-rule="evenodd" d="M6 16C6 15.4477 6.44772 15 7 15H17C17.5523 15 18 15.4477 18 16C18 16.5523 17.5523 17 17 17H7C6.44772 17 6 16.5523 6 16Z" fill="#323232"/>
</svg>
