<svg width="25" height="25" viewBox="0 0 25 25" fill="none" xmlns="http://www.w3.org/2000/svg">
<path d="M11.0295 18.5442H13.7869C14.2924 18.5442 14.706 18.1306 14.706 17.6251V7.51482C14.706 7.00931 14.2924 6.5957 13.7869 6.5957H11.0295C10.524 6.5957 10.1104 7.00931 10.1104 7.51482V17.6251C10.1104 18.1306 10.524 18.5442 11.0295 18.5442ZM5.51482 18.5442H8.27217C8.77769 18.5442 9.19129 18.1306 9.19129 17.6251V7.51482C9.19129 7.00931 8.77769 6.5957 8.27217 6.5957H5.51482C5.00931 6.5957 4.5957 7.00931 4.5957 7.51482V17.6251C4.5957 18.1306 5.00931 18.5442 5.51482 18.5442ZM15.6251 7.51482V17.6251C15.6251 18.1306 16.0387 18.5442 16.5442 18.5442H19.3016C19.8071 18.5442 20.2207 18.1306 20.2207 17.6251V7.51482C20.2207 7.00931 19.8071 6.5957 19.3016 6.5957H16.5442C16.0387 6.5957 15.6251 7.00931 15.6251 7.51482Z" fill="#323232"/>
<path fill-rule="evenodd" clip-rule="evenodd" d="M0 2H1.84559V3.83824H1.83824V3.88419H0V2ZM4.625 2H6.47794V3.83824H4.625V2ZM9.25735 2H11.1103V3.83824H9.25735V2ZM13.8897 2H15.7426V3.83824H13.8897V2ZM18.5221 2H20.375V3.83824H18.5221V2ZM23.1544 2H25V3.88419H23.1618V3.83824H23.1544V2ZM0 8.70956V6.77941H1.83824V8.70956H0ZM25 6.77941V8.70956H23.1618V6.77941H25ZM0 13.5349V11.6048H1.83824V13.5349H0ZM25 11.6048V13.5349H23.1618V11.6048H25ZM0 18.3603V16.4301H1.83824V18.3603H0ZM25 16.4301V18.3603H23.1618V16.4301H25ZM0 21.2555H1.83824V21.3015H1.84559V23.1397H0V21.2555ZM25 21.2555V23.1397H23.1544V21.3015H23.1618V21.2555H25ZM6.47794 23.1397H4.625V21.3015H6.47794V23.1397ZM11.1103 23.1397H9.25735V21.3015H11.1103V23.1397ZM15.7426 23.1397H13.8897V21.3015H15.7426V23.1397ZM20.375 23.1397H18.5221V21.3015H20.375V23.1397Z" fill="#323232"/>
</svg>
