<svg width="25" height="25" viewBox="0 0 25 25" fill="none" xmlns="http://www.w3.org/2000/svg">
<g clip-path="url(#clip0_94_71)">
<path d="M1.57415 0.8276L3.1967 21.5852C3.22106 21.8969 3.43205 22.1627 3.73011 22.2572L12.268 24.9641C12.419 25.012 12.5811 25.012 12.7321 24.9641L21.27 22.2572C21.568 22.1627 21.779 21.8969 21.8034 21.5852L23.4259 0.8276C23.4608 0.381322 23.1081 0 22.6605 0H2.33962C1.89202 0 1.53932 0.381322 1.57415 0.8276ZM19.265 7.26799H8.69052L9.00965 10.2108H19.035L18.3792 18.6004L12.5001 20.4644L6.62095 18.6004L6.27832 14.2174H9.36414V16.3673L12.5825 17.2311L15.7817 16.3673L16.0299 12.9409H6.17853L5.52449 4.57328H19.4756L19.265 7.26799Z" fill="#323232"/>
</g>
<defs>
<clipPath id="clip0_94_71">
<rect width="25" height="25" fill="white"/>
</clipPath>
</defs>
</svg>
