<svg width="25" height="25" viewBox="0 0 25 25" fill="none" xmlns="http://www.w3.org/2000/svg">
<path d="M2.5 22.2222H5C5 23.7542 6.12125 25 7.5 25H17.5C18.8787 25 20 23.7542 20 22.2222H22.5C23.8787 22.2222 25 20.9764 25 19.4444V5.55556C25 4.02361 23.8787 2.77778 22.5 2.77778H20C20 1.24583 18.8787 0 17.5 0H7.5C6.12125 0 5 1.24583 5 2.77778H2.5C1.12125 2.77778 0 4.02361 0 5.55556V19.4444C0 20.9764 1.12125 22.2222 2.5 22.2222ZM22.5 5.55556V19.4444H20V5.55556H22.5ZM7.5 2.77778H17.5L17.5012 22.2222H7.5V2.77778ZM2.5 5.55556H5V19.4444H2.5V5.55556Z" fill="#323232"/>
</svg>
