<svg width="25" height="25" viewBox="0 0 25 25" fill="none" xmlns="http://www.w3.org/2000/svg">
<path d="M13.1753 8H10.5402C10.0571 8 9.66188 8.39526 9.66188 8.87835C9.66188 9.36145 10.0571 9.75671 10.5402 9.75671H13.1753C14.6246 9.75671 15.8104 10.9425 15.8104 12.3918C15.8104 13.841 14.6246 15.0268 13.1753 15.0268H10.5402C10.0571 15.0268 9.66188 15.4221 9.66188 15.9052C9.66188 16.3883 10.0571 16.7835 10.5402 16.7835H13.1753C15.5996 16.7835 17.5671 14.816 17.5671 12.3918C17.5671 9.96751 15.5996 8 13.1753 8ZM5.27012 12.3918C5.27012 12.8749 5.66538 13.2701 6.14847 13.2701H11.4186C11.9017 13.2701 12.2969 12.8749 12.2969 12.3918C12.2969 11.9087 11.9017 11.5134 11.4186 11.5134H6.14847C5.66538 11.5134 5.27012 11.9087 5.27012 12.3918ZM7.02682 15.0268H4.39177C2.94248 15.0268 1.75671 13.841 1.75671 12.3918C1.75671 10.9425 2.94248 9.75671 4.39177 9.75671H7.02682C7.50992 9.75671 7.90518 9.36145 7.90518 8.87835C7.90518 8.39526 7.50992 8 7.02682 8H4.39177C1.96751 8 0 9.96751 0 12.3918C0 14.816 1.96751 16.7835 4.39177 16.7835H7.02682C7.50992 16.7835 7.90518 16.3883 7.90518 15.9052C7.90518 15.4221 7.50992 15.0268 7.02682 15.0268Z" fill="#323232"/>
<path d="M19.9624 15.1864V8.79834H22.4827C22.9651 8.79834 23.3768 8.88464 23.7179 9.05723C24.061 9.22774 24.3219 9.47 24.5008 9.78399C24.6817 10.0959 24.7721 10.4629 24.7721 10.8851C24.7721 11.3093 24.6806 11.6742 24.4976 11.9799C24.3147 12.2835 24.0495 12.5164 23.7023 12.6786C23.3571 12.8408 22.9391 12.9219 22.4484 12.9219H20.7609V11.8364H22.23C22.4879 11.8364 22.7021 11.801 22.8726 11.7303C23.0431 11.6596 23.1699 11.5536 23.2531 11.4122C23.3384 11.2708 23.381 11.0951 23.381 10.8851C23.381 10.673 23.3384 10.4941 23.2531 10.3486C23.1699 10.203 23.042 10.0928 22.8695 10.0179C22.6989 9.94099 22.4837 9.90252 22.2238 9.90252H21.313V15.1864H19.9624ZM23.4122 12.2793L24.9998 15.1864H23.5089L21.9555 12.2793H23.4122Z" fill="#323232"/>
</svg>
