<svg width="25" height="25" viewBox="0 0 25 25" fill="none" xmlns="http://www.w3.org/2000/svg">
<path d="M18 1.22939V8.18175C18 8.63361 17.6645 8.9995 17.2502 8.9995H15.4998V4.36492L12.5 6.81917L9.50021 4.36492V9H7.74983C7.65133 9 7.55378 8.97883 7.46278 8.93771C7.37177 8.89658 7.28909 8.8363 7.21946 8.76031C7.14982 8.68432 7.0946 8.59412 7.05695 8.49484C7.01929 8.39557 6.99994 8.28918 7 8.18175V1.22939C7 0.218198 8.05829 -0.359124 8.79988 0.247689L9.50021 0.821013L12.5 3.27426L15.4998 0.820013L16.2001 0.247689C16.9412 -0.358624 18 0.218198 18 1.22939Z" fill="black"/>
<path d="M24.6608 16.5333L20.6464 11.6811C20.2938 11.2545 19.7146 11 19.0976 11H5.90225C5.28538 11 4.7065 11.2545 4.35362 11.681L0.339127 16.5334C0.117252 16.8017 0 17.1162 0 17.4432V23.409C0 24.2862 0.846878 25 1.88788 25H23.112C24.153 25 25 24.2863 25 23.409V17.4431C25 17.1161 24.8826 16.8015 24.6608 16.5333ZM5.58437 12.4038C5.65675 12.3163 5.77563 12.2641 5.90225 12.2641H19.0976C19.2244 12.2641 19.3432 12.3163 19.4157 12.4039L22.5504 16.1929C22.6013 16.2546 22.6074 16.3349 22.5663 16.4014C22.525 16.468 22.4434 16.5097 22.3542 16.5097H18.1705C17.4638 16.5097 16.8219 16.838 16.4955 17.3667L15.3869 19.1637C15.3196 19.2723 15.1878 19.3398 15.0426 19.3398H9.9575C9.81225 19.3398 9.6805 19.2723 9.61362 19.1639L8.50462 17.3666C8.17837 16.838 7.53663 16.5097 6.82963 16.5097H2.64587C2.55675 16.5097 2.475 16.468 2.43375 16.4014C2.3925 16.3347 2.39862 16.2543 2.44962 16.1928L5.58437 12.4038ZM23.112 23.7356H1.88788C1.67413 23.7356 1.50012 23.5891 1.50012 23.4089V17.9966C1.50012 17.8736 1.6185 17.7739 1.76437 17.7739H6.8295C6.97475 17.7739 7.10638 17.8415 7.17338 17.95L8.2825 19.7472C8.60863 20.2758 9.2505 20.6042 9.95737 20.6042H15.0424C15.7491 20.6042 16.3909 20.2758 16.7174 19.7472L17.8262 17.9503C17.8932 17.8416 18.0251 17.774 18.1702 17.774H23.2354C23.3814 17.774 23.4995 17.8737 23.4995 17.9967V23.4089C23.4999 23.5892 23.3258 23.7356 23.112 23.7356Z" fill="black"/>
</svg>
