<svg width="27" height="29" viewBox="0 0 25 27" fill="none" xmlns="http://www.w3.org/2000/svg">
<path fill-rule="evenodd" clip-rule="evenodd" d="M3 4.40909C3 2.5263 4.5263 1 6.40909 1H14.9997C15.8906 1 16.746 1.34876 17.383 1.97158L22.4287 6.90516C22.4287 6.90518 22.4287 6.90521 22.4288 6.90523C23.0849 7.54666 23.4545 8.42539 23.4545 9.34275V22.5909C23.4545 24.4737 21.9283 26 20.0455 26H6.40909C4.52631 26 3 24.4737 3 22.5909V4.40909ZM6.40909 3.27273C5.78149 3.27273 5.27273 3.78149 5.27273 4.40909V22.5909C5.27273 23.2185 5.78148 23.7273 6.40909 23.7273H20.0455C20.6731 23.7273 21.1818 23.2185 21.1818 22.5909V9.34275C21.1818 9.03691 21.0586 8.74406 20.8399 8.53032L20.8399 8.53025L15.7941 3.59659L15.7941 3.59658C15.5817 3.38895 15.2966 3.27273 14.9997 3.27273H6.40909Z" fill="#323232"/>
<path fill-rule="evenodd" clip-rule="evenodd" d="M14.3638 6.68169V2.13623H16.6365V6.68169C16.6365 7.30929 17.1452 7.81805 17.7729 7.81805H22.3183V10.0908H17.7729C15.89 10.0908 14.3638 8.56446 14.3638 6.68169Z" fill="#323232"/>
<path fill-rule="evenodd" clip-rule="evenodd" d="M9.67607 12.676C10.0494 12.3026 10.6547 12.3026 11.028 12.676L17.324 18.9719C17.6973 19.3453 17.6973 19.9505 17.324 20.3239C16.9506 20.6972 16.3453 20.6972 15.972 20.3239L9.67607 14.028C9.30273 13.6546 9.30273 13.0493 9.67607 12.676Z" fill="#323232"/>
<path fill-rule="evenodd" clip-rule="evenodd" d="M17.324 12.6761C17.6974 13.0494 17.6974 13.6547 17.324 14.028L11.0281 20.324C10.6547 20.6973 10.0495 20.6973 9.67612 20.324C9.30278 19.9506 9.30278 19.3453 9.67612 18.972L15.972 12.6761C16.3454 12.3027 16.9507 12.3027 17.324 12.6761Z" fill="#323232"/>
</svg>
