<svg width="25" height="26" viewBox="0 0 25 26" fill="none" xmlns="http://www.w3.org/2000/svg">
<path fill-rule="evenodd" clip-rule="evenodd" d="M3 3.13636C3 1.4042 4.4042 0 6.13636 0H18.6818C20.414 0 21.8182 1.4042 21.8182 3.13636V21.9545C21.8182 23.6867 20.414 25.0909 18.6818 25.0909H6.13636C4.4042 25.0909 3 23.6867 3 21.9545V3.13636ZM6.13636 2.09091C5.55897 2.09091 5.09091 2.55897 5.09091 3.13636V21.9545C5.09091 22.5319 5.55897 23 6.13636 23H18.6818C19.2592 23 19.7273 22.5319 19.7273 21.9545V3.13636C19.7273 2.55897 19.2592 2.09091 18.6818 2.09091H6.13636Z" fill="#323232"/>
<path d="M17.8842 15.8737L14.8146 12.8041L17.054 11.5105C17.1852 11.4347 17.2616 11.2906 17.2506 11.1395C17.2397 10.9884 17.1434 10.8569 17.0027 10.8008L7.54223 7.02821C7.39531 6.96958 7.22775 7.00403 7.11589 7.1158C7.00406 7.22755 6.9696 7.3951 7.02815 7.54188L10.8007 17.0024C10.8568 17.1432 10.9884 17.2395 11.1396 17.2504C11.2908 17.2616 11.435 17.185 11.5108 17.0538L12.8041 14.8149L15.8734 17.8841C15.9476 17.9583 16.0483 18 16.1532 18C16.2582 18 16.3588 17.9583 16.4331 17.8841L17.8841 16.4328C18.0386 16.2784 18.0386 16.0281 17.8842 15.8737Z" fill="#323232"/>
</svg>
