<svg width="25" height="25" viewBox="0 0 25 25" fill="none" xmlns="http://www.w3.org/2000/svg">
<path d="M23.272 1.77265V0H17.9541V8.86324H19.7268V5.31795H22.3857V3.5453H19.7268V1.77265H23.272Z" fill="#323232"/>
<path d="M13.5219 8.86324H9.97656V0H13.5219C14.2268 0.000774186 14.9027 0.281164 15.4012 0.77965C15.8997 1.27814 16.1801 1.95401 16.1808 2.65897V6.20427C16.1801 6.90924 15.8997 7.58511 15.4012 8.08359C14.9027 8.58208 14.2268 8.86247 13.5219 8.86324ZM11.7492 7.09059H13.5219C13.7568 7.09034 13.9821 6.99687 14.1483 6.83071C14.3145 6.66455 14.4079 6.43926 14.4082 6.20427V2.65897C14.4079 2.42398 14.3145 2.19869 14.1483 2.03253C13.9821 1.86637 13.7568 1.77291 13.5219 1.77265H11.7492V7.09059Z" fill="#323232"/>
<path d="M6.43162 0H2V8.86324H3.77265V6.20427H6.43162C6.90156 6.20364 7.35208 6.01667 7.68437 5.68437C8.01667 5.35208 8.20364 4.90156 8.20427 4.43162V1.77265C8.20373 1.30268 8.0168 0.852112 7.68448 0.519793C7.35216 0.187473 6.90159 0.000539535 6.43162 0ZM3.77265 4.43162V1.77265H6.43162L6.43251 4.43162H3.77265Z" fill="#323232"/>
<path fill-rule="evenodd" clip-rule="evenodd" d="M3.08696 10.7825C3.68727 10.7825 4.17391 11.2691 4.17391 11.8694V22.826H20.4783V11.8694C20.4783 11.2691 20.9649 10.7825 21.5652 10.7825C22.1655 10.7825 22.6522 11.2691 22.6522 11.8694V23.9129C22.6522 24.5132 22.1655 24.9999 21.5652 24.9999H3.08696C2.48665 24.9999 2 24.5132 2 23.9129V11.8694C2 11.2691 2.48665 10.7825 3.08696 10.7825Z" fill="#323232"/>
<path fill-rule="evenodd" clip-rule="evenodd" d="M6 14C6 13.4477 6.44772 13 7 13H15C15.5523 13 16 13.4477 16 14C16 14.5523 15.5523 15 15 15H7C6.44772 15 6 14.5523 6 14Z" fill="#323232"/>
<path fill-rule="evenodd" clip-rule="evenodd" d="M6 20C6 19.4477 6.44772 19 7 19H17C17.5523 19 18 19.4477 18 20C18 20.5523 17.5523 21 17 21H7C6.44772 21 6 20.5523 6 20Z" fill="#323232"/>
<path fill-rule="evenodd" clip-rule="evenodd" d="M6 17C6 16.4477 6.44772 16 7 16H13C13.5523 16 14 16.4477 14 17C14 17.5523 13.5523 18 13 18H7C6.44772 18 6 17.5523 6 17Z" fill="#323232"/>
</svg>
