<svg width="25" height="25" viewBox="0 0 25 25" fill="none" xmlns="http://www.w3.org/2000/svg">
<path fill-rule="evenodd" clip-rule="evenodd" d="M2.65721 6.08833C2.99145 6.26424 3.09981 6.6445 2.89924 6.93765C0.926221 9.82143 0.896524 14.5456 2.92532 18.104C3.09966 18.4097 2.95836 18.7816 2.60972 18.9345C2.26108 19.0874 1.83712 18.9635 1.66277 18.6577C-0.543754 14.7876 -0.573453 9.6072 1.68885 6.30061C1.88942 6.00746 2.32297 5.91241 2.65721 6.08833Z" fill="#323232"/>
<path fill-rule="evenodd" clip-rule="evenodd" d="M22.3428 6.08833C22.0085 6.26424 21.9002 6.6445 22.1008 6.93765C24.0738 9.82143 24.1035 14.5456 22.0747 18.104C21.9003 18.4097 22.0416 18.7816 22.3903 18.9345C22.7389 19.0874 23.1629 18.9635 23.3372 18.6577C25.5438 14.7876 25.5735 9.6072 23.3112 6.30061C23.1106 6.00746 22.677 5.91241 22.3428 6.08833Z" fill="#323232"/>
<path fill-rule="evenodd" clip-rule="evenodd" d="M6.54295 5.10871C6.9886 5.32522 7.13309 5.79323 6.86566 6.15403C4.23496 9.7033 4.19537 15.5177 6.90042 19.8972C7.13288 20.2735 6.94448 20.7312 6.47963 20.9194C6.01477 21.1076 5.44949 20.9551 5.21703 20.5787C2.27499 15.8155 2.2354 9.43963 5.2518 5.36998C5.51922 5.00918 6.09729 4.8922 6.54295 5.10871Z" fill="#323232"/>
<path fill-rule="evenodd" clip-rule="evenodd" d="M18.4571 5.10871C18.0114 5.32522 17.8669 5.79323 18.1343 6.15403C20.765 9.7033 20.8046 15.5177 18.0996 19.8972C17.8671 20.2735 18.0555 20.7312 18.5204 20.9194C18.9852 21.1076 19.5505 20.9551 19.783 20.5787C22.725 15.8155 22.7646 9.43963 19.7482 5.36998C19.4808 5.00918 18.9027 4.8922 18.4571 5.10871Z" fill="#323232"/>
<path d="M8.42851 9.7515L7.17597 13.111H6.16699L7.87815 9.05845H8.52023L8.42851 9.7515ZM9.46912 13.111L8.21342 9.7515L8.11221 9.05845H8.76062L10.4813 13.111H9.46912ZM9.41218 11.6024V12.2565H6.97987V11.6024H9.41218Z" fill="#323232"/>
<path d="M12.7111 11.3324H11.5282L11.5219 10.7591H12.515C12.6901 10.7591 12.8334 10.7396 12.9452 10.7006C13.057 10.6598 13.1403 10.6014 13.1951 10.5253C13.252 10.4473 13.2805 10.3527 13.2805 10.2414C13.2805 10.1152 13.2531 10.0131 13.1982 9.9352C13.1455 9.85727 13.0622 9.80068 12.9484 9.76542C12.8366 9.73016 12.6922 9.71254 12.515 9.71254H11.8571V13.111H10.9083V9.05845H12.515C12.7828 9.05845 13.0222 9.08072 13.233 9.12525C13.446 9.16978 13.6263 9.23751 13.7739 9.32843C13.9215 9.41936 14.0343 9.5344 14.1123 9.67357C14.1904 9.81088 14.2294 9.97417 14.2294 10.1634C14.2294 10.3304 14.1861 10.4845 14.0997 10.6255C14.0153 10.7665 13.8814 10.8815 13.698 10.9706C13.5166 11.0597 13.2794 11.1088 12.9863 11.1181L12.7111 11.3324ZM12.67 13.111H11.2688L11.6389 12.4597H12.67C12.8366 12.4597 12.9726 12.4365 13.078 12.3901C13.1835 12.3419 13.2615 12.2769 13.3121 12.1953C13.3627 12.1136 13.388 12.0199 13.388 11.9142C13.388 11.7954 13.3648 11.6924 13.3184 11.6052C13.2742 11.518 13.2025 11.4512 13.1034 11.4048C13.0042 11.3566 12.8735 11.3324 12.7111 11.3324H11.7971L11.8034 10.7591H12.942L13.1603 10.9845C13.4407 10.9808 13.6664 11.0244 13.8372 11.1153C14.0101 11.2044 14.1355 11.3204 14.2136 11.4633C14.2937 11.6061 14.3337 11.7592 14.3337 11.9225C14.3337 12.1823 14.2694 12.4012 14.1408 12.5794C14.0122 12.7557 13.8235 12.8883 13.5746 12.9774C13.3279 13.0665 13.0264 13.111 12.67 13.111Z" fill="#323232"/>
<path d="M17.7149 11.7666H18.6607C18.6417 12.0394 18.5563 12.2816 18.4045 12.4931C18.2548 12.7046 18.0449 12.8698 17.775 12.9885C17.5072 13.1073 17.1846 13.1667 16.8072 13.1667C16.512 13.1667 16.2473 13.1221 16.0133 13.0331C15.7792 12.9421 15.5789 12.8123 15.4123 12.6434C15.2478 12.4745 15.1224 12.2704 15.0359 12.0311C14.9495 11.7917 14.9062 11.5236 14.9062 11.2267V10.9456C14.9062 10.6487 14.9505 10.3805 15.0391 10.1412C15.1298 9.89995 15.2584 9.69491 15.425 9.52605C15.5937 9.3572 15.795 9.22731 16.0291 9.13638C16.2631 9.04546 16.5246 9 16.8135 9C17.1973 9 17.5209 9.06123 17.7845 9.1837C18.0502 9.30617 18.2558 9.47502 18.4013 9.69027C18.5489 9.90551 18.6375 10.1504 18.667 10.4251H17.7181C17.7076 10.2618 17.6707 10.1235 17.6074 10.0104C17.5441 9.89531 17.4482 9.80903 17.3196 9.7515C17.1931 9.69212 17.0244 9.66244 16.8135 9.66244C16.6554 9.66244 16.5172 9.68841 16.3992 9.74037C16.2811 9.79233 16.182 9.87119 16.1018 9.97695C16.0217 10.0827 15.9616 10.2163 15.9215 10.3778C15.8836 10.5373 15.8646 10.7247 15.8646 10.94V11.2267C15.8646 11.4364 15.8825 11.621 15.9184 11.7806C15.9542 11.9383 16.0091 12.0719 16.0829 12.1814C16.1588 12.289 16.2558 12.3706 16.3738 12.4263C16.494 12.4801 16.6385 12.507 16.8072 12.507C17.0054 12.507 17.1688 12.4792 17.2974 12.4235C17.4261 12.3678 17.5241 12.2853 17.5916 12.1758C17.6612 12.0663 17.7023 11.9299 17.7149 11.7666Z" fill="#323232"/>
<path fill-rule="evenodd" clip-rule="evenodd" d="M6 15C6 14.4477 6.44772 14 7 14H18C18.5523 14 19 14.4477 19 15C19 15.5523 18.5523 16 18 16H7C6.44772 16 6 15.5523 6 15Z" fill="#323232"/>
</svg>
