<svg width="25" height="25" viewBox="0 0 25 25" fill="none" xmlns="http://www.w3.org/2000/svg">
<path d="M5.05981 2.79622L2.38658 5.18554L1.49374 4.71555L4.89564 1.92659L5.46381 2.22567L5.05981 2.79622ZM4.41574 6.25371L4.86949 2.69603L5.10276 2.03561L5.67652 2.33765L5.31137 6.72518L4.41574 6.25371ZM5.06807 4.89228L4.76339 5.47107L2.61108 4.33807L2.91576 3.75928L5.06807 4.89228Z" fill="#323232"/>
<path d="M8.11303 6.19007L7.06626 5.63904L7.32775 5.12873L8.20659 5.59136C8.36146 5.67288 8.49741 5.72243 8.61446 5.74001C8.73236 5.75594 8.83329 5.74302 8.91725 5.70124C9.00393 5.6588 9.0732 5.58832 9.12506 5.4898C9.18383 5.37814 9.20712 5.27507 9.19491 5.18057C9.18456 5.08705 9.13722 4.99817 9.05288 4.91393C8.97041 4.83068 8.85081 4.7478 8.69407 4.66529L8.11191 4.35884L6.52887 7.36608L5.68922 6.92408L7.57694 3.33804L8.99876 4.0865C9.23572 4.21124 9.43713 4.34243 9.60298 4.48006C9.77069 4.61867 9.89868 4.76258 9.98694 4.9118C10.0752 5.06101 10.1214 5.21536 10.1256 5.37485C10.1307 5.53269 10.0892 5.69536 10.001 5.86284C9.92323 6.01061 9.81323 6.12676 9.67104 6.21128C9.53072 6.29678 9.35864 6.33621 9.15482 6.32957C8.95287 6.32391 8.72005 6.25692 8.45636 6.1286L8.11303 6.19007ZM7.24818 7.74473L6.00829 7.09204L6.63914 6.6881L7.55156 7.1684C7.69897 7.246 7.83012 7.28883 7.94503 7.29689C8.06079 7.30331 8.16008 7.28219 8.2429 7.23351C8.32571 7.18484 8.39175 7.11371 8.44102 7.02012C8.49633 6.91503 8.52378 6.8131 8.52335 6.71432C8.52479 6.61652 8.49247 6.52401 8.42638 6.4368C8.36116 6.34794 8.25671 6.2657 8.11303 6.19007L7.30417 5.76427L7.57685 5.25985L8.58443 5.79026L8.67253 6.09142C8.92243 6.21877 9.10177 6.36245 9.21055 6.52247C9.32207 6.68182 9.37907 6.84289 9.38155 7.00566C9.3859 7.16942 9.35004 7.32354 9.27398 7.46803C9.15297 7.69791 8.99407 7.8617 8.79728 7.95941C8.60134 8.05548 8.37255 8.08497 8.11088 8.04789C7.85108 8.01178 7.56351 7.91073 7.24818 7.74473Z" fill="#323232"/>
<path d="M12.3386 8.90511L13.1754 9.34564C13.0316 9.57817 12.8432 9.75266 12.6103 9.86912C12.3793 9.98657 12.1167 10.035 11.8226 10.0143C11.5303 9.99467 11.2171 9.89694 10.8831 9.72112C10.6219 9.58361 10.4085 9.42093 10.2429 9.23309C10.0781 9.04361 9.96134 8.83536 9.89259 8.60834C9.82571 8.38231 9.80977 8.14325 9.84476 7.89117C9.87976 7.63909 9.96641 7.38169 10.1047 7.11897L10.2356 6.87022C10.3739 6.6075 10.538 6.39087 10.7279 6.22031C10.9205 6.04909 11.1298 5.92757 11.3559 5.85575C11.5838 5.78491 11.8225 5.76377 12.072 5.79234C12.3214 5.82091 12.574 5.90248 12.8296 6.03705C13.1692 6.21581 13.4271 6.42077 13.6033 6.65192C13.7814 6.88405 13.8846 7.12923 13.9131 7.38747C13.9435 7.6467 13.9077 7.90469 13.8059 8.16145L12.9663 7.71945C13.033 7.57004 13.0647 7.43053 13.0615 7.3009C13.0591 7.16963 13.0144 7.04859 12.9274 6.93778C12.8431 6.8263 12.7076 6.72145 12.521 6.62323C12.3811 6.54956 12.2468 6.50821 12.1181 6.49918C11.9894 6.49015 11.865 6.51377 11.7448 6.57004C11.6246 6.6263 11.5092 6.71653 11.3986 6.84072C11.2906 6.96425 11.1866 7.12125 11.0863 7.31171L10.9528 7.5654C10.8551 7.75094 10.7849 7.92266 10.7423 8.08057C10.7006 8.23683 10.6869 8.38059 10.7012 8.51184C10.7182 8.64244 10.766 8.75987 10.8446 8.86413C10.9259 8.96773 11.0411 9.05882 11.1904 9.1374C11.3658 9.22973 11.5234 9.28122 11.6631 9.29188C11.8029 9.30254 11.9281 9.27515 12.0388 9.2097C12.1514 9.14524 12.2513 9.04371 12.3386 8.90511Z" fill="#323232"/>
<path fill-rule="evenodd" clip-rule="evenodd" d="M0.46583 6.30931C0.72309 5.8206 1.32782 5.63297 1.81652 5.89023L11.5503 11.0142C12.039 11.2714 12.2266 11.8761 11.9693 12.3648C11.7121 12.8536 11.1073 13.0412 10.6186 12.7839L0.884903 7.66C0.396195 7.40274 0.208569 6.79801 0.46583 6.30931Z" fill="#323232"/>
<path d="M23 14.5L23.4608 14.694C23.4774 14.6546 23.4889 14.6131 23.495 14.5707L23 14.5ZM15 6.5L18.5443 11.0576L20.7191 5.70935L15 6.5ZM0.138322 14.8452C0.379109 15.0975 0.664836 15.3538 0.987137 15.6102L1.60959 14.8275C1.31489 14.5931 1.06456 14.3673 0.861678 14.1548L0.138322 14.8452ZM2.82653 16.8498C3.4239 17.1985 4.07994 17.5405 4.77949 17.8644L5.19959 16.9569C4.52689 16.6455 3.89905 16.318 3.33068 15.9862L2.82653 16.8498ZM6.8042 18.7015C7.47959 18.949 8.17936 19.1749 8.89336 19.371L9.15826 18.4067C8.47221 18.2183 7.79886 18.001 7.14829 17.7626L6.8042 18.7015ZM11.0364 19.8568C11.764 19.9858 12.4972 20.0779 13.2258 20.1247L13.29 19.1268C12.602 19.0825 11.9058 18.9953 11.2109 18.8721L11.0364 19.8568ZM15.4475 20.1169C16.2031 20.0583 16.9439 19.9384 17.6566 19.746L17.396 18.7806C16.7503 18.9549 16.0716 19.0655 15.3702 19.1199L15.4475 20.1169ZM19.762 18.9047C20.4217 18.5397 21.0351 18.0863 21.5869 17.5338L20.8793 16.8271C20.3969 17.3102 19.8596 17.7078 19.2779 18.0297L19.762 18.9047ZM22.9608 15.7146C23.1424 15.3937 23.3094 15.0538 23.4608 14.694L22.5392 14.306C22.4023 14.6311 22.2523 14.9361 22.0905 15.222L22.9608 15.7146ZM23.495 14.5707C23.5513 14.1761 23.5867 13.802 23.6021 13.447L22.603 13.4036C22.5892 13.723 22.5572 14.0643 22.505 14.4293L23.495 14.5707ZM23.3733 11.1619C23.1353 10.3132 22.7302 9.63744 22.2117 9.09365L21.488 9.78372C21.8949 10.2104 22.2171 10.7424 22.4104 11.4318L23.3733 11.1619ZM20.2943 7.7774C19.6159 7.46499 18.893 7.23484 18.1982 7.03324L17.9196 7.99362C18.6028 8.19186 19.2675 8.40547 19.8759 8.6857L20.2943 7.7774Z" fill="#323232"/>
</svg>
