<svg width="25" height="25" viewBox="0 0 25 25" fill="none" xmlns="http://www.w3.org/2000/svg">
<path d="M2.7755 0.858861L1.34404 4.69829H0.190918L2.14653 0.0668003H2.88033L2.7755 0.858861ZM3.96478 4.69829L2.5297 0.858861L2.41402 0.0668003H3.15506L5.12151 4.69829H3.96478ZM3.89971 2.9742V3.72173H1.11992V2.9742H3.89971Z" fill="#323232"/>
<path d="M7.66995 2.66565H6.31801L6.31078 2.01037H7.44583C7.64585 2.01037 7.80972 1.9881 7.93745 1.94357C8.06517 1.89692 8.16036 1.83012 8.22302 1.74317C8.28808 1.6541 8.32062 1.54595 8.32062 1.41871C8.32062 1.27451 8.28929 1.15787 8.22663 1.0688C8.16639 0.979737 8.0712 0.915058 7.94106 0.874765C7.81334 0.834473 7.64826 0.814327 7.44583 0.814327H6.69395V4.69829H5.60951V0.0668003H7.44583C7.75189 0.0668003 8.02541 0.092248 8.26639 0.143143C8.50979 0.194039 8.71584 0.271442 8.88453 0.375354C9.05322 0.479265 9.18215 0.610745 9.27131 0.769794C9.36048 0.926721 9.40506 1.11334 9.40506 1.32964C9.40506 1.5205 9.35566 1.69651 9.25685 1.85768C9.16046 2.01885 9.00743 2.15033 8.79777 2.25212C8.59052 2.35391 8.31941 2.41011 7.98444 2.42071L7.66995 2.66565ZM7.62296 4.69829H6.0216L6.44453 3.95394H7.62296C7.81334 3.95394 7.96878 3.92743 8.08927 3.87442C8.20976 3.81928 8.29893 3.74506 8.35676 3.65175C8.4146 3.55844 8.44352 3.45135 8.44352 3.33047C8.44352 3.19475 8.41701 3.07705 8.36399 2.97738C8.31339 2.87771 8.23145 2.80137 8.11819 2.74835C8.00492 2.69322 7.85551 2.66565 7.66995 2.66565H6.62527L6.6325 2.01037H7.93383L8.18325 2.26803C8.50377 2.26379 8.76162 2.31362 8.95682 2.41753C9.15443 2.51932 9.29782 2.65186 9.38698 2.81515C9.47856 2.97844 9.52435 3.1534 9.52435 3.34001C9.52435 3.6369 9.45085 3.88714 9.30384 4.09072C9.15684 4.29218 8.94116 4.44381 8.65679 4.5456C8.37484 4.64739 8.03023 4.69829 7.62296 4.69829Z" fill="#323232"/>
<path d="M13.3886 3.16188H14.4694C14.4477 3.47361 14.3501 3.75036 14.1766 3.99211C14.0055 4.23386 13.7657 4.4226 13.4573 4.55832C13.1512 4.69404 12.7825 4.7619 12.3511 4.7619C12.0137 4.7619 11.7113 4.71101 11.4438 4.60922C11.1763 4.50531 10.9474 4.35686 10.757 4.16388C10.569 3.9709 10.4256 3.73763 10.3268 3.46407C10.228 3.19051 10.1786 2.88407 10.1786 2.54477V2.22349C10.1786 1.88419 10.2292 1.57776 10.3304 1.3042C10.4341 1.02851 10.5811 0.794181 10.7715 0.601202C10.9642 0.408224 11.1944 0.259779 11.4619 0.155867C11.7294 0.0519558 12.0282 0 12.3584 0C12.797 0 13.1669 0.0699812 13.4681 0.209944C13.7717 0.349906 14.0067 0.542885 14.173 0.788879C14.3417 1.03487 14.4429 1.3148 14.4766 1.62865H13.3922C13.3801 1.44204 13.338 1.28405 13.2657 1.15469C13.1934 1.02321 13.0837 0.924601 12.9367 0.858861C12.7921 0.791 12.5993 0.75707 12.3584 0.75707C12.1776 0.75707 12.0198 0.786759 11.8848 0.846137C11.7499 0.905515 11.6366 0.995642 11.545 1.11652C11.4534 1.2374 11.3848 1.39008 11.339 1.57458C11.2956 1.75695 11.2739 1.97114 11.2739 2.21713V2.54477C11.2739 2.7844 11.2944 2.99541 11.3354 3.17778C11.3763 3.35804 11.439 3.51073 11.5233 3.63584C11.6101 3.75884 11.7209 3.85215 11.8559 3.91577C11.9933 3.97727 12.1583 4.00802 12.3511 4.00802C12.5777 4.00802 12.7644 3.97621 12.9114 3.91259C13.0584 3.84897 13.1705 3.7546 13.2476 3.62948C13.3271 3.50436 13.3741 3.3485 13.3886 3.16188Z" fill="#323232"/>
<path fill-rule="evenodd" clip-rule="evenodd" d="M0 6.85714C0 6.22596 0.511675 5.71429 1.14286 5.71429H13.7143C14.3455 5.71429 14.8571 6.22596 14.8571 6.85714C14.8571 7.48833 14.3455 8 13.7143 8H1.14286C0.511675 8 0 7.48833 0 6.85714Z" fill="#323232"/>
<path fill-rule="evenodd" clip-rule="evenodd" d="M20.4091 11.8396L17.2609 7L23.0263 6.6934L21.483 9.72802C21.7114 10.0454 21.9258 10.3898 22.1175 10.7625L21.2282 11.2199C21.1447 11.0574 21.0561 10.9009 20.9633 10.75L20.4091 11.8396ZM22.9058 13.215C22.967 13.6231 23 14.0512 23 14.5C23 14.8834 22.9836 15.255 22.9516 15.6151L21.9556 15.5266C21.9848 15.197 22 14.8549 22 14.5C22 14.1004 21.9707 13.7219 21.9169 13.3634L22.9058 13.215ZM3.5 14.5607V15.0607C3.5 15.3401 3.52499 15.6694 3.58163 16.0342L2.59347 16.1876C2.52993 15.7784 2.5 15.3975 2.5 15.0607V14.5607H3.5ZM22.5236 17.8192C22.2871 18.5756 21.9682 19.2615 21.5802 19.8786L20.7337 19.3463C21.0749 18.8035 21.3579 18.1964 21.5692 17.5207L22.5236 17.8192ZM4.21624 20.2945C3.77848 19.6511 3.43851 18.9821 3.18111 18.3299L4.11128 17.9628C4.34431 18.5532 4.65086 19.1556 5.043 19.7319L4.21624 20.2945ZM20.1202 21.619C19.5564 22.1309 18.9316 22.5606 18.2657 22.9133L17.7977 22.0296C18.3952 21.7131 18.9504 21.3304 19.4481 20.8786L20.1202 21.619ZM7.53818 23.2287C6.83615 22.8756 6.22165 22.4484 5.68661 21.9736L6.35041 21.2257C6.82331 21.6454 7.3662 22.0228 7.9876 22.3354L7.53818 23.2287ZM16.1789 23.741C15.8207 23.8417 15.4568 23.9251 15.0894 23.9919C14.7202 24.0591 14.3606 24.1132 14.0104 24.1548L13.8922 23.1618C14.2214 23.1227 14.5607 23.0717 14.9106 23.0081C15.2481 22.9467 15.5813 22.8702 15.9083 22.7783L16.1789 23.741ZM11.8273 24.2566C11.0406 24.2316 10.3119 24.1358 9.6378 23.9801L9.86284 23.0058C10.4702 23.146 11.1341 23.2341 11.8592 23.2572L11.8273 24.2566Z" fill="#323232"/>
</svg>
