<svg width="25" height="25" viewBox="0 0 25 25" fill="none" xmlns="http://www.w3.org/2000/svg">
<rect x="1" y="4" width="23" height="11" rx="1" stroke="#323232" stroke-width="2"/>
<path d="M7.53289 7.9018L6.13006 11.9332H5L6.9165 7.07014H7.63563L7.53289 7.9018ZM8.69838 11.9332L7.292 7.9018L7.17864 7.07014H7.90486L9.83198 11.9332H8.69838ZM8.63462 10.1229V10.9078H5.91043V10.1229H8.63462Z" fill="#323232"/>
<path d="M12.3295 9.79893H11.0046L10.9975 9.11089H12.1098C12.3058 9.11089 12.4664 9.08751 12.5916 9.04075C12.7168 8.99176 12.8101 8.92162 12.8715 8.83033C12.9352 8.73681 12.9671 8.62325 12.9671 8.48965C12.9671 8.33823 12.9364 8.21576 12.875 8.12224C12.816 8.02872 12.7227 7.96081 12.5951 7.9185C12.47 7.8762 12.3082 7.85504 12.1098 7.85504H11.373V11.9332H10.3102V7.07014H12.1098C12.4098 7.07014 12.6778 7.09686 12.914 7.1503C13.1525 7.20374 13.3544 7.28501 13.5197 7.39412C13.6851 7.50323 13.8114 7.64128 13.8988 7.80828C13.9862 7.97306 14.0299 8.169 14.0299 8.39613C14.0299 8.59653 13.9814 8.78134 13.8846 8.95057C13.7901 9.1198 13.6402 9.25785 13.4347 9.36473C13.2316 9.47161 12.9659 9.53062 12.6377 9.54175L12.3295 9.79893ZM12.2834 11.9332H10.7141L11.1285 11.1516H12.2834C12.47 11.1516 12.6223 11.1238 12.7404 11.0681C12.8585 11.0102 12.9459 10.9323 13.0025 10.8343C13.0592 10.7364 13.0876 10.6239 13.0876 10.497C13.0876 10.3545 13.0616 10.2309 13.0096 10.1263C12.96 10.0216 12.8797 9.94144 12.7687 9.88577C12.6577 9.82788 12.5113 9.79893 12.3295 9.79893H11.3057L11.3128 9.11089H12.5881L12.8325 9.38143C13.1466 9.37698 13.3993 9.4293 13.5906 9.53841C13.7842 9.64529 13.9248 9.78446 14.0121 9.95591C14.1019 10.1274 14.1468 10.3111 14.1468 10.507C14.1468 10.8187 14.0747 11.0815 13.9307 11.2953C13.7866 11.5068 13.5752 11.666 13.2966 11.7729C13.0202 11.8798 12.6825 11.9332 12.2834 11.9332Z" fill="#323232"/>
<path d="M17.9337 10.32H18.9929C18.9717 10.6473 18.876 10.9379 18.706 11.1917C18.5383 11.4456 18.3033 11.6437 18.001 11.7862C17.7011 11.9287 17.3397 12 16.917 12C16.5864 12 16.29 11.9466 16.0278 11.8397C15.7657 11.7306 15.5413 11.5747 15.3548 11.3721C15.1705 11.1694 15.03 10.9245 14.9332 10.6373C14.8364 10.35 14.788 10.0283 14.788 9.67201V9.33467C14.788 8.9784 14.8376 8.65665 14.9367 8.36941C15.0383 8.07994 15.1824 7.83389 15.3689 7.63126C15.5579 7.42864 15.7834 7.27277 16.0455 7.16366C16.3077 7.05455 16.6005 7 16.9241 7C17.3539 7 17.7164 7.07348 18.0116 7.22044C18.3092 7.3674 18.5395 7.57003 18.7024 7.82832C18.8677 8.08662 18.9669 8.38054 19 8.71009H17.9372C17.9254 8.51414 17.8841 8.34825 17.8133 8.21242C17.7424 8.07437 17.635 7.97083 17.4909 7.9018C17.3492 7.83055 17.1603 7.79492 16.9241 7.79492C16.747 7.79492 16.5923 7.8261 16.46 7.88844C16.3278 7.95079 16.2168 8.04542 16.127 8.17234C16.0373 8.29927 15.97 8.45959 15.9251 8.65331C15.8826 8.8448 15.8613 9.06969 15.8613 9.32799V9.67201C15.8613 9.92362 15.8814 10.1452 15.9216 10.3367C15.9617 10.5259 16.0231 10.6863 16.1058 10.8176C16.1908 10.9468 16.2994 11.0448 16.4317 11.1116C16.5663 11.1761 16.7281 11.2084 16.917 11.2084C17.139 11.2084 17.322 11.175 17.4661 11.1082C17.6102 11.0414 17.72 10.9423 17.7955 10.811C17.8735 10.6796 17.9195 10.5159 17.9337 10.32Z" fill="#323232"/>
<rect x="9" y="17" width="16" height="3" rx="1.5" fill="#323232"/>
<rect x="13" y="21" width="12" height="2" rx="1" fill="#323232"/>
<rect x="18" y="24" width="7" height="1" rx="0.5" fill="#323232"/>
</svg>
