<svg width="25" height="25" viewBox="0 0 25 25" fill="none" xmlns="http://www.w3.org/2000/svg">
<g clip-path="url(#clip0_8903_35548)">
<path d="M24.6671 6.41424L18.5859 0.332879C18.3728 0.119773 18.0838 7.57576e-05 17.7823 7.57576e-05H14.7742C14.7737 7.57576e-05 14.7732 0 14.7727 0H5.68182C5.68136 0 5.68083 7.57576e-05 5.6803 7.57576e-05H1.13636C0.508788 7.57576e-05 0 0.508864 0 1.13644V23.8636C0 24.4912 0.508788 25 1.13636 25H5.68182H19.3182H23.8636C24.4912 25 25 24.4912 25 23.8636V7.21773C25 6.91636 24.8803 6.62727 24.6671 6.41424ZM6.81818 2.2728H13.6364V8.33333H6.81818V2.2728ZM6.81818 22.7273V16.6667H18.1818V22.7273H6.81818ZM22.7273 22.7273H20.4545V15.5303C20.4545 14.9027 19.9458 14.3939 19.3182 14.3939H5.68182C5.05424 14.3939 4.54545 14.9027 4.54545 15.5303V22.7273H2.27273V2.2728H4.54545V9.4697C4.54545 10.0973 5.05424 10.6061 5.68182 10.6061H14.7727C15.4003 10.6061 15.9091 10.0973 15.9091 9.4697V2.2728H17.3117L22.7273 7.68841V22.7273Z" fill="#323232"/>
</g>
<defs>
<clipPath id="clip0_8903_35548">
<rect width="25" height="25" fill="white"/>
</clipPath>
</defs>
</svg>
