<svg width="25" height="25" viewBox="0 0 25 25" fill="none" xmlns="http://www.w3.org/2000/svg">
<path d="M22.0447 14.5108C21.4348 13.9011 20.4464 13.9011 19.8366 14.5108C19.2269 15.1206 19.2269 16.1091 19.8366 16.7189L20.193 17.0753H18.1201C16.6105 17.0753 15.5166 15.6058 14.0042 13.1524C15.5438 10.648 16.6457 9.14418 18.1727 9.14418H20.193L19.8366 9.50056C19.2269 10.1103 19.2269 11.0989 19.8367 11.7086C20.1416 12.0134 20.541 12.1658 20.9407 12.1658C21.3402 12.1658 21.7399 12.0133 22.0447 11.7085L24.1723 9.58078C24.706 9.04717 25 8.33765 25 7.58287C25 6.82818 24.7062 6.11874 24.1725 5.58484L22.0447 3.45723C21.435 2.84755 20.4463 2.8476 19.8367 3.45732C19.227 4.06708 19.227 5.05564 19.8367 5.66531L20.1932 6.02177H18.1727C16.5481 6.02177 15.1108 6.70669 13.7789 8.11571C13.1893 8.73949 12.6569 9.46779 12.1537 10.2316C11.6821 9.55758 11.1766 8.91469 10.6127 8.34084C9.07881 6.7803 7.39814 6.02177 5.47466 6.02177H1.56127C0.699017 6.02169 0 6.7207 0 7.58296C0 8.44521 0.699017 9.14423 1.56127 9.14423H5.47453C7.45729 9.14423 8.77701 10.6944 10.3346 13.1507C8.79973 15.5591 7.48727 17.0752 5.52682 17.0752H1.61348C0.751223 17.0752 0.052124 17.7742 0.052124 18.6365C0.052124 19.4988 0.751141 20.1978 1.61348 20.1978H5.52674C7.45022 20.1978 9.13097 19.4392 10.6649 17.8787C11.2074 17.3268 11.6958 16.7111 12.1521 16.0651C12.6402 16.8008 13.1566 17.5011 13.7263 18.1038C15.0582 19.5129 16.4954 20.1978 18.1201 20.1978H20.193L19.8365 20.5544C19.2268 21.164 19.2268 22.1526 19.8366 22.7623C20.1414 23.0672 20.5409 23.2195 20.9405 23.2195C21.34 23.2195 21.7398 23.0671 22.0446 22.7622L24.1723 20.6344C25.2738 19.5329 25.2739 17.7405 24.1723 16.6386L22.0447 14.5108Z" fill="#323232"/>
</svg>
