<svg width="25" height="26" viewBox="0 0 25 26" fill="none" xmlns="http://www.w3.org/2000/svg">
<path d="M11.0503 5.87525C11.0503 5.39175 10.6584 5 10.175 5H0.875253C0.391919 4.99992 0 5.39167 0 5.87525V24.4746C0 24.9579 0.391919 25.3498 0.875253 25.3498H24.1247C24.608 25.3498 24.9999 24.9579 24.9999 24.4746L24.9998 21.3161C24.9875 19.3409 24.3611 17.7735 23.1371 16.6566C22.0294 15.6458 20.7031 15.2632 19.7857 15.1202C19.6392 15.0975 19.4267 15.0722 19.1577 15.0403C18.2572 14.9334 16.5811 14.7343 15.0488 14.3288C12.8184 13.7384 11.0503 13.0965 11.0503 11.8741C11.0503 10.2081 11.0503 5.87525 11.0503 5.87525ZM23.1936 20.4993H20.5263V17.1054C21.667 17.5159 22.918 18.4379 23.1936 20.4993ZM11.3613 14.7092C11.2669 14.7523 11.1797 14.8109 11.1058 14.8849C10.943 15.0477 10.8494 15.2736 10.8494 15.5038C10.8494 15.7339 10.943 15.9598 11.1058 16.1226C11.2695 16.2854 11.4944 16.3791 11.7247 16.3791C11.955 16.3791 12.1808 16.2854 12.3444 16.1226C12.5072 15.9598 12.6001 15.734 12.6001 15.5038C12.6001 15.4467 12.5944 15.3898 12.5832 15.3341C13.2199 15.6078 13.8545 15.8145 14.3938 15.9646C14.3256 16.0032 14.2621 16.0501 14.2062 16.106C14.0434 16.2688 13.9497 16.4946 13.9497 16.7248C13.9497 16.955 14.0434 17.1809 14.2062 17.3437C14.3691 17.5066 14.5948 17.6002 14.8252 17.6002C15.0553 17.6002 15.2812 17.5066 15.444 17.3437C15.6068 17.1809 15.7005 16.9561 15.7005 16.7248C15.7005 16.556 15.6497 16.3898 15.5587 16.2487C16.7997 16.5139 18.0002 16.6652 18.7758 16.7579V20.4994H1.75067V9.85034H9.24402C9.20859 10.6617 9.19444 11.7305 9.32315 12.2761C9.36212 12.441 9.417 12.5992 9.48291 12.7519C9.46322 12.7505 9.44335 12.7489 9.42357 12.7489C9.19327 12.7489 8.96751 12.8426 8.80463 13.0056C8.64175 13.1691 8.54815 13.394 8.54815 13.6252C8.54815 13.8553 8.64175 14.0812 8.80463 14.244C8.96751 14.407 9.19318 14.5005 9.42357 14.5005C9.6537 14.5005 9.87955 14.407 10.0423 14.244C10.1472 14.1386 10.223 14.0076 10.264 13.8662C10.5832 14.1832 10.9587 14.4629 11.3613 14.7092ZM9.29966 6.7505V8.05278H1.75067V6.7505H9.29966ZM23.2493 23.5993H1.75067V22.2501H23.2493V23.5993Z" fill="#323232"/>
<path d="M5.52543 13.6035C4.18814 13.6035 3.1001 14.6914 3.1001 16.0287C3.1001 17.366 4.18814 18.454 5.52543 18.454C6.86272 18.454 7.95069 17.366 7.95069 16.0287C7.9506 14.6914 6.86264 13.6035 5.52543 13.6035ZM5.52543 16.7033C5.15338 16.7033 4.85077 16.4007 4.85077 16.0286C4.85077 15.6567 5.15338 15.354 5.52543 15.354C5.8974 15.354 6.2001 15.6567 6.2001 16.0286C6.20001 16.4007 5.8974 16.7033 5.52543 16.7033Z" fill="#323232"/>
<path d="M24.8842 9.8737L21.8146 6.80414L24.054 5.51048C24.1852 5.43466 24.2616 5.29062 24.2506 5.13955C24.2397 4.98844 24.1434 4.85688 24.0027 4.80081L14.5422 1.02821C14.3953 0.969582 14.2278 1.00403 14.1159 1.1158C14.0041 1.22755 13.9696 1.3951 14.0281 1.54188L17.8007 11.0024C17.8568 11.1432 17.9884 11.2395 18.1396 11.2504C18.2908 11.2616 18.435 11.185 18.5108 11.0538L19.8041 8.81492L22.8734 11.8841C22.9476 11.9583 23.0483 12 23.1532 12C23.2582 12 23.3588 11.9583 23.4331 11.8841L24.8841 10.4328C25.0386 10.2784 25.0386 10.0281 24.8842 9.8737Z" fill="#323232"/>
</svg>
