<svg width="25" height="25" viewBox="0 0 25 25" fill="none" xmlns="http://www.w3.org/2000/svg">
<path d="M4.42048 4L4.88146 5.28416C4.38207 5.46526 4.04182 5.7863 3.86072 6.24728C3.67962 6.70278 3.58907 7.22961 3.58907 7.82779V9.50708C3.58907 10.0614 3.46559 10.5635 3.21864 11.0135C2.97717 11.4635 2.59302 11.823 2.06618 12.0919C1.53935 12.3553 0.85062 12.487 0 12.487V11.2358C0.521348 11.2358 0.894523 11.0794 1.11953 10.7665C1.35002 10.4537 1.46526 10.0339 1.46526 9.50708V7.82779C1.46526 7.25156 1.55307 6.71375 1.72868 6.21436C1.90978 5.70947 2.21436 5.2677 2.64241 4.88904C3.07595 4.50488 3.66864 4.20854 4.42048 4ZM4.88146 18.8337L4.42048 20.1261C3.66864 19.9121 3.07595 19.613 2.64241 19.2288C2.21436 18.8502 1.90978 18.4084 1.72868 17.9035C1.55307 17.4041 1.46526 16.8663 1.46526 16.2901V14.6108C1.46526 14.2596 1.41313 13.955 1.30886 13.6971C1.21008 13.4391 1.05367 13.2416 0.839644 13.1044C0.625617 12.9617 0.345736 12.8904 0 12.8904V11.6309C0.85062 11.6309 1.53935 11.7653 2.06618 12.0342C2.59302 12.2977 2.97717 12.6544 3.21864 13.1044C3.46559 13.5544 3.58907 14.0565 3.58907 14.6108V16.2901C3.58907 16.6907 3.62748 17.0611 3.70431 17.4014C3.78663 17.7416 3.91834 18.0352 4.09944 18.2822C4.28603 18.5291 4.5467 18.713 4.88146 18.8337Z" fill="#323232"/>
<path d="M6.20678 16.002C6.20678 15.6508 6.32752 15.3572 6.56898 15.1212C6.81594 14.8852 7.14247 14.7672 7.54857 14.7672C7.95467 14.7672 8.27845 14.8852 8.51992 15.1212C8.76688 15.3572 8.89035 15.6508 8.89035 16.002C8.89035 16.3532 8.76688 16.6468 8.51992 16.8828C8.27845 17.1188 7.95467 17.2367 7.54857 17.2367C7.14247 17.2367 6.81594 17.1188 6.56898 16.8828C6.32752 16.6468 6.20678 16.3532 6.20678 16.002Z" fill="#323232"/>
<path d="M11.0965 16.002C11.0965 15.6508 11.2172 15.3572 11.4587 15.1212C11.7056 14.8852 12.0322 14.7672 12.4383 14.7672C12.8444 14.7672 13.1681 14.8852 13.4096 15.1212C13.6566 15.3572 13.78 15.6508 13.78 16.002C13.78 16.3532 13.6566 16.6468 13.4096 16.8828C13.1681 17.1188 12.8444 17.2367 12.4383 17.2367C12.0322 17.2367 11.7056 17.1188 11.4587 16.8828C11.2172 16.6468 11.0965 16.3532 11.0965 16.002Z" fill="#323232"/>
<path d="M15.9862 16.002C15.9862 15.6508 16.1069 15.3572 16.3484 15.1212C16.5953 14.8852 16.9219 14.7672 17.328 14.7672C17.7341 14.7672 18.0578 14.8852 18.2993 15.1212C18.5463 15.3572 18.6697 15.6508 18.6697 16.002C18.6697 16.3532 18.5463 16.6468 18.2993 16.8828C18.0578 17.1188 17.7341 17.2367 17.328 17.2367C16.9219 17.2367 16.5953 17.1188 16.3484 16.8828C16.1069 16.6468 15.9862 16.3532 15.9862 16.002Z" fill="#323232"/>
<path d="M20.1185 5.28416L20.5795 4C21.3368 4.20854 21.9295 4.50488 22.3576 4.88904C22.7856 5.2677 23.0875 5.70947 23.2631 6.21436C23.4442 6.71375 23.5347 7.25156 23.5347 7.82779V9.50708C23.5347 9.8583 23.5841 10.1629 23.6829 10.4208C23.7817 10.6787 23.9381 10.879 24.1521 11.0217C24.3716 11.1644 24.6543 11.2358 25 11.2358V12.4541C24.1494 12.4541 23.4607 12.3251 22.9338 12.0672C22.407 11.8092 22.0201 11.458 21.7731 11.0135C21.5262 10.5635 21.4027 10.0614 21.4027 9.50708V7.82779C21.4027 7.42718 21.3643 7.05674 21.2875 6.7165C21.2161 6.37625 21.0871 6.08265 20.9006 5.83569C20.714 5.58874 20.4533 5.4049 20.1185 5.28416ZM20.5795 20.1261L20.1185 18.8337C20.4533 18.713 20.714 18.5291 20.9006 18.2822C21.0871 18.0352 21.2161 17.7416 21.2875 17.4014C21.3643 17.0611 21.4027 16.6907 21.4027 16.2901V14.6108C21.4027 14.0565 21.5262 13.5571 21.7731 13.1126C22.0201 12.6681 22.407 12.3169 22.9338 12.0589C23.4607 11.7955 24.1494 11.6638 25 11.6638V12.8904C24.4841 12.8904 24.111 13.0468 23.8805 13.3596C23.65 13.6724 23.5347 14.0895 23.5347 14.6108V16.2901C23.5347 16.8663 23.4442 17.4041 23.2631 17.9035C23.0875 18.4084 22.7856 18.8502 22.3576 19.2288C21.9295 19.613 21.3368 19.9121 20.5795 20.1261Z" fill="#323232"/>
</svg>
