<svg width="25" height="25" viewBox="0 0 25 25" fill="none" xmlns="http://www.w3.org/2000/svg">
<g clip-path="url(#clip0_8910_35594)">
<path fill-rule="evenodd" clip-rule="evenodd" d="M0 3.5C0 2.67157 0.671573 2 1.5 2H12.5C13.3284 2 14 2.67157 14 3.5C14 4.32843 13.3284 5 12.5 5H1.5C0.671573 5 0 4.32843 0 3.5Z" fill="#323232"/>
<path fill-rule="evenodd" clip-rule="evenodd" d="M9 8.5C9 7.67157 9.67157 7 10.5 7H14.5C15.3284 7 16 7.67157 16 8.5C16 9.32843 15.3284 10 14.5 10H10.5C9.67157 10 9 9.32843 9 8.5Z" fill="#323232"/>
<path fill-rule="evenodd" clip-rule="evenodd" d="M15 3.5C15 2.67157 15.6716 2 16.5 2L19.5 2C20.3284 2 21 2.67157 21 3.5C21 4.32843 20.3284 5 19.5 5L16.5 5C15.6716 5 15 4.32843 15 3.5Z" fill="#323232"/>
<path fill-rule="evenodd" clip-rule="evenodd" d="M2 8.5C2 7.67157 2.67157 7 3.5 7L6.5 7C7.32843 7 8 7.67157 8 8.5C8 9.32843 7.32843 10 6.5 10L3.5 10C2.67157 10 2 9.32843 2 8.5Z" fill="#323232"/>
<path fill-rule="evenodd" clip-rule="evenodd" d="M4 13.5C4 12.6716 4.67157 12 5.5 12L13.5 12C14.3284 12 15 12.6716 15 13.5C15 14.3284 14.3284 15 13.5 15L5.5 15C4.67157 15 4 14.3284 4 13.5Z" fill="#323232"/>
<path fill-rule="evenodd" clip-rule="evenodd" d="M4 23.5C4 22.6716 4.67157 22 5.5 22L13.5 22C14.3284 22 15 22.6716 15 23.5C15 24.3284 14.3284 25 13.5 25L5.5 25C4.67157 25 4 24.3284 4 23.5Z" fill="#323232"/>
<path fill-rule="evenodd" clip-rule="evenodd" d="M7 18.5C7 17.6716 7.67157 17 8.5 17L9.5 17C10.3284 17 11 17.6716 11 18.5C11 19.3284 10.3284 20 9.5 20L8.5 20C7.67157 20 7 19.3284 7 18.5Z" fill="#323232"/>
<path fill-rule="evenodd" clip-rule="evenodd" d="M12 18.5C12 17.6716 12.6716 17 13.5 17L16.5 17C17.3284 17 18 17.6716 18 18.5C18 19.3284 17.3284 20 16.5 20L13.5 20C12.6716 20 12 19.3284 12 18.5Z" fill="#323232"/>
<path fill-rule="evenodd" clip-rule="evenodd" d="M16 13.5C16 12.6716 16.6716 12 17.5 12L18.5 12C19.3284 12 20 12.6716 20 13.5C20 14.3284 19.3284 15 18.5 15L17.5 15C16.6716 15 16 14.3284 16 13.5Z" fill="#323232"/>
<path fill-rule="evenodd" clip-rule="evenodd" d="M16 23.5C16 22.6716 16.6716 22 17.5 22L18.5 22C19.3284 22 20 22.6716 20 23.5C20 24.3284 19.3284 25 18.5 25L17.5 25C16.6716 25 16 24.3284 16 23.5Z" fill="#323232"/>
<path fill-rule="evenodd" clip-rule="evenodd" d="M19 18.5C19 17.6716 19.6716 17 20.5 17L21.5 17C22.3284 17 23 17.6716 23 18.5C23 19.3284 22.3284 20 21.5 20L20.5 20C19.6716 20 19 19.3284 19 18.5Z" fill="#323232"/>
</g>
<defs>
<clipPath id="clip0_8910_35594">
<rect width="25" height="25" fill="white"/>
</clipPath>
</defs>
</svg>
