<svg width="25" height="25" viewBox="0 0 25 25" fill="none" xmlns="http://www.w3.org/2000/svg">
<path d="M24.9998 14.2862V12.5005H19.6426V21.4292H21.4283V17.8577H24.1069V16.072H21.4283V14.2862H24.9998Z" fill="#323232"/>
<path d="M15.1799 21.4292H11.6084V12.5005H15.1799C15.8901 12.5013 16.5709 12.7837 17.0731 13.2859C17.5753 13.7881 17.8577 14.4689 17.8585 15.1791V18.7506C17.8577 19.4608 17.5753 20.1416 17.0731 20.6438C16.5709 21.146 15.8901 21.4284 15.1799 21.4292ZM13.3941 19.6435H15.1799C15.4166 19.6432 15.6436 19.549 15.811 19.3817C15.9783 19.2143 16.0725 18.9873 16.0728 18.7506V15.1791C16.0725 14.9424 15.9783 14.7154 15.811 14.548C15.6436 14.3806 15.4166 14.2865 15.1799 14.2862H13.3941V19.6435Z" fill="#323232"/>
<path d="M8.03662 12.5005H3.57227V21.4292H5.35801V18.7506H8.03662C8.51003 18.7499 8.96387 18.5616 9.29863 18.2269C9.63338 17.8921 9.82172 17.4383 9.82236 16.9648V14.2862C9.82182 13.8128 9.6335 13.3589 9.29873 13.0241C8.96396 12.6893 8.51006 12.501 8.03662 12.5005ZM5.35801 16.9648V14.2862H8.03662L8.03751 16.9648H5.35801Z" fill="#323232"/>
<path d="M17.8574 10.7148V7.14327C17.8606 7.02592 17.8383 6.90927 17.7921 6.80137C17.7458 6.69347 17.6767 6.59688 17.5896 6.51827L11.3395 0.268168C11.2609 0.18096 11.1643 0.111848 11.0564 0.0656018C10.9485 0.0193559 10.8318 -0.0029217 10.7145 0.000306901H1.78574C1.31256 0.00169664 0.859158 0.190283 0.524567 0.524874C0.189976 0.859465 0.00138974 1.31287 0 1.78605V23.215C0 23.6886 0.18814 24.1428 0.523032 24.4777C0.857923 24.8126 1.31213 25.0007 1.78574 25.0007H16.0717V23.215H1.78574V1.78605H8.92871V7.14327C8.9301 7.61646 9.11869 8.06986 9.45328 8.40445C9.78787 8.73904 10.2413 8.92763 10.7145 8.92902H16.0717V10.7148H17.8574ZM10.7145 7.14327V2.1432L15.7145 7.14327H10.7145Z" fill="#323232"/>
</svg>
