<svg width="25" height="25" viewBox="0 0 25 25" fill="none" xmlns="http://www.w3.org/2000/svg">
<path d="M19.8576 19.6428V23.2143H5.57185V19.6428H3.78613V23.2143C3.78613 23.6879 3.97427 24.1421 4.30916 24.477C4.64405 24.8118 5.09825 25 5.57185 25H19.8576C20.3312 25 20.7854 24.8118 21.1203 24.477C21.4552 24.1421 21.6433 23.6879 21.6433 23.2143V19.6428H19.8576Z" fill="#323232"/>
<path d="M17.1786 16.9644L15.9161 15.7019L13.6072 18.0108V10.7144H11.8214V18.0108L9.5125 15.7019L8.25 16.9644L12.7143 21.4287L17.1786 16.9644Z" fill="#323232"/>
<path d="M23.4294 1.78572V0H18.0723V8.92861H19.858V5.35716H22.5366V3.57144H19.858V1.78572H23.4294Z" fill="#323232"/>
<path d="M13.6076 8.92861H10.0361V0H13.6076C14.3177 0.000779895 14.9986 0.283237 15.5008 0.7854C16.0029 1.28756 16.2854 1.96842 16.2862 2.67858V6.25002C16.2854 6.96019 16.0029 7.64104 15.5008 8.14321C14.9986 8.64537 14.3177 8.92783 13.6076 8.92861ZM11.8219 7.14289H13.6076C13.8443 7.14263 14.0712 7.04847 14.2386 6.88109C14.406 6.7137 14.5002 6.48675 14.5004 6.25002V2.67858C14.5002 2.44186 14.406 2.21491 14.2386 2.04752C14.0712 1.88013 13.8443 1.78598 13.6076 1.78572H11.8219V7.14289Z" fill="#323232"/>
<path d="M6.4643 0H2V8.92861H3.78572V6.25002H6.4643C6.93771 6.24939 7.39155 6.06104 7.72629 5.72629C8.06104 5.39155 8.24939 4.93771 8.25002 4.4643V1.78572C8.24948 1.31229 8.06117 0.858396 7.7264 0.523626C7.39163 0.188856 6.93774 0.000543514 6.4643 0ZM3.78572 4.4643V1.78572H6.4643L6.4652 4.4643H3.78572Z" fill="#323232"/>
</svg>
