<svg width="25" height="25" viewBox="0 0 25 25" fill="none" xmlns="http://www.w3.org/2000/svg">
<path d="M23.272 1.77265V0H17.9541V8.86324H19.7268V5.31795H22.3857V3.5453H19.7268V1.77265H23.272Z" fill="#323232"/>
<path d="M13.5219 8.86324H9.97656V0H13.5219C14.2268 0.000774186 14.9027 0.281164 15.4012 0.77965C15.8997 1.27814 16.1801 1.95401 16.1808 2.65897V6.20427C16.1801 6.90924 15.8997 7.58511 15.4012 8.08359C14.9027 8.58208 14.2268 8.86247 13.5219 8.86324ZM11.7492 7.09059H13.5219C13.7568 7.09034 13.9821 6.99687 14.1483 6.83071C14.3145 6.66455 14.4079 6.43926 14.4082 6.20427V2.65897C14.4079 2.42398 14.3145 2.19869 14.1483 2.03253C13.9821 1.86637 13.7568 1.77291 13.5219 1.77265H11.7492V7.09059Z" fill="#323232"/>
<path d="M6.43162 0H2V8.86324H3.77265V6.20427H6.43162C6.90156 6.20364 7.35208 6.01667 7.68437 5.68437C8.01667 5.35208 8.20364 4.90156 8.20427 4.43162V1.77265C8.20373 1.30268 8.0168 0.852112 7.68448 0.519793C7.35216 0.187473 6.90159 0.000539535 6.43162 0ZM3.77265 4.43162V1.77265H6.43162L6.43251 4.43162H3.77265Z" fill="#323232"/>
<path d="M23 17.375C23 14.4119 20.5888 12 17.625 12C16.883 12 16.2812 12.601 16.2812 13.3437C16.2812 14.0865 16.883 14.6875 17.625 14.6875C19.1071 14.6875 20.3125 15.8922 20.3125 17.375C20.3125 18.8578 19.1071 20.0625 17.625 20.0625L13.5937 20.0625C12.1116 20.0625 10.9062 18.8578 10.9062 17.375L10.9062 16.0312L8.21875 16.0312L8.21875 17.375C8.21875 20.3381 10.6299 22.75 13.5937 22.75L17.625 22.75C20.5888 22.75 23 20.3381 23 17.375Z" fill="#323232"/>
<path d="M8.21875 21.4062C8.21875 20.6636 7.617 20.0625 6.87491 20.0625C5.39288 20.0625 4.18741 18.8578 4.18741 17.375C4.18741 15.8922 5.39289 14.6875 6.87492 14.6875L10.9062 14.6875C12.3884 14.6875 13.5937 15.8922 13.5937 17.375L13.5937 18.7187L16.2812 18.7187L16.2812 17.375C16.2812 14.4119 13.8701 12 10.9062 12L6.87492 12C3.91119 12 1.49992 14.4119 1.49991 17.375C1.49991 20.3381 3.91119 22.75 6.87491 22.75C7.617 22.75 8.21875 22.149 8.21875 21.4062Z" fill="#323232"/>
</svg>
