<svg width="25" height="25" viewBox="0 0 25 25" fill="none" xmlns="http://www.w3.org/2000/svg">
<path d="M20.4646 10.372V9H16.3486V15.86H17.7206V13.116H19.7786V11.744H17.7206V10.372H20.4646Z" fill="#323232"/>
<path d="M12.9169 15.86H10.1729V9H12.9169C13.4625 9.0006 13.9856 9.21762 14.3714 9.60344C14.7572 9.98926 14.9743 10.5124 14.9749 11.058V13.802C14.9743 14.3476 14.7572 14.8707 14.3714 15.2566C13.9856 15.6424 13.4625 15.8594 12.9169 15.86ZM11.5449 14.488H12.9169C13.0987 14.4878 13.2731 14.4155 13.4017 14.2869C13.5303 14.1582 13.6027 13.9839 13.6029 13.802V11.058C13.6027 10.8761 13.5303 10.7018 13.4017 10.5731C13.2731 10.4445 13.0987 10.3722 12.9169 10.372H11.5449V14.488Z" fill="#323232"/>
<path d="M7.43 9H4V15.86H5.372V13.802H7.43C7.79373 13.8015 8.14242 13.6568 8.39961 13.3996C8.6568 13.1424 8.80151 12.7937 8.802 12.43V10.372C8.80158 10.0083 8.6569 9.65952 8.39969 9.40231C8.14248 9.1451 7.79375 9.00042 7.43 9ZM5.372 12.43V10.372H7.43L7.43069 12.43H5.372Z" fill="#323232"/>
<path fill-rule="evenodd" clip-rule="evenodd" d="M22 2H3C2.44772 2 2 2.44772 2 3V22C2 22.5523 2.44772 23 3 23H22C22.5523 23 23 22.5523 23 22V3C23 2.44772 22.5523 2 22 2ZM3 0C1.34315 0 0 1.34315 0 3V22C0 23.6569 1.34315 25 3 25H22C23.6569 25 25 23.6569 25 22V3C25 1.34315 23.6569 0 22 0H3Z" fill="#323232"/>
</svg>
