<svg width="25" height="26" viewBox="0 0 25 26" fill="none" xmlns="http://www.w3.org/2000/svg">
<path d="M23 2.58336V0.833374H17.75V9.58329H19.5V6.08333H22.125V4.33334H19.5V2.58336H23Z" fill="#323232"/>
<path d="M13.374 9.58329H9.87402V0.833374H13.374C14.0699 0.834138 14.7372 1.11094 15.2293 1.60306C15.7214 2.09517 15.9982 2.7624 15.999 3.45835V6.95832C15.9982 7.65427 15.7214 8.3215 15.2293 8.81361C14.7372 9.30573 14.0699 9.58253 13.374 9.58329ZM11.624 7.83331H13.374C13.606 7.83306 13.8284 7.74079 13.9924 7.57675C14.1565 7.41271 14.2487 7.1903 14.249 6.95832V3.45835C14.2487 3.22637 14.1565 3.00396 13.9924 2.83992C13.8284 2.67588 13.606 2.58361 13.374 2.58336H11.624V7.83331Z" fill="#323232"/>
<path d="M6.37496 0.833374H2V9.58329H3.74998V6.95832H6.37496C6.83889 6.95769 7.28365 6.77312 7.6117 6.44507C7.93975 6.11702 8.12432 5.67227 8.12494 5.20833V2.58336C8.12441 2.1194 7.93987 1.67459 7.6118 1.34652C7.28373 1.01845 6.83892 0.833907 6.37496 0.833374ZM3.74998 5.20833V2.58336H6.37496L6.37584 5.20833H3.74998Z" fill="#323232"/>
<rect x="2" y="13" width="21" height="2" fill="#323232"/>
<path d="M7.03456 23.312H8.72975C8.69573 23.8357 8.54266 24.3006 8.27052 24.7067C8.00216 25.1129 7.62608 25.43 7.14228 25.658C6.66226 25.886 6.08396 26 5.4074 26C4.87824 26 4.40389 25.9145 3.98434 25.7435C3.56479 25.5689 3.20572 25.3195 2.90713 24.9953C2.61231 24.6711 2.38742 24.2792 2.23245 23.8196C2.07748 23.3601 2 22.8452 2 22.2752V21.7355C2 21.1654 2.07937 20.6506 2.23812 20.191C2.40065 19.7279 2.63121 19.3342 2.92981 19.01C3.23218 18.6858 3.59314 18.4364 4.01269 18.2619C4.43224 18.0873 4.90092 18 5.41874 18C6.10664 18 6.68683 18.1176 7.15929 18.3527C7.63553 18.5878 8.00405 18.912 8.26485 19.3253C8.52943 19.7386 8.68818 20.2089 8.74109 20.7361H7.04023C7.02133 20.4226 6.95518 20.1572 6.84179 19.9399C6.7284 19.719 6.55643 19.5533 6.32586 19.4429C6.09908 19.3289 5.79671 19.2719 5.41874 19.2719C5.13526 19.2719 4.88769 19.3218 4.67603 19.4215C4.46436 19.5213 4.28672 19.6727 4.14309 19.8758C3.99946 20.0788 3.89174 20.3353 3.81992 20.6453C3.75189 20.9517 3.71787 21.3115 3.71787 21.7248V22.2752C3.71787 22.6778 3.75 23.0323 3.81425 23.3387C3.87851 23.6415 3.97678 23.898 4.10907 24.1082C4.24514 24.3149 4.41901 24.4716 4.63067 24.5785C4.84611 24.6818 5.10502 24.7335 5.4074 24.7335C5.76269 24.7335 6.05562 24.68 6.28618 24.5731C6.51674 24.4663 6.69249 24.3077 6.81345 24.0975C6.93818 23.8873 7.01188 23.6255 7.03456 23.312Z" fill="#323232"/>
<path d="M14.1442 23.857C14.1442 23.7181 14.1215 23.5934 14.0761 23.483C14.0346 23.369 13.9552 23.2656 13.838 23.173C13.7208 23.0768 13.5564 22.9824 13.3448 22.8898C13.1331 22.7971 12.8591 22.701 12.5227 22.6012C12.1485 22.4872 11.7932 22.3589 11.4568 22.2164C11.1242 22.0739 10.8294 21.9083 10.5724 21.7194C10.3191 21.5271 10.1188 21.3044 9.97138 21.0514C9.82775 20.7985 9.75594 20.5046 9.75594 20.1697C9.75594 19.8455 9.83153 19.5515 9.98272 19.2879C10.1339 19.0207 10.3456 18.7927 10.6177 18.6039C10.8898 18.4115 11.2111 18.2636 11.5815 18.1603C11.9557 18.057 12.3658 18.0053 12.8118 18.0053C13.4204 18.0053 13.9514 18.1087 14.405 18.3153C14.8585 18.5219 15.21 18.8052 15.4595 19.165C15.7127 19.5248 15.8394 19.9363 15.8394 20.3995H14.1498C14.1498 20.1715 14.0988 19.9719 13.9968 19.8009C13.8985 19.6264 13.7473 19.4892 13.5432 19.3894C13.3429 19.2897 13.0896 19.2398 12.7835 19.2398C12.4887 19.2398 12.243 19.2826 12.0464 19.3681C11.8499 19.45 11.7025 19.5622 11.6042 19.7047C11.5059 19.8437 11.4568 20.0004 11.4568 20.175C11.4568 20.3068 11.4908 20.4262 11.5589 20.5331C11.6307 20.6399 11.7365 20.7397 11.8764 20.8323C12.0162 20.925 12.1882 21.0122 12.3923 21.0942C12.5964 21.1761 12.8326 21.2563 13.101 21.3347C13.5508 21.4629 13.9457 21.6072 14.2859 21.7675C14.6299 21.9279 14.9171 22.1078 15.1477 22.3073C15.3782 22.5068 15.5521 22.733 15.6693 22.986C15.7864 23.2389 15.845 23.5257 15.845 23.8464C15.845 24.1848 15.7751 24.4876 15.6353 24.7548C15.4954 25.022 15.2932 25.2483 15.0286 25.4335C14.764 25.6188 14.4484 25.7595 14.0818 25.8557C13.7152 25.9519 13.3051 26 12.8515 26C12.4433 26 12.0408 25.9501 11.6439 25.8504C11.247 25.747 10.8861 25.5921 10.561 25.3854C10.2397 25.1788 9.98272 24.9152 9.78996 24.5945C9.59719 24.2739 9.50081 23.8945 9.50081 23.4562H11.2073C11.2073 23.6985 11.247 23.9034 11.3264 24.0708C11.4058 24.2383 11.5173 24.3736 11.6609 24.477C11.8083 24.5803 11.9822 24.6551 12.1825 24.7014C12.3866 24.7477 12.6096 24.7709 12.8515 24.7709C13.1463 24.7709 13.3882 24.7317 13.5772 24.6533C13.77 24.5749 13.9117 24.4663 14.0024 24.3273C14.0969 24.1884 14.1442 24.0316 14.1442 23.857Z" fill="#323232"/>
<path d="M21.2991 23.857C21.2991 23.7181 21.2765 23.5934 21.2311 23.483C21.1895 23.369 21.1102 23.2656 20.993 23.173C20.8758 23.0768 20.7114 22.9824 20.4997 22.8898C20.2881 22.7971 20.014 22.701 19.6776 22.6012C19.3035 22.4872 18.9482 22.3589 18.6118 22.2164C18.2792 22.0739 17.9843 21.9083 17.7273 21.7194C17.4741 21.5271 17.2738 21.3044 17.1264 21.0514C16.9827 20.7985 16.9109 20.5046 16.9109 20.1697C16.9109 19.8455 16.9865 19.5515 17.1377 19.2879C17.2889 19.0207 17.5005 18.7927 17.7727 18.6039C18.0448 18.4115 18.3661 18.2636 18.7365 18.1603C19.1107 18.057 19.5208 18.0053 19.9668 18.0053C20.5753 18.0053 21.1064 18.1087 21.5599 18.3153C22.0135 18.5219 22.365 18.8052 22.6145 19.165C22.8677 19.5248 22.9943 19.9363 22.9943 20.3995H21.3048C21.3048 20.1715 21.2538 19.9719 21.1517 19.8009C21.0535 19.6264 20.9023 19.4892 20.6982 19.3894C20.4978 19.2897 20.2446 19.2398 19.9384 19.2398C19.6436 19.2398 19.3979 19.2826 19.2014 19.3681C19.0049 19.45 18.8575 19.5622 18.7592 19.7047C18.6609 19.8437 18.6118 20.0004 18.6118 20.175C18.6118 20.3068 18.6458 20.4262 18.7138 20.5331C18.7856 20.6399 18.8915 20.7397 19.0313 20.8323C19.1712 20.925 19.3431 21.0122 19.5472 21.0942C19.7514 21.1761 19.9876 21.2563 20.2559 21.3347C20.7057 21.4629 21.1007 21.6072 21.4409 21.7675C21.7848 21.9279 22.0721 22.1078 22.3026 22.3073C22.5332 22.5068 22.7071 22.733 22.8242 22.986C22.9414 23.2389 23 23.5257 23 23.8464C23 24.1848 22.9301 24.4876 22.7902 24.7548C22.6504 25.022 22.4482 25.2483 22.1836 25.4335C21.919 25.6188 21.6034 25.7595 21.2368 25.8557C20.8701 25.9519 20.46 26 20.0065 26C19.5983 26 19.1957 25.9501 18.7989 25.8504C18.402 25.747 18.041 25.5921 17.716 25.3854C17.3947 25.1788 17.1377 24.9152 16.9449 24.5945C16.7522 24.2739 16.6558 23.8945 16.6558 23.4562H18.3623C18.3623 23.6985 18.402 23.9034 18.4814 24.0708C18.5607 24.2383 18.6722 24.3736 18.8159 24.477C18.9633 24.5803 19.1371 24.6551 19.3375 24.7014C19.5416 24.7477 19.7646 24.7709 20.0065 24.7709C20.3013 24.7709 20.5432 24.7317 20.7322 24.6533C20.9249 24.5749 21.0667 24.4663 21.1574 24.3273C21.2519 24.1884 21.2991 24.0316 21.2991 23.857Z" fill="#323232"/>
</svg>
