<svg width="26" height="25" viewBox="0 0 26 25" fill="none" xmlns="http://www.w3.org/2000/svg">
<path d="M12.0503 2.87525C12.0503 2.39175 11.6584 2 11.175 2H1.87525C1.39192 1.99992 1 2.39167 1 2.87525V21.4746C1 21.9579 1.39192 22.3498 1.87525 22.3498H25.1247C25.608 22.3498 25.9999 21.9579 25.9999 21.4746L25.9998 18.3161C25.9875 16.3409 25.3611 14.7735 24.1371 13.6566C23.0294 12.6458 21.7031 12.2632 20.7857 12.1202C20.6392 12.0975 20.4267 12.0722 20.1577 12.0403C19.2572 11.9334 17.5811 11.7343 16.0488 11.3288C13.8184 10.7384 12.0503 10.0965 12.0503 8.87407C12.0503 7.20808 12.0503 2.87525 12.0503 2.87525ZM24.1936 17.4993H21.5263V14.1054C22.667 14.5159 23.918 15.4379 24.1936 17.4993ZM12.3613 11.7092C12.2669 11.7523 12.1797 11.8109 12.1058 11.8849C11.943 12.0477 11.8494 12.2736 11.8494 12.5038C11.8494 12.7339 11.943 12.9598 12.1058 13.1226C12.2695 13.2854 12.4944 13.3791 12.7247 13.3791C12.955 13.3791 13.1808 13.2854 13.3444 13.1226C13.5072 12.9598 13.6001 12.734 13.6001 12.5038C13.6001 12.4467 13.5944 12.3898 13.5832 12.3341C14.2199 12.6078 14.8545 12.8145 15.3938 12.9646C15.3256 13.0032 15.2621 13.0501 15.2062 13.106C15.0434 13.2688 14.9497 13.4946 14.9497 13.7248C14.9497 13.955 15.0434 14.1809 15.2062 14.3437C15.3691 14.5066 15.5948 14.6002 15.8252 14.6002C16.0553 14.6002 16.2812 14.5066 16.444 14.3437C16.6068 14.1809 16.7005 13.9561 16.7005 13.7248C16.7005 13.556 16.6497 13.3898 16.5587 13.2487C17.7997 13.5139 19.0002 13.6652 19.7758 13.7579V17.4994H2.75067V6.85034H10.244C10.2086 7.6617 10.1944 8.73047 10.3231 9.27609C10.3621 9.44099 10.417 9.59916 10.4829 9.75185C10.4632 9.7505 10.4434 9.74891 10.4236 9.74891C10.1933 9.74891 9.96751 9.84259 9.80463 10.0056C9.64175 10.1691 9.54815 10.394 9.54815 10.6252C9.54815 10.8553 9.64175 11.0812 9.80463 11.244C9.96751 11.407 10.1932 11.5005 10.4236 11.5005C10.6537 11.5005 10.8795 11.407 11.0423 11.244C11.1472 11.1386 11.223 11.0076 11.264 10.8662C11.5832 11.1832 11.9587 11.4629 12.3613 11.7092ZM10.2997 3.7505V5.05278H2.75067V3.7505H10.2997ZM24.2493 20.5993H2.75067V19.2501H24.2493V20.5993Z" fill="#323232"/>
<path d="M6.52543 10.6035C5.18814 10.6035 4.1001 11.6914 4.1001 13.0287C4.1001 14.366 5.18814 15.454 6.52543 15.454C7.86272 15.454 8.95069 14.366 8.95069 13.0287C8.9506 11.6914 7.86264 10.6035 6.52543 10.6035ZM6.52543 13.7033C6.15338 13.7033 5.85077 13.4007 5.85077 13.0286C5.85077 12.6567 6.15338 12.354 6.52543 12.354C6.8974 12.354 7.2001 12.6567 7.2001 13.0286C7.20001 13.4007 6.8974 13.7033 6.52543 13.7033Z" fill="#323232"/>
</svg>
