<svg width="25" height="25" viewBox="0 0 25 25" fill="none" xmlns="http://www.w3.org/2000/svg">
<path fill-rule="evenodd" clip-rule="evenodd" d="M4 3.125C4 1.39911 5.4042 0 7.13636 0H19.6818C21.414 0 22.8182 1.39911 22.8182 3.125V21.875C22.8182 23.6009 21.414 25 19.6818 25H7.13636C5.4042 25 4 23.6009 4 21.875V3.125ZM7.13636 2.08333C6.55897 2.08333 6.09091 2.5497 6.09091 3.125V21.875C6.09091 22.4503 6.55897 22.9167 7.13636 22.9167H19.6818C20.2592 22.9167 20.7273 22.4503 20.7273 21.875V3.125C20.7273 2.5497 20.2592 2.08333 19.6818 2.08333H7.13636Z" fill="#323232"/>
<path d="M12.9781 13.3465C12.9781 13.1802 12.837 13.0454 12.663 13.0454H9.31509C9.14109 13.0454 9 13.1801 9 13.3465V19.7443C9 19.9106 9.14109 20.0454 9.31509 20.0454H17.6849C17.8589 20.0454 18 19.9106 18 19.7443L17.9999 18.6579C17.9955 17.9784 17.77 17.4393 17.3294 17.0551C16.9306 16.7074 16.4531 16.5758 16.1229 16.5266C16.0701 16.5188 15.9936 16.5101 15.8968 16.4991C15.5726 16.4623 14.9692 16.3939 14.4176 16.2544C13.6146 16.0513 12.9781 15.8305 12.9781 15.41C12.9781 14.8369 12.9781 13.3465 12.9781 13.3465ZM17.3497 18.3769H16.3895V17.2095C16.8001 17.3507 17.2505 17.6678 17.3497 18.3769ZM13.0901 16.3852C13.0561 16.4 13.0247 16.4202 12.9981 16.4457C12.9395 16.5017 12.9058 16.5793 12.9058 16.6585C12.9058 16.7377 12.9395 16.8154 12.9981 16.8714C13.057 16.9274 13.138 16.9596 13.2209 16.9596C13.3038 16.9596 13.3851 16.9274 13.444 16.8714C13.5026 16.8154 13.536 16.7377 13.536 16.6585C13.536 16.6389 13.534 16.6193 13.53 16.6002C13.7592 16.6943 13.9877 16.7654 14.1818 16.817C14.1572 16.8303 14.1344 16.8465 14.1143 16.8657C14.0557 16.9217 14.0219 16.9994 14.0219 17.0786C14.0219 17.1577 14.0556 17.2354 14.1143 17.2914C14.1729 17.3475 14.2541 17.3797 14.3371 17.3797C14.4199 17.3797 14.5013 17.3475 14.5599 17.2914C14.6185 17.2354 14.6522 17.1581 14.6522 17.0786C14.6522 17.0205 14.6339 16.9633 14.6011 16.9148C15.0479 17.006 15.4801 17.058 15.7593 17.0899V18.3769H9.63024V14.7138H12.3279C12.3151 14.9929 12.31 15.3606 12.3563 15.5483C12.3704 15.605 12.3901 15.6594 12.4139 15.7119C12.4068 15.7115 12.3996 15.7109 12.3925 15.7109C12.3096 15.7109 12.2283 15.7431 12.1697 15.7992C12.111 15.8554 12.0773 15.9328 12.0773 16.0123C12.0773 16.0915 12.111 16.1692 12.1697 16.2252C12.2283 16.2813 12.3096 16.3134 12.3925 16.3134C12.4753 16.3134 12.5566 16.2813 12.6153 16.2252C12.653 16.1889 12.6803 16.1439 12.695 16.0952C12.81 16.2043 12.9451 16.3005 13.0901 16.3852ZM12.3479 13.6476V14.0955H9.63024V13.6476H12.3479ZM17.3698 19.4433H9.63024V18.9791H17.3698V19.4433Z" fill="#323232"/>
<path fill-rule="evenodd" clip-rule="evenodd" d="M16.5938 6.59894H9.71875V5.74268H16.5938V6.59894Z" fill="#323232"/>
<path fill-rule="evenodd" clip-rule="evenodd" d="M17.4531 8.31158H9.71875V7.45532H17.4531V8.31158Z" fill="#323232"/>
<path fill-rule="evenodd" clip-rule="evenodd" d="M18.0833 4.90794H8.91667V9.29628H18.0833V4.90794ZM8 4.03027V10.1739H19V4.03027H8Z" fill="#323232"/>
</svg>
