<svg width="25" height="25" viewBox="0 0 25 25" fill="none" xmlns="http://www.w3.org/2000/svg">
<path fill-rule="evenodd" clip-rule="evenodd" d="M0 8.33333C0 3.73096 3.73096 0 8.33333 0H16.6667C21.2691 0 25 3.73096 25 8.33333V16.6667C25 21.2691 21.2691 25 16.6667 25H8.33333C3.73096 25 0 21.2691 0 16.6667V8.33333ZM5.2085 9.37504C5.2085 8.79975 5.67487 8.33337 6.25016 8.33337H12.5002C14.2261 8.33337 15.6252 9.73249 15.6252 11.4584V15.625C15.6252 16.2004 15.1588 16.6667 14.5835 16.6667H8.3335C6.60761 16.6667 5.2085 15.2676 5.2085 13.5417V9.37504ZM16.6614 10.8692C16.3291 11.249 16.146 11.7365 16.146 12.2411V12.7589C16.146 13.2635 16.3291 13.751 16.6614 14.1308L18.4227 16.1435C18.8977 16.6864 19.7918 16.3505 19.7918 15.6291V9.37095C19.7918 8.64957 18.8977 8.3136 18.4227 8.8565L16.6614 10.8692Z" fill="#323232"/>
</svg>
