<svg width="25" height="25" viewBox="0 0 25 25" fill="none" xmlns="http://www.w3.org/2000/svg">
<path fill-rule="evenodd" clip-rule="evenodd" d="M12.1754 10.524C13.9698 10.524 15.4244 9.06937 15.4244 7.275C15.4244 5.48063 13.9698 4.026 12.1754 4.026C10.381 4.026 8.92639 5.48063 8.92639 7.275C8.92639 9.06937 10.381 10.524 12.1754 10.524ZM12.1754 11.55C14.5364 11.55 16.4504 9.63602 16.4504 7.275C16.4504 4.91398 14.5364 3 12.1754 3C9.81437 3 7.90039 4.91398 7.90039 7.275C7.90039 9.63602 9.81437 11.55 12.1754 11.55Z" fill="#323232"/>
<path d="M14.0559 7.27504C14.0559 8.31389 13.2138 9.15604 12.1749 9.15604C11.1361 9.15604 10.2939 8.31389 10.2939 7.27504C10.2939 6.2362 11.1361 5.39404 12.1749 5.39404C13.2138 5.39404 14.0559 6.2362 14.0559 7.27504Z" fill="#323232"/>
<path fill-rule="evenodd" clip-rule="evenodd" d="M12.1754 20.974C13.9698 20.974 15.4244 19.5193 15.4244 17.725C15.4244 15.9306 13.9698 14.476 12.1754 14.476C10.381 14.476 8.92639 15.9306 8.92639 17.725C8.92639 19.5193 10.381 20.974 12.1754 20.974ZM12.1754 22C14.5364 22 16.4504 20.086 16.4504 17.725C16.4504 15.3639 14.5364 13.45 12.1754 13.45C9.81437 13.45 7.90039 15.3639 7.90039 17.725C7.90039 20.086 9.81437 22 12.1754 22Z" fill="#323232"/>
<path d="M14.0559 17.725C14.0559 18.7638 13.2138 19.606 12.1749 19.606C11.1361 19.606 10.2939 18.7638 10.2939 17.725C10.2939 16.6861 11.1361 15.844 12.1749 15.844C13.2138 15.844 14.0559 16.6861 14.0559 17.725Z" fill="#323232"/>
<path fill-rule="evenodd" clip-rule="evenodd" d="M2.35787 24.8482L2.77923 23.9245C2.9074 23.9728 3.04882 24 3.2 24H4.3V25H3.2C2.9017 25 2.61726 24.946 2.35787 24.8482ZM19.7 25V24H20.8C20.9512 24 21.0926 23.9728 21.2208 23.9245L21.6421 24.8482C21.3827 24.946 21.0983 25 20.8 25H19.7ZM23 3.05H21.9V2C21.9 1.86257 21.8701 1.734 21.817 1.61748L22.8331 1.23442C22.9406 1.47024 23 1.72882 23 2V3.05ZM4.3 0H3.2C2.9017 0 2.61726 0.0539723 2.35787 0.151761L2.77923 1.07549C2.9074 1.02717 3.04882 1 3.2 1H4.3V0ZM1 21.95H2.1V23C2.1 23.1374 2.12988 23.266 2.18304 23.3825L1.16694 23.7656C1.05937 23.5298 1 23.2712 1 23V21.95ZM1 19.85H2.1V17.75H1V19.85ZM1 15.65H2.1V13.55H1V15.65ZM1 11.45H2.1V9.35H1V11.45ZM1 7.25H2.1V5.15H1V7.25ZM1 3.05H2.1V2C2.1 1.86257 2.12988 1.734 2.18304 1.61748L1.16694 1.23442C1.05937 1.47024 1 1.72882 1 2V3.05ZM6.5 0V1H8.7V0H6.5ZM10.9 0V1H13.1V0H10.9ZM15.3 0V1H17.5V0H15.3ZM19.7 0V1H20.8C20.9512 1 21.0926 1.02717 21.2208 1.07549L21.6421 0.151761C21.3827 0.0539723 21.0983 0 20.8 0H19.7ZM23 5.15H21.9V7.25H23V5.15ZM23 9.35H21.9V11.45H23V9.35ZM23 13.55H21.9V15.65H23V13.55ZM23 17.75H21.9V19.85H23V17.75ZM23 21.95H21.9V23C21.9 23.1374 21.8701 23.266 21.817 23.3825L22.8331 23.7656C22.9406 23.5298 23 23.2712 23 23V21.95ZM17.5 25V24H15.3V25H17.5ZM13.1 25V24H10.9V25H13.1ZM8.7 25V24H6.5V25H8.7Z" fill="#323232"/>
</svg>
