<svg width="25" height="13" viewBox="0 0 25 13" fill="none" xmlns="http://www.w3.org/2000/svg">
<path d="M12.5001 10.2511L16.4414 12.7551L15.3955 8.03571L18.8777 4.86036L14.2922 4.45086L12.5001 0L10.708 4.45086L6.12256 4.86036L9.6047 8.03571L8.55878 12.7551L12.5001 10.2511Z" fill="#323232"/>
<path d="M3.82653 11.2527L6.19133 12.7551L5.56378 9.92348L7.65306 8.01827L4.90179 7.77257L3.82653 5.10205L2.75128 7.77257L0 8.01827L2.08929 9.92348L1.46173 12.7551L3.82653 11.2527Z" fill="#323232"/>
<path d="M21.1737 11.2527L23.5385 12.7551L22.9109 9.92348L25.0002 8.01827L22.249 7.77257L21.1737 5.10205L20.0984 7.77257L17.3472 8.01827L19.4365 9.92348L18.8089 12.7551L21.1737 11.2527Z" fill="#323232"/>
</svg>
