<svg width="25" height="25" viewBox="0 0 25 25" fill="none" xmlns="http://www.w3.org/2000/svg">
<path fill-rule="evenodd" clip-rule="evenodd" d="M21.1538 10.7307C21.1538 9.13757 19.8623 7.8461 18.2692 7.8461H2.88479C1.29168 7.8461 0.000204086 9.13757 0.000204086 10.7307V18.4229C0.000204086 20.016 1.29168 21.3075 2.88479 21.3075H18.2692C19.8623 21.3075 21.1538 20.016 21.1538 18.4229V10.7307ZM18.2692 9.76915C18.8003 9.76915 19.2308 10.1996 19.2308 10.7307V18.4229C19.2308 18.9539 18.8003 19.3844 18.2692 19.3844H2.88479C2.35375 19.3844 1.92326 18.9539 1.92326 18.4229V10.7307C1.92326 10.1996 2.35375 9.76915 2.88479 9.76915H18.2692Z" fill="#323232"/>
<path d="M24.0381 6.88454C24.0381 5.82247 23.1771 4.96149 22.115 4.96149H6.73059C5.66851 4.96149 4.80753 5.82247 4.80753 6.88454V14.5768C4.80753 15.6388 5.66851 16.4998 6.73059 16.4998H22.115C23.1771 16.4998 24.0381 15.6388 24.0381 14.5768V6.88454Z" fill="white"/>
<path fill-rule="evenodd" clip-rule="evenodd" d="M25 6.88458C25 5.29147 23.7085 4 22.1154 4H6.73098C5.13787 4 3.8464 5.29147 3.8464 6.88458V14.5768C3.8464 16.1699 5.13787 17.4614 6.73098 17.4614H22.1154C23.7085 17.4614 25 16.1699 25 14.5768V6.88458ZM22.1154 5.92305C22.6465 5.92305 23.0769 6.35355 23.0769 6.88458V14.5768C23.0769 15.1078 22.6465 15.5383 22.1154 15.5383H6.73098C6.19994 15.5383 5.76945 15.1078 5.76945 14.5768V6.88458C5.76945 6.35355 6.19994 5.92305 6.73098 5.92305H22.1154Z" fill="#323232"/>
<path fill-rule="evenodd" clip-rule="evenodd" d="M21.1538 8.80763C21.1538 8.27659 20.7233 7.8461 20.1923 7.8461H8.65395C8.12291 7.8461 7.69242 8.27659 7.69242 8.80763C7.69242 9.33866 8.12291 9.76916 8.65395 9.76916H20.1923C20.7233 9.76916 21.1538 9.33866 21.1538 8.80763Z" fill="#323232"/>
<path fill-rule="evenodd" clip-rule="evenodd" d="M21.1538 12.6537C21.1538 12.1227 20.7233 11.6922 20.1923 11.6922H8.65395C8.12291 11.6922 7.69242 12.1227 7.69242 12.6537C7.69242 13.1847 8.12291 13.6152 8.65395 13.6152H20.1923C20.7233 13.6152 21.1538 13.1847 21.1538 12.6537Z" fill="#323232"/>
</svg>
