<svg width="25" height="25" viewBox="0 0 25 25" fill="none" xmlns="http://www.w3.org/2000/svg">
<path d="M23.0987 10.5986H20.0548C19.0047 10.5986 18.1533 11.45 18.1533 12.5001C18.1533 13.5503 19.0047 14.4017 20.0548 14.4017H23.0987C24.1488 14.4017 25.0002 13.5503 25.0002 12.5001C25.0002 11.45 24.1488 10.5986 23.0987 10.5986Z" fill="#323232"/>
<path d="M6.84682 12.5001C6.84682 11.45 5.99545 10.5986 4.94531 10.5986H1.90151C0.851368 10.5986 0 11.45 0 12.5001C0 13.5503 0.851368 14.4017 1.90151 14.4017H4.94531C5.99545 14.4017 6.84682 13.5504 6.84682 12.5001Z" fill="#323232"/>
<path d="M12.4577 18.1528C11.4075 18.1528 10.5562 19.0042 10.5562 20.0543V23.0983C10.5562 24.1484 11.4075 24.9998 12.4577 24.9998C13.5078 24.9998 14.3592 24.1484 14.3592 23.0983V20.0543C14.3592 19.0042 13.5079 18.1528 12.4577 18.1528Z" fill="#323232"/>
<path d="M12.4575 0C11.4074 0 10.5562 0.851496 10.5562 1.90164V4.94532C10.5562 5.99546 11.4076 6.8467 12.4578 6.8467C13.5079 6.8467 14.3592 5.9952 14.3592 4.94506V1.90138C14.3592 0.851242 13.5078 0 12.4575 0Z" fill="#323232"/>
<path d="M19.186 16.4973C18.4435 15.7548 17.2395 15.7548 16.4969 16.4973C15.7543 17.2398 15.7543 18.4438 16.4969 19.1864L18.6491 21.3388C19.0204 21.7101 19.5071 21.8958 19.9938 21.8958C20.4804 21.8958 20.9671 21.7101 21.3383 21.3388C22.0809 20.5963 22.0809 19.3923 21.3383 18.6497L19.186 16.4973Z" fill="#323232"/>
<path d="M6.35051 3.66096C5.60803 2.91823 4.404 2.91848 3.6614 3.66096C2.91879 4.40356 2.91892 5.6076 3.6614 6.35007L5.81378 8.50246C6.18508 8.87388 6.67174 9.05947 7.15827 9.05947C7.64493 9.05947 8.13159 8.87376 8.50276 8.50246C9.24537 7.75985 9.24524 6.55594 8.50276 5.81334L6.35051 3.66096Z" fill="#323232"/>
<path d="M5.81367 16.4974L3.66129 18.6499C2.91881 19.3925 2.91894 20.5966 3.66141 21.3392C4.03284 21.7105 4.51937 21.8961 5.00591 21.8961C5.49257 21.8961 5.97935 21.7103 6.35053 21.3392L8.50291 19.1867C9.24538 18.4441 9.24526 17.24 8.50278 16.4974C7.76018 15.7547 6.55627 15.7548 5.81367 16.4974Z" fill="#323232"/>
<path d="M17.842 9.05939C18.3286 9.05939 18.8153 8.87368 19.1864 8.50238L21.3388 6.34987C22.0814 5.60727 22.0814 4.40336 21.3388 3.66076C20.5963 2.91803 19.3923 2.91816 18.6497 3.66076L16.4973 5.81327C15.7547 6.55587 15.7549 7.7599 16.4973 8.50238C16.8686 8.8738 17.3553 9.05939 17.842 9.05939Z" fill="#323232"/>
</svg>
