<svg width="25" height="25" viewBox="0 0 25 25" fill="none" xmlns="http://www.w3.org/2000/svg">
<g clip-path="url(#clip0_8910_35515)">
<path d="M20.2602 2.02455H18.9984V1.07178C18.9984 0.479973 18.5186 0 17.9266 0H17.5371C16.9451 0 16.4653 0.479973 16.4653 1.07178V2.02455H8.96756V1.07178C8.96756 0.479973 8.48769 0 7.89573 0H7.50618C6.91422 0 6.43445 0.479973 6.43445 1.07178V2.02455H4.74024C3.14469 2.02455 1.84668 3.32262 1.84668 4.91811V22.1064C1.84668 23.702 3.14469 25 4.74024 25H20.2602C21.8558 25 23.1538 23.7019 23.1538 22.1064V4.91816C23.1538 3.32262 21.8557 2.02455 20.2602 2.02455ZM21.4113 22.1064C21.4113 22.7411 20.8949 23.2575 20.2603 23.2575H4.74024C4.10557 23.2575 3.58923 22.7411 3.58923 22.1064V4.91816C3.58923 4.28349 4.10562 3.7671 4.74024 3.7671H6.43445V5.13594C6.43445 5.72779 6.91427 6.20777 7.50618 6.20777H7.89573C8.48774 6.20777 8.96756 5.72774 8.96756 5.13594V3.7671H16.4653V5.13594C16.4653 5.72779 16.9452 6.20777 17.537 6.20777H17.9266C18.5186 6.20777 18.9984 5.72774 18.9984 5.13594V3.7671H20.2602C20.8949 3.7671 21.4111 4.28349 21.4111 4.91816L21.4113 22.1064Z" fill="#323232"/>
<path d="M12.3612 16.8815C12.9329 16.5314 13.5342 16.1929 14.1645 15.8661C14.7946 15.5395 15.3724 15.1746 15.8976 14.7719C16.4229 14.3693 16.8545 13.8996 17.1931 13.3627C17.5315 12.826 17.7008 12.1665 17.7008 11.3843C17.7008 10.7426 17.5811 10.1794 17.342 9.69493C17.1025 9.21078 16.7642 8.81081 16.3265 8.49569C15.8889 8.18058 15.3636 7.94423 14.7509 7.78664C14.1381 7.62906 13.4642 7.55029 12.7288 7.55029C11.9118 7.55029 11.1735 7.66713 10.5142 7.90043C9.8547 8.13405 9.29746 8.47542 8.8423 8.92455C8.38714 9.37398 8.04845 9.92545 7.8269 10.5789C7.60505 11.2327 7.51751 11.9795 7.5643 12.8198H10.8556C10.832 12.073 10.9576 11.469 11.232 11.0078C11.5061 10.5469 11.9936 10.3163 12.6938 10.3163C13.1022 10.3163 13.4493 10.4244 13.7354 10.6402C14.0213 10.8563 14.1643 11.2442 14.1643 11.8044C14.1643 12.0263 14.1088 12.2246 13.9979 12.3996C13.8869 12.5747 13.7468 12.7323 13.5778 12.8723C13.4085 13.0124 13.2277 13.141 13.0351 13.2575C12.8425 13.3743 12.6702 13.4794 12.5186 13.5726C12.1335 13.8062 11.7365 14.0425 11.3282 14.2816C10.9195 14.521 10.5255 14.7718 10.1465 15.0345C9.76707 15.297 9.41115 15.5801 9.07855 15.8836C8.74594 16.1871 8.45105 16.5137 8.19443 16.8639C7.89076 17.2726 7.66045 17.7277 7.50292 18.2295C7.34533 18.7314 7.2841 19.2798 7.31913 19.8751H17.8757V16.899H12.3611L12.3612 16.8815Z" fill="#323232"/>
<g clip-path="url(#clip1_8910_35515)">
<path d="M158.771 -192.751H134.309V-211.222C134.309 -222.695 125.006 -232 113.53 -232H105.978C94.5019 -232 85.1999 -222.695 85.1999 -211.222V-192.751H-60.1551V-211.222C-60.1551 -222.695 -69.4581 -232 -80.9341 -232H-88.4861C-99.9621 -232 -109.263 -222.695 -109.263 -211.222V-192.751H-142.108C-173.04 -192.751 -198.204 -167.586 -198.204 -136.655V196.567C-198.204 227.499 -173.04 252.663 -142.108 252.663H158.771C189.703 252.663 214.867 227.498 214.867 196.567V-136.654C214.866 -167.586 189.702 -192.751 158.771 -192.751ZM181.085 196.567C181.085 208.871 171.074 218.881 158.772 218.881H-142.108C-154.412 218.881 -164.422 208.87 -164.422 196.567V-136.654C-164.422 -148.958 -154.411 -158.969 -142.108 -158.969H-109.263V-132.432C-109.263 -120.958 -99.9611 -111.653 -88.4861 -111.653H-80.9341C-69.4571 -111.653 -60.1551 -120.959 -60.1551 -132.432V-158.969H85.1999V-132.432C85.1999 -120.958 94.5029 -111.653 105.977 -111.653H113.53C125.007 -111.653 134.308 -120.959 134.308 -132.432V-158.969H158.77C171.074 -158.969 181.083 -148.958 181.083 -136.654L181.085 196.567Z" fill="black"/>
<path d="M5.64181 95.275C16.7248 88.488 28.3808 81.927 40.5998 75.59C52.8168 69.258 64.0178 62.185 74.1998 54.378C84.3828 46.572 92.7508 37.466 99.3148 27.058C105.876 16.653 109.158 3.86797 109.158 -11.295C109.158 -23.736 106.836 -34.655 102.201 -44.047C97.5588 -53.433 91.0008 -61.187 82.5138 -67.296C74.0308 -73.405 63.8468 -77.987 51.9688 -81.042C40.0888 -84.097 27.0238 -85.624 12.7678 -85.624C-3.07118 -85.624 -17.3842 -83.359 -30.1662 -78.836C-42.9512 -74.307 -53.7542 -67.689 -62.5782 -58.982C-71.4022 -50.269 -77.9682 -39.578 -82.2632 -26.909C-86.5642 -14.235 -88.2612 0.241974 -87.3542 16.533H-23.5482C-24.0042 2.05598 -21.5692 -9.65402 -16.2502 -18.594C-10.9372 -27.53 -1.48618 -32 12.0888 -32C20.0068 -32 26.7358 -29.905 32.2828 -25.721C37.8248 -21.532 40.5968 -14.012 40.5968 -3.15103C40.5968 1.14997 39.5208 4.99497 37.3718 8.38797C35.2198 11.782 32.5038 14.837 29.2258 17.552C25.9448 20.267 22.4388 22.761 18.7048 25.019C14.9718 27.284 11.6308 29.32 8.6928 31.127C1.2258 35.656 -6.46919 40.238 -14.3862 44.873C-22.3092 49.513 -29.9462 54.376 -37.2952 59.468C-44.6502 64.558 -51.5502 70.047 -57.9982 75.929C-64.4462 81.8139 -70.1632 88.146 -75.1382 94.935C-81.0252 102.857 -85.4902 111.681 -88.5442 121.408C-91.5992 131.138 -92.7862 141.771 -92.1072 153.311H112.549V95.614H5.63882L5.64181 95.275Z" fill="black"/>
</g>
</g>
<defs>
<clipPath id="clip0_8910_35515">
<rect width="25" height="25" fill="white"/>
</clipPath>
<clipPath id="clip1_8910_35515">
<rect width="484.663" height="484.663" fill="white" transform="translate(-234 -232)"/>
</clipPath>
</defs>
</svg>
