<svg width="25" height="25" viewBox="0 0 25 25" fill="none" xmlns="http://www.w3.org/2000/svg">
<path fill-rule="evenodd" clip-rule="evenodd" d="M7.95459 4.54545C7.95459 2.03507 9.98967 0 12.5 0C15.0104 0 17.0455 2.03507 17.0455 4.54545V12.5C17.0455 15.0104 15.0104 17.0455 12.5 17.0455C9.98966 17.0455 7.95459 15.0104 7.95459 12.5V4.54545ZM12.5 2.27273C11.2449 2.27273 10.2273 3.29026 10.2273 4.54545V12.5C10.2273 13.7552 11.2449 14.7727 12.5 14.7727C13.7552 14.7727 14.7728 13.7552 14.7728 12.5V4.54545C14.7728 3.29026 13.7552 2.27273 12.5 2.27273Z" fill="#323232"/>
<path fill-rule="evenodd" clip-rule="evenodd" d="M14.9107 3.66114C16.6858 1.88601 19.5638 1.88604 21.3389 3.66113L21.3389 3.66114C23.114 5.43625 23.114 8.31427 21.3389 10.0894L15.7142 15.7141C13.9391 17.4892 11.0611 17.4892 9.28596 15.7141C7.5108 13.939 7.5108 11.061 9.28594 9.28588L9.28596 9.28586M14.9107 3.66114C14.9107 3.66114 14.9107 3.66114 14.9107 3.66115L9.28596 9.28586M19.7319 5.26821C18.8443 4.38063 17.4052 4.38065 16.5177 5.26819L16.5177 5.2682L10.893 10.8929L10.893 10.893C10.0054 11.7805 10.0054 13.2195 10.893 14.107L10.893 14.107C11.7805 14.9946 13.2195 14.9946 14.1071 14.107L19.7319 8.4823C20.6194 7.59477 20.6194 6.15575 19.7319 5.26821Z" fill="#323232"/>
<path fill-rule="evenodd" clip-rule="evenodd" d="M9.22902 9.28588C11.0041 7.51075 13.8821 7.51078 15.6573 9.28587L15.6573 9.28589C17.4324 11.061 17.4324 13.939 15.6573 15.7141L10.0326 21.3388C8.25744 23.1139 5.37942 23.114 3.60432 21.3388C1.82916 19.5638 1.82916 16.6857 3.6043 14.9106L3.60432 14.9106M9.22902 9.28588C9.22902 9.28588 9.22901 9.28589 9.22901 9.28589L3.60432 14.9106M14.0502 10.8929C13.1626 10.0054 11.7236 10.0054 10.8361 10.8929L10.8361 10.8929L5.21137 16.5177L5.21135 16.5177C4.32379 17.4052 4.32379 18.8442 5.21135 19.7317L5.21138 19.7318C6.0989 20.6193 7.5379 20.6193 8.4255 19.7318L14.0502 14.107C14.9377 13.2195 14.9378 11.7805 14.0502 10.8929Z" fill="#323232"/>
<path fill-rule="evenodd" clip-rule="evenodd" d="M21.3103 14.9392C23.0854 16.7143 23.0854 19.5923 21.3103 21.3674L21.3103 21.3675C19.5352 23.1425 16.6571 23.1425 14.882 21.3675L9.25733 15.7427C7.48221 13.9676 7.48217 11.0896 9.25731 9.3145C11.0324 7.53934 13.9104 7.53933 15.6855 9.31448L15.6855 9.3145M21.3103 14.9392C21.3103 14.9392 21.3103 14.9392 21.3103 14.9392L15.6855 9.3145M19.7032 19.7604C20.5908 18.8728 20.5908 17.4338 19.7032 16.5463L19.7032 16.5463L14.0785 10.9215L14.0785 10.9215C13.1909 10.034 11.7519 10.034 10.8644 10.9215L10.8644 10.9216C9.97682 11.8091 9.9768 13.2481 10.8644 14.1357L16.4891 19.7604C17.3766 20.6479 18.8157 20.6479 19.7032 19.7604Z" fill="#323232"/>
<path fill-rule="evenodd" clip-rule="evenodd" d="M15.6853 9.25737C17.4604 11.0325 17.4604 13.9105 15.6853 15.6856L15.6853 15.6856C13.9102 17.4607 11.0321 17.4607 9.25705 15.6856L3.63233 10.0609C1.85721 8.28579 1.85717 5.40777 3.63231 3.63267C5.4074 1.85751 8.28544 1.85751 10.0605 3.63265L10.0605 3.63267M15.6853 9.25737C15.6853 9.25737 15.6853 9.25737 15.6853 9.25736L10.0605 3.63267M14.0782 14.0786C14.9658 13.191 14.9658 11.752 14.0782 10.8644L14.0782 10.8644L8.45347 5.23972L8.45345 5.2397C7.56592 4.35214 6.12693 4.35214 5.23941 5.2397L5.23937 5.23973C4.35182 6.12725 4.3518 7.56625 5.23939 8.45385L10.8641 14.0786C11.7516 14.9661 13.1907 14.9661 14.0782 14.0786Z" fill="#323232"/>
<path fill-rule="evenodd" clip-rule="evenodd" d="M7.95459 12.5C7.95459 9.98962 9.98966 7.95454 12.5 7.95454H20.4546C22.965 7.95454 25 9.98962 25 12.5C25 15.0104 22.965 17.0455 20.4546 17.0455H12.5C9.98966 17.0455 7.95459 15.0104 7.95459 12.5ZM12.5 10.2273C11.2449 10.2273 10.2273 11.2448 10.2273 12.5C10.2273 13.7552 11.2449 14.7727 12.5 14.7727H20.4546C21.7098 14.7727 22.7273 13.7552 22.7273 12.5C22.7273 11.2448 21.7098 10.2273 20.4546 10.2273H12.5Z" fill="#323232"/>
<path fill-rule="evenodd" clip-rule="evenodd" d="M7.95459 12.5C7.95459 9.98962 9.98966 7.95454 12.5 7.95454C15.0104 7.95454 17.0455 9.98962 17.0455 12.5V20.4545C17.0455 22.9649 15.0104 25 12.5 25C9.98966 25 7.95459 22.9649 7.95459 20.4545V12.5ZM12.5 10.2273C11.2449 10.2273 10.2273 11.2448 10.2273 12.5V20.4545C10.2273 21.7097 11.2449 22.7273 12.5 22.7273C13.7552 22.7273 14.7728 21.7097 14.7728 20.4545V12.5C14.7728 11.2448 13.7552 10.2273 12.5 10.2273Z" fill="#323232"/>
<path fill-rule="evenodd" clip-rule="evenodd" d="M0 12.5C0 9.98962 2.03507 7.95454 4.54545 7.95454H12.5C15.0104 7.95454 17.0455 9.98962 17.0455 12.5C17.0455 15.0104 15.0104 17.0455 12.5 17.0455H4.54545C2.03507 17.0455 0 15.0104 0 12.5ZM4.54545 10.2273C3.29026 10.2273 2.27273 11.2448 2.27273 12.5C2.27273 13.7552 3.29026 14.7727 4.54545 14.7727H12.5C13.7552 14.7727 14.7727 13.7552 14.7727 12.5C14.7727 11.2448 13.7552 10.2273 12.5 10.2273H4.54545Z" fill="#323232"/>
</svg>
