<svg width="25" height="25" viewBox="0 0 25 25" fill="none" xmlns="http://www.w3.org/2000/svg">
<path d="M11.3827 9.46703C11.3827 8.82418 11.937 8.57692 12.8551 8.57692C14.1717 8.57692 15.8346 8.95604 17.1512 9.63187V5.75824C15.7134 5.21429 14.2929 5 12.8551 5C9.33858 5 7 6.74725 7 9.66483C7 14.2143 13.5827 13.489 13.5827 15.4506C13.5827 16.2088 12.8898 16.456 11.9197 16.456C10.4819 16.456 8.64567 15.8956 7.19055 15.1374V19.0604C8.80157 19.7198 10.4299 20 11.9197 20C15.5228 20 18 18.3022 18 15.3516C17.9827 10.4396 11.3827 11.3132 11.3827 9.46703Z" fill="#323232"/>
<path fill-rule="evenodd" clip-rule="evenodd" d="M22 2H3C2.44772 2 2 2.44772 2 3V22C2 22.5523 2.44772 23 3 23H22C22.5523 23 23 22.5523 23 22V3C23 2.44772 22.5523 2 22 2ZM3 0C1.34315 0 0 1.34315 0 3V22C0 23.6569 1.34315 25 3 25H22C23.6569 25 25 23.6569 25 22V3C25 1.34315 23.6569 0 22 0H3Z" fill="#323232"/>
</svg>
