<svg width="25" height="25" viewBox="0 0 25 25" fill="none" xmlns="http://www.w3.org/2000/svg">
<path d="M16.3906 7.38242C16.3906 7.03956 16.6929 6.90769 17.1937 6.90769C17.9118 6.90769 18.8189 7.10989 19.537 7.47033V5.4044C18.7528 5.11429 17.978 5 17.1937 5C15.2756 5 14 5.93187 14 7.48791C14 9.91429 17.5906 9.52747 17.5906 10.5736C17.5906 10.978 17.2126 11.1099 16.6835 11.1099C15.8992 11.1099 14.8976 10.811 14.1039 10.4066V12.4989C14.9827 12.8505 15.8709 13 16.6835 13C18.6488 13 20 12.0945 20 10.5209C19.9906 7.9011 16.3906 8.36703 16.3906 7.38242Z" fill="#323232"/>
<path fill-rule="evenodd" clip-rule="evenodd" d="M22 2H3C2.44772 2 2 2.44772 2 3V22C2 22.5523 2.44772 23 3 23H22C22.5523 23 23 22.5523 23 22V3C23 2.44772 22.5523 2 22 2ZM3 0C1.34315 0 0 1.34315 0 3V22C0 23.6569 1.34315 25 3 25H22C23.6569 25 25 23.6569 25 22V3C25 1.34315 23.6569 0 22 0H3Z" fill="#323232"/>
<path fill-rule="evenodd" clip-rule="evenodd" d="M4 20.2999C4 19.9133 4.35614 19.5999 4.79545 19.5999L15.9318 19.5999C16.3711 19.5999 16.7273 19.9133 16.7273 20.2999C16.7273 20.6865 16.3711 20.9999 15.9318 20.9999L4.79545 20.9999C4.35614 20.9999 4 20.6865 4 20.2999Z" fill="#323232"/>
<path fill-rule="evenodd" clip-rule="evenodd" d="M4 17.4999C4 17.1133 4.35614 16.7999 4.79545 16.7999L19.9091 16.7999C20.3484 16.7999 20.7045 17.1133 20.7045 17.4999C20.7045 17.8865 20.3484 18.1999 19.9091 18.1999L4.79545 18.1999C4.35614 18.1999 4 17.8865 4 17.4999Z" fill="#323232"/>
<path fill-rule="evenodd" clip-rule="evenodd" d="M4 14.7C4 14.3134 4.35614 14 4.79545 14L11.9318 14C12.3711 14 12.7273 14.3134 12.7273 14.7C12.7273 15.0866 12.3711 15.4 11.9318 15.4L4.79545 15.4C4.35614 15.4 4 15.0866 4 14.7Z" fill="#323232"/>
</svg>
