<svg width="25" height="27" viewBox="0 0 25 27" fill="none" xmlns="http://www.w3.org/2000/svg">
<path fill-rule="evenodd" clip-rule="evenodd" d="M13.6843 8.3184H7.41162V7.27295H13.6843V8.3184Z" fill="#323232"/>
<path fill-rule="evenodd" clip-rule="evenodd" d="M15.7753 16.6363H7.41162V15.5908H15.7753V16.6363Z" fill="#323232"/>
<path fill-rule="evenodd" clip-rule="evenodd" d="M14.7298 13.5455H7.41162V12.5H14.7298V13.5455Z" fill="#323232"/>
<path fill-rule="evenodd" clip-rule="evenodd" d="M13.6843 19.7271H7.41162V18.6816H13.6843V19.7271Z" fill="#323232"/>
<path fill-rule="evenodd" clip-rule="evenodd" d="M2.95459 4.09095C2.95459 2.35879 4.35879 0.95459 6.09095 0.95459H18.6364C20.3686 0.95459 21.7728 2.35879 21.7728 4.09095V22.9091C21.7728 24.6413 20.3686 26.0455 18.6364 26.0455H6.09095C4.35879 26.0455 2.95459 24.6413 2.95459 22.9091V4.09095ZM6.09095 3.0455C5.51356 3.0455 5.0455 3.51356 5.0455 4.09095V22.9091C5.0455 23.4865 5.51356 23.9546 6.09095 23.9546H18.6364C19.2138 23.9546 19.6819 23.4865 19.6819 22.9091V4.09095C19.6819 3.51356 19.2138 3.0455 18.6364 3.0455H6.09095Z" fill="#323232"/>
</svg>
