<svg width="25" height="26" viewBox="0 0 25 26" fill="none" xmlns="http://www.w3.org/2000/svg">
<path fill-rule="evenodd" clip-rule="evenodd" d="M3 3.13636C3 1.4042 4.4042 0 6.13636 0H18.6818C20.414 0 21.8182 1.4042 21.8182 3.13636V21.9545C21.8182 23.6867 20.414 25.0909 18.6818 25.0909H6.13636C4.4042 25.0909 3 23.6867 3 21.9545V3.13636ZM6.13636 2.09091C5.55897 2.09091 5.09091 2.55897 5.09091 3.13636V21.9545C5.09091 22.5319 5.55897 23 6.13636 23H18.6818C19.2592 23 19.7273 22.5319 19.7273 21.9545V3.13636C19.7273 2.55897 19.2592 2.09091 18.6818 2.09091H6.13636Z" fill="#323232"/>
<path d="M10.7996 16.8983L15.4676 13.3998C15.7375 13.1999 15.7375 12.8001 15.4676 12.6002L10.7996 9.10173C10.4698 8.85184 10 9.09174 10 9.50155V16.4984C10 16.9083 10.4698 17.1482 10.7996 16.8983Z" fill="#323232"/>
</svg>
