<svg width="25" height="25" viewBox="0 0 25 25" fill="none" xmlns="http://www.w3.org/2000/svg">
<path fill-rule="evenodd" clip-rule="evenodd" d="M0 11.4319C0 9.54907 1.5263 8.02277 3.40909 8.02277H21.5909C23.4737 8.02277 25 9.54907 25 11.4319V20.5228C25 22.4056 23.4737 23.9319 21.5909 23.9319H3.40909C1.5263 23.9319 0 22.4056 0 20.5228V11.4319ZM3.40909 10.2955C2.78149 10.2955 2.27273 10.8043 2.27273 11.4319V20.5228C2.27273 21.1504 2.78149 21.6591 3.40909 21.6591H21.5909C22.2185 21.6591 22.7273 21.1504 22.7273 20.5228V11.4319C22.7273 10.8043 22.2185 10.2955 21.5909 10.2955H3.40909Z" fill="#323232"/>
<path d="M1.13574 5.40908C1.13574 4.15389 2.15328 3.13635 3.40847 3.13635H21.5903C22.8455 3.13635 23.863 4.15389 23.863 5.40908V14.5C23.863 15.7552 22.8455 16.7727 21.5903 16.7727H3.40847C2.15328 16.7727 1.13574 15.7552 1.13574 14.5V5.40908Z" fill="white"/>
<path fill-rule="evenodd" clip-rule="evenodd" d="M0 5.40909C0 3.5263 1.5263 2 3.40909 2H21.5909C23.4737 2 25 3.5263 25 5.40909V14.5C25 16.3828 23.4737 17.9091 21.5909 17.9091H3.40909C1.5263 17.9091 0 16.3828 0 14.5V5.40909ZM3.40909 4.27273C2.78149 4.27273 2.27273 4.7815 2.27273 5.40909V14.5C2.27273 15.1276 2.78149 15.6364 3.40909 15.6364H21.5909C22.2185 15.6364 22.7273 15.1276 22.7273 14.5V5.40909C22.7273 4.7815 22.2185 4.27273 21.5909 4.27273H3.40909Z" fill="#323232"/>
<path fill-rule="evenodd" clip-rule="evenodd" d="M4.5459 7.68183C4.5459 7.05424 5.05467 6.54547 5.68226 6.54547H19.3186C19.9462 6.54547 20.455 7.05424 20.455 7.68183C20.455 8.30943 19.9462 8.8182 19.3186 8.8182H5.68226C5.05467 8.8182 4.5459 8.30943 4.5459 7.68183Z" fill="#323232"/>
<path fill-rule="evenodd" clip-rule="evenodd" d="M4.5459 12.2272C4.5459 11.5996 5.05467 11.0909 5.68226 11.0909H19.3186C19.9462 11.0909 20.455 11.5996 20.455 12.2272C20.455 12.8548 19.9462 13.3636 19.3186 13.3636H5.68226C5.05467 13.3636 4.5459 12.8548 4.5459 12.2272Z" fill="#323232"/>
</svg>
