<svg width="25" height="25" viewBox="0 0 25 25" fill="none" xmlns="http://www.w3.org/2000/svg">
<path d="M22.5 5H2.5C1.125 5 0.0125 6.125 0.0125 7.5L0 22.5C0 23.875 1.125 25 2.5 25H22.5C23.875 25 25 23.875 25 22.5V7.5C25 6.125 23.875 5 22.5 5ZM21.25 22.5H3.75C3.0625 22.5 2.5 21.9375 2.5 21.25V10L11.175 15.425C11.9875 15.9375 13.0125 15.9375 13.825 15.425L22.5 10V21.25C22.5 21.9375 21.9375 22.5 21.25 22.5ZM12.5 13.75L2.5 7.5H22.5L12.5 13.75Z" fill="#323232"/>
<path d="M5 3C5 1.34315 6.34315 0 8 0H17C18.6569 0 20 1.34315 20 3V9.89445C20 10.8975 19.4987 11.8342 18.6641 12.3906L14.1641 15.3906C13.1564 16.0624 11.8436 16.0624 10.8359 15.3906L6.3359 12.3906C5.5013 11.8342 5 10.8975 5 9.89445V3Z" fill="white"/>
<path fill-rule="evenodd" clip-rule="evenodd" d="M17 2H8C7.44772 2 7 2.44772 7 3V9.89445C7 10.2288 7.1671 10.541 7.4453 10.7265L11.9453 13.7265C12.2812 13.9504 12.7188 13.9504 13.0547 13.7265L17.5547 10.7265C17.8329 10.541 18 10.2288 18 9.89445V3C18 2.44772 17.5523 2 17 2ZM8 0C6.34315 0 5 1.34315 5 3V9.89445C5 10.8975 5.5013 11.8342 6.3359 12.3906L10.8359 15.3906C11.8436 16.0624 13.1564 16.0624 14.1641 15.3906L18.6641 12.3906C19.4987 11.8342 20 10.8975 20 9.89445V3C20 1.34315 18.6569 0 17 0H8Z" fill="#323232"/>
<path d="M11.4634 6.35156H12.2905C12.5555 6.35156 12.7739 6.3068 12.9458 6.21729C13.1177 6.12419 13.2448 5.99528 13.3271 5.83057C13.4131 5.66227 13.4561 5.46712 13.4561 5.24512C13.4561 5.0446 13.4167 4.86735 13.3379 4.71338C13.2627 4.55583 13.1463 4.43408 12.9888 4.34814C12.8312 4.25863 12.6325 4.21387 12.3926 4.21387C12.2028 4.21387 12.0273 4.25146 11.8662 4.32666C11.7051 4.40186 11.5762 4.50749 11.4795 4.64355C11.3828 4.77962 11.3345 4.94434 11.3345 5.1377H9.78223C9.78223 4.70801 9.89681 4.33382 10.126 4.01514C10.3587 3.69645 10.6702 3.44759 11.0605 3.26855C11.4508 3.08952 11.8805 3 12.3496 3C12.8796 3 13.3433 3.08594 13.7407 3.25781C14.1382 3.42611 14.4479 3.67497 14.6699 4.00439C14.8919 4.33382 15.0029 4.74202 15.0029 5.229C15.0029 5.47607 14.9456 5.71598 14.8311 5.94873C14.7165 6.1779 14.5518 6.38558 14.3369 6.57178C14.1257 6.75439 13.8678 6.9012 13.5635 7.01221C13.2591 7.11963 12.9172 7.17334 12.5376 7.17334H11.4634V6.35156ZM11.4634 7.52783V6.72754H12.5376C12.9637 6.72754 13.3379 6.77588 13.6602 6.87256C13.9824 6.96924 14.2528 7.10889 14.4712 7.2915C14.6896 7.47054 14.8543 7.68359 14.9653 7.93066C15.0763 8.17415 15.1318 8.4445 15.1318 8.7417C15.1318 9.10693 15.062 9.43278 14.9224 9.71924C14.7827 10.0021 14.5858 10.242 14.3315 10.439C14.0809 10.6359 13.7873 10.7863 13.4507 10.8901C13.1141 10.9904 12.7471 11.0405 12.3496 11.0405C12.0202 11.0405 11.6961 10.9958 11.3774 10.9062C11.0623 10.8132 10.7759 10.6753 10.5181 10.4927C10.2638 10.3065 10.0597 10.0737 9.90576 9.79443C9.75537 9.51156 9.68018 9.17676 9.68018 8.79004H11.2324C11.2324 8.99056 11.2826 9.1696 11.3828 9.32715C11.4831 9.4847 11.6209 9.60824 11.7964 9.69775C11.9754 9.78727 12.1742 9.83203 12.3926 9.83203C12.6396 9.83203 12.8509 9.78727 13.0264 9.69775C13.2054 9.60465 13.3415 9.47575 13.4346 9.31104C13.5312 9.14274 13.5796 8.94759 13.5796 8.72559C13.5796 8.43913 13.5277 8.20996 13.4238 8.03809C13.32 7.86263 13.1714 7.73372 12.978 7.65137C12.7847 7.56901 12.5555 7.52783 12.2905 7.52783H11.4634Z" fill="#323232"/>
</svg>
