<svg width="25" height="25" viewBox="0 0 25 25" fill="none" xmlns="http://www.w3.org/2000/svg">
<path d="M8.86239 14.1591H8.49185L8.36053 14.0325C8.92336 13.3759 9.21416 12.4802 9.05469 11.5281C8.83425 10.2243 7.74609 9.1832 6.4328 9.02374C4.4488 8.77987 2.78374 10.4495 3.02295 12.4333C3.18242 13.7464 4.22367 14.8345 5.52757 15.0549C6.47971 15.2143 7.37556 14.9236 8.0322 14.3608L8.15884 14.4921V14.8626L10.1569 16.8558C10.3492 17.0481 10.6588 17.0481 10.8511 16.8558L10.8558 16.8511C11.0481 16.6588 11.0481 16.3493 10.8558 16.157L8.86239 14.1591ZM6.0482 14.1591C4.88031 14.1591 3.93756 13.2165 3.93756 12.0487C3.93756 10.8809 4.88031 9.93826 6.0482 9.93826C7.21609 9.93826 8.15884 10.8809 8.15884 12.0487C8.15884 13.2165 7.21609 14.1591 6.0482 14.1591Z" fill="#323232"/>
<path fill-rule="evenodd" clip-rule="evenodd" d="M22 7H3C1.89543 7 1 7.89543 1 9V16.6364C1 17.7409 1.89543 18.6364 3 18.6364H22C23.1046 18.6364 24 17.7409 24 16.6364V9C24 7.89543 23.1046 7 22 7ZM3 6C1.34315 6 0 7.34315 0 9V16.6364C0 18.2932 1.34315 19.6364 3 19.6364H22C23.6569 19.6364 25 18.2932 25 16.6364V9C25 7.34315 23.6569 6 22 6H3Z" fill="#323232"/>
</svg>
