<svg width="25" height="25" viewBox="0 0 25 25" fill="none" xmlns="http://www.w3.org/2000/svg">
<path d="M23.6111 16.2227L6.94444 16.2227C6.18056 16.2227 5.55556 16.8477 5.55556 17.6116C5.55556 18.3755 6.18056 19.0005 6.94444 19.0005L23.6111 19.0005C24.375 19.0005 25 18.3755 25 17.6116C25 16.8477 24.375 16.2227 23.6111 16.2227ZM23.6111 10.6672L6.94445 10.6672C6.18056 10.6672 5.55556 11.2922 5.55556 12.056C5.55556 12.8199 6.18056 13.4449 6.94445 13.4449L23.6111 13.4449C24.375 13.4449 25 12.8199 25 12.056C25 11.2922 24.375 10.6672 23.6111 10.6672ZM23.6111 5.1116L6.94445 5.1116C6.18056 5.1116 5.55556 5.7366 5.55556 6.50049C5.55556 7.26438 6.18056 7.88938 6.94445 7.88938L23.6111 7.88938C24.375 7.88938 25 7.26438 25 6.50049C25 5.7366 24.375 5.1116 23.6111 5.1116ZM2.77778 5.1116L1.21421e-06 5.1116L9.71364e-07 7.88938L2.77778 7.88938L2.77778 5.1116ZM2.77778 19.0005L2.77778 16.2227L2.42841e-07 16.2227L0 19.0005L2.77778 19.0005ZM2.77778 10.6672L7.28523e-07 10.6672L4.85682e-07 13.4449L2.77778 13.4449L2.77778 10.6672Z" fill="#323232"/>
</svg>
