<svg width="26" height="25" viewBox="0 0 26 25" fill="none" xmlns="http://www.w3.org/2000/svg">
<path d="M24.214 18.428L2.78201 18.428C1.79971 18.428 0.996004 19.2317 0.996004 20.214C0.996004 21.1963 1.79971 22 2.78201 22L24.214 22C25.1963 22 26 21.1963 26 20.214C26 19.2317 25.1963 18.428 24.214 18.428ZM24.214 11.284L2.78201 11.284C1.79971 11.284 0.996005 12.0877 0.996005 13.07C0.996005 14.0523 1.79971 14.856 2.78201 14.856L24.214 14.856C25.1963 14.856 26 14.0523 26 13.07C26 12.0877 25.1963 11.284 24.214 11.284ZM24.214 4.14L2.78201 4.14C1.79971 4.14 0.996006 4.9437 0.996006 5.926C0.996005 6.9083 1.79971 7.712 2.78201 7.712L24.214 7.712C25.1963 7.712 26 6.9083 26 5.926C26 4.9437 25.1963 4.14 24.214 4.14Z" fill="#323232"/>
</svg>
