<svg width="25" height="25" viewBox="0 0 25 25" fill="none" xmlns="http://www.w3.org/2000/svg">
<path fill-rule="evenodd" clip-rule="evenodd" d="M22 7H3C1.89543 7 1 7.89543 1 9V15C1 16.1046 1.89543 17 3 17H22C23.1046 17 24 16.1046 24 15V9C24 7.89543 23.1046 7 22 7ZM3 6C1.34315 6 0 7.34315 0 9V15C0 16.6569 1.34315 18 3 18H22C23.6569 18 25 16.6569 25 15V9C25 7.34315 23.6569 6 22 6H3Z" fill="#323232"/>
<path d="M12.9901 10.7214L11.8879 13.9466H11L12.5058 10.0561H13.0709L12.9901 10.7214ZM13.9059 13.9466L12.8009 10.7214L12.7118 10.0561H13.2824L14.7966 13.9466H13.9059ZM13.8558 12.4983V13.1263H11.7153V12.4983H13.8558Z" fill="#323232"/>
<path d="M16.7589 12.2391H15.7179L15.7123 11.6887H16.5863C16.7403 11.6887 16.8665 11.67 16.9648 11.6326C17.0632 11.5934 17.1365 11.5373 17.1847 11.4643C17.2348 11.3894 17.2599 11.2986 17.2599 11.1917C17.2599 11.0706 17.2357 10.9726 17.1875 10.8978C17.1411 10.823 17.0678 10.7686 16.9676 10.7348C16.8693 10.701 16.7422 10.684 16.5863 10.684H16.0073V13.9466H15.1723V10.0561H16.5863C16.8219 10.0561 17.0326 10.0775 17.2181 10.1202C17.4055 10.163 17.5642 10.228 17.6941 10.3153C17.824 10.4026 17.9232 10.513 17.9919 10.6466C18.0606 10.7784 18.0949 10.9352 18.0949 11.1169C18.0949 11.2772 18.0568 11.4251 17.9808 11.5605C17.9065 11.6958 17.7887 11.8063 17.6273 11.8918C17.4677 11.9773 17.2589 12.0245 17.001 12.0334L16.7589 12.2391ZM16.7227 13.9466H15.4896L15.8153 13.3213H16.7227C16.8693 13.3213 16.989 13.299 17.0817 13.2545C17.1745 13.2082 17.2432 13.1458 17.2877 13.0675C17.3322 12.9891 17.3545 12.8991 17.3545 12.7976C17.3545 12.6836 17.3341 12.5847 17.2933 12.501C17.2543 12.4173 17.1912 12.3532 17.104 12.3086C17.0168 12.2623 16.9017 12.2391 16.7589 12.2391H15.9545L15.96 11.6887H16.962L17.1541 11.9051C17.4009 11.9016 17.5994 11.9434 17.7497 12.0307C17.9019 12.1162 18.0123 12.2276 18.081 12.3647C18.1515 12.5019 18.1867 12.6489 18.1867 12.8056C18.1867 13.055 18.1301 13.2652 18.017 13.4362C17.9038 13.6054 17.7377 13.7328 17.5187 13.8183C17.3016 13.9038 17.0363 13.9466 16.7227 13.9466Z" fill="#323232"/>
<path d="M21.1622 12.656H21.9944C21.9777 12.9178 21.9026 13.1503 21.769 13.3534C21.6372 13.5564 21.4526 13.715 21.2151 13.829C20.9794 13.943 20.6955 14 20.3634 14C20.1036 14 19.8707 13.9572 19.6647 13.8717C19.4588 13.7845 19.2825 13.6598 19.1359 13.4977C18.9911 13.3356 18.8807 13.1396 18.8047 12.9098C18.7286 12.68 18.6905 12.4226 18.6905 12.1376V11.8677C18.6905 11.5827 18.7295 11.3253 18.8074 11.0955C18.8872 10.864 19.0004 10.6671 19.147 10.505C19.2955 10.3429 19.4727 10.2182 19.6786 10.1309C19.8846 10.0436 20.1147 10 20.3689 10C20.7066 10 20.9915 10.0588 21.2234 10.1764C21.4572 10.2939 21.6382 10.456 21.7662 10.6627C21.8961 10.8693 21.974 11.1044 22 11.3681H21.165C21.1557 11.2113 21.1232 11.0786 21.0676 10.9699C21.0119 10.8595 20.9275 10.7767 20.8143 10.7214C20.7029 10.6644 20.5545 10.6359 20.3689 10.6359C20.2298 10.6359 20.1082 10.6609 20.0043 10.7108C19.9004 10.7606 19.8132 10.8363 19.7427 10.9379C19.6721 11.0394 19.6193 11.1677 19.584 11.3226C19.5506 11.4758 19.5339 11.6558 19.5339 11.8624V12.1376C19.5339 12.3389 19.5497 12.5161 19.5812 12.6693C19.6128 12.8208 19.661 12.949 19.726 13.0541C19.7928 13.1574 19.8781 13.2358 19.982 13.2892C20.0878 13.3409 20.2149 13.3667 20.3634 13.3667C20.5378 13.3667 20.6816 13.34 20.7948 13.2866C20.908 13.2331 20.9943 13.1539 21.0536 13.0488C21.1149 12.9437 21.1511 12.8127 21.1622 12.656Z" fill="#323232"/>
<path d="M6 9L6.67354 11.0729H8.85317L7.08981 12.3541L7.76336 14.4271L6 13.1459L4.23664 14.4271L4.91019 12.3541L3.14683 11.0729H5.32646L6 9Z" fill="#323232"/>
</svg>
