<svg width="25" height="25" viewBox="0 0 25 25" fill="none" xmlns="http://www.w3.org/2000/svg">
<path fill-rule="evenodd" clip-rule="evenodd" d="M0 1.5C0 0.671573 0.671573 0 1.5 0H6.5C7.32843 0 8 0.671573 8 1.5C8 2.32843 7.32843 3 6.5 3H1.5C0.671573 3 0 2.32843 0 1.5Z" fill="#323232"/>
<path fill-rule="evenodd" clip-rule="evenodd" d="M0 23.5C0 22.6716 0.671573 22 1.5 22H6.5C7.32843 22 8 22.6716 8 23.5C8 24.3284 7.32843 25 6.5 25H1.5C0.671573 25 0 24.3284 0 23.5Z" fill="#323232"/>
<path fill-rule="evenodd" clip-rule="evenodd" d="M1.5 -5.24535e-08C2.32843 -2.34842e-08 3 0.671573 3 1.5L3 23.5C3 24.3284 2.32843 25 1.5 25C0.671572 25 -1.32928e-06 24.3284 -1.28402e-06 23.5L-8.19585e-08 1.5C-3.66941e-08 0.671573 0.671573 -8.14227e-08 1.5 -5.24535e-08Z" fill="#323232"/>
<path fill-rule="evenodd" clip-rule="evenodd" d="M25 1.5C25 0.671573 24.3284 0 23.5 0H18.5C17.6716 0 17 0.671573 17 1.5C17 2.32843 17.6716 3 18.5 3H23.5C24.3284 3 25 2.32843 25 1.5Z" fill="#323232"/>
<path fill-rule="evenodd" clip-rule="evenodd" d="M25 23.5C25 22.6716 24.3284 22 23.5 22H18.5C17.6716 22 17 22.6716 17 23.5C17 24.3284 17.6716 25 18.5 25H23.5C24.3284 25 25 24.3284 25 23.5Z" fill="#323232"/>
<path fill-rule="evenodd" clip-rule="evenodd" d="M23.5 -5.24535e-08C22.6716 -2.34842e-08 22 0.671573 22 1.5L22 23.5C22 24.3284 22.6716 25 23.5 25C24.3284 25 25 24.3284 25 23.5L25 1.5C25 0.671573 24.3284 -8.14227e-08 23.5 -5.24535e-08Z" fill="#323232"/>
<path fill-rule="evenodd" clip-rule="evenodd" d="M8 16C8 15.4477 8.44772 15 9 15L16 15C16.5523 15 17 15.4477 17 16C17 16.5523 16.5523 17 16 17L9 17C8.44772 17 8 16.5523 8 16Z" fill="#323232"/>
<path fill-rule="evenodd" clip-rule="evenodd" d="M8 12C8 11.4477 8.44772 11 9 11L16 11C16.5523 11 17 11.4477 17 12C17 12.5523 16.5523 13 16 13L9 13C8.44772 13 8 12.5523 8 12Z" fill="#323232"/>
<path fill-rule="evenodd" clip-rule="evenodd" d="M8 8C8 7.44772 8.44772 7 9 7L16 7C16.5523 7 17 7.44772 17 8C17 8.55229 16.5523 9 16 9L9 9C8.44772 9 8 8.55228 8 8Z" fill="#323232"/>
</svg>
