<svg width="27" height="27" viewBox="0 0 27 27" fill="none" xmlns="http://www.w3.org/2000/svg">
<path fill-rule="evenodd" clip-rule="evenodd" d="M18.1805 2.99558C15.9153 1.98627 13.3845 1.73623 10.9656 2.28275C8.5467 2.82927 6.36926 4.14307 4.75802 6.02822C3.14679 7.91336 2.1881 10.2688 2.02493 12.7433C1.86176 15.2179 2.50286 17.6788 3.85261 19.7592C5.20235 21.8396 7.18843 23.4279 9.51464 24.2873C11.8408 25.1468 14.3825 25.2312 16.7607 24.5281C19.1388 23.8249 21.2259 22.3719 22.7107 20.3857C24.1956 18.3995 24.9986 15.9865 25 13.5066V12.3572C25 11.8049 25.4477 11.3572 26 11.3572C26.5523 11.3572 27 11.8049 27 12.3572V13.5072C26.9983 16.4183 26.0557 19.2515 24.3126 21.5832C22.5695 23.9148 20.1194 25.6206 17.3277 26.446C14.536 27.2714 11.5523 27.1723 8.82153 26.1634C6.09077 25.1545 3.75928 23.29 2.1748 20.8478C0.590309 18.4056 -0.162282 15.5166 0.0292637 12.6117C0.220809 9.70689 1.34623 6.94177 3.23768 4.72877C5.12912 2.51578 7.68526 0.973493 10.5249 0.331924C13.3644 -0.309645 16.3354 -0.016118 18.9945 1.16873C19.499 1.39351 19.7257 1.98468 19.5009 2.48916C19.2761 2.99363 18.685 3.22036 18.1805 2.99558Z" fill="#323232"/>
<path fill-rule="evenodd" clip-rule="evenodd" d="M26.7068 2.79974C27.0975 3.19007 27.0978 3.82324 26.7075 4.21396L14.2075 16.7265C14.02 16.9141 13.7656 17.0196 13.5002 17.0197C13.2349 17.0198 12.9805 16.9144 12.7929 16.7268L9.04289 12.9768C8.65237 12.5863 8.65237 11.9531 9.04289 11.5626C9.43342 11.1721 10.0666 11.1721 10.4571 11.5626L13.4996 14.6051L25.2925 2.80045C25.6829 2.40973 26.316 2.40941 26.7068 2.79974Z" fill="#323232"/>
</svg>
