<svg width="25" height="25" viewBox="0 0 25 25" fill="none" xmlns="http://www.w3.org/2000/svg">
<path fill-rule="evenodd" clip-rule="evenodd" d="M2.5 4C1.11929 4 0 5.11929 0 6.5C0 7.88071 1.11929 9 2.5 9H12.5C13.8807 9 15 7.88071 15 6.5C15 5.11929 13.8807 4 12.5 4H2.5Z" fill="#323232"/>
<path fill-rule="evenodd" clip-rule="evenodd" d="M2.5 10.25C1.11929 10.25 0 11.3693 0 12.75C0 14.1307 1.11929 15.25 2.5 15.25H22.5C23.8807 15.25 25 14.1307 25 12.75C25 11.3693 23.8807 10.25 22.5 10.25H2.5Z" fill="#323232"/>
<path fill-rule="evenodd" clip-rule="evenodd" d="M2.5 16.5C1.11929 16.5 0 17.6193 0 19C0 20.3807 1.11929 21.5 2.5 21.5H22.5C23.8807 21.5 25 20.3807 25 19C25 17.6193 23.8807 16.5 22.5 16.5H2.5Z" fill="#323232"/>
</svg>
