<svg width="26" height="25" viewBox="0 0 26 25" fill="none" xmlns="http://www.w3.org/2000/svg">
<path d="M12.5 0C5.57292 0 0 5.57292 0 12.5C0 19.4271 5.57292 25 12.5 25C19.4271 25 25 19.4271 25 12.5C25 5.57292 19.4271 0 12.5 0ZM13.5417 2.65625C13.4896 2.65625 13.4896 2.65625 13.4375 2.65625C13.4896 2.65625 13.5417 2.65625 13.5417 2.65625ZM12.5 22.3958C7.03125 22.3958 2.60417 17.9688 2.60417 12.5C2.60417 11.9792 2.65625 11.4062 2.76042 10.9375C3.4375 11.0417 4.27083 11.3021 4.6875 11.7188C5.57292 12.6562 6.5625 13.75 7.5 13.9583C7.5 13.9583 7.39583 14.0104 7.29167 14.1667C7.1875 14.3229 7.08333 14.6354 7.08333 15.1562C7.08333 17.6042 9.375 16.1458 9.375 18.5938C9.375 21.0417 12.1354 22.0312 12.1354 20.0521C12.1354 18.0729 13.9583 17.1354 13.9583 15.625C13.9583 14.1146 12.5521 14.1667 11.6667 13.6458C10.7292 13.1771 10.2604 12.3958 8.48958 12.6562C7.55208 11.7708 7.03125 11.0417 7.44792 10.2083C7.91667 9.32292 9.84375 9.16667 9.84375 7.8125C9.84375 6.45833 8.54167 6.19792 7.60417 6.19792C7.1875 6.19792 6.30208 5.88542 5.57292 5.52083C6.45833 4.63542 7.55208 3.90625 8.69792 3.38542C9.53125 3.75 10.9375 4.32292 12.1354 4.32292C13.5417 4.32292 14.2708 3.33333 14.0625 2.70833C16.4062 3.07292 18.4896 4.27083 20 5.9375C19.2188 6.40625 18.1771 6.92708 16.3542 6.92708C13.9583 6.92708 13.9583 9.375 15.3646 9.84375C16.8229 10.3125 18.2812 8.90625 18.75 9.84375C19.2188 10.7812 15.3646 10.7812 16.3542 13.1771C17.3438 15.5729 18.2812 13.125 19.2708 15.5208C20.2604 17.9167 22.1875 15.1562 20.7292 13.2812C20.1042 12.4479 20.2604 9.89583 21.7188 9.89583H22.1875C22.3958 10.7292 22.5521 11.6146 22.5521 12.5C22.3958 17.9688 17.9688 22.3958 12.5 22.3958Z" fill="#323232"/>
</svg>
