<svg width="25" height="25" viewBox="0 0 25 25" fill="none" xmlns="http://www.w3.org/2000/svg">
<path d="M4.60526 13.8158C3.88158 13.8158 3.28947 14.4079 3.28947 15.1316C3.28947 15.8553 3.88158 16.4474 4.60526 16.4474C5.32895 16.4474 5.92105 15.8553 5.92105 15.1316C5.92105 14.4079 5.32895 13.8158 4.60526 13.8158ZM4.60526 19.0789C3.88158 19.0789 3.28947 19.6711 3.28947 20.3947C3.28947 21.1184 3.88158 21.7105 4.60526 21.7105C5.32895 21.7105 5.92105 21.1184 5.92105 20.3947C5.92105 19.6711 5.32895 19.0789 4.60526 19.0789ZM4.60526 8.55263C3.88158 8.55263 3.28947 9.14474 3.28947 9.86842C3.28947 10.5921 3.88158 11.1842 4.60526 11.1842C5.32895 11.1842 5.92105 10.5921 5.92105 9.86842C5.92105 9.14474 5.32895 8.55263 4.60526 8.55263ZM0.657895 9.21053C0.289474 9.21053 0 9.5 0 9.86842C0 10.2368 0.289474 10.5263 0.657895 10.5263C1.02632 10.5263 1.31579 10.2368 1.31579 9.86842C1.31579 9.5 1.02632 9.21053 0.657895 9.21053ZM4.60526 3.28947C3.88158 3.28947 3.28947 3.88158 3.28947 4.60526C3.28947 5.32895 3.88158 5.92105 4.60526 5.92105C5.32895 5.92105 5.92105 5.32895 5.92105 4.60526C5.92105 3.88158 5.32895 3.28947 4.60526 3.28947ZM24.3421 10.5263C24.7105 10.5263 25 10.2368 25 9.86842C25 9.5 24.7105 9.21053 24.3421 9.21053C23.9737 9.21053 23.6842 9.5 23.6842 9.86842C23.6842 10.2368 23.9737 10.5263 24.3421 10.5263ZM15.1316 5.92105C15.8553 5.92105 16.4474 5.32895 16.4474 4.60526C16.4474 3.88158 15.8553 3.28947 15.1316 3.28947C14.4079 3.28947 13.8158 3.88158 13.8158 4.60526C13.8158 5.32895 14.4079 5.92105 15.1316 5.92105ZM15.1316 1.31579C15.5 1.31579 15.7895 1.02632 15.7895 0.657895C15.7895 0.289474 15.5 0 15.1316 0C14.7632 0 14.4737 0.289474 14.4737 0.657895C14.4737 1.02632 14.7632 1.31579 15.1316 1.31579ZM0.657895 14.4737C0.289474 14.4737 0 14.7632 0 15.1316C0 15.5 0.289474 15.7895 0.657895 15.7895C1.02632 15.7895 1.31579 15.5 1.31579 15.1316C1.31579 14.7632 1.02632 14.4737 0.657895 14.4737ZM9.86842 23.6842C9.5 23.6842 9.21053 23.9737 9.21053 24.3421C9.21053 24.7105 9.5 25 9.86842 25C10.2368 25 10.5263 24.7105 10.5263 24.3421C10.5263 23.9737 10.2368 23.6842 9.86842 23.6842ZM9.86842 1.31579C10.2368 1.31579 10.5263 1.02632 10.5263 0.657895C10.5263 0.289474 10.2368 0 9.86842 0C9.5 0 9.21053 0.289474 9.21053 0.657895C9.21053 1.02632 9.5 1.31579 9.86842 1.31579ZM9.86842 5.92105C10.5921 5.92105 11.1842 5.32895 11.1842 4.60526C11.1842 3.88158 10.5921 3.28947 9.86842 3.28947C9.14474 3.28947 8.55263 3.88158 8.55263 4.60526C8.55263 5.32895 9.14474 5.92105 9.86842 5.92105ZM9.86842 13.1579C8.77632 13.1579 7.89474 14.0395 7.89474 15.1316C7.89474 16.2237 8.77632 17.1053 9.86842 17.1053C10.9605 17.1053 11.8421 16.2237 11.8421 15.1316C11.8421 14.0395 10.9605 13.1579 9.86842 13.1579ZM20.3947 13.8158C19.6711 13.8158 19.0789 14.4079 19.0789 15.1316C19.0789 15.8553 19.6711 16.4474 20.3947 16.4474C21.1184 16.4474 21.7105 15.8553 21.7105 15.1316C21.7105 14.4079 21.1184 13.8158 20.3947 13.8158ZM20.3947 19.0789C19.6711 19.0789 19.0789 19.6711 19.0789 20.3947C19.0789 21.1184 19.6711 21.7105 20.3947 21.7105C21.1184 21.7105 21.7105 21.1184 21.7105 20.3947C21.7105 19.6711 21.1184 19.0789 20.3947 19.0789ZM20.3947 8.55263C19.6711 8.55263 19.0789 9.14474 19.0789 9.86842C19.0789 10.5921 19.6711 11.1842 20.3947 11.1842C21.1184 11.1842 21.7105 10.5921 21.7105 9.86842C21.7105 9.14474 21.1184 8.55263 20.3947 8.55263ZM20.3947 3.28947C19.6711 3.28947 19.0789 3.88158 19.0789 4.60526C19.0789 5.32895 19.6711 5.92105 20.3947 5.92105C21.1184 5.92105 21.7105 5.32895 21.7105 4.60526C21.7105 3.88158 21.1184 3.28947 20.3947 3.28947ZM24.3421 14.4737C23.9737 14.4737 23.6842 14.7632 23.6842 15.1316C23.6842 15.5 23.9737 15.7895 24.3421 15.7895C24.7105 15.7895 25 15.5 25 15.1316C25 14.7632 24.7105 14.4737 24.3421 14.4737ZM15.1316 19.0789C14.4079 19.0789 13.8158 19.6711 13.8158 20.3947C13.8158 21.1184 14.4079 21.7105 15.1316 21.7105C15.8553 21.7105 16.4474 21.1184 16.4474 20.3947C16.4474 19.6711 15.8553 19.0789 15.1316 19.0789ZM15.1316 23.6842C14.7632 23.6842 14.4737 23.9737 14.4737 24.3421C14.4737 24.7105 14.7632 25 15.1316 25C15.5 25 15.7895 24.7105 15.7895 24.3421C15.7895 23.9737 15.5 23.6842 15.1316 23.6842ZM9.86842 7.89474C8.77632 7.89474 7.89474 8.77632 7.89474 9.86842C7.89474 10.9605 8.77632 11.8421 9.86842 11.8421C10.9605 11.8421 11.8421 10.9605 11.8421 9.86842C11.8421 8.77632 10.9605 7.89474 9.86842 7.89474ZM9.86842 19.0789C9.14474 19.0789 8.55263 19.6711 8.55263 20.3947C8.55263 21.1184 9.14474 21.7105 9.86842 21.7105C10.5921 21.7105 11.1842 21.1184 11.1842 20.3947C11.1842 19.6711 10.5921 19.0789 9.86842 19.0789ZM15.1316 13.1579C14.0395 13.1579 13.1579 14.0395 13.1579 15.1316C13.1579 16.2237 14.0395 17.1053 15.1316 17.1053C16.2237 17.1053 17.1053 16.2237 17.1053 15.1316C17.1053 14.0395 16.2237 13.1579 15.1316 13.1579ZM15.1316 7.89474C14.0395 7.89474 13.1579 8.77632 13.1579 9.86842C13.1579 10.9605 14.0395 11.8421 15.1316 11.8421C16.2237 11.8421 17.1053 10.9605 17.1053 9.86842C17.1053 8.77632 16.2237 7.89474 15.1316 7.89474Z" fill="#323232"/>
</svg>
