<svg width="27" height="25" viewBox="0 0 27 25" fill="none" xmlns="http://www.w3.org/2000/svg">
<path fill-rule="evenodd" clip-rule="evenodd" d="M9.65942 5.36332C8.99628 4.60545 7.8173 4.60545 7.15417 5.36333L1.91181 11.3546C1.36274 11.9821 1.36272 12.9192 1.9118 13.5467L7.15416 19.5379C7.8173 20.2958 8.99627 20.2958 9.65941 19.5379L14.9017 13.5467C15.4508 12.9192 15.4508 11.9821 14.9018 11.3546L9.65942 5.36332ZM10.7883 4.37556L16.0306 10.3668C17.0746 11.5598 17.0746 13.3414 16.0306 14.5344L10.7883 20.5256C9.52754 21.9666 7.28604 21.9666 6.02529 20.5256L0.782963 14.5344C-0.260978 13.3414 -0.260992 11.5598 0.782949 10.3668M0.782949 10.3668L6.0253 4.37558C7.28605 2.93471 9.52753 2.93471 10.7883 4.37556" fill="#323232"/>
<path fill-rule="evenodd" clip-rule="evenodd" d="M13.9553 3.43057C14.2698 3.16101 14.7432 3.19742 15.0128 3.51192L20.9094 10.3912L20.9094 10.3912C21.9251 11.5763 21.9251 13.3249 20.9094 14.51L20.9094 14.51L15.0128 21.3893C14.7432 21.7038 14.2698 21.7402 13.9553 21.4706C13.6408 21.2011 13.6044 20.7276 13.8739 20.4131L19.7705 13.5339C19.7705 13.5339 19.7705 13.5339 19.7705 13.5338C20.3047 12.9105 20.3047 11.9907 19.7705 11.3674C19.7705 11.3674 19.7705 11.3673 19.7705 11.3673L13.8739 4.48811C13.6044 4.17362 13.6408 3.70014 13.9553 3.43057Z" fill="#323232"/>
<path fill-rule="evenodd" clip-rule="evenodd" d="M18.7844 3.43057C19.0989 3.16101 19.5723 3.19742 19.8419 3.51192L25.7385 10.3912L25.7385 10.3912C26.7542 11.5763 26.7542 13.3249 25.7385 14.51L25.7385 14.51L19.8419 21.3893C19.5723 21.7038 19.0989 21.7402 18.7844 21.4706C18.4699 21.2011 18.4335 20.7276 18.703 20.4131L24.5996 13.5339C24.5996 13.5339 24.5996 13.5339 24.5996 13.5338C25.1338 12.9105 25.1338 11.9907 24.5996 11.3674C24.5996 11.3674 24.5996 11.3673 24.5996 11.3673L18.703 4.48811C18.4335 4.17362 18.4699 3.70014 18.7844 3.43057Z" fill="#323232"/>
</svg>
