<svg width="24" height="24" viewBox="0 0 24 24" fill="none" xmlns="http://www.w3.org/2000/svg">
<mask id="mask0_4176_29" style="mask-type:alpha" maskUnits="userSpaceOnUse" x="0" y="0" width="24" height="24">
<rect width="24" height="24" fill="#D9D9D9"/>
</mask>
<g mask="url(#mask0_4176_29)">
<path d="M1.20001 8.425V3.275H5.82501V8.425H1.20001ZM6.82501 8.425V3.275H11.5V8.425H6.82501ZM12.5 8.425V3.275H17.175V8.425H12.5ZM18.175 8.425V3.275H22.8V8.425H18.175ZM18.175 14.575V9.425H22.8V14.575H18.175ZM12.5 14.575V9.425H17.175V14.575H12.5ZM6.82501 14.575V9.425H11.5V14.575H6.82501ZM1.20001 14.575V9.425H5.82501V14.575H1.20001ZM18.175 20.725V15.575H22.8V20.725H18.175ZM12.5 20.725V15.575H17.175V20.725H12.5ZM6.82501 20.725V15.575H11.5V20.725H6.82501ZM1.20001 20.725V15.575H5.82501V20.725H1.20001Z" fill="#6F52ED"/>
</g>
</svg>
