<svg width="25" height="25" viewBox="0 0 25 25" fill="none" xmlns="http://www.w3.org/2000/svg">
<path d="M24.9999 16V24.3332H23.3333L21.6666 19.3333V24.3332H20V16H21.6666L23.3333 20.9999V16H24.9999Z" fill="#323232"/>
<path d="M16.9452 24.3332H14.7227C14.3545 24.3328 14.0015 24.1864 13.7412 23.926C13.4809 23.6657 13.3344 23.3127 13.334 22.9445V17.3887C13.3344 17.0205 13.4809 16.6676 13.7412 16.4072C14.0015 16.1469 14.3545 16.0004 14.7227 16H16.9452C17.3134 16.0004 17.6664 16.1469 17.9267 16.4072C18.187 16.6676 18.3335 17.0205 18.3339 17.3887V22.9445C18.3335 23.3127 18.187 23.6657 17.9267 23.926C17.6664 24.1864 17.3134 24.3328 16.9452 24.3332ZM15.0006 22.6666H16.6673V17.6666H15.0006V22.6666Z" fill="#323232"/>
<path d="M10.2782 24.3332H6.66699V22.6666H10.0003V20.9999H8.33364C7.89175 20.9995 7.46809 20.8238 7.15563 20.5113C6.84317 20.1988 6.66743 19.7752 6.66699 19.3333V17.3887C6.66741 17.0205 6.81386 16.6676 7.0742 16.4072C7.33455 16.1469 7.68754 16.0004 8.05572 16H11.6669V17.6666H8.33364V19.3333H10.0003C10.4422 19.3337 10.8658 19.5095 11.1783 19.8219C11.4907 20.1344 11.6665 20.558 11.6669 20.9999V22.9445C11.6665 23.3127 11.5201 23.6657 11.2597 23.926C10.9994 24.1864 10.6464 24.3328 10.2782 24.3332Z" fill="#323232"/>
<path d="M3.6112 24.3332H1.38873C1.02055 24.3328 0.667559 24.1864 0.407213 23.926C0.146866 23.6657 0.000419057 23.3127 0 22.9445V20.9999H1.66664V22.6666H3.33329V16H4.99993V22.9445C4.99951 23.3127 4.85306 23.6657 4.59272 23.926C4.33237 24.1864 3.97939 24.3328 3.6112 24.3332Z" fill="#323232"/>
<path d="M13 0C8.90909 0 5.41545 2.488 4 6C5.41545 9.512 8.90909 12 13 12C17.0909 12 20.5845 9.512 22 6C20.5845 2.488 17.0909 0 13 0ZM13 10C10.7418 10 8.90909 8.208 8.90909 6C8.90909 3.792 10.7418 2 13 2C15.2582 2 17.0909 3.792 17.0909 6C17.0909 8.208 15.2582 10 13 10ZM13 3.6C11.6418 3.6 10.5455 4.672 10.5455 6C10.5455 7.328 11.6418 8.4 13 8.4C14.3582 8.4 15.4545 7.328 15.4545 6C15.4545 4.672 14.3582 3.6 13 3.6Z" fill="#323232"/>
</svg>
