<svg width="25" height="25" viewBox="0 0 25 25" fill="none" xmlns="http://www.w3.org/2000/svg">
<path d="M12.4992 17.8572C11.0789 17.8556 9.71727 17.2907 8.71296 16.2864C7.70866 15.2821 7.14372 13.9204 7.14209 12.5001H8.9278C8.9278 13.2064 9.13726 13.8969 9.5297 14.4843C9.92213 15.0716 10.4799 15.5293 11.1325 15.7997C11.7851 16.07 12.5032 16.1407 13.196 16.0029C13.8888 15.8651 14.5251 15.5249 15.0246 15.0255C15.5241 14.526 15.8642 13.8896 16.002 13.1968C16.1398 12.504 16.0691 11.786 15.7988 11.1334C15.5285 10.4808 15.0707 9.92299 14.4834 9.53055C13.8961 9.13812 13.2056 8.92866 12.4992 8.92866V7.14294C13.92 7.14294 15.2826 7.70736 16.2873 8.71202C17.292 9.71667 17.8564 11.0793 17.8564 12.5001C17.8564 13.9209 17.292 15.2835 16.2873 16.2882C15.2826 17.2928 13.92 17.8572 12.4992 17.8572Z" fill="#323232"/>
<path d="M12.5 25C9.18594 24.9963 6.00869 23.6781 3.66529 21.3347C1.32189 18.9913 0.00373384 15.8141 0 12.5H1.78571C1.78571 14.6191 2.4141 16.6906 3.5914 18.4525C4.7687 20.2145 6.44204 21.5878 8.39982 22.3987C10.3576 23.2096 12.5119 23.4218 14.5903 23.0084C16.6686 22.595 18.5777 21.5746 20.0761 20.0761C21.5746 18.5777 22.595 16.6686 23.0084 14.5903C23.4218 12.5119 23.2096 10.3576 22.3987 8.39982C21.5878 6.44204 20.2145 4.7687 18.4525 3.5914C16.6906 2.4141 14.6191 1.78571 12.5 1.78571V0C15.8152 0 18.9946 1.31696 21.3388 3.66116C23.683 6.00537 25 9.18479 25 12.5C25 15.8152 23.683 18.9946 21.3388 21.3388C18.9946 23.683 15.8152 25 12.5 25Z" fill="#323232"/>
<path d="M12.5003 21.4282C10.1332 21.4255 7.86374 20.4839 6.1899 18.8101C4.51605 17.1362 3.57449 14.8668 3.57178 12.4996H5.35749C5.35749 13.9123 5.77641 15.2933 6.56128 16.468C7.34615 17.6426 8.46171 18.5581 9.7669 19.0988C11.0721 19.6394 12.5083 19.7808 13.8939 19.5052C15.2794 19.2296 16.5522 18.5493 17.5511 17.5504C18.5501 16.5514 19.2304 15.2787 19.506 13.8931C19.7816 12.5075 19.6401 11.0714 19.0995 9.76616C18.5589 8.46098 17.6433 7.34542 16.4687 6.56055C15.2941 5.77568 13.9131 5.35676 12.5003 5.35676V3.57104C14.8684 3.57104 17.1394 4.51173 18.8138 6.18616C20.4882 7.8606 21.4289 10.1316 21.4289 12.4996C21.4289 14.8676 20.4882 17.1386 18.8138 18.8131C17.1394 20.4875 14.8684 21.4282 12.5003 21.4282Z" fill="#323232"/>
</svg>
