<svg width="24" height="24" viewBox="0 0 24 24" fill="none" xmlns="http://www.w3.org/2000/svg">
<mask id="mask0_4176_205" style="mask-type:alpha" maskUnits="userSpaceOnUse" x="0" y="0" width="24" height="24">
<rect width="24" height="24" fill="#D9D9D9"/>
</mask>
<g mask="url(#mask0_4176_205)">
<path d="M2.65 20.5V18.125H4.6L4.5 18.025C3.61667 17.1583 2.97917 16.2083 2.5875 15.175C2.19583 14.1416 2 13.1 2 12.05C2 9.93331 2.67917 8.07498 4.0375 6.47498C5.39583 4.87498 7.125 3.87498 9.225 3.47498V6.72498C8.00833 7.00831 7.025 7.65414 6.275 8.66248C5.525 9.67081 5.15 10.8 5.15 12.05C5.15 12.7 5.275 13.3416 5.525 13.975C5.775 14.6083 6.16667 15.2083 6.7 15.775L6.775 15.825V14H9.15V20.5H2.65ZM21.875 11H18.7C18.6167 10.5166 18.4542 10.0416 18.2125 9.57498C17.9708 9.10831 17.65 8.65831 17.25 8.22498L17.2 8.17498V9.99998H14.8V3.49998H21.3V5.87498H19.35L19.45 5.97498C20.1833 6.72498 20.7458 7.52498 21.1375 8.37498C21.5292 9.22498 21.775 10.1 21.875 11ZM16.425 23.775L16.075 22.15C15.9417 22.1 15.8042 22.0333 15.6625 21.95C15.5208 21.8666 15.3833 21.7833 15.25 21.7L13.7 22.2L12.375 19.95L13.65 18.875C13.6 18.725 13.5792 18.5583 13.5875 18.375C13.5958 18.1916 13.6167 18.025 13.65 17.875L12.375 16.8L13.7 14.575L15.25 15.05C15.3833 14.9666 15.5208 14.8875 15.6625 14.8125C15.8042 14.7375 15.9417 14.675 16.075 14.625L16.425 13H19.05L19.375 14.625C19.5083 14.675 19.6458 14.7375 19.7875 14.8125C19.9292 14.8875 20.0667 14.9833 20.2 15.1L21.775 14.575L23.075 16.85L21.825 17.925C21.875 18.0583 21.8958 18.2166 21.8875 18.4C21.8792 18.5833 21.8583 18.7416 21.825 18.875L23.075 19.95L21.775 22.2L20.2 21.7C20.0667 21.7833 19.9292 21.8666 19.7875 21.95C19.6458 22.0333 19.5083 22.1 19.375 22.15L19.05 23.775H16.425ZM17.725 20.2C18.2083 20.2 18.6333 20.0166 19 19.65C19.3667 19.2833 19.55 18.8583 19.55 18.375C19.55 17.8916 19.3667 17.4708 19 17.1125C18.6333 16.7541 18.2083 16.575 17.725 16.575C17.2417 16.575 16.8208 16.7541 16.4625 17.1125C16.1042 17.4708 15.925 17.8916 15.925 18.375C15.925 18.8583 16.1042 19.2833 16.4625 19.65C16.8208 20.0166 17.2417 20.2 17.725 20.2Z" fill="#6F52ED"/>
</g>
</svg>
