<svg width="25" height="25" viewBox="0 0 25 25" fill="none" xmlns="http://www.w3.org/2000/svg">
<path fill-rule="evenodd" clip-rule="evenodd" d="M2.5 3.66667C2.38547 3.66667 2.27833 3.68931 2.18123 3.72957L1.54281 2.19003C1.83873 2.06731 2.16256 2 2.5 2H3.33333V3.66667H2.5ZM6.66667 3.66667H5V2H6.66667V3.66667ZM10 3.66667H8.33333V2H10V3.66667ZM13.3333 3.66667H11.6667V2H13.3333V3.66667ZM16.6667 3.66667H15V2H16.6667V3.66667ZM20 3.66667H18.3333V2H20V3.66667ZM22.5 3.66667H21.6667V2H22.5C22.8374 2 23.1613 2.06731 23.4572 2.19003L22.8188 3.72957C22.7217 3.68931 22.6145 3.66667 22.5 3.66667ZM1.72957 4.18123C1.68931 4.27833 1.66667 4.38547 1.66667 4.5V5.29167H0V4.5C0 4.16256 0.0673139 3.83873 0.190029 3.54281L1.72957 4.18123ZM23.3333 4.5C23.3333 4.38547 23.3107 4.27833 23.2704 4.18123L24.81 3.54281C24.9327 3.83873 25 4.16256 25 4.5V5.29167H23.3333V4.5ZM23.3333 8.45833V6.875H25V8.45833H23.3333ZM1.66667 6.875V8.45833H0V6.875H1.66667ZM23.3333 11.625V10.0417H25V11.625H23.3333ZM1.66667 10.0417V11.625H0V10.0417H1.66667ZM1.66667 13.2083V14.7917H0V13.2083H1.66667ZM23.3333 14.7917V13.2083H25V14.7917H23.3333ZM1.66667 16.375V17.9583H0V16.375H1.66667ZM23.3333 17.9583V16.375H25V17.9583H23.3333ZM1.66667 19.5417V20.3333C1.66667 20.4479 1.68931 20.555 1.72957 20.6521L0.190029 21.2905C0.0673139 20.9946 0 20.6708 0 20.3333V19.5417H1.66667ZM23.3333 20.3333V19.5417H25V20.3333C25 20.6708 24.9327 20.9946 24.81 21.2905L23.2704 20.6521C23.3107 20.555 23.3333 20.4479 23.3333 20.3333ZM2.18123 21.1038C2.27833 21.144 2.38547 21.1667 2.5 21.1667H3.33333V22.8333H2.5C2.16256 22.8333 1.83873 22.766 1.54281 22.6433L2.18123 21.1038ZM22.5 21.1667C22.6145 21.1667 22.7217 21.144 22.8188 21.1038L23.4572 22.6433C23.1613 22.766 22.8374 22.8333 22.5 22.8333H21.6667V21.1667H22.5ZM5 21.1667H6.66667V22.8333H5V21.1667ZM8.33333 21.1667H10V22.8333H8.33333V21.1667ZM11.6667 21.1667H13.3333V22.8333H11.6667V21.1667ZM15 21.1667H16.6667V22.8333H15V21.1667ZM18.3333 21.1667H20V22.8333H18.3333V21.1667Z" fill="#323232"/>
<path d="M12.7661 8.88118L9.57258 18H7L11.3629 7H13L12.7661 8.88118ZM15.4194 18L12.2177 8.88118L11.9597 7H13.6129L18 18H15.4194ZM15.2742 13.9052V15.6806H9.07258V13.9052H15.2742Z" fill="#323232"/>
</svg>
