<svg width="25" height="25" viewBox="0 0 25 25" fill="none" xmlns="http://www.w3.org/2000/svg">
<path d="M13 0.00364376C13.1545 0.00121825 13.3096 0 13.4651 0C16.4425 0 19.2556 0.446612 21.3809 1.26283C23.7166 2.16119 25 3.43429 25 4.85113V20.1489C25 21.5657 23.7166 22.8388 21.3809 23.7372C19.2556 24.5534 16.4425 25 13.4651 25C13.3096 25 13.1545 24.9988 13 24.9964V23.6102C13.1544 23.6127 13.3095 23.614 13.4651 23.614C16.2782 23.614 18.9117 23.1982 20.883 22.4435C22.5924 21.7864 23.614 20.9292 23.614 20.1489V17.5103C23.039 17.962 22.2895 18.3676 21.3809 18.7115C19.2556 19.5277 16.4425 19.9743 13.4651 19.9743C13.3096 19.9743 13.1545 19.9731 13 19.9707V18.5896C13.1544 18.5922 13.3095 18.5934 13.4651 18.5934C16.2782 18.5934 18.9117 18.1776 20.883 17.423C22.5924 16.7659 23.614 15.9086 23.614 15.1283V12.4127C23.039 12.8645 22.2895 13.27 21.3809 13.614C19.2556 14.4302 16.4425 14.8768 13.4651 14.8768C13.3096 14.8768 13.1545 14.8756 13 14.8732V13.487C13.1544 13.4895 13.3095 13.4908 13.4651 13.4908C16.2782 13.4908 18.9117 13.0749 20.883 12.3203C22.5924 11.6632 23.614 10.806 23.614 10.0257V7.23306C23.039 7.6848 22.2895 8.09035 21.3809 8.43429C19.2556 9.25051 16.4425 9.69712 13.4651 9.69712C13.3096 9.69712 13.1545 9.69591 13 9.69348V8.30728C13.1544 8.30981 13.3095 8.31109 13.4651 8.31109C16.2782 8.31109 18.9117 7.89528 20.883 7.14066C22.5924 6.48357 23.614 5.62628 23.614 4.846C23.614 4.06571 22.5924 3.20842 20.883 2.55133C18.9117 1.79671 16.2782 1.3809 13.4651 1.3809C13.3095 1.3809 13.1544 1.38218 13 1.38471V0.00364376Z" fill="#323232"/>
<path d="M7.11701 16.1557L6.11066 15.1494L4.2702 16.9898V11.1738H2.8468V16.9898L1.00634 15.1494L0 16.1557L3.5585 19.7142L7.11701 16.1557Z" fill="#323232"/>
<path d="M3.39178 8.55862L4.39813 9.56497L6.23859 7.72451L6.23858 13.5405L7.66199 13.5405L7.66199 7.72451L9.50244 9.56497L10.5088 8.55862L6.95029 5.00012L3.39178 8.55862Z" fill="#323232"/>
</svg>
