<svg width="25" height="26" viewBox="0 0 25 26" fill="none" xmlns="http://www.w3.org/2000/svg">
<g clip-path="url(#clip0_8910_35584)">
<path d="M23.351 3.00496L22.4811 2.23543C20.4551 0.438833 17.3526 0.625116 15.5566 2.65168L13.067 5.46046C12.505 6.09453 12.5634 7.06796 13.1972 7.63042L13.4309 7.83776C14.0669 8.40163 15.0373 8.34341 15.6016 7.70731L18.0912 4.89862C18.6465 4.27266 19.6085 4.21505 20.2348 4.7695L21.1037 5.54035C21.7301 6.0955 21.7892 7.0573 21.233 7.68362L15.7892 13.8249C15.3284 14.3455 14.5745 14.4859 13.9558 14.1662C13.2791 13.8168 12.4539 13.9703 11.9487 14.5401L11.9063 14.588C11.5645 14.9735 11.4219 15.4853 11.5153 15.9922C11.6088 16.4988 11.9242 16.9262 12.3807 17.1648C13.1026 17.5421 13.8823 17.7248 14.6543 17.7248C16.0223 17.7248 17.3666 17.1512 18.3245 16.0711L23.768 9.93056C25.5619 7.90672 25.3752 4.80033 23.351 3.00496Z" fill="#323232"/>
<path d="M11.8021 19.3712L11.5679 19.1637C10.9334 18.6015 9.95969 18.6606 9.39767 19.2948L6.90913 22.1032C6.35354 22.729 5.39227 22.7871 4.76648 22.233L3.89637 21.4611C3.2697 20.9061 3.21086 19.9451 3.76716 19.3186L9.21086 13.1778C9.66216 12.668 10.4047 12.5223 11.0168 12.823C11.7202 13.1686 12.5743 13.0005 13.095 12.4129L13.1145 12.3909C13.449 12.0132 13.5898 11.5119 13.5008 11.0156C13.4119 10.5192 13.1059 10.0981 12.6612 9.86015C10.6506 8.78385 8.1896 9.22423 6.67661 10.9316L1.23256 17.0712V17.0713C-0.561659 19.0951 -0.375023 22.2014 1.64881 23.9961L2.51875 24.7667C3.45087 25.5931 4.61235 25.9991 5.76994 25.9991C7.1258 25.9991 8.47603 25.4418 9.44435 24.3499L11.9332 21.5415C12.4963 20.9056 12.4385 19.9354 11.8021 19.3712Z" fill="#323232"/>
</g>
<defs>
<clipPath id="clip0_8910_35584">
<rect width="25" height="25" fill="white" transform="translate(0 1)"/>
</clipPath>
</defs>
</svg>
