<svg width="25" height="25" viewBox="0 0 25 25" fill="none" xmlns="http://www.w3.org/2000/svg">
<path d="M11.9843 4.16923C11.9843 3.56923 12.4882 3.33846 13.3228 3.33846C14.5197 3.33846 16.0315 3.69231 17.2283 4.32308V0.707692C15.9213 0.2 14.6299 0 13.3228 0C10.126 0 8 1.63077 8 4.35385C8 8.6 13.9843 7.92308 13.9843 9.75385C13.9843 10.4615 13.3543 10.6923 12.4724 10.6923C11.1654 10.6923 9.49606 10.1692 8.17323 9.46154V13.1231C9.6378 13.7385 11.1181 14 12.4724 14C15.748 14 18 12.4154 18 9.66154C17.9843 5.07692 11.9843 5.89231 11.9843 4.16923Z" fill="#323232"/>
<path d="M8.21555 19.1714L12.1843 15.2027C12.4545 14.9324 12.9097 14.9324 13.18 15.2027L17.1487 19.1714C17.6039 19.6124 17.2909 20.3805 16.6508 20.3805H14.1046V23C14.1046 23.7824 13.4645 24.4225 12.6821 24.4225C11.8998 24.4225 11.2597 23.7824 11.2597 23V20.3805H8.71342C8.07331 20.3805 7.76036 19.6124 8.21555 19.1714Z" fill="#323232"/>
<path fill-rule="evenodd" clip-rule="evenodd" d="M1 4.37114e-08C1.55228 1.95703e-08 2 0.447715 2 1L2 24C2 24.5523 1.55229 25 1 25C0.447716 25 1.07321e-06 24.5523 1.04907e-06 24L4.37114e-08 1C1.95703e-08 0.447715 0.447715 6.78525e-08 1 4.37114e-08Z" fill="#323232"/>
<path fill-rule="evenodd" clip-rule="evenodd" d="M24 4.37114e-08C24.5523 1.95703e-08 25 0.447715 25 1L25 24C25 24.5523 24.5523 25 24 25C23.4477 25 23 24.5523 23 24L23 1C23 0.447715 23.4477 6.78525e-08 24 4.37114e-08Z" fill="#323232"/>
</svg>
