<svg width="25" height="25" viewBox="0 0 25 25" fill="none" xmlns="http://www.w3.org/2000/svg">
<path d="M9.27844 13.1958C8.71448 13.1958 8.25098 12.7323 8.25098 12.1683C8.25098 11.6044 8.71448 11.1409 9.27844 11.1409H23.4727C24.0367 11.1409 24.5002 11.6044 24.5002 12.1683C24.5002 12.7323 24.0367 13.1958 23.4727 13.1958H9.27844Z" fill="#323232" stroke="#323232"/>
<path fill-rule="evenodd" clip-rule="evenodd" d="M3.16666 9.87719C1.8989 9.87719 0.877192 10.8989 0.877192 12.1667C0.877192 13.4344 1.8989 14.4561 3.16666 14.4561C4.43442 14.4561 5.45613 13.4344 5.45613 12.1667C5.45613 10.8989 4.43442 9.87719 3.16666 9.87719ZM3.16666 9C1.41444 9 0 10.4144 0 12.1667C0 13.9189 1.41444 15.3333 3.16666 15.3333C4.91888 15.3333 6.33333 13.9189 6.33333 12.1667C6.33333 10.4144 4.91888 9 3.16666 9Z" fill="#323232"/>
</svg>
