<svg width="22" height="21" viewBox="0 0 22 21" fill="none" xmlns="http://www.w3.org/2000/svg">
<path d="M16.3 9.72502L14.325 7.80002L15.725 6.37502H11.125V3.62502H15.725L14.375 2.25002L16.3 0.275024L21.025 5.05002L16.3 9.72502ZM17.85 20.85C15.7667 20.85 13.65 20.3667 11.5 19.4C9.34999 18.4334 7.39166 17.0834 5.62499 15.35C3.85833 13.6 2.50416 11.6792 1.56249 9.58752C0.620827 7.49586 0.149994 5.35836 0.149994 3.17502V1.15002H7.94999L9.24999 7.32502L5.69999 10.425C5.98333 10.9084 6.30416 11.3709 6.66249 11.8125C7.02083 12.2542 7.41666 12.6834 7.84999 13.1C8.24999 13.4834 8.65833 13.8417 9.07499 14.175C9.49166 14.5084 9.91666 14.8084 10.35 15.075L13.875 11.65L19.85 13V20.85H17.85Z" fill="#6F52ED"/>
</svg>
