<svg width="25" height="25" viewBox="0 0 25 25" fill="none" xmlns="http://www.w3.org/2000/svg">
<path d="M23.272 17.7726V16H17.9541V24.8632H19.7268V21.3179H22.3857V19.5453H19.7268V17.7726H23.272Z" fill="#323232"/>
<path d="M13.5219 24.8632H9.97656V16H13.5219C14.2268 16.0008 14.9027 16.2812 15.4012 16.7797C15.8997 17.2781 16.1801 17.954 16.1808 18.659V22.2043C16.1801 22.9092 15.8997 23.5851 15.4012 24.0836C14.9027 24.5821 14.2268 24.8625 13.5219 24.8632ZM11.7492 23.0906H13.5219C13.7568 23.0903 13.9821 22.9969 14.1483 22.8307C14.3145 22.6645 14.4079 22.4393 14.4082 22.2043V18.659C14.4079 18.424 14.3145 18.1987 14.1483 18.0325C13.9821 17.8664 13.7568 17.7729 13.5219 17.7726H11.7492V23.0906Z" fill="#323232"/>
<path d="M6.43162 16H2V24.8632H3.77265V22.2043H6.43162C6.90156 22.2036 7.35208 22.0167 7.68437 21.6844C8.01667 21.3521 8.20364 20.9016 8.20427 20.4316V17.7726C8.20373 17.3027 8.0168 16.8521 7.68448 16.5198C7.35216 16.1875 6.90159 16.0005 6.43162 16ZM3.77265 20.4316V17.7726H6.43162L6.43251 20.4316H3.77265Z" fill="#323232"/>
<path fill-rule="evenodd" clip-rule="evenodd" d="M8.29288 1.29279C8.48042 1.10524 8.73478 0.999878 9 0.999878H22C22.5523 0.999878 23 1.44759 23 1.99988V12.9999C23 13.5522 22.5523 13.9999 22 13.9999C21.4477 13.9999 21 13.5522 21 12.9999V2.99988H10V8C10 8.55228 9.55228 9 9 9H4V12.9999C4 13.5522 3.55228 13.9999 3 13.9999C2.44772 13.9999 2 13.5522 2 12.9999V8C2 7.73478 2.10536 7.48043 2.29289 7.29289L5.29288 4.29291L5.29289 4.29289L8.29288 1.29279ZM5.41421 7H8V4.41416L6.70712 5.70709L6.70711 5.70711L5.41421 7Z" fill="#323232"/>
</svg>
