<svg width="25" height="25" viewBox="0 0 25 25" fill="none" xmlns="http://www.w3.org/2000/svg">
<path d="M21.272 1.77265V0H15.9541V8.86324H17.7268V5.31795H20.3857V3.5453H17.7268V1.77265H21.272Z" fill="#323232"/>
<path d="M11.5219 8.86324H7.97656V0H11.5219C12.2268 0.000774186 12.9027 0.281164 13.4012 0.77965C13.8997 1.27814 14.1801 1.95401 14.1808 2.65897V6.20427C14.1801 6.90924 13.8997 7.58511 13.4012 8.08359C12.9027 8.58208 12.2268 8.86247 11.5219 8.86324ZM9.74921 7.09059H11.5219C11.7568 7.09034 11.9821 6.99687 12.1483 6.83071C12.3145 6.66455 12.4079 6.43926 12.4082 6.20427V2.65897C12.4079 2.42398 12.3145 2.19869 12.1483 2.03253C11.9821 1.86637 11.7568 1.77291 11.5219 1.77265H9.74921V7.09059Z" fill="#323232"/>
<path d="M4.43162 0H0V8.86324H1.77265V6.20427H4.43162C4.90156 6.20364 5.35208 6.01667 5.68437 5.68437C6.01667 5.35208 6.20364 4.90156 6.20427 4.43162V1.77265C6.20373 1.30268 6.0168 0.852112 5.68448 0.519793C5.35216 0.187473 4.90159 0.000539535 4.43162 0ZM1.77265 4.43162V1.77265H4.43162L4.43251 4.43162H1.77265Z" fill="#323232"/>
<path fill-rule="evenodd" clip-rule="evenodd" d="M-8.74228e-08 24C-3.91405e-08 23.4477 0.508767 23 1.13636 23L17.0455 23C17.673 23 18.1818 23.4477 18.1818 24C18.1818 24.5523 17.673 25 17.0455 25L1.13636 25C0.508767 25 -1.35705e-07 24.5523 -8.74228e-08 24Z" fill="#323232"/>
<path fill-rule="evenodd" clip-rule="evenodd" d="M-8.74228e-08 20C-3.91405e-08 19.4477 0.508767 19 1.13636 19L22.7273 19C23.3549 19 23.8636 19.4477 23.8636 20C23.8636 20.5523 23.3549 21 22.7273 21L1.13636 21C0.508767 21 -1.35705e-07 20.5523 -8.74228e-08 20Z" fill="#323232"/>
<path fill-rule="evenodd" clip-rule="evenodd" d="M-8.74228e-08 16C-3.91405e-08 15.4477 0.508767 15 1.13636 15L17.0455 15C17.673 15 18.1818 15.4477 18.1818 16C18.1818 16.5523 17.673 17 17.0455 17L1.13636 17C0.508767 17 -1.35705e-07 16.5523 -8.74228e-08 16Z" fill="#323232"/>
<path fill-rule="evenodd" clip-rule="evenodd" d="M-8.74228e-08 12C-3.91405e-08 11.4477 0.508767 11 1.13636 11L23.8636 11C24.4912 11 25 11.4477 25 12C25 12.5523 24.4912 13 23.8636 13L1.13636 13C0.508767 13 -1.35705e-07 12.5523 -8.74228e-08 12Z" fill="#323232"/>
</svg>
