<svg width="25" height="25" viewBox="0 0 25 25" fill="none" xmlns="http://www.w3.org/2000/svg">
<path d="M23.272 1.77265V0H17.9541V8.86324H19.7268V5.31795H22.3857V3.5453H19.7268V1.77265H23.272Z" fill="#323232"/>
<path d="M13.5219 8.86324H9.97656V0H13.5219C14.2268 0.000774186 14.9027 0.281164 15.4012 0.77965C15.8997 1.27814 16.1801 1.95401 16.1808 2.65897V6.20427C16.1801 6.90924 15.8997 7.58511 15.4012 8.08359C14.9027 8.58208 14.2268 8.86247 13.5219 8.86324ZM11.7492 7.09059H13.5219C13.7568 7.09034 13.9821 6.99687 14.1483 6.83071C14.3145 6.66455 14.4079 6.43926 14.4082 6.20427V2.65897C14.4079 2.42398 14.3145 2.19869 14.1483 2.03253C13.9821 1.86637 13.7568 1.77291 13.5219 1.77265H11.7492V7.09059Z" fill="#323232"/>
<path d="M6.43162 0H2V8.86324H3.77265V6.20427H6.43162C6.90156 6.20364 7.35208 6.01667 7.68437 5.68437C8.01667 5.35208 8.20364 4.90156 8.20427 4.43162V1.77265C8.20373 1.30268 8.0168 0.852112 7.68448 0.519793C7.35216 0.187473 6.90159 0.000539535 6.43162 0ZM3.77265 4.43162V1.77265H6.43162L6.43251 4.43162H3.77265Z" fill="#323232"/>
<path d="M22.6071 17.8027C22.4148 17.5568 17.834 11.7798 12.0003 11.7798C6.16603 11.7798 1.58517 17.5568 1.39293 17.8027L1 18.3057L1.39293 18.8086C1.58517 19.0545 6.16603 24.8318 12.0003 24.8318C17.834 24.8318 22.4148 19.0545 22.6071 18.8086L23 18.3057L22.6071 17.8027ZM12.0003 23.1983C7.89729 23.1983 4.31604 19.6459 3.11167 18.3059C4.31658 16.9657 7.89757 13.4138 12.0003 13.4138C16.1027 13.4138 19.684 16.966 20.8886 18.3059C19.6834 19.6462 16.1024 23.1983 12.0003 23.1983Z" fill="#323232"/>
<path d="M12.0003 13.8364C9.53547 13.8364 7.53027 15.8414 7.53027 18.3059C7.53027 20.771 9.53547 22.7762 12.0003 22.7762C14.4651 22.7762 16.4703 20.771 16.4703 18.3059C16.4703 15.8414 14.4651 13.8364 12.0003 13.8364ZM12.0003 21.1422C10.4362 21.1422 9.16406 19.8697 9.16406 18.3056C9.16406 16.7421 10.4362 15.4699 12.0003 15.4699C13.5641 15.4699 14.8366 16.7421 14.8366 18.3056C14.8366 19.8697 13.5641 21.1422 12.0003 21.1422Z" fill="#323232"/>
</svg>
