<svg width="20" height="24" viewBox="0 0 20 24" fill="none" xmlns="http://www.w3.org/2000/svg">
<path d="M12.575 5.30001V2.15001H15.725V5.30001H12.575ZM12.575 21.85V18.7H15.725V21.85H12.575ZM16.7 5.30001V2.15001H19.85V5.30001H16.7ZM16.7 21.85V18.7H19.85V21.85H16.7ZM16.7 17.7V14.55H19.85V17.7H16.7ZM16.7 13.575V10.425H19.85V13.575H16.7ZM16.7 9.42501V6.27501H19.85V9.42501H16.7ZM7.49999 21.85H0.149994V2.15001H7.49999V5.30001H3.29999V18.7H7.49999V21.85ZM8.49999 23.775V0.225006H11.65V23.775H8.49999Z" fill="#6F52ED"/>
</svg>
