<svg width="24" height="24" viewBox="0 0 24 24" fill="none" xmlns="http://www.w3.org/2000/svg">
<mask id="mask0_4176_156" style="mask-type:alpha" maskUnits="userSpaceOnUse" x="0" y="0" width="24" height="24">
<rect width="24" height="24" fill="#D9D9D9"/>
</mask>
<g mask="url(#mask0_4176_156)">
<path d="M9 21.8L6.775 19.6L7.825 18.55C5.95834 18.3667 4.425 17.5417 3.225 16.075C2.025 14.6083 1.425 12.9167 1.425 11C1.425 8.89999 2.1625 7.11249 3.6375 5.63749C5.1125 4.16249 6.9 3.42499 9 3.42499H15C17.1 3.42499 18.8875 4.16249 20.3625 5.63749C21.8375 7.11249 22.575 8.89999 22.575 11C22.575 13.0833 21.875 14.8667 20.475 16.35C19.075 17.8333 17.35 18.575 15.3 18.575V15.425C16.4667 15.425 17.4458 14.9875 18.2375 14.1125C19.0292 13.2375 19.425 12.2 19.425 11C19.425 9.76665 18.9958 8.72082 18.1375 7.86249C17.2792 7.00415 16.2333 6.57499 15 6.57499H9C7.76667 6.57499 6.72084 7.00415 5.8625 7.86249C5.00417 8.72082 4.575 9.76665 4.575 11C4.575 12 4.85417 12.9042 5.4125 13.7125C5.97084 14.5208 6.725 15.05 7.675 15.3L6.775 14.4L9 12.175L13.825 16.975L9 21.8Z" fill="#6F52ED"/>
</g>
</svg>
