<svg width="24" height="24" viewBox="0 0 24 24" fill="none" xmlns="http://www.w3.org/2000/svg">
<mask id="mask0_4176_344" style="mask-type:alpha" maskUnits="userSpaceOnUse" x="0" y="0" width="24" height="24">
<rect width="24" height="24" fill="#D9D9D9"/>
</mask>
<g mask="url(#mask0_4176_344)">
<path d="M10.45 15.5C10.8667 15.9167 11.3834 16.1125 12 16.0875C12.6167 16.0625 13.0834 15.8333 13.4 15.4L19.65 6.34999L10.6 12.6C10.1667 12.9333 9.93336 13.4 9.90002 14C9.86669 14.6 10.05 15.1 10.45 15.5ZM5.10002 20.85C4.60002 20.85 4.12086 20.7333 3.66252 20.5C3.20419 20.2667 2.85836 19.925 2.62502 19.475C2.14169 18.625 1.77502 17.7417 1.52502 16.825C1.27502 15.9083 1.15002 14.9667 1.15002 14C1.15002 12.5 1.43336 11.0917 2.00002 9.77499C2.56669 8.45833 3.34169 7.30833 4.32502 6.32499C5.30836 5.34166 6.45836 4.56666 7.77502 3.99999C9.09169 3.43333 10.5 3.14999 12 3.14999C13.4834 3.14999 14.8834 3.42916 16.2 3.98749C17.5167 4.54583 18.6667 5.30833 19.65 6.27499C20.6334 7.24166 21.4125 8.37499 21.9875 9.67499C22.5625 10.975 22.85 12.3667 22.85 13.85C22.85 14.85 22.7292 15.825 22.4875 16.775C22.2459 17.725 21.875 18.625 21.375 19.475C21.1084 19.9083 20.7584 20.2458 20.325 20.4875C19.8917 20.7292 19.4167 20.85 18.9 20.85H5.10002Z" fill="#6F52ED"/>
</g>
</svg>
