<svg width="25" height="25" viewBox="0 0 25 25" fill="none" xmlns="http://www.w3.org/2000/svg">
<path d="M6.72475 12.0752L4.25808 15.1585C4.04141 15.4335 4.23308 15.8335 4.58308 15.8335H12.8831C13.2247 15.8335 13.4247 15.4418 13.2164 15.1668L11.5497 12.9418C11.3831 12.7168 11.0497 12.7168 10.8831 12.9418L9.52475 14.7585L7.37475 12.0752C7.20808 11.8668 6.89141 11.8668 6.72475 12.0752ZM12.0497 9.5835C12.0497 8.89183 11.4914 8.3335 10.7997 8.3335C10.1081 8.3335 9.54975 8.89183 9.54975 9.5835C9.54975 10.2752 10.1081 10.8335 10.7997 10.8335C11.4914 10.8335 12.0497 10.2752 12.0497 9.5835Z" fill="#323232"/>
<path d="M18.3335 18L18.3335 7C18.3335 5.9 17.4168 5 16.2965 5L2.0372 5C0.916829 5 0.000161847 5.9 0.000161799 7L0.000161318 18C0.00016127 19.1 0.916828 20 2.0372 20L16.2965 20C17.4168 20 18.3335 19.1 18.3335 18ZM2.0372 17L2.0372 8C2.0372 7.45 2.49553 7 3.05572 7L15.2779 7C15.8381 7 16.2965 7.45 16.2965 8L16.2965 17C16.2965 17.55 15.8381 18 15.2779 18L3.05572 18C2.49553 18 2.0372 17.55 2.0372 17Z" fill="#323232"/>
<path d="M21.2538 7.89784C21.6501 7.30939 22.5162 7.30939 22.9126 7.89784L23.5592 8.85784C24.0066 9.52207 23.5307 10.4165 22.7298 10.4165H21.4365C20.6357 10.4165 20.1597 9.52207 20.6071 8.85784L21.2538 7.89784Z" fill="#323232"/>
<path d="M22.9127 17.9352C22.5164 18.5236 21.6503 18.5236 21.2539 17.9352L20.6073 16.9752C20.1599 16.3109 20.6358 15.4165 21.4367 15.4165L22.73 15.4165C23.5308 15.4165 24.0068 16.3109 23.5594 16.9752L22.9127 17.9352Z" fill="#323232"/>
<rect x="21.6665" y="10" width="0.833333" height="6.66667" fill="#323232"/>
</svg>
