<svg width="25" height="25" viewBox="0 0 25 25" fill="none" xmlns="http://www.w3.org/2000/svg">
<path d="M3.5067 21.9866H21.5872C22.4158 21.9866 23.0939 22.6646 23.0939 23.4933C23.0939 24.322 22.4158 25 21.5872 25H3.5067C2.67802 25 2 24.322 2 23.4933C2 22.6646 2.67802 21.9866 3.5067 21.9866Z" fill="#323232"/>
<path d="M9.54452 -3.72389e-05L15.5713 -3.6712e-05C16.4 -3.66396e-05 17.078 0.67798 17.078 1.50667L17.078 9.04019L19.4737 9.04019C20.8147 9.04019 21.4776 10.6674 20.5284 11.6167L13.6126 18.5324C13.025 19.12 12.0758 19.12 11.4882 18.5324L4.57239 11.6167C3.62317 10.6674 4.30119 9.04019 5.64215 9.04019L8.03781 9.04019L8.03781 1.50667C8.03781 0.677979 8.71583 -3.73114e-05 9.54452 -3.72389e-05Z" fill="#323232"/>
</svg>
