<svg width="24" height="24" viewBox="0 0 24 24" fill="none" xmlns="http://www.w3.org/2000/svg">
<mask id="mask0_4176_170" style="mask-type:alpha" maskUnits="userSpaceOnUse" x="0" y="0" width="24" height="24">
<rect width="24" height="24" fill="#D9D9D9"/>
</mask>
<g mask="url(#mask0_4176_170)">
<path d="M9.00001 22.525C7.95001 22.525 6.97501 22.3333 6.07501 21.95C5.17501 21.5667 4.37501 21.025 3.67501 20.325C2.97501 19.625 2.43334 18.825 2.05001 17.925C1.66667 17.025 1.47501 16.05 1.47501 15C1.47501 13.5333 1.83751 12.2125 2.56251 11.0375C3.28751 9.86251 4.21667 8.98334 5.35001 8.40001C5.68334 7.75001 6.11251 7.16251 6.63751 6.63751C7.16251 6.11251 7.75001 5.68334 8.40001 5.35001C8.98334 4.21667 9.89167 3.28751 11.125 2.56251C12.3583 1.83751 13.65 1.47501 15 1.47501C16.05 1.47501 17.025 1.66667 17.925 2.05001C18.825 2.43334 19.625 2.97501 20.325 3.67501C21.025 4.37501 21.5667 5.18334 21.95 6.10001C22.3333 7.01667 22.525 8.00001 22.525 9.05001C22.525 10.35 22.2042 11.5833 21.5625 12.75C20.9208 13.9167 19.95 14.8667 18.65 15.6C18.4 16.1 17.975 16.675 17.375 17.325C16.775 17.975 16.1833 18.4083 15.6 18.625C15.0167 19.7583 14.15 20.6917 13 21.425C11.85 22.1583 10.5167 22.525 9.00001 22.525ZM9.05001 19.775C9.45001 19.7917 9.83751 19.7458 10.2125 19.6375C10.5875 19.5292 10.9167 19.3667 11.2 19.15C10.3333 19.0833 9.52084 18.8792 8.76251 18.5375C8.00417 18.1958 7.33334 17.7417 6.75001 17.175C6.16667 16.6083 5.70417 15.9583 5.36251 15.225C5.02084 14.4917 4.82501 13.7 4.77501 12.85C4.59167 13.1833 4.45417 13.5292 4.36251 13.8875C4.27084 14.2458 4.22501 14.6167 4.22501 15C4.22501 15.6667 4.35001 16.2833 4.60001 16.85C4.85001 17.4167 5.19167 17.9167 5.62501 18.35C6.05834 18.7833 6.56667 19.1208 7.15001 19.3625C7.73334 19.6042 8.36667 19.7417 9.05001 19.775ZM12.05 16.775C12.4333 16.775 12.8042 16.7292 13.1625 16.6375C13.5208 16.5458 13.8583 16.4083 14.175 16.225C13.2917 16.1583 12.4708 15.9542 11.7125 15.6125C10.9542 15.2708 10.2833 14.8083 9.70001 14.225C9.11667 13.6417 8.65001 12.9792 8.30001 12.2375C7.95001 11.4958 7.75834 10.6833 7.72501 9.80001C7.54167 10.1333 7.41251 10.4833 7.33751 10.85C7.26251 11.2167 7.22501 11.6 7.22501 12C7.22501 12.6667 7.35417 13.2875 7.61251 13.8625C7.87084 14.4375 8.21667 14.9417 8.65001 15.375C9.08334 15.8083 9.59167 16.15 10.175 16.4C10.7583 16.65 11.3833 16.775 12.05 16.775ZM15 13.775C15.3 13.775 15.5625 13.7542 15.7875 13.7125C16.0125 13.6708 16.2667 13.6 16.55 13.5C16.8333 12.5667 16.85 11.675 16.6 10.825C16.35 9.97501 15.925 9.25834 15.325 8.67501C14.7417 8.07501 14.025 7.65001 13.175 7.40001C12.325 7.15001 11.4333 7.16667 10.5 7.45001C10.4 7.75001 10.3292 8.01251 10.2875 8.23751C10.2458 8.46251 10.225 8.71667 10.225 9.00001C10.225 9.66667 10.35 10.2875 10.6 10.8625C10.85 11.4375 11.1917 11.9417 11.625 12.375C12.0583 12.8083 12.5625 13.15 13.1375 13.4C13.7125 13.65 14.3333 13.775 15 13.775ZM19.3 11.125C19.45 10.8417 19.5667 10.5167 19.65 10.15C19.7333 9.78334 19.775 9.40001 19.775 9.00001C19.775 8.33334 19.6542 7.71251 19.4125 7.13751C19.1708 6.56251 18.8333 6.05834 18.4 5.62501C17.9667 5.19167 17.4667 4.85001 16.9 4.60001C16.3333 4.35001 15.7167 4.22501 15.05 4.22501C14.6667 4.22501 14.2792 4.27084 13.8875 4.36251C13.4958 4.45417 13.1583 4.57501 12.875 4.72501C13.725 4.82501 14.5208 5.05417 15.2625 5.41251C16.0042 5.77084 16.6667 6.23334 17.25 6.80001C17.8333 7.36667 18.3 8.01667 18.65 8.75001C19 9.48334 19.2167 10.275 19.3 11.125Z" fill="#6F52ED"/>
</g>
</svg>
