<svg width="24" height="24" viewBox="0 0 24 24" fill="none" xmlns="http://www.w3.org/2000/svg">
<mask id="mask0_4176_127" style="mask-type:alpha" maskUnits="userSpaceOnUse" x="0" y="0" width="24" height="24">
<rect width="24" height="24" fill="#D9D9D9"/>
</mask>
<g mask="url(#mask0_4176_127)">
<path d="M12 23.775L7.29999 19.075H16.7L12 23.775ZM1.14999 17.45V1.775H22.85V17.45H1.14999ZM7.99999 13.5H16V11.5H7.99999V13.5ZM5.22499 10.625H7.22499V8.625H5.22499V10.625ZM8.12499 10.625H10.125V8.625H8.12499V10.625ZM11 10.625H13V8.625H11V10.625ZM13.875 10.625H15.875V8.625H13.875V10.625ZM16.775 10.625H18.775V8.625H16.775V10.625ZM5.22499 7.625H7.22499V5.625H5.22499V7.625ZM8.12499 7.625H10.125V5.625H8.12499V7.625ZM11 7.625H13V5.625H11V7.625ZM13.875 7.625H15.875V5.625H13.875V7.625ZM16.775 7.625H18.775V5.625H16.775V7.625Z" fill="#6F52ED"/>
</g>
</svg>
