<svg width="20" height="20" viewBox="0 0 20 20" fill="none" xmlns="http://www.w3.org/2000/svg">
<path d="M10.1 13.7V11.7H15.1V13.7H10.1ZM11.85 19.85V18.275H10.1V16.275H11.85V14.7H13.85V19.85H11.85ZM14.85 18.275V16.275H19.85V18.275H14.85ZM16.1 15.275V10.125H18.1V11.7H19.85V13.7H18.1V15.275H16.1ZM19.65 7.99999H16.65C16.22 6.54799 15.4014 5.35999 14.1943 4.43599C12.9871 3.51199 11.5898 3.04999 10.0023 3.04999C8.06744 3.04999 6.42502 3.72433 5.07502 5.07299C3.72502 6.42166 3.05002 8.06399 3.05002 9.99999C3.05002 10.9667 3.23752 11.8667 3.61252 12.7C3.98752 13.5333 4.50002 14.2667 5.15002 14.9V12.95H8.05002V19.85H1.15002V16.95H3.02502C2.12502 16.05 1.42086 15.0083 0.912524 13.825C0.404191 12.6417 0.150024 11.3667 0.150024 9.99999C0.150024 8.63466 0.408358 7.35583 0.925024 6.16349C1.44169 4.97116 2.14586 3.92916 3.03752 3.03749C3.92919 2.14583 4.97119 1.44166 6.16352 0.924994C7.35586 0.408327 8.63469 0.149994 10 0.149994C12.3757 0.149994 14.4613 0.895827 16.2568 2.38749C18.0523 3.87916 19.1834 5.74999 19.65 7.99999Z" fill="#6F52ED"/>
</svg>
