<svg width="25" height="25" viewBox="0 0 25 25" fill="none" xmlns="http://www.w3.org/2000/svg">
<path d="M25 13.9514V14.3836C25 17.9373 22.1087 20.8283 18.5553 20.8283H6.44471C2.89128 20.8282 0 17.9373 0 14.3835V13.9514C0 10.3979 2.89128 7.50696 6.44471 7.50696L7.15769 7.53269C7.15769 7.53269 5.97764 8.34318 6.44471 10.0222C4.1731 10.0222 2.51603 11.7848 2.51603 13.9514V14.3832C2.51603 16.5497 4.27866 18.3122 6.44471 18.3122H18.5553C20.7218 18.3122 22.4843 16.5497 22.4843 14.3832V13.9514C22.4843 11.7849 20.7218 10.0222 18.5553 10.0222H12.7851H11.2635L12.1514 12.2702C12.1828 12.3494 12.1573 12.44 12.089 12.4915C12.0209 12.5428 11.9268 12.5425 11.8593 12.4904L7.20888 8.91535C7.1624 8.87943 7.13483 8.82388 7.13514 8.76495C7.13514 8.70603 7.1624 8.65048 7.20888 8.61456L11.8596 5.0391C11.8934 5.01276 11.9343 5 11.975 5C12.0153 5 12.0552 5.01245 12.0893 5.03818C12.1576 5.08967 12.1828 5.17991 12.1517 5.25923L11.2638 7.50753H12.7858H18.5557C22.1087 7.50701 25 10.3983 25 13.9514Z" fill="black"/>
</svg>
