<svg width="26" height="26" viewBox="0 0 26 26" fill="none" xmlns="http://www.w3.org/2000/svg">
<path d="M24.0386 2.88452H11.5386V4.8076H24.0386V2.88452Z" fill="#323232"/>
<path d="M24.0386 20.1924H11.5386V22.1155H24.0386V20.1924Z" fill="#323232"/>
<path d="M13.4614 11.5386H0.961426V13.4617H13.4614V11.5386Z" fill="#323232"/>
<path d="M3.84616 7.69231C3.08546 7.69231 2.34184 7.46674 1.70935 7.04411C1.07685 6.62149 0.583879 6.02081 0.292773 5.31802C0.00166647 4.61522 -0.0745002 3.84189 0.0739045 3.09581C0.222309 2.34973 0.588619 1.66441 1.12651 1.12651C1.66441 0.588619 2.34973 0.222309 3.09581 0.0739045C3.84189 -0.0745002 4.61522 0.00166647 5.31802 0.292773C6.02081 0.583879 6.62149 1.07685 7.04411 1.70935C7.46674 2.34184 7.69231 3.08546 7.69231 3.84616C7.69231 4.86622 7.28709 5.8445 6.5658 6.5658C5.8445 7.28709 4.86622 7.69231 3.84616 7.69231ZM3.84616 1.92308C3.46581 1.92308 3.094 2.03587 2.77775 2.24718C2.4615 2.45849 2.21502 2.75883 2.06946 3.11023C1.92391 3.46162 1.88583 3.84829 1.96003 4.22133C2.03423 4.59437 2.21739 4.93703 2.48633 5.20598C2.75528 5.47492 3.09794 5.65808 3.47098 5.73228C3.84402 5.80648 4.23069 5.7684 4.58209 5.62285C4.93348 5.47729 5.23382 5.23081 5.44514 4.91456C5.65645 4.59831 5.76923 4.2265 5.76923 3.84616C5.76923 3.33612 5.56662 2.84698 5.20598 2.48633C4.84533 2.12569 4.35619 1.92308 3.84616 1.92308Z" fill="#323232"/>
<path d="M3.84616 24.9999C3.08546 24.9999 2.34184 24.7744 1.70935 24.3517C1.07685 23.9291 0.583879 23.3284 0.292773 22.6256C0.00166647 21.9228 -0.0745002 21.1495 0.0739045 20.4034C0.222309 19.6573 0.588619 18.972 1.12651 18.4341C1.66441 17.8962 2.34973 17.5299 3.09581 17.3815C3.84189 17.2331 4.61522 17.3093 5.31802 17.6004C6.02081 17.8915 6.62149 18.3845 7.04411 19.017C7.46674 19.6495 7.69231 20.3931 7.69231 21.1538C7.69231 22.1738 7.28709 23.1521 6.5658 23.8734C5.8445 24.5947 4.86622 24.9999 3.84616 24.9999ZM3.84616 19.2307C3.46581 19.2307 3.094 19.3435 2.77775 19.5548C2.4615 19.7661 2.21502 20.0664 2.06946 20.4178C1.92391 20.7692 1.88583 21.1559 1.96003 21.5289C2.03423 21.902 2.21739 22.2446 2.48633 22.5136C2.75528 22.7825 3.09794 22.9657 3.47098 23.0399C3.84402 23.1141 4.23069 23.076 4.58209 22.9305C4.93348 22.7849 5.23382 22.5384 5.44514 22.2222C5.65645 21.9059 5.76923 21.5341 5.76923 21.1538C5.76923 20.6437 5.56662 20.1546 5.20598 19.794C4.84533 19.4333 4.35619 19.2307 3.84616 19.2307Z" fill="#323232"/>
<path d="M21.1538 16.3461C20.3931 16.3461 19.6495 16.1205 19.017 15.6979C18.3845 15.2753 17.8915 14.6746 17.6004 13.9718C17.3093 13.269 17.2331 12.4957 17.3815 11.7496C17.5299 11.0035 17.8962 10.3182 18.4341 9.78032C18.972 9.24243 19.6573 8.87612 20.4034 8.72771C21.1495 8.57931 21.9228 8.65548 22.6256 8.94658C23.3284 9.23769 23.9291 9.73066 24.3517 10.3632C24.7744 10.9957 24.9999 11.7393 24.9999 12.5C24.9999 13.52 24.5947 14.4983 23.8734 15.2196C23.1521 15.9409 22.1738 16.3461 21.1538 16.3461ZM21.1538 10.5769C20.7734 10.5769 20.4016 10.6897 20.0854 10.901C19.7691 11.1123 19.5226 11.4126 19.3771 11.764C19.2315 12.1154 19.1934 12.5021 19.2676 12.8751C19.3418 13.2482 19.525 13.5908 19.794 13.8598C20.0629 14.1287 20.4056 14.3119 20.7786 14.3861C21.1516 14.4603 21.5383 14.4222 21.8897 14.2767C22.2411 14.1311 22.5414 13.8846 22.7528 13.5684C22.9641 13.2521 23.0768 12.8803 23.0768 12.5C23.0768 11.9899 22.8742 11.5008 22.5136 11.1401C22.1529 10.7795 21.6638 10.5769 21.1538 10.5769Z" fill="#323232"/>
</svg>
