<svg width="25" height="25" viewBox="0 0 25 25" fill="none" xmlns="http://www.w3.org/2000/svg">
<path d="M3.06376 13.3753C2.91108 12.0521 3.03831 10.7748 3.38438 9.59406C4.53454 5.67029 8.14278 2.78471 12.4228 2.73382V0.168859C12.4228 0.0263612 12.6009 -0.0499768 12.718 0.0365396L17.9955 3.91451C18.082 3.98067 18.082 4.11299 17.9955 4.17406L12.7231 8.05204C12.6009 8.13855 12.4279 8.06221 12.4279 7.91972V5.35985C9.61356 5.40565 7.21146 7.14107 6.17835 9.59406C5.78648 10.5203 5.588 11.5432 5.64398 12.6171C5.72032 14.0929 6.27504 15.4517 7.15039 16.551C7.61859 17.1363 7.50663 17.9913 6.90102 18.434C6.32594 18.8564 5.52184 18.7394 5.07908 18.1796C3.99508 16.8258 3.27241 15.1769 3.06376 13.3753ZM18.3008 8.44899C19.1813 9.54317 19.736 10.9071 19.8072 12.3829C19.8632 13.4619 19.6597 14.4848 19.2729 15.4059C18.2398 17.8589 15.8377 19.5994 13.0233 19.6402V17.0803C13.0233 16.9378 12.8452 16.8614 12.7282 16.948L7.45065 20.8259C7.36413 20.8921 7.36413 21.0244 7.45065 21.0855L12.7231 24.9635C12.8452 25.05 13.0182 24.9736 13.0182 24.8311V22.2662C17.2983 22.2204 20.9116 19.3348 22.0567 15.4059C22.4027 14.2252 22.5249 12.9479 22.3773 11.6247C22.1737 9.82308 21.4511 8.17418 20.3671 6.82045C19.9192 6.26064 19.1202 6.14358 18.5451 6.56599C17.9446 7.00875 17.8326 7.86374 18.3008 8.44899Z" fill="#323232"/>
</svg>
