<svg width="25" height="25" viewBox="0 0 25 25" fill="none" xmlns="http://www.w3.org/2000/svg">
<path fill-rule="evenodd" clip-rule="evenodd" d="M3.84619 10.7307C3.84619 9.13757 5.13766 7.8461 6.73077 7.8461H22.1152C23.7083 7.8461 24.9998 9.13757 24.9998 10.7307V18.4229C24.9998 20.016 23.7083 21.3075 22.1152 21.3075H6.73077C5.13766 21.3075 3.84619 20.016 3.84619 18.4229V10.7307ZM6.73077 9.76915C6.19974 9.76915 5.76925 10.1996 5.76925 10.7307V18.4229C5.76925 18.9539 6.19974 19.3844 6.73077 19.3844H22.1152C22.6462 19.3844 23.0767 18.9539 23.0767 18.4229V10.7307C23.0767 10.1996 22.6462 9.76915 22.1152 9.76915H6.73077Z" fill="#323232"/>
<path d="M0.961914 6.88454C0.961914 5.82247 1.8229 4.96149 2.88497 4.96149H18.2694C19.3315 4.96149 20.1925 5.82247 20.1925 6.88454V14.5768C20.1925 15.6388 19.3315 16.4998 18.2694 16.4998H2.88497C1.8229 16.4998 0.961914 15.6388 0.961914 14.5768V6.88454Z" fill="white"/>
<path fill-rule="evenodd" clip-rule="evenodd" d="M0 6.88458C0 5.29147 1.29147 4 2.88458 4H18.269C19.8621 4 21.1536 5.29147 21.1536 6.88458V14.5768C21.1536 16.1699 19.8621 17.4614 18.269 17.4614H2.88458C1.29147 17.4614 0 16.1699 0 14.5768V6.88458ZM2.88458 5.92305C2.35355 5.92305 1.92305 6.35355 1.92305 6.88458V14.5768C1.92305 15.1078 2.35355 15.5383 2.88458 15.5383H18.269C18.8001 15.5383 19.2305 15.1078 19.2305 14.5768V6.88458C19.2305 6.35355 18.8001 5.92305 18.269 5.92305H2.88458Z" fill="#323232"/>
<path fill-rule="evenodd" clip-rule="evenodd" d="M3.84619 8.80763C3.84619 8.27659 4.27668 7.8461 4.80772 7.8461H16.346C16.8771 7.8461 17.3076 8.27659 17.3076 8.80763C17.3076 9.33866 16.8771 9.76916 16.346 9.76916H4.80772C4.27668 9.76916 3.84619 9.33866 3.84619 8.80763Z" fill="#323232"/>
<path fill-rule="evenodd" clip-rule="evenodd" d="M3.84619 12.6537C3.84619 12.1227 4.27668 11.6922 4.80772 11.6922H16.346C16.8771 11.6922 17.3076 12.1227 17.3076 12.6537C17.3076 13.1847 16.8771 13.6152 16.346 13.6152H4.80772C4.27668 13.6152 3.84619 13.1847 3.84619 12.6537Z" fill="#323232"/>
</svg>
