<svg width="27" height="27" viewBox="0 0 27 27" fill="none" xmlns="http://www.w3.org/2000/svg">
<path d="M12.0503 4.87525C12.0503 4.39175 11.6584 4 11.175 4H1.87525C1.39192 3.99992 1 4.39167 1 4.87525V23.4746C1 23.9579 1.39192 24.3498 1.87525 24.3498H25.1247C25.608 24.3498 25.9999 23.9579 25.9999 23.4746L25.9998 20.3161C25.9875 18.3409 25.3611 16.7735 24.1371 15.6566C23.0294 14.6458 21.7031 14.2632 20.7857 14.1202C20.6392 14.0975 20.4267 14.0722 20.1577 14.0403C19.2572 13.9334 17.5811 13.7343 16.0488 13.3288C13.8184 12.7384 12.0503 12.0965 12.0503 10.8741C12.0503 9.20808 12.0503 4.87525 12.0503 4.87525ZM24.1936 19.4993H21.5263V16.1054C22.667 16.5159 23.918 17.4379 24.1936 19.4993ZM12.3613 13.7092C12.2669 13.7523 12.1797 13.8109 12.1058 13.8849C11.943 14.0477 11.8494 14.2736 11.8494 14.5038C11.8494 14.7339 11.943 14.9598 12.1058 15.1226C12.2695 15.2854 12.4944 15.3791 12.7247 15.3791C12.955 15.3791 13.1808 15.2854 13.3444 15.1226C13.5072 14.9598 13.6001 14.734 13.6001 14.5038C13.6001 14.4467 13.5944 14.3898 13.5832 14.3341C14.2199 14.6078 14.8545 14.8145 15.3938 14.9646C15.3256 15.0032 15.2621 15.0501 15.2062 15.106C15.0434 15.2688 14.9497 15.4946 14.9497 15.7248C14.9497 15.955 15.0434 16.1809 15.2062 16.3437C15.3691 16.5066 15.5948 16.6002 15.8252 16.6002C16.0553 16.6002 16.2812 16.5066 16.444 16.3437C16.6068 16.1809 16.7005 15.9561 16.7005 15.7248C16.7005 15.556 16.6497 15.3898 16.5587 15.2487C17.7997 15.5139 19.0002 15.6652 19.7758 15.7579V19.4994H2.75067V8.85034H10.244C10.2086 9.6617 10.1944 10.7305 10.3231 11.2761C10.3621 11.441 10.417 11.5992 10.4829 11.7519C10.4632 11.7505 10.4434 11.7489 10.4236 11.7489C10.1933 11.7489 9.96751 11.8426 9.80463 12.0056C9.64175 12.1691 9.54815 12.394 9.54815 12.6252C9.54815 12.8553 9.64175 13.0812 9.80463 13.244C9.96751 13.407 10.1932 13.5005 10.4236 13.5005C10.6537 13.5005 10.8795 13.407 11.0423 13.244C11.1472 13.1386 11.223 13.0076 11.264 12.8662C11.5832 13.1832 11.9587 13.4629 12.3613 13.7092ZM10.2997 5.7505V7.05278H2.75067V5.7505H10.2997ZM24.2493 22.5993H2.75067V21.2501H24.2493V22.5993Z" fill="#323232"/>
<path d="M6.52543 12.6035C5.18814 12.6035 4.1001 13.6914 4.1001 15.0287C4.1001 16.366 5.18814 17.454 6.52543 17.454C7.86272 17.454 8.95069 16.366 8.95069 15.0287C8.9506 13.6914 7.86264 12.6035 6.52543 12.6035ZM6.52543 15.7033C6.15338 15.7033 5.85077 15.4007 5.85077 15.0286C5.85077 14.6567 6.15338 14.354 6.52543 14.354C6.8974 14.354 7.2001 14.6567 7.2001 15.0286C7.20001 15.4007 6.8974 15.7033 6.52543 15.7033Z" fill="#323232"/>
<path d="M19.9996 9.87283L25.8345 5.49978C26.1718 5.24989 26.1718 4.75011 25.8345 4.50022L19.9996 0.127165C19.5872 -0.185196 19 0.114671 19 0.626943V9.37306C19 9.88533 19.5872 10.1852 19.9996 9.87283Z" fill="#323232"/>
</svg>
