<svg width="26" height="25" viewBox="0 0 26 25" fill="none" xmlns="http://www.w3.org/2000/svg">
<path d="M4.12511 9.46622C4.12511 9.76503 4.23323 10.0634 4.44874 10.2914L5.82968 11.7528L4.13931 11.7528L3.09024 11.7528L1.55055 11.7528C0.941537 11.7528 0.447265 12.2753 0.447265 12.92C0.447265 13.5647 0.941538 14.0872 1.55055 14.0872L3.08987 14.0872L4.13894 14.0872L5.90397 14.0872L4.44837 15.6276C4.23286 15.8556 4.12474 16.1544 4.12474 16.4528C4.12474 16.7512 4.23286 17.05 4.44837 17.278C4.87865 17.734 5.5774 17.734 6.00805 17.278L9.3021 13.7931C9.5176 13.5651 9.62462 13.2663 9.62462 12.9683C9.62462 12.9651 9.62462 12.962 9.62462 12.9593C9.62462 12.9566 9.62462 12.9535 9.62462 12.9507C9.62462 12.6519 9.5176 12.3539 9.3021 12.1259L6.00805 8.641C5.5774 8.18501 4.87865 8.18501 4.44837 8.641C4.23323 8.86899 4.12511 9.16702 4.12511 9.46622Z" fill="#323232"/>
<path d="M25.2338 11.6938H18.6105V14.3821H22.422C22.0673 16.0905 20.5823 17.072 18.6105 17.072C18.0588 17.073 17.5123 16.9672 17.0024 16.7608C16.4924 16.5544 16.0292 16.2515 15.639 15.8693C15.2489 15.4872 14.9397 15.0334 14.7291 14.534C14.5184 14.0345 14.4106 13.4993 14.4116 12.9589C14.4107 12.4186 14.5186 11.8834 14.7293 11.3841C14.94 10.8847 15.2492 10.431 15.6393 10.0489C16.0294 9.66689 16.4927 9.36401 17.0025 9.15767C17.5124 8.95133 18.0588 8.8456 18.6105 8.84652C19.6119 8.84652 20.5171 9.19474 21.2274 9.76419L23.2954 7.73955C22.0355 6.66374 20.42 6.00003 18.6105 6.00003C17.6766 5.99736 16.7513 6.17555 15.8879 6.52436C15.0245 6.87316 14.2401 7.3857 13.5797 8.0325C12.9193 8.6793 12.3959 9.44758 12.0398 10.2932C11.6836 11.1388 11.5017 12.045 11.5044 12.9597C11.5016 13.8744 11.6835 14.7807 12.0396 15.6263C12.3957 16.4719 12.919 17.2403 13.5794 17.8871C14.2399 18.5339 15.0243 19.0464 15.8878 19.3952C16.7512 19.744 17.6765 19.9221 18.6105 19.9193C22.1635 19.9193 25.3944 17.3883 25.3944 12.9597C25.3944 12.5484 25.33 12.1051 25.2338 11.6938Z" fill="#323232"/>
</svg>
