<svg width="25" height="25" viewBox="0 0 25 25" fill="none" xmlns="http://www.w3.org/2000/svg">
<path d="M1.38889 20H23.6111C24.375 20 25 19.4375 25 18.75C25 18.0625 24.375 17.5 23.6111 17.5H1.38889C0.625 17.5 0 18.0625 0 18.75C0 19.4375 0.625 20 1.38889 20ZM1.38889 13.75H23.6111C24.375 13.75 25 13.1875 25 12.5C25 11.8125 24.375 11.25 23.6111 11.25H1.38889C0.625 11.25 0 11.8125 0 12.5C0 13.1875 0.625 13.75 1.38889 13.75ZM0 6.25C0 6.9375 0.625 7.5 1.38889 7.5H23.6111C24.375 7.5 25 6.9375 25 6.25C25 5.5625 24.375 5 23.6111 5H1.38889C0.625 5 0 5.5625 0 6.25Z" fill="#323232"/>
</svg>
