<svg width="25" height="26" viewBox="0 0 25 26" fill="none" xmlns="http://www.w3.org/2000/svg">
<path d="M16.6667 6C17.4031 6 18 6.58203 18 7.3V15.1C18 15.818 17.4031 16.4 16.6667 16.4H15.3333V17.7C15.3333 18.418 14.7364 19 14 19H7.33333C6.59695 19 6 18.418 6 17.7V9.9C6 9.18203 6.59695 8.6 7.33333 8.6H8.66667V7.3C8.66667 6.58203 9.26362 6 10 6H16.6667ZM14 9.9H7.33333V17.7H14V9.9ZM10.6667 14.45C11.0349 14.45 11.3333 14.741 11.3333 15.1C11.3333 15.459 11.0349 15.75 10.6667 15.75H9.33333C8.96515 15.75 8.66667 15.459 8.66667 15.1C8.66667 14.741 8.96515 14.45 9.33333 14.45H10.6667ZM16.6667 7.3H10V8.6H14C14.7364 8.6 15.3333 9.18203 15.3333 9.9V15.1H16.6667V7.3ZM12 11.85C12.3682 11.85 12.6667 12.141 12.6667 12.5C12.6667 12.8334 12.4093 13.1081 12.0777 13.1456L12 13.15H9.33333C8.96515 13.15 8.66667 12.859 8.66667 12.5C8.66667 12.1666 8.92403 11.8919 9.25559 11.8544L9.33333 11.85H12Z" fill="#323232"/>
<rect x="2" y="2" width="21" height="21" rx="3" stroke="#323232" stroke-width="2"/>
</svg>
