<svg width="32" height="30" viewBox="0 0 32 30" fill="none" xmlns="http://www.w3.org/2000/svg">
<path d="M9.89062 12.875C10.1517 12.875 10.4021 12.9787 10.5867 13.1633C10.7713 13.3479 10.875 13.5983 10.875 13.8594V21.0781C10.875 21.3392 10.7713 21.5896 10.5867 21.7742C10.4021 21.9588 10.1517 22.0625 9.89062 22.0625C9.62955 22.0625 9.37917 21.9588 9.19457 21.7742C9.00996 21.5896 8.90625 21.3392 8.90625 21.0781V13.8594C8.90625 13.5983 9.00996 13.3479 9.19457 13.1633C9.37917 12.9787 9.62955 12.875 9.89062 12.875ZM15.4688 13.8594C15.4688 13.5983 15.365 13.3479 15.1804 13.1633C14.9958 12.9787 14.7454 12.875 14.4844 12.875C14.2233 12.875 13.9729 12.9787 13.7883 13.1633C13.6037 13.3479 13.5 13.5983 13.5 13.8594V21.0781C13.5 21.3392 13.6037 21.5896 13.7883 21.7742C13.9729 21.9588 14.2233 22.0625 14.4844 22.0625C14.7454 22.0625 14.9958 21.9588 15.1804 21.7742C15.365 21.5896 15.4688 21.3392 15.4688 21.0781V13.8594Z" fill="#323232"/>
<path fill-rule="evenodd" clip-rule="evenodd" d="M6.9375 8.9375V7.95312C6.9375 7.16991 7.24863 6.41877 7.80245 5.86495C8.35627 5.31113 9.10741 5 9.89062 5H14.4844C15.2676 5 16.0187 5.31113 16.5725 5.86495C17.1264 6.41877 17.4375 7.16991 17.4375 7.95312V8.9375H20.3906C20.6517 8.9375 20.9021 9.04121 21.0867 9.22582C21.2713 9.41042 21.375 9.6608 21.375 9.92188C21.375 10.1829 21.2713 10.4333 21.0867 10.6179C20.9021 10.8025 20.6517 10.9062 20.3906 10.9062H20.0625V23.0469C20.0625 23.8301 19.7514 24.5812 19.1975 25.135C18.6437 25.6889 17.8926 26 17.1094 26H7.26562C6.48241 26 5.73127 25.6889 5.17745 25.135C4.62363 24.5812 4.3125 23.8301 4.3125 23.0469V10.9062H3.98438C3.7233 10.9062 3.47292 10.8025 3.28832 10.6179C3.10371 10.4333 3 10.1829 3 9.92188C3 9.6608 3.10371 9.41042 3.28832 9.22582C3.47292 9.04121 3.7233 8.9375 3.98438 8.9375H6.9375ZM8.90625 7.95312C8.90625 7.69205 9.00996 7.44167 9.19457 7.25707C9.37917 7.07246 9.62955 6.96875 9.89062 6.96875H14.4844C14.7454 6.96875 14.9958 7.07246 15.1804 7.25707C15.365 7.44167 15.4688 7.69205 15.4688 7.95312V8.9375H8.90625V7.95312ZM6.28125 10.9062V23.0469C6.28125 23.5903 6.72225 24.0312 7.26562 24.0312H17.1094C17.3704 24.0312 17.6208 23.9275 17.8054 23.7429C17.99 23.5583 18.0938 23.3079 18.0938 23.0469V10.9062H6.28125Z" fill="#323232"/>
</svg>
