<svg width="25" height="26" viewBox="0 0 25 26" fill="none" xmlns="http://www.w3.org/2000/svg">
<path d="M8.67155 8.05909L4.97654 19.3634H2L7.04799 5.72705H8.94215L8.67155 8.05909ZM11.7414 19.3634L8.03706 8.05909L7.73847 5.72705H9.65129L14.7273 19.3634H11.7414ZM11.5734 14.2872V16.4882H4.39803V14.2872H11.5734Z" fill="#323232"/>
<path fill-rule="evenodd" clip-rule="evenodd" d="M14.7275 3.90909C14.7275 3.40701 15.1346 3 15.6366 3H21.0912C21.5933 3 22.0003 3.40701 22.0003 3.90909C22.0003 4.41117 21.5933 4.81818 21.0912 4.81818H15.6366C15.1346 4.81818 14.7275 4.41117 14.7275 3.90909Z" fill="#323232"/>
<path fill-rule="evenodd" clip-rule="evenodd" d="M14.7275 21.182C14.7275 20.68 15.1346 20.2729 15.6366 20.2729H21.0912C21.5933 20.2729 22.0003 20.68 22.0003 21.182C22.0003 21.6841 21.5933 22.0911 21.0912 22.0911H15.6366C15.1346 22.0911 14.7275 21.6841 14.7275 21.182Z" fill="#323232"/>
<path fill-rule="evenodd" clip-rule="evenodd" d="M18.3634 3.90918C18.8654 3.90918 19.2725 4.31619 19.2725 4.81827L19.2725 21.1819C19.2725 21.684 18.8654 22.091 18.3634 22.091C17.8613 22.091 17.4543 21.684 17.4543 21.1819L17.4543 4.81827C17.4543 4.31619 17.8613 3.90918 18.3634 3.90918Z" fill="#323232"/>
</svg>
