<svg width="25" height="25" viewBox="0 0 25 25" fill="none" xmlns="http://www.w3.org/2000/svg">
<path fill-rule="evenodd" clip-rule="evenodd" d="M2.40385 7.84615C2.30691 7.84615 2.21266 7.85451 2.12184 7.87032C1.86136 7.91567 1.60844 7.76661 1.55691 7.53739C1.50538 7.30818 1.67476 7.0856 1.93523 7.04026C2.08718 7.0138 2.24392 7 2.40385 7H2.90865C3.17418 7 3.38942 7.18942 3.38942 7.42308C3.38942 7.65674 3.17418 7.84615 2.90865 7.84615H2.40385ZM5.45673 7.42308C5.45673 7.18942 5.67198 7 5.9375 7H6.94712C7.21264 7 7.42788 7.18942 7.42788 7.42308C7.42788 7.65674 7.21264 7.84615 6.94712 7.84615H5.9375C5.67198 7.84615 5.45673 7.65674 5.45673 7.42308ZM9.49519 7.42308C9.49519 7.18942 9.71044 7 9.97596 7H10.9856C11.2511 7 11.4663 7.18942 11.4663 7.42308C11.4663 7.65674 11.2511 7.84615 10.9856 7.84615H9.97596C9.71044 7.84615 9.49519 7.65674 9.49519 7.42308ZM13.5337 7.42308C13.5337 7.18942 13.7489 7 14.0144 7H15.024C15.2896 7 15.5048 7.18942 15.5048 7.42308C15.5048 7.65674 15.2896 7.84615 15.024 7.84615H14.0144C13.7489 7.84615 13.5337 7.65674 13.5337 7.42308ZM17.5721 7.42308C17.5721 7.18942 17.7874 7 18.0529 7H19.0625C19.328 7 19.5433 7.18942 19.5433 7.42308C19.5433 7.65674 19.328 7.84615 19.0625 7.84615H18.0529C17.7874 7.84615 17.5721 7.65674 17.5721 7.42308ZM21.6106 7.42308C21.6106 7.18942 21.8258 7 22.0913 7H22.5962C22.7561 7 22.9128 7.0138 23.0648 7.04026C23.3252 7.0856 23.4946 7.30818 23.4431 7.53739C23.3916 7.76661 23.1386 7.91567 22.8782 7.87032C22.7873 7.85451 22.6931 7.84615 22.5962 7.84615H22.0913C21.8258 7.84615 21.6106 7.65674 21.6106 7.42308ZM0.610676 8.37008C0.871149 8.41542 1.04053 8.638 0.989002 8.86722C0.971035 8.94714 0.961538 9.03008 0.961538 9.11538V9.53846C0.961538 9.77212 0.746291 9.96154 0.480769 9.96154C0.215248 9.96154 0 9.77212 0 9.53846V9.11538C0 8.97465 0.0156844 8.83672 0.0457444 8.703C0.0972738 8.47379 0.350202 8.32473 0.610676 8.37008ZM24.3893 8.37008C24.6498 8.32473 24.9027 8.47379 24.9543 8.703C24.9843 8.83672 25 8.97465 25 9.11538V9.53846C25 9.77212 24.7848 9.96154 24.5192 9.96154C24.2537 9.96154 24.0385 9.77212 24.0385 9.53846V9.11538C24.0385 9.03008 24.029 8.94714 24.011 8.86722C23.9595 8.638 24.1289 8.41542 24.3893 8.37008ZM0.480769 11.6538C0.746291 11.6538 0.961538 11.8433 0.961538 12.0769V12.9231C0.961538 13.1567 0.746291 13.3462 0.480769 13.3462C0.215248 13.3462 0 13.1567 0 12.9231V12.0769C0 11.8433 0.215248 11.6538 0.480769 11.6538ZM24.5192 11.6538C24.7848 11.6538 25 11.8433 25 12.0769V12.9231C25 13.1567 24.7848 13.3462 24.5192 13.3462C24.2537 13.3462 24.0385 13.1567 24.0385 12.9231V12.0769C24.0385 11.8433 24.2537 11.6538 24.5192 11.6538ZM24.5192 15.0385C24.7848 15.0385 25 15.2279 25 15.4615V15.8846C25 16.0253 24.9843 16.1633 24.9543 16.297C24.9027 16.5262 24.6498 16.6753 24.3893 16.6299C24.1289 16.5846 23.9595 16.362 24.011 16.1328C24.029 16.0529 24.0385 15.9699 24.0385 15.8846V15.4615C24.0385 15.2279 24.2537 15.0385 24.5192 15.0385ZM0.480769 15.0385C0.746291 15.0385 0.961538 15.2279 0.961538 15.4615V15.8846C0.961538 15.9699 0.971035 16.0529 0.989002 16.1328C1.04053 16.362 0.871149 16.5846 0.610675 16.6299C0.350202 16.6753 0.0972738 16.5262 0.0457443 16.297C0.0156844 16.1633 0 16.0254 0 15.8846V15.4615C0 15.2279 0.215248 15.0385 0.480769 15.0385ZM1.55691 17.4626C1.60843 17.2334 1.86136 17.0843 2.12184 17.1297C2.21266 17.1455 2.30691 17.1538 2.40385 17.1538H2.90865C3.17417 17.1538 3.38942 17.3433 3.38942 17.5769C3.38942 17.8106 3.17417 18 2.90865 18H2.40385C2.24392 18 2.08718 17.9862 1.93523 17.9597C1.67476 17.9144 1.50538 17.6918 1.55691 17.4626ZM23.4431 17.4626C23.4946 17.6918 23.3252 17.9144 23.0648 17.9597C22.9128 17.9862 22.7561 18 22.5962 18H22.0913C21.8258 18 21.6106 17.8106 21.6106 17.5769C21.6106 17.3433 21.8258 17.1538 22.0913 17.1538H22.5962C22.6931 17.1538 22.7873 17.1455 22.8782 17.1297C23.1386 17.0843 23.3916 17.2334 23.4431 17.4626ZM5.45673 17.5769C5.45673 17.3433 5.67198 17.1538 5.9375 17.1538H6.94711C7.21263 17.1538 7.42788 17.3433 7.42788 17.5769C7.42788 17.8106 7.21263 18 6.94711 18H5.9375C5.67198 18 5.45673 17.8106 5.45673 17.5769ZM9.49519 17.5769C9.49519 17.3433 9.71044 17.1538 9.97596 17.1538H10.9856C11.2511 17.1538 11.4663 17.3433 11.4663 17.5769C11.4663 17.8106 11.2511 18 10.9856 18H9.97596C9.71044 18 9.49519 17.8106 9.49519 17.5769ZM13.5337 17.5769C13.5337 17.3433 13.7489 17.1538 14.0144 17.1538H15.024C15.2896 17.1538 15.5048 17.3433 15.5048 17.5769C15.5048 17.8106 15.2896 18 15.024 18H14.0144C13.7489 18 13.5337 17.8106 13.5337 17.5769ZM17.5721 17.5769C17.5721 17.3433 17.7874 17.1538 18.0529 17.1538H19.0625C19.328 17.1538 19.5433 17.3433 19.5433 17.5769C19.5433 17.8106 19.328 18 19.0625 18H18.0529C17.7874 18 17.5721 17.8106 17.5721 17.5769Z" fill="#323232"/>
<path fill-rule="evenodd" clip-rule="evenodd" d="M3 12.5C3 11.6716 3.67157 11 4.5 11H11.5C12.3284 11 13 11.6716 13 12.5C13 13.3284 12.3284 14 11.5 14H4.5C3.67157 14 3 13.3284 3 12.5Z" fill="#323232"/>
<path fill-rule="evenodd" clip-rule="evenodd" d="M15 12.5C15 11.6716 15.6716 11 16.5 11L19.5 11C20.3284 11 21 11.6716 21 12.5C21 13.3284 20.3284 14 19.5 14L16.5 14C15.6716 14 15 13.3284 15 12.5Z" fill="#323232"/>
</svg>
