<svg width="25" height="25" viewBox="0 0 25 25" fill="none" xmlns="http://www.w3.org/2000/svg">
<path fill-rule="evenodd" clip-rule="evenodd" d="M20.1191 1.97238C20.1191 1.14397 19.4476 0.472412 18.6192 0.472412H6.61931C5.7909 0.472412 5.11934 1.14397 5.11934 1.97238C5.11934 2.80079 5.7909 3.47235 6.61931 3.47235H18.6192C19.4476 3.47235 20.1191 2.80079 20.1191 1.97238Z" fill="#323232"/>
<path fill-rule="evenodd" clip-rule="evenodd" d="M3.11914 1.97238C3.11914 1.14397 2.44758 0.472412 1.61917 0.472412L1.49917 0.472412C0.670762 0.472412 -0.000797768 1.14397 -0.000797841 1.97238C-0.000797913 2.80079 0.670761 3.47235 1.49917 3.47235L1.61917 3.47235C2.44758 3.47235 3.11914 2.80079 3.11914 1.97238Z" fill="#323232"/>
<path fill-rule="evenodd" clip-rule="evenodd" d="M20.1191 14.5C20.1191 13.6716 19.4476 13 18.6192 13H6.61931C5.7909 13 5.11934 13.6716 5.11934 14.5C5.11934 15.3284 5.7909 15.9999 6.61931 15.9999H18.6192C19.4476 15.9999 20.1191 15.3284 20.1191 14.5Z" fill="#323232"/>
<path fill-rule="evenodd" clip-rule="evenodd" d="M3.11914 14.5C3.11914 13.6716 2.44758 13 1.61917 13L1.49917 13C0.670762 13 -0.000797768 13.6716 -0.000797841 14.5C-0.000797913 15.3284 0.670761 15.9999 1.49917 15.9999L1.61917 15.9999C2.44758 15.9999 3.11914 15.3284 3.11914 14.5Z" fill="#323232"/>
<path fill-rule="evenodd" clip-rule="evenodd" d="M17.1191 20.5C17.1191 19.6716 16.4476 19 15.6192 19H6.61931C5.7909 19 5.11934 19.6716 5.11934 20.5C5.11934 21.3284 5.7909 21.9999 6.61931 21.9999H15.6192C16.4476 21.9999 17.1191 21.3284 17.1191 20.5Z" fill="#323232"/>
<path fill-rule="evenodd" clip-rule="evenodd" d="M3.11914 20.5C3.11914 19.6716 2.44758 19 1.61917 19L1.49917 19C0.670762 19 -0.000797768 19.6716 -0.000797841 20.5C-0.000797913 21.3284 0.670761 21.9999 1.49917 21.9999L1.61917 21.9999C2.44758 21.9999 3.11914 21.3284 3.11914 20.5Z" fill="#323232"/>
<path fill-rule="evenodd" clip-rule="evenodd" d="M23.1191 8.49997C23.1191 7.67156 22.4476 7 21.6192 7H6.61931C5.7909 7 5.11934 7.67156 5.11934 8.49997C5.11934 9.32838 5.7909 9.99994 6.61931 9.99994H21.6192C22.4476 9.99994 23.1191 9.32838 23.1191 8.49997Z" fill="#323232"/>
<path fill-rule="evenodd" clip-rule="evenodd" d="M3.11914 8.49997C3.11914 7.67156 2.44758 7 1.61917 7L1.49917 7C0.670762 7 -0.000797768 7.67156 -0.000797841 8.49997C-0.000797913 9.32838 0.670761 9.99994 1.49917 9.99994L1.61917 9.99994C2.44758 9.99994 3.11914 9.32838 3.11914 8.49997Z" fill="#323232"/>
</svg>
