<svg width="25" height="25" viewBox="0 0 25 25" fill="none" xmlns="http://www.w3.org/2000/svg">
<path fill-rule="evenodd" clip-rule="evenodd" d="M20.1196 1.97238C20.1196 1.14397 19.4481 0.472412 18.6197 0.472412H6.6198C5.79139 0.472412 5.11983 1.14397 5.11983 1.97238C5.11983 2.80079 5.79139 3.47235 6.6198 3.47235H18.6197C19.4481 3.47235 20.1196 2.80079 20.1196 1.97238Z" fill="white"/>
<path fill-rule="evenodd" clip-rule="evenodd" d="M3.12012 1.97238C3.12012 1.14397 2.44856 0.472412 1.62015 0.472412L1.50015 0.472412C0.671738 0.472412 0.000178755 1.14397 0.000178683 1.97238C0.00017861 2.80079 0.671738 3.47235 1.50015 3.47235L1.62015 3.47235C2.44856 3.47235 3.12012 2.80079 3.12012 1.97238Z" fill="white"/>
<path fill-rule="evenodd" clip-rule="evenodd" d="M20.1196 14.5C20.1196 13.6716 19.4481 13 18.6197 13H6.6198C5.79139 13 5.11983 13.6716 5.11983 14.5C5.11983 15.3284 5.79139 15.9999 6.6198 15.9999H18.6197C19.4481 15.9999 20.1196 15.3284 20.1196 14.5Z" fill="white"/>
<path fill-rule="evenodd" clip-rule="evenodd" d="M3.12012 14.5C3.12012 13.6716 2.44856 13 1.62015 13L1.50015 13C0.671738 13 0.000178755 13.6716 0.000178683 14.5C0.00017861 15.3284 0.671738 15.9999 1.50015 15.9999L1.62015 15.9999C2.44856 15.9999 3.12012 15.3284 3.12012 14.5Z" fill="white"/>
<path fill-rule="evenodd" clip-rule="evenodd" d="M17.1196 20.5C17.1196 19.6716 16.4481 19 15.6197 19H6.6198C5.79139 19 5.11983 19.6716 5.11983 20.5C5.11983 21.3284 5.79139 21.9999 6.6198 21.9999H15.6197C16.4481 21.9999 17.1196 21.3284 17.1196 20.5Z" fill="white"/>
<path fill-rule="evenodd" clip-rule="evenodd" d="M3.12012 20.5C3.12012 19.6716 2.44856 19 1.62015 19L1.50015 19C0.671738 19 0.000178755 19.6716 0.000178683 20.5C0.00017861 21.3284 0.671738 21.9999 1.50015 21.9999L1.62015 21.9999C2.44856 21.9999 3.12012 21.3284 3.12012 20.5Z" fill="white"/>
<path fill-rule="evenodd" clip-rule="evenodd" d="M23.1196 8.49997C23.1196 7.67156 22.4481 7 21.6197 7H6.6198C5.79139 7 5.11983 7.67156 5.11983 8.49997C5.11983 9.32838 5.79139 9.99994 6.6198 9.99994H21.6197C22.4481 9.99994 23.1196 9.32838 23.1196 8.49997Z" fill="white"/>
<path fill-rule="evenodd" clip-rule="evenodd" d="M3.12012 8.49997C3.12012 7.67156 2.44856 7 1.62015 7L1.50015 7C0.671738 7 0.000178755 7.67156 0.000178683 8.49997C0.00017861 9.32838 0.671738 9.99994 1.50015 9.99994L1.62015 9.99994C2.44856 9.99994 3.12012 9.32838 3.12012 8.49997Z" fill="white"/>
</svg>
