<svg width="25" height="25" viewBox="0 0 25 25" fill="none" xmlns="http://www.w3.org/2000/svg">
<path d="M17.7 8.25H12.5L11.2 7H7.3C6.585 7 6.0065 7.5625 6.0065 8.25L6 15.75C6 16.4375 6.585 17 7.3 17H17.7C18.415 17 19 16.4375 19 15.75V9.5C19 8.8125 18.415 8.25 17.7 8.25ZM17.7 15.75H7.3V9.5H17.7V15.75Z" fill="#323232"/>
<path fill-rule="evenodd" clip-rule="evenodd" d="M12.5 23C18.299 23 23 18.299 23 12.5C23 6.70101 18.299 2 12.5 2C6.70101 2 2 6.70101 2 12.5C2 18.299 6.70101 23 12.5 23ZM12.5 25C19.4036 25 25 19.4036 25 12.5C25 5.59644 19.4036 0 12.5 0C5.59644 0 0 5.59644 0 12.5C0 19.4036 5.59644 25 12.5 25Z" fill="#323232"/>
</svg>
