<svg width="25" height="25" viewBox="0 0 25 25" fill="none" xmlns="http://www.w3.org/2000/svg">
<path d="M0 18.1926C0 16.8787 1.06062 15.8181 2.37452 15.8181C3.68842 15.8181 4.74903 16.8787 4.74903 18.1926C4.74903 19.5065 3.68842 20.5672 2.37452 20.5672C1.06062 20.5672 0 19.5065 0 18.1926Z" fill="#323232"/>
<path d="M8.70656 19.7756C7.83591 19.7756 7.12355 19.0633 7.12355 18.1926C7.12355 17.322 7.83591 16.6096 8.70656 16.6096H23.417C24.2876 16.6096 25 17.322 25 18.1926C25 19.0633 24.2876 19.7756 23.417 19.7756H8.70656Z" fill="#323232"/>
<path d="M13.3381 12.304H18.0571L18.68 13.8138C18.8216 14.1535 19.1519 14.38 19.52 14.38C20.1712 14.38 20.6054 13.71 20.3505 13.1155L16.6886 4.65111C16.5187 4.25478 16.1318 4 15.6976 4C15.2635 4 14.8765 4.25478 14.7066 4.65111L11.0447 13.1155C10.7899 13.71 11.2335 14.38 11.8847 14.38C12.2528 14.38 12.5831 14.1535 12.7247 13.8138L13.3381 12.304ZM15.6976 5.8684L17.4625 10.6055H13.9327L15.6976 5.8684Z" fill="#323232"/>
</svg>
