<svg width="25" height="25" viewBox="0 0 25 25" fill="none" xmlns="http://www.w3.org/2000/svg">
<path fill-rule="evenodd" clip-rule="evenodd" d="M1 0C0.447715 0 0 0.447715 0 1V6.69231C0 7.24459 0.447716 7.69231 1 7.69231H24C24.5523 7.69231 25 7.24459 25 6.69231V1C25 0.447715 24.5523 0 24 0H1ZM21 5.9231C22.1046 5.9231 23 5.02767 23 3.9231C23 2.81853 22.1046 1.9231 21 1.9231C19.8954 1.9231 19 2.81853 19 3.9231C19 5.02767 19.8954 5.9231 21 5.9231ZM2 2.40386C2 2.13834 2.22386 1.9231 2.5 1.9231H11.5C11.7761 1.9231 12 2.13834 12 2.40386C12 2.66939 11.7761 2.88463 11.5 2.88463H2.5C2.22386 2.88463 2 2.66939 2 2.40386ZM2.5 3.84619C2.22386 3.84619 2 4.06144 2 4.32696C2 4.59248 2.22386 4.80773 2.5 4.80773H9.5C9.77614 4.80773 10 4.59248 10 4.32696C10 4.06144 9.77614 3.84619 9.5 3.84619H2.5Z" fill="#323232"/>
<path fill-rule="evenodd" clip-rule="evenodd" d="M1 8.65381C0.447715 8.65381 0 9.10152 0 9.65381V15.3461C0 15.8984 0.447716 16.3461 1 16.3461H24C24.5523 16.3461 25 15.8984 25 15.3461V9.65381C25 9.10152 24.5523 8.65381 24 8.65381H1ZM21 14.5769C22.1046 14.5769 23 13.6815 23 12.5769C23 11.4723 22.1046 10.5769 21 10.5769C19.8954 10.5769 19 11.4723 19 12.5769C19 13.6815 19.8954 14.5769 21 14.5769ZM2 11.0577C2 10.7922 2.22386 10.5769 2.5 10.5769H11.5C11.7761 10.5769 12 10.7922 12 11.0577C12 11.3232 11.7761 11.5384 11.5 11.5384H2.5C2.22386 11.5384 2 11.3232 2 11.0577ZM2.5 12.5C2.22386 12.5 2 12.7152 2 12.9808C2 13.2463 2.22386 13.4615 2.5 13.4615H9.5C9.77614 13.4615 10 13.2463 10 12.9808C10 12.7152 9.77614 12.5 9.5 12.5H2.5Z" fill="#323232"/>
<path fill-rule="evenodd" clip-rule="evenodd" d="M1 17.3077C0.447715 17.3077 0 17.7555 0 18.3077V24C0 24.5523 0.447716 25 1 25H24C24.5523 25 25 24.5523 25 24V18.3077C25 17.7555 24.5523 17.3077 24 17.3077H1ZM21 23.2308C22.1046 23.2308 23 22.3354 23 21.2308C23 20.1263 22.1046 19.2308 21 19.2308C19.8954 19.2308 19 20.1263 19 21.2308C19 22.3354 19.8954 23.2308 21 23.2308ZM2 19.7116C2 19.4461 2.22386 19.2308 2.5 19.2308H11.5C11.7761 19.2308 12 19.4461 12 19.7116C12 19.9771 11.7761 20.1924 11.5 20.1924H2.5C2.22386 20.1924 2 19.9771 2 19.7116ZM2.5 21.1539C2.22386 21.1539 2 21.3692 2 21.6347C2 21.9002 2.22386 22.1155 2.5 22.1155H9.5C9.77614 22.1155 10 21.9002 10 21.6347C10 21.3692 9.77614 21.1539 9.5 21.1539H2.5Z" fill="#323232"/>
</svg>
