<svg width="25" height="26" viewBox="0 0 25 26" fill="none" xmlns="http://www.w3.org/2000/svg">
<path fill-rule="evenodd" clip-rule="evenodd" d="M2.95459 4.07959C2.95459 2.3537 4.35879 0.95459 6.09095 0.95459H18.6364C20.3686 0.95459 21.7728 2.3537 21.7728 4.07959V22.8296C21.7728 24.5555 20.3686 25.9546 18.6364 25.9546H6.09095C4.35879 25.9546 2.95459 24.5555 2.95459 22.8296V4.07959ZM6.09095 3.03792C5.51356 3.03792 5.0455 3.50429 5.0455 4.07959V22.8296C5.0455 23.4049 5.51356 23.8713 6.09095 23.8713H18.6364C19.2138 23.8713 19.6819 23.4049 19.6819 22.8296V4.07959C19.6819 3.50429 19.2138 3.03792 18.6364 3.03792H6.09095Z" fill="#323232"/>
<path fill-rule="evenodd" clip-rule="evenodd" d="M15.3936 7.55353H8.51855V6.69727H15.3936V7.55353Z" fill="#323232"/>
<path fill-rule="evenodd" clip-rule="evenodd" d="M16.2529 9.26593H8.51855V8.40967H16.2529V9.26593Z" fill="#323232"/>
<path fill-rule="evenodd" clip-rule="evenodd" d="M16.8831 5.86253H7.71647V10.2509H16.8831V5.86253ZM6.7998 4.98486V11.1285H17.7998V4.98486H6.7998Z" fill="#323232"/>
</svg>
