<svg width="26" height="25" viewBox="0 0 26 25" fill="none" xmlns="http://www.w3.org/2000/svg">
<path d="M15.82 13.4853H17.978V22.3695C17.978 22.5449 18.1201 22.6871 18.2955 22.6871H21.9545C22.1299 22.6871 22.2721 22.5449 22.2721 22.3695V13.5272H24.7529C24.9142 13.5272 25.0499 13.4061 25.0683 13.2459L25.4451 9.97519C25.4555 9.8852 25.4269 9.79508 25.3667 9.72758C25.3065 9.66001 25.2202 9.62133 25.1297 9.62133H22.2722V7.57108C22.2722 6.95304 22.605 6.63963 23.2614 6.63963C23.3549 6.63963 25.1297 6.63963 25.1297 6.63963C25.3051 6.63963 25.4473 6.49744 25.4473 6.3221V3.31988C25.4473 3.14448 25.3051 3.00235 25.1297 3.00235H22.5549C22.5367 3.00146 22.4964 3 22.4369 3C21.9902 3 20.4372 3.0877 19.2105 4.21622C17.8514 5.46679 18.0403 6.96415 18.0854 7.22376V9.62127H15.82C15.6446 9.62127 15.5024 9.7634 15.5024 9.9388V13.1677C15.5024 13.3431 15.6446 13.4853 15.82 13.4853Z" fill="#323232"/>
<path d="M5.86547 8.93716C5.86547 9.27128 5.98662 9.60497 6.22811 9.85991L7.77551 11.494L5.88138 11.494L3.40882 11.494L1.68354 11.494C1.00112 11.494 0.447265 12.0782 0.447265 12.7991C0.447265 13.52 1.00112 14.1043 1.68354 14.1043L3.40841 14.1043L5.88097 14.1043L7.85876 14.1043L6.2277 15.8267C5.98621 16.0816 5.86506 16.4157 5.86506 16.7494C5.86506 17.0831 5.98621 17.4172 6.2277 17.6722C6.70984 18.182 7.49282 18.182 7.97538 17.6722L11.6665 13.7754C11.908 13.5204 12.0279 13.1863 12.0279 12.8531C12.0279 12.8496 12.0279 12.8461 12.0279 12.8431C12.0279 12.84 12.0279 12.8365 12.0279 12.8335C12.0279 12.4994 11.908 12.1661 11.6665 11.9112L7.97538 8.01442C7.49282 7.50453 6.70984 7.50453 6.2277 8.01442C5.98662 8.26936 5.86547 8.60261 5.86547 8.93716Z" fill="#323232"/>
</svg>
