<svg width="25" height="26" viewBox="0 0 25 26" fill="none" xmlns="http://www.w3.org/2000/svg">
<path fill-rule="evenodd" clip-rule="evenodd" d="M3 3.13636C3 1.4042 4.4042 0 6.13636 0H18.6818C20.414 0 21.8182 1.4042 21.8182 3.13636V21.9545C21.8182 23.6867 20.414 25.0909 18.6818 25.0909H6.13636C4.4042 25.0909 3 23.6867 3 21.9545V3.13636ZM6.13636 2.09091C5.55897 2.09091 5.09091 2.55897 5.09091 3.13636V21.9545C5.09091 22.5319 5.55897 23 6.13636 23H18.6818C19.2592 23 19.7273 22.5319 19.7273 21.9545V3.13636C19.7273 2.55897 19.2592 2.09091 18.6818 2.09091H6.13636Z" fill="#323232"/>
<path d="M10.0699 9.49L7.10989 13.19C6.84989 13.52 7.07989 14 7.49989 14H17.4599C17.8699 14 18.1099 13.53 17.8599 13.2L15.8599 10.53C15.6599 10.26 15.2599 10.26 15.0599 10.53L13.4299 12.71L10.8499 9.49C10.6499 9.24 10.2699 9.24 10.0699 9.49ZM16.4599 6.5C16.4599 5.67 15.7899 5 14.9599 5C14.1299 5 13.4599 5.67 13.4599 6.5C13.4599 7.33 14.1299 8 14.9599 8C15.7899 8 16.4599 7.33 16.4599 6.5Z" fill="#323232"/>
<path fill-rule="evenodd" clip-rule="evenodd" d="M15.3636 17.0455H7V16H15.3636V17.0455Z" fill="#323232"/>
<path fill-rule="evenodd" clip-rule="evenodd" d="M13.2727 20.1363H7V19.0908H13.2727V20.1363Z" fill="#323232"/>
</svg>
