<svg width="24" height="24" viewBox="0 0 24 24" fill="none" xmlns="http://www.w3.org/2000/svg">
<mask id="mask0_4176_113" style="mask-type:alpha" maskUnits="userSpaceOnUse" x="0" y="0" width="24" height="24">
<rect width="24" height="24" fill="#D9D9D9"/>
</mask>
<g mask="url(#mask0_4176_113)">
<path d="M12 22.775C10.6667 22.775 9.41667 22.5667 8.25 22.15C7.08334 21.7333 6.07084 21.1542 5.2125 20.4125C4.35417 19.6708 3.675 18.7875 3.175 17.7625C2.675 16.7375 2.425 15.625 2.425 14.425V11.05L7.875 15.125L6.175 16.825C6.625 17.4917 7.225 18.0583 7.975 18.525C8.725 18.9917 9.54167 19.3083 10.425 19.475V11.975H7.425V8.82499H10.425V8.19999C9.69167 7.86666 9.1125 7.37916 8.6875 6.73749C8.2625 6.09583 8.05 5.39166 8.05 4.62499C8.05 3.52083 8.43434 2.58224 9.203 1.80924C9.97167 1.03641 10.905 0.649994 12.003 0.649994C13.101 0.649994 14.0333 1.03641 14.8 1.80924C15.5667 2.58224 15.95 3.52083 15.95 4.62499C15.95 5.39166 15.7375 6.09583 15.3125 6.73749C14.8875 7.37916 14.3083 7.86666 13.575 8.19999V8.82499H16.575V11.975H13.575V19.475C14.4583 19.3083 15.275 18.9917 16.025 18.525C16.775 18.0583 17.375 17.4917 17.825 16.825L16.125 15.125L21.575 11.05V14.425C21.575 15.625 21.325 16.7375 20.825 17.7625C20.325 18.7875 19.6458 19.6708 18.7875 20.4125C17.9292 21.1542 16.9167 21.7333 15.75 22.15C14.5833 22.5667 13.3333 22.775 12 22.775ZM12 5.42499C12.2267 5.42499 12.4167 5.34833 12.57 5.19499C12.7233 5.04166 12.8 4.85166 12.8 4.62499C12.8 4.39116 12.7233 4.19524 12.57 4.03724C12.4167 3.87908 12.2267 3.79999 12 3.79999C11.7733 3.79999 11.5833 3.87899 11.43 4.03699C11.2767 4.19499 11.2 4.39083 11.2 4.62449C11.2 4.85816 11.2767 5.04999 11.43 5.19999C11.5833 5.34999 11.7733 5.42499 12 5.42499Z" fill="#6F52ED"/>
</g>
</svg>
