<svg width="21" height="21" viewBox="0 0 21 21" fill="none" xmlns="http://www.w3.org/2000/svg">
<path d="M9.49999 13.475V9.575H13.375L9.49999 13.475ZM9.49999 17.95V15.125L15.025 9.575H17.85L9.49999 17.95ZM9.49999 19.525L19.475 9.575H20.85V11.025L11.025 20.85H9.49999V19.525ZM12.775 20.85L20.85 12.775V15.625L15.6 20.85H12.775ZM17.3 20.85L20.85 17.325V20.85H17.3ZM19.65 8H16.65C16.2167 6.55 15.3958 5.3625 14.1875 4.4375C12.9792 3.5125 11.5833 3.05 9.99999 3.05C8.06666 3.05 6.42499 3.725 5.07499 5.075C3.72499 6.425 3.04999 8.06667 3.04999 10C3.04999 10.9667 3.23749 11.8667 3.61249 12.7C3.98749 13.5333 4.49999 14.2667 5.14999 14.9V12.95H8.04999V19.85H1.14999V16.95H3.02499C2.12499 16.05 1.42083 15.0083 0.912494 13.825C0.40416 12.6417 0.149994 11.3667 0.149994 10C0.149994 8.63334 0.408327 7.35417 0.924994 6.1625C1.44166 4.97084 2.14583 3.92917 3.03749 3.0375C3.92916 2.14583 4.97083 1.44167 6.16249 0.925002C7.35416 0.408335 8.63333 0.150002 9.99999 0.150002C12.3833 0.150002 14.4708 0.895835 16.2625 2.3875C18.0542 3.87917 19.1833 5.75 19.65 8Z" fill="#6F52ED"/>
</svg>
