<svg width="24" height="24" viewBox="0 0 24 24" fill="none" xmlns="http://www.w3.org/2000/svg">
<path d="M8.59999 16.425L4.17499 12L8.59999 7.57499L10.8 9.82499L8.64999 12L10.8 14.175L8.59999 16.425ZM15.4 16.425L13.2 14.175L15.35 12L13.2 9.82499L15.4 7.57499L19.825 12L15.4 16.425ZM2.14999 21.85V15H5.29999V18.7H8.99999V21.85H2.14999ZM15 21.85V18.7H18.7V15H21.85V21.85H15ZM2.14999 8.99999V2.14999H8.99999V5.29999H5.29999V8.99999H2.14999ZM18.7 8.99999V5.29999H15V2.14999H21.85V8.99999H18.7Z" fill="#6F52ED"/>
</svg>
