<svg width="24" height="24" viewBox="0 0 24 24" fill="none" xmlns="http://www.w3.org/2000/svg">
<mask id="mask0_4176_64" style="mask-type:alpha" maskUnits="userSpaceOnUse" x="0" y="0" width="24" height="24">
<rect width="24" height="24" fill="#D9D9D9"/>
</mask>
<g mask="url(#mask0_4176_64)">
<path d="M4.72499 20.775C3.49166 20.775 2.45166 20.3408 1.60499 19.4725C0.75816 18.6043 0.314827 17.5543 0.274994 16.3225C0.274994 16.1408 0.287494 15.9625 0.312494 15.7875C0.337494 15.6125 0.366661 15.4333 0.399994 15.25L2.49999 6.82501C2.78333 5.77501 3.35191 4.91251 4.20574 4.23751C5.05974 3.56251 6.03283 3.22501 7.12499 3.22501H16.875C17.9672 3.22501 18.9402 3.56251 19.7942 4.23751C20.6481 4.91251 21.2167 5.77501 21.5 6.82501L23.6 15.225C23.65 15.4083 23.6875 15.596 23.7125 15.788C23.7375 15.98 23.75 16.1669 23.75 16.3488C23.75 17.5818 23.3127 18.6277 22.438 19.4865C21.5632 20.3455 20.5087 20.775 19.2745 20.775C18.4248 20.775 17.6375 20.5542 16.9125 20.1125C16.1875 19.6708 15.6417 19.0583 15.275 18.275L14.575 16.85C14.5583 16.8167 14.5312 16.7958 14.4935 16.7875C14.4558 16.7792 14.4163 16.775 14.375 16.775H9.62499C9.58366 16.775 9.54416 16.7792 9.50649 16.7875C9.46883 16.7958 9.44166 16.8167 9.42499 16.85L8.72499 18.275C8.35833 19.0583 7.81183 19.6708 7.08549 20.1125C6.35916 20.5542 5.57233 20.775 4.72499 20.775ZM13.5 11C13.7833 11 14.0208 10.9042 14.2125 10.7125C14.4042 10.5208 14.5 10.2833 14.5 10C14.5 9.71667 14.4042 9.47917 14.2125 9.28751C14.0208 9.09584 13.7833 9.00001 13.5 9.00001C13.2167 9.00001 12.9792 9.09584 12.7875 9.28751C12.5958 9.47917 12.5 9.71667 12.5 10C12.5 10.2833 12.5958 10.5208 12.7875 10.7125C12.9792 10.9042 13.2167 11 13.5 11ZM15.5 9.00001C15.7833 9.00001 16.0208 8.90417 16.2125 8.71251C16.4042 8.52084 16.5 8.28334 16.5 8.00001C16.5 7.71667 16.4042 7.47917 16.2125 7.28751C16.0208 7.09584 15.7833 7.00001 15.5 7.00001C15.2167 7.00001 14.9792 7.09584 14.7875 7.28751C14.5958 7.47917 14.5 7.71667 14.5 8.00001C14.5 8.28334 14.5958 8.52084 14.7875 8.71251C14.9792 8.90417 15.2167 9.00001 15.5 9.00001ZM15.5 13C15.7833 13 16.0208 12.9042 16.2125 12.7125C16.4042 12.5208 16.5 12.2833 16.5 12C16.5 11.7167 16.4042 11.4792 16.2125 11.2875C16.0208 11.0958 15.7833 11 15.5 11C15.2167 11 14.9792 11.0958 14.7875 11.2875C14.5958 11.4792 14.5 11.7167 14.5 12C14.5 12.2833 14.5958 12.5208 14.7875 12.7125C14.9792 12.9042 15.2167 13 15.5 13ZM17.5 11C17.7833 11 18.0208 10.9042 18.2125 10.7125C18.4042 10.5208 18.5 10.2833 18.5 10C18.5 9.71667 18.4042 9.47917 18.2125 9.28751C18.0208 9.09584 17.7833 9.00001 17.5 9.00001C17.2167 9.00001 16.9792 9.09584 16.7875 9.28751C16.5958 9.47917 16.5 9.71667 16.5 10C16.5 10.2833 16.5958 10.5208 16.7875 10.7125C16.9792 10.9042 17.2167 11 17.5 11ZM8.49999 12.5C8.71666 12.5 8.89583 12.4292 9.03749 12.2875C9.17916 12.1458 9.24999 11.9667 9.24999 11.75V10.75H10.25C10.4667 10.75 10.6458 10.6792 10.7875 10.5375C10.9292 10.3958 11 10.2167 11 10C11 9.78334 10.9292 9.60417 10.7875 9.46251C10.6458 9.32084 10.4667 9.25001 10.25 9.25001H9.24999V8.25001C9.24999 8.03334 9.17916 7.85417 9.03749 7.71251C8.89583 7.57084 8.71666 7.50001 8.49999 7.50001C8.28333 7.50001 8.10416 7.57084 7.96249 7.71251C7.82083 7.85417 7.74999 8.03334 7.74999 8.25001V9.25001H6.74999C6.53333 9.25001 6.35416 9.32084 6.21249 9.46251C6.07083 9.60417 5.99999 9.78334 5.99999 10C5.99999 10.2167 6.07083 10.3958 6.21249 10.5375C6.35416 10.6792 6.53333 10.75 6.74999 10.75H7.74999V11.75C7.74999 11.9667 7.82083 12.1458 7.96249 12.2875C8.10416 12.4292 8.28333 12.5 8.49999 12.5Z" fill="#6F52ED"/>
</g>
</svg>
