<svg width="24" height="24" viewBox="0 0 24 24" fill="none" xmlns="http://www.w3.org/2000/svg">
<mask id="mask0_4176_184" style="mask-type:alpha" maskUnits="userSpaceOnUse" x="0" y="0" width="24" height="24">
<rect width="24" height="24" fill="#D9D9D9"/>
</mask>
<g mask="url(#mask0_4176_184)">
<path d="M1.14999 15.45V1.14999H15.45V15.45H1.14999ZM7.79999 10.8L6.59999 9.14999L4.79999 11.55H11.8L9.49999 8.54999L7.79999 10.8ZM17.4 22.85C16.4417 22.85 15.6271 22.5146 14.9562 21.8437C14.2854 21.1729 13.95 20.3583 13.95 19.4C13.95 18.4417 14.2854 17.6271 14.9562 16.9562C15.6271 16.2854 16.4417 15.95 17.4 15.95C17.4833 15.95 17.575 15.9542 17.675 15.9625C17.775 15.9708 17.8667 15.9833 17.95 16V10.95H22.85V13.85H20.85V19.4C20.85 20.3583 20.5146 21.1729 19.8437 21.8437C19.1729 22.5146 18.3583 22.85 17.4 22.85Z" fill="#6F52ED"/>
</g>
</svg>
