<svg width="24" height="24" viewBox="0 0 24 24" fill="none" xmlns="http://www.w3.org/2000/svg">
<path d="M17.5 7.50001C17.2167 7.50001 16.9792 7.40418 16.7875 7.21251C16.5958 7.02085 16.5 6.78335 16.5 6.50001C16.5 6.21668 16.5958 5.97918 16.7875 5.78751C16.9792 5.59585 17.2167 5.50001 17.5 5.50001C17.7833 5.50001 18.0208 5.59585 18.2125 5.78751C18.4042 5.97918 18.5 6.21668 18.5 6.50001C18.5 6.78335 18.4042 7.02085 18.2125 7.21251C18.0208 7.40418 17.7833 7.50001 17.5 7.50001ZM9.575 13.425L12.275 9.92501L13.825 11.925L16.125 8.92501L19.575 13.425H9.575ZM0.574997 23.425V5.72501H3.725V20.275H18.275V23.425H0.574997ZM5.725 8.80001V0.575012H13.575V3.72501H8.875V8.80001H5.725ZM5.725 18.275V10.8H8.875V15.125H13.575V18.275H5.725ZM15.575 18.275V15.125H20.275V10.8H23.425V18.275H15.575ZM20.275 8.80001V3.72501H15.575V0.575012H23.425V8.80001H20.275Z" fill="#6F52ED"/>
</svg>
