<svg width="25" height="25" viewBox="0 0 25 25" fill="none" xmlns="http://www.w3.org/2000/svg">
<rect x="1" y="1" width="23" height="11" rx="1" stroke="#323232" stroke-width="2"/>
<rect y="15" width="25" height="3" rx="1.5" fill="#323232"/>
<rect y="20" width="25" height="2" rx="1" fill="#323232"/>
<rect y="24" width="25" height="1" rx="0.5" fill="#323232"/>
<path d="M7.53289 4.9018L6.13006 8.9332H5L6.9165 4.07014H7.63563L7.53289 4.9018ZM8.69838 8.9332L7.292 4.9018L7.17864 4.07014H7.90486L9.83198 8.9332H8.69838ZM8.63462 7.12291V7.90782H5.91043V7.12291H8.63462Z" fill="#323232"/>
<path d="M12.3295 6.79893H11.0046L10.9975 6.11089H12.1098C12.3058 6.11089 12.4664 6.08751 12.5916 6.04075C12.7168 5.99176 12.8101 5.92162 12.8715 5.83033C12.9352 5.73681 12.9671 5.62325 12.9671 5.48965C12.9671 5.33823 12.9364 5.21576 12.875 5.12224C12.816 5.02872 12.7227 4.96081 12.5951 4.9185C12.47 4.8762 12.3082 4.85504 12.1098 4.85504H11.373V8.9332H10.3102V4.07014H12.1098C12.4098 4.07014 12.6778 4.09686 12.914 4.1503C13.1525 4.20374 13.3544 4.28501 13.5197 4.39412C13.6851 4.50323 13.8114 4.64128 13.8988 4.80828C13.9862 4.97306 14.0299 5.169 14.0299 5.39613C14.0299 5.59653 13.9814 5.78134 13.8846 5.95057C13.7901 6.1198 13.6402 6.25785 13.4347 6.36473C13.2316 6.47161 12.9659 6.53062 12.6377 6.54175L12.3295 6.79893ZM12.2834 8.9332H10.7141L11.1285 8.15164H12.2834C12.47 8.15164 12.6223 8.1238 12.7404 8.06814C12.8585 8.01024 12.9459 7.93231 13.0025 7.83434C13.0592 7.73636 13.0876 7.62391 13.0876 7.49699C13.0876 7.35449 13.0616 7.23091 13.0096 7.12625C12.96 7.0216 12.8797 6.94144 12.7687 6.88577C12.6577 6.82788 12.5113 6.79893 12.3295 6.79893H11.3057L11.3128 6.11089H12.5881L12.8325 6.38143C13.1466 6.37698 13.3993 6.4293 13.5906 6.53841C13.7842 6.64529 13.9248 6.78446 14.0121 6.95591C14.1019 7.12737 14.1468 7.31107 14.1468 7.50701C14.1468 7.81875 14.0747 8.0815 13.9307 8.29526C13.7866 8.50679 13.5752 8.666 13.2966 8.77288C13.0202 8.87976 12.6825 8.9332 12.2834 8.9332Z" fill="#323232"/>
<path d="M17.9337 7.31997H18.9929C18.9717 7.64729 18.876 7.93788 18.706 8.19172C18.5383 8.44556 18.3033 8.64373 18.001 8.78624C17.7011 8.92875 17.3397 9 16.917 9C16.5864 9 16.29 8.94656 16.0278 8.83968C15.7657 8.73057 15.5413 8.57471 15.3548 8.37208C15.1705 8.16945 15.03 7.92452 14.9332 7.63727C14.8364 7.35003 14.788 7.02828 14.788 6.67201V6.33467C14.788 5.9784 14.8376 5.65665 14.9367 5.36941C15.0383 5.07994 15.1824 4.83389 15.3689 4.63126C15.5579 4.42864 15.7834 4.27277 16.0455 4.16366C16.3077 4.05455 16.6005 4 16.9241 4C17.3539 4 17.7164 4.07348 18.0116 4.22044C18.3092 4.3674 18.5395 4.57003 18.7024 4.82832C18.8677 5.08662 18.9669 5.38054 19 5.71009H17.9372C17.9254 5.51414 17.8841 5.34825 17.8133 5.21242C17.7424 5.07437 17.635 4.97083 17.4909 4.9018C17.3492 4.83055 17.1603 4.79492 16.9241 4.79492C16.747 4.79492 16.5923 4.8261 16.46 4.88844C16.3278 4.95079 16.2168 5.04542 16.127 5.17234C16.0373 5.29927 15.97 5.45959 15.9251 5.65331C15.8826 5.8448 15.8613 6.06969 15.8613 6.32799V6.67201C15.8613 6.92362 15.8814 7.14518 15.9216 7.33667C15.9617 7.52594 16.0231 7.68626 16.1058 7.81764C16.1908 7.94678 16.2994 8.04476 16.4317 8.11156C16.5663 8.17613 16.7281 8.20842 16.917 8.20842C17.139 8.20842 17.322 8.17502 17.4661 8.10822C17.6102 8.04142 17.72 7.94233 17.7955 7.81096C17.8735 7.67958 17.9195 7.51592 17.9337 7.31997Z" fill="#323232"/>
</svg>
