<svg width="25" height="25" viewBox="0 0 25 25" fill="none" xmlns="http://www.w3.org/2000/svg">
<path fill-rule="evenodd" clip-rule="evenodd" d="M25.0003 5.02704C25.0003 5.91994 24.423 6.67799 23.6212 6.9483C23.5644 8.82835 23.391 10.9105 22.862 12.7324C22.464 14.1032 21.8492 15.3866 20.8796 16.3323C20.5001 16.7023 20.0727 17.0143 19.5944 17.2583C19.558 18.3458 18.6649 19.2162 17.5686 19.2162C16.5974 19.2162 15.7858 18.5333 15.5877 17.6215C14.9718 17.3739 14.4745 16.9568 14.061 16.4606C13.4716 15.7533 13.0176 14.841 12.6001 14.0021L12.5995 14.0008C12.5618 13.925 12.5243 13.8497 12.4871 13.7753C12.0174 12.8359 11.5722 11.9974 10.9874 11.3847C10.6814 11.0641 10.3395 10.8081 9.9318 10.6426C9.60301 11.3181 8.90993 11.7837 8.10811 11.7837C7.47174 11.7837 6.90386 11.4904 6.53223 11.0317C5.42995 11.6847 4.60714 12.8284 3.99958 14.246C3.48548 15.4456 3.15115 16.7928 2.95094 18.0881C3.60591 18.4241 4.05408 19.1061 4.05408 19.8928C4.05408 21.0123 3.14655 21.9199 2.02704 21.9199C0.907537 21.9199 0 21.0123 0 19.8928C0 18.9158 0.691224 18.1002 1.61132 17.9084C1.82564 16.5104 2.18854 15.0413 2.75749 13.7137C3.46516 12.0625 4.5318 10.5542 6.08122 9.73202C6.09439 8.62385 6.99682 7.72958 8.10811 7.72958C9.05695 7.72958 9.85353 8.38151 10.0743 9.26187C10.8361 9.48917 11.4531 9.91545 11.9649 10.4517C12.7104 11.2326 13.2364 12.2522 13.6958 13.1709L13.7933 13.3662C14.2317 14.2452 14.6163 15.016 15.0991 15.5955C15.3144 15.8539 15.5401 16.0627 15.7902 16.2156C16.1347 15.5878 16.8019 15.1621 17.5686 15.1621C18.2211 15.1621 18.8016 15.4705 19.1724 15.9494C19.4544 15.7845 19.7075 15.5878 19.936 15.3648C20.6767 14.6424 21.2021 13.6031 21.5642 12.3557C22.05 10.6826 22.214 8.74301 22.2694 6.92854C21.4968 6.64247 20.9462 5.89906 20.9462 5.02704C20.9462 3.90754 21.8537 3 22.9732 3C24.0927 3 25.0003 3.90754 25.0003 5.02704Z" fill="#323232"/>
</svg>
