<svg width="25" height="25" viewBox="0 0 25 25" fill="none" xmlns="http://www.w3.org/2000/svg">
<path d="M24.6139 8.98937L13.0485 0.187947C12.8892 0.0658327 12.6969 0 12.4994 0C12.3019 0 12.1096 0.0658327 11.9503 0.187947L0.384893 8.98937C0.225178 9.11087 0.10636 9.2822 0.0454933 9.47876C-0.0153735 9.67532 -0.0151586 9.887 0.0461072 10.0834L4.46492 24.3246C4.52592 24.5208 4.64464 24.6918 4.80411 24.8131C4.96358 24.9344 5.15562 24.9998 5.35278 25H19.6489C20.0549 25 20.4112 24.728 20.5368 24.3246L24.9556 10.0834C25.0783 9.68003 24.941 9.23996 24.6139 8.98937ZM22.038 9.59752L19.1612 10.5755L13.3201 6.15335V2.96284L22.038 9.59752ZM11.1559 14.1877L8.55372 17.9252L6.94157 12.7544L11.1559 14.1877ZM7.75932 11.2294L11.6816 8.26202V12.5649L7.75932 11.2294ZM12.4994 15.1656L15.2418 19.1049H9.75699L12.4994 15.1656ZM13.3201 8.26202L17.2395 11.2294L13.3201 12.5619V8.26202ZM13.8429 14.1877L18.0572 12.7544L16.4451 17.9252L13.8429 14.1877ZM11.6816 2.96284V6.15335L5.83759 10.5755L2.96083 9.59752L11.6816 2.96284ZM2.49062 11.2417L5.01691 12.1004L7.36505 19.6305L5.79378 21.8889L2.49062 11.2417ZM7.09928 22.9219L8.56832 20.8132H16.4334L17.9024 22.9219H7.09928ZM19.205 21.8889L17.6338 19.6305L19.9819 12.1004L22.5082 11.2417L19.205 21.8889Z" fill="#323232"/>
</svg>
