<svg width="25" height="25" viewBox="0 0 111 148" fill="none" xmlns="http://www.w3.org/2000/svg">
<g clip-path="url(#clip0_17309_48574)">
<path fill-rule="evenodd" clip-rule="evenodd" d="M53.9603 109.286L55.7268 108.403C52.5826 101.188 49.7136 93.9749 46.6907 86.73C44.0651 80.4363 50.0054 78.7673 52.5376 81.9901C53.2493 82.8956 59.3034 97.7945 60.5642 101.131C60.9531 102.161 61.1126 103.291 62.2401 103.11C64.9504 102.674 59.4553 95.3976 59.5385 92.2564C59.597 90.0537 61.2563 88.5105 63.612 88.7671C66.7468 89.1084 67.8602 94.0464 69.5705 98.1623C70.2753 99.8589 71.2497 103.414 72.6376 102.82C74.0704 102.207 71.2852 96.8311 70.4303 94.8208C68.9245 91.2817 70.1967 87.5921 74.1989 88.582C76.9481 89.2623 78.9135 95.9894 80.4967 99.8601C80.8728 100.78 81.736 104.083 82.9931 102.53C83.9448 101.611 82.2629 98.6808 81.2775 96.322C79.8375 92.874 79.5042 93.2164 80.6241 89.7026C80.1637 87.1937 81.1819 88.4066 81.8921 86.64C80.0469 87.481 79.4668 87.9349 78.6629 89.3216C77.8586 88.6534 75.1143 84.5156 70.213 87.2618C68.9774 87.9542 69.3584 87.8725 68.632 88.7116L67.9611 89.3673C67.291 87.9946 66.393 87.5577 64.8204 86.8192L64.8634 69.1393C64.2171 69.3597 63.5062 69.5713 62.6074 69.6L62.502 86.49C59.8242 88.1038 60.3662 86.7768 58.1861 89.3957C57.321 88.5899 55.6474 83.6289 54.9592 82.0313C54.0033 79.8135 51.9752 77.7937 48.4554 78.4332C45.8003 78.9158 43.5526 81.3166 43.8508 84.5734C44.0734 87.007 46.1041 89.9018 46.6484 92.3074C37.9585 92.8369 20.4657 92.3467 10.1627 92.3535C5.93645 92.3562 2.73897 92.2863 2.40523 87.8767L2.26313 63.7134C2.4967 55.6846 2.38672 47.61 2.37689 39.5653C2.37424 37.5727 2.14105 35.4652 3.3263 34.102C4.22658 33.0664 5.3971 32.2621 7.40781 32.2145C11.3846 32.1204 15.5005 32.2194 19.4932 32.2194L55.7174 32.2182C59.8741 32.2084 62.4944 32.9371 62.556 37.3558C62.6649 45.2115 62.7911 53.8394 62.5205 61.6536C63.1691 62.645 62.1959 65.3851 63.126 66.4494C63.6525 65.83 63.5304 65.1194 63.5123 63.9897C63.4994 63.1983 63.4971 62.4136 63.5009 61.601L64.7712 61.4242C64.9629 58.8926 64.9923 37.1347 64.6953 35.5329C64.0732 32.1778 61.2351 29.9781 57.3724 29.9237L18.1209 29.9286C9.28247 29.9286 0.109559 27.797 0.117492 37.9079C0.122404 44.1574 -0.282006 87.3495 0.382057 89.669C1.3534 93.0611 4.08184 94.6269 8.23553 94.6277C14.1051 94.6284 44.6169 94.3907 47.7354 94.6999C49.1758 98.5573 52.075 106.3 53.9603 109.286L53.9603 109.286Z" fill="#373435"/>
<path fill-rule="evenodd" clip-rule="evenodd" d="M98.7428 131.379C101.556 130.263 104.438 134.109 99.3067 136.123L75.7368 145.777C74.0587 146.281 72.61 145.432 72.5162 143.811C72.3961 141.734 73.531 141.694 75.1506 141.044L98.7428 131.379ZM84.1194 88.7214C87.1732 89.2501 88.049 93.1173 89.4878 97.1784C93.6 108.785 92.5897 108.979 95.0199 119.08C95.4361 120.81 96.0366 122.832 96.5975 124.372C97.09 125.725 98.2253 128.071 98.259 129.298C97.5522 129.95 74.2227 139.653 72.5212 139.781C71.9913 138.81 71.4342 137.692 70.6643 136.836C69.8649 135.948 69.2247 135.135 68.4415 134.407L46.038 118.67C44.3319 117.69 41.7826 115.179 44.1996 112.57C46.3816 110.215 48.9471 111.802 51.3713 112.781C52.8627 113.384 56.671 115.395 58.083 115.164C58.8627 114.058 58.5872 113.993 57.8524 112.631C57.3936 111.781 56.996 110.723 56.4502 110.011C55.9717 110.499 56.2046 112.019 56.214 112.791C55.5753 112.801 54.7294 112.843 54.1247 112.773L53.5593 111.542C52.7089 110.908 48.528 109.23 47.2127 109.197C44.3769 109.125 42.6512 110.493 41.7607 112.323C39.1555 117.677 44.9196 120.423 47.8015 122.391C53.0959 126.005 64.4972 133.081 67.9211 136.857C68.8214 137.85 71.3442 140.81 71.1042 141.946C70.5101 144.759 70.9837 146.717 73.4558 147.508C75.8902 148.287 83.5978 144.481 86.2556 143.374C90.3821 141.656 94.4137 139.979 98.5115 138.346C100.684 137.48 102.985 136.941 103.65 134.684C104.531 131.697 102.659 130.22 100.72 129.405C100.181 128.285 99.0723 125.184 98.5976 123.739C94.9239 112.556 96.0691 108.014 90.5212 93.9473C88.9213 89.8908 88.0815 86.3815 82.8563 86.4801L82.8064 88.2391L84.1194 88.7214L84.1194 88.7214Z" fill="#373435"/>
<path fill-rule="evenodd" clip-rule="evenodd" d="M76.4646 35.9078C75.1742 34.8703 73.1291 31.44 71.0621 32.6336C68.7373 34.0162 72.1272 36.4354 74.4047 38.7118C78.1771 42.4827 77.8618 42.8625 80.7475 39.9001C81.7669 38.8536 85.9085 35.4777 85.9678 34.0596C86.057 31.9197 83.708 32.1884 82.728 33.1015C81.7181 34.0418 80.884 34.9962 79.9251 35.9112L79.8635 26.6676C79.8589 25.0254 80.0713 23.4853 78.4734 23.2827C76.528 23.0359 76.4536 24.7412 76.4657 26.3864C76.4895 29.545 76.5175 32.7511 76.4645 35.9078L76.4646 35.9078Z" fill="#373435"/>
<path fill-rule="evenodd" clip-rule="evenodd" d="M24.5728 116.484C26.6931 116.821 27.1138 115.603 29.6219 112.808L40.9189 100.774C41.7829 99.8026 42.7561 99.3868 42.5543 97.6747C41.0576 96.8942 40.6891 97.5337 39.7971 98.564L32.7547 106.056C29.8978 108.578 28.0454 110.851 25.6326 113.485C24.7372 114.463 23.8989 114.872 24.5728 116.484Z" fill="#373435"/>
<path fill-rule="evenodd" clip-rule="evenodd" d="M32.4474 96.6493L24.3581 104.808C23.0991 106.261 23.9582 107.949 25.5528 107.144C26.1802 106.828 28.4044 103.923 29.4139 103.001C30.0459 102.424 30.2768 102.302 30.8384 101.676C31.7697 100.638 32.4644 99.7806 33.4418 98.7821C35.1377 97.0503 33.7385 95.8117 32.4474 96.6493L32.4474 96.6493Z" fill="#373435"/>
<path fill-rule="evenodd" clip-rule="evenodd" d="M75.1819 0.587745C73.6841 -0.0717836 70.9523 0.181064 68.8883 0.180694C67.4887 0.180694 62.7949 -0.459176 63.7685 1.82668C64.2587 2.97755 71.2826 2.5618 73.5847 2.52211C75.2288 2.49376 75.4393 2.27795 75.1819 0.587745Z" fill="#373435"/>
<path fill-rule="evenodd" clip-rule="evenodd" d="M108.613 45.0777L110.082 45.1079C110.865 43.5443 110.488 37.7284 110.488 35.7234C110.488 34.6137 110.361 32.9386 108.837 33.6306C107.833 34.0864 108.179 35.9547 108.185 37.0938C108.197 39.4927 107.665 43.3338 108.613 45.0777H108.613Z" fill="#373435"/>
<path fill-rule="evenodd" clip-rule="evenodd" d="M101.754 0.526468C99.4123 2.48729 104.914 2.49787 106.042 3.2277C108.783 5.00181 107.782 8.57686 109.851 7.29749C111.235 6.44143 109.845 3.43406 108.144 1.9506C107.068 1.01101 103.499 -0.934697 101.754 0.526468Z" fill="#373435"/>
<path fill-rule="evenodd" clip-rule="evenodd" d="M56.3337 0.506099C54.4178 -0.261141 51.1391 0.0748561 49.3302 1.06774C48.3056 1.63013 47.8241 1.95366 47.2178 2.79612C46.7431 3.45603 45.6939 4.9565 46.674 5.79404C48.4636 7.32248 48.0482 3.84721 51.042 2.79499C53.5213 1.92342 56.8753 3.7289 56.3337 0.506099Z" fill="#373435"/>
<path fill-rule="evenodd" clip-rule="evenodd" d="M45.9901 13.3512C45.6061 14.8819 45.5985 23.1201 46.0215 24.5854L47.8889 24.6981L48.1259 22.8302L48.0847 15.1423C48.0855 13.6868 47.5431 12.4324 45.9901 13.3512L45.9901 13.3512Z" fill="#373435"/>
<path fill-rule="evenodd" clip-rule="evenodd" d="M93.2652 64.6C93.2679 64.6008 107.248 66.1141 104.473 63.0142C103.707 62.1585 99.3967 62.553 97.9771 62.5527C95.4029 62.5519 92.5154 61.7529 93.2652 64.6V64.6Z" fill="#373435"/>
<path fill-rule="evenodd" clip-rule="evenodd" d="M106.483 63.1854C110.537 64.2278 111.493 55.0991 110.067 52.4848L108.613 52.3945C107.783 53.9879 108.379 56.4011 108.135 58.4984C107.796 61.4135 105.698 60.8156 106.483 63.1854V63.1854Z" fill="#373435"/>
<path fill-rule="evenodd" clip-rule="evenodd" d="M74.7097 64.7323C78.2416 64.9024 82.2264 65.0646 85.6983 64.6643L85.7984 62.8206C84.2666 62.3981 76.4721 62.3486 74.7278 62.702C74.1991 63.521 74.1866 63.8993 74.7097 64.7323V64.7323Z" fill="#373435"/>
<path fill-rule="evenodd" clip-rule="evenodd" d="M84.805 2.49484L92.4887 2.49711C94.8271 2.49711 95.193 0.142459 91.6833 0.168923C89.3907 0.18631 87.098 0.179883 84.8049 0.181397C83.6257 0.186688 82.7258 0.0566766 82.5482 1.19167C82.3135 2.69403 83.5607 2.48956 84.8049 2.49485L84.805 2.49484Z" fill="#373435"/>
<path fill-rule="evenodd" clip-rule="evenodd" d="M108.688 14.8875L108.457 15.1797L108.352 16.2398C109.847 17.1371 109.439 16.7278 109.465 20.3561C109.417 20.3852 109.336 20.4075 109.308 20.4155C108.46 20.6562 108.975 20.0931 108.204 20.8369C108.135 22.5781 107.991 24.9365 108.52 26.2117L110.18 26.2507C110.686 24.8534 110.54 18.7147 110.503 16.501C110.479 15.0943 110.525 14.7016 109.152 14.6573C109.152 15.1234 109.24 14.9624 108.688 14.8875V14.8875Z" fill="#373435"/>
<path fill-rule="evenodd" clip-rule="evenodd" d="M62.5955 67.657C62.7395 67.5662 63.4758 67.1894 63.4871 67.1826L63.4792 68.2587L62.5664 68.3679L62.6065 69.6C63.5052 69.5713 64.2162 69.3596 64.8625 69.1393L64.8235 64.8261L64.8613 62.6067L64.7702 61.4241L63.4999 61.601C63.4962 62.4136 63.4984 63.1982 63.5113 63.9897C63.5294 65.1194 63.6515 65.8299 63.125 66.4494C62.1949 65.3851 63.1681 62.6449 62.5195 61.6536L62.5955 67.657L62.5955 67.657Z" fill="#373435"/>
<path fill-rule="evenodd" clip-rule="evenodd" d="M53.962 109.286L54.2901 110.183C54.7512 109.831 54.7496 109.695 55.2924 109.694C55.1454 110.85 55.399 110.063 54.6748 110.578C54.7058 110.18 54.7791 110.311 54.3267 110.311C54.3165 110.78 54.2088 110.681 54.6748 110.578L54.9859 112.001L53.5625 111.542L54.1279 112.773C54.7326 112.843 55.5785 112.801 56.2172 112.791C56.2078 112.019 55.975 110.499 56.4535 110.011L55.7285 108.403L53.962 109.286H53.962Z" fill="#373435"/>
<path fill-rule="evenodd" clip-rule="evenodd" d="M108.46 15.1797C107.818 15.6446 108.172 19.7741 108.206 20.8369C108.978 20.0931 108.463 20.6563 109.31 20.4155C109.338 20.4076 109.42 20.3853 109.468 20.3562C109.442 16.7278 109.849 17.1371 108.355 16.2399L108.46 15.1797L108.691 14.8876C109.242 14.9624 109.155 15.1234 109.155 14.6574L108.691 14.8876C108.255 14.7984 108.364 14.7303 108.46 15.1797L108.46 15.1797Z" fill="#373435"/>
<path fill-rule="evenodd" clip-rule="evenodd" d="M81.8913 86.64C81.1811 88.4065 80.1629 87.1937 80.6232 89.7025C80.8205 89.56 80.8765 89.5551 81.0942 89.3597C81.4351 89.0547 81.35 89.1107 81.5613 88.8835C81.0881 88.0361 81.6966 88.1779 81.8826 88.0528L82.0799 88.7149L81.8671 88.9999C82.2832 88.9814 82.2333 89.0903 82.0799 88.7149L84.12 88.7214L82.807 88.2391L82.8569 86.4801L81.8913 86.64H81.8913Z" fill="#373435"/>
<path fill-rule="evenodd" clip-rule="evenodd" d="M64.8242 64.8261L66.8194 64.7312L66.9336 62.781L64.862 62.6068L64.8242 64.8261Z" fill="#373435"/>
<path fill-rule="evenodd" clip-rule="evenodd" d="M62.5955 67.6569L62.5664 68.3679L63.4792 68.2586L63.4871 67.1826C63.4758 67.1894 62.7395 67.5662 62.5955 67.6569Z" fill="#373435"/>
<path fill-rule="evenodd" clip-rule="evenodd" d="M54.2891 110.183L54.3257 110.311C54.7781 110.311 54.7048 110.18 54.6738 110.578C55.398 110.063 55.1444 110.85 55.2914 109.694C54.7487 109.695 54.7502 109.831 54.2891 110.183L54.2891 110.183Z" fill="#373435"/>
<path fill-rule="evenodd" clip-rule="evenodd" d="M81.563 88.8835L81.8688 88.9999L82.0816 88.715L81.8843 88.0528C81.6984 88.1779 81.0899 88.0362 81.563 88.8835H81.563Z" fill="#373435"/>
</g>
<defs>
<clipPath id="clip0_17309_48574">
<rect width="110.689" height="147.612" fill="white"/>
</clipPath>
</defs>
</svg>
