<svg width="25" height="25" viewBox="0 0 25 25" fill="none" xmlns="http://www.w3.org/2000/svg">
<path d="M14 5.5H11C10 5.5 9.5 6 9.5 7C9.5 7.8 10 8.5 11 8.5H12.5V18C12.5 18.5 12.8 19.5 14 19.5C15.2 19.5 15.5 18.5 15.5 18V7.5C15.5 6 14.5 5.5 14 5.5Z" fill="#323232"/>
<path fill-rule="evenodd" clip-rule="evenodd" d="M22 2H3C2.44772 2 2 2.44772 2 3V22C2 22.5523 2.44772 23 3 23H22C22.5523 23 23 22.5523 23 22V3C23 2.44772 22.5523 2 22 2ZM3 0C1.34315 0 0 1.34315 0 3V22C0 23.6569 1.34315 25 3 25H22C23.6569 25 25 23.6569 25 22V3C25 1.34315 23.6569 0 22 0H3Z" fill="#323232"/>
</svg>
