<svg width="25" height="25" viewBox="0 0 25 25" fill="none" xmlns="http://www.w3.org/2000/svg">
<path d="M20.6997 15.911L24.7841 12.8498C25.0203 12.6749 25.0203 12.3251 24.7841 12.1502L20.6997 9.08902C20.4111 8.87036 20 9.08027 20 9.43886V15.5611C20 15.9197 20.4111 16.1296 20.6997 15.911Z" fill="#323232"/>
<path d="M4.26174 15.911L0.177301 12.8498C-0.0588438 12.6749 -0.0588438 12.3251 0.177301 12.1502L4.26174 9.08902C4.55036 8.87036 4.96143 9.08027 4.96143 9.43886V15.5611C4.96143 15.9197 4.55036 16.1296 4.26174 15.911Z" fill="#323232"/>
<path fill-rule="evenodd" clip-rule="evenodd" d="M15 3H10C9.44772 3 9 3.44772 9 4V21C9 21.5523 9.44772 22 10 22H15C15.5523 22 16 21.5523 16 21V4C16 3.44772 15.5523 3 15 3ZM10 2C8.89543 2 8 2.89543 8 4V21C8 22.1046 8.89543 23 10 23H15C16.1046 23 17 22.1046 17 21V4C17 2.89543 16.1046 2 15 2H10Z" fill="#323232"/>
</svg>
