<svg width="25" height="25" viewBox="0 0 25 25" fill="none" xmlns="http://www.w3.org/2000/svg">
<path d="M22.5702 1.63084V0H17.6777V8.15418H19.3086V4.89251H21.7548V3.26167H19.3086V1.63084H22.5702Z" fill="#323232"/>
<path d="M13.6005 8.15418H10.3389V0H13.6005C14.2491 0.000712251 14.8709 0.258671 15.3295 0.717278C15.7881 1.17589 16.0461 1.79769 16.0468 2.44626V5.70793C16.0461 6.3565 15.7881 6.9783 15.3295 7.43691C14.8709 7.89551 14.2491 8.15347 13.6005 8.15418ZM11.9697 6.52335H13.6005C13.8167 6.52311 14.024 6.43712 14.1769 6.28425C14.3297 6.13138 14.4157 5.92412 14.416 5.70793V2.44626C14.4157 2.23007 14.3297 2.0228 14.1769 1.86993C14.024 1.71706 13.8167 1.63107 13.6005 1.63084H11.9697V6.52335Z" fill="#323232"/>
<path d="M7.07709 0H3V8.15418H4.63084V5.70793H7.07709C7.50944 5.70735 7.92391 5.53534 8.22962 5.22962C8.53534 4.92391 8.70735 4.50944 8.70793 4.07709V1.63084C8.70743 1.19846 8.53545 0.783943 8.22972 0.478209C7.92399 0.172476 7.50946 0.000496373 7.07709 0ZM4.63084 4.07709V1.63084H7.07709L7.07791 4.07709H4.63084Z" fill="#323232"/>
<path d="M2.87988 10V24.5758H22.1199V10H2.87988ZM20.3708 22.8267H4.62896V11.7491H20.3708V22.8267H20.3708Z" fill="#323232"/>
<path d="M16.581 16.0511L14.2488 18.3832L10.1676 14.302L6.37793 18.0917V21.0776H18.6216V18.0917L16.581 16.0511Z" fill="#323232"/>
<path d="M14.5401 13.4976C13.8971 13.4976 13.374 14.0206 13.374 14.6636C13.374 15.3066 13.8971 15.8297 14.5401 15.8297C15.183 15.8297 15.7061 15.3066 15.7061 14.6636C15.7061 14.0206 15.183 13.4976 14.5401 13.4976Z" fill="#323232"/>
</svg>
