<svg width="24" height="24" viewBox="0 0 24 24" fill="none" xmlns="http://www.w3.org/2000/svg">
<mask id="mask0_4176_85" style="mask-type:alpha" maskUnits="userSpaceOnUse" x="0" y="0" width="24" height="24">
<rect width="24" height="24" fill="#D9D9D9"/>
</mask>
<g mask="url(#mask0_4176_85)">
<path d="M7.99999 15.95H10.125L10.7 13.975H13.275L13.85 15.95H16.05L13.025 7.22502H10.975L7.99999 15.95ZM11.1 12.35L11.95 9.35002H12.05L12.9 12.35H11.1ZM12 22.85C10.55 22.85 9.17916 22.5792 7.88749 22.0375C6.59583 21.4959 5.46249 20.7584 4.48749 19.825C3.51249 18.8917 2.72916 17.7959 2.13749 16.5375C1.54583 15.2792 1.21666 13.925 1.14999 12.475H4.32499C4.37499 13.4917 4.61249 14.4417 5.03749 15.325C5.46249 16.2084 6.01666 16.975 6.69999 17.625C7.38333 18.275 8.17916 18.7875 9.08749 19.1625C9.99583 19.5375 10.9667 19.725 12 19.725C14.15 19.725 15.9708 18.9792 17.4625 17.4875C18.9542 15.9959 19.7 14.175 19.7 12.025C19.7 9.87502 18.9542 8.05419 17.4625 6.56252C15.9708 5.07086 14.15 4.32502 12 4.32502C10.75 4.32502 9.59166 4.59586 8.52499 5.13752C7.45833 5.67919 6.57499 6.41669 5.87499 7.35002H8.47499V10.475H1.14999V3.15002H4.27499V4.37502C5.27499 3.37502 6.43333 2.58752 7.74999 2.01252C9.06666 1.43752 10.4833 1.15002 12 1.15002C13.5 1.15002 14.9083 1.43336 16.225 2.00002C17.5417 2.56669 18.6917 3.34169 19.675 4.32502C20.6583 5.30836 21.4333 6.45836 22 7.77502C22.5667 9.09169 22.85 10.5 22.85 12C22.85 13.5 22.5667 14.9084 22 16.225C21.4333 17.5417 20.6583 18.6917 19.675 19.675C18.6917 20.6584 17.5417 21.4334 16.225 22C14.9083 22.5667 13.5 22.85 12 22.85Z" fill="#6F52ED"/>
</g>
</svg>
