<svg width="25" height="25" viewBox="0 0 25 25" fill="none" xmlns="http://www.w3.org/2000/svg">
<path d="M2.42851 0.751503L1.17597 4.111H0.166992L1.87815 0.0584502H2.52023L2.42851 0.751503ZM3.46912 4.111L2.21342 0.751503L2.11221 0.0584502H2.76062L4.48126 4.111H3.46912ZM3.41218 2.60243V3.25651H0.979872V2.60243H3.41218Z" fill="#323232"/>
<path d="M6.71115 2.33244H5.5282L5.52188 1.75907H6.51504C6.69006 1.75907 6.83345 1.73959 6.94521 1.70062C7.05696 1.6598 7.14025 1.60135 7.19508 1.52527C7.25201 1.44734 7.28048 1.35271 7.28048 1.24137C7.28048 1.11519 7.25307 1.01314 7.19824 0.935204C7.14553 0.85727 7.06223 0.800675 6.94837 0.76542C6.83661 0.730164 6.69217 0.712536 6.51504 0.712536H5.85715V4.111H4.90826V0.0584502H6.51504C6.78284 0.0584502 7.02217 0.080717 7.23303 0.125251C7.44601 0.169784 7.6263 0.237512 7.7739 0.328435C7.9215 0.419357 8.03432 0.534402 8.11234 0.673569C8.19036 0.810881 8.22937 0.974171 8.22937 1.16344C8.22937 1.33044 8.18614 1.48445 8.09968 1.62547C8.01534 1.7665 7.88144 1.88154 7.69799 1.97061C7.51665 2.05967 7.27942 2.10885 6.98632 2.11812L6.71115 2.33244ZM6.67003 4.111H5.26884L5.63891 3.4597H6.67003C6.83661 3.4597 6.97262 3.4365 7.07805 3.39011C7.18348 3.34187 7.2615 3.27692 7.31211 3.19528C7.36272 3.11363 7.38802 3.01993 7.38802 2.91416C7.38802 2.79541 7.36482 2.69242 7.31843 2.60521C7.27415 2.518 7.20246 2.4512 7.10335 2.40481C7.00425 2.35656 6.87351 2.33244 6.71115 2.33244H5.79705L5.80338 1.75907H6.94204L7.16029 1.98452C7.44074 1.98081 7.66636 2.02442 7.83716 2.11534C8.01007 2.20441 8.13553 2.32038 8.21355 2.46326C8.29368 2.60614 8.33374 2.75922 8.33374 2.92251C8.33374 3.18229 8.26943 3.40125 8.1408 3.57938C8.01218 3.75566 7.82345 3.88833 7.57463 3.9774C7.32792 4.06647 7.02639 4.111 6.67003 4.111Z" fill="#323232"/>
<path d="M11.7149 2.76664H12.6607C12.6417 3.03941 12.5563 3.28156 12.4045 3.4931C12.2548 3.70463 12.0449 3.86978 11.775 3.98853C11.5072 4.10729 11.1846 4.16667 10.8072 4.16667C10.512 4.16667 10.2473 4.12213 10.0133 4.03307C9.77921 3.94214 9.57889 3.81225 9.41231 3.6434C9.24784 3.47454 9.12237 3.27043 9.03592 3.03106C8.94946 2.79169 8.90624 2.52357 8.90624 2.22668V1.94556C8.90624 1.64867 8.95052 1.38054 9.03908 1.14117C9.12975 0.899948 9.25838 0.694908 9.42496 0.526052C9.59365 0.357196 9.79503 0.227306 10.0291 0.136384C10.2631 0.0454613 10.5246 0 10.8135 0C11.1973 0 11.5209 0.0612336 11.7845 0.183701C12.0502 0.306168 12.2558 0.475024 12.4013 0.690269C12.5489 0.905515 12.6375 1.15045 12.667 1.42507H11.7181C11.7076 1.26178 11.6707 1.12354 11.6074 1.01035C11.5441 0.895309 11.4482 0.809025 11.3196 0.751503C11.1931 0.692125 11.0244 0.662436 10.8135 0.662436C10.6554 0.662436 10.5172 0.688414 10.3992 0.74037C10.2811 0.792325 10.182 0.871187 10.1018 0.976954C10.0217 1.08272 9.96161 1.21632 9.92155 1.37776C9.88359 1.53733 9.86461 1.72475 9.86461 1.93999V2.22668C9.86461 2.43635 9.88254 2.62098 9.91838 2.78056C9.95423 2.93828 10.0091 3.07188 10.0829 3.18136C10.1588 3.28899 10.2558 3.37063 10.3738 3.4263C10.494 3.48011 10.6385 3.50701 10.8072 3.50701C11.0054 3.50701 11.1688 3.47918 11.2974 3.42351C11.4261 3.36785 11.5241 3.28527 11.5916 3.1758C11.6612 3.06632 11.7023 2.92993 11.7149 2.76664Z" fill="#323232"/>
<path fill-rule="evenodd" clip-rule="evenodd" d="M0 6C0 5.44772 0.447715 5 1 5H12C12.5523 5 13 5.44772 13 6C13 6.55228 12.5523 7 12 7H1C0.447715 7 0 6.55228 0 6Z" fill="#323232"/>
<path d="M23 14.5L23.4608 14.694C23.4774 14.6546 23.4889 14.6131 23.495 14.5707L23 14.5ZM15 6.5L18.5443 11.0576L20.7191 5.70935L15 6.5ZM0.138322 14.8452C0.379109 15.0975 0.664836 15.3538 0.987137 15.6102L1.60959 14.8275C1.31489 14.5931 1.06456 14.3673 0.861678 14.1548L0.138322 14.8452ZM2.82653 16.8498C3.4239 17.1985 4.07994 17.5405 4.77949 17.8644L5.19959 16.9569C4.52689 16.6455 3.89905 16.318 3.33068 15.9862L2.82653 16.8498ZM6.8042 18.7015C7.47959 18.949 8.17936 19.1749 8.89336 19.371L9.15826 18.4067C8.47221 18.2183 7.79886 18.001 7.14829 17.7626L6.8042 18.7015ZM11.0364 19.8568C11.764 19.9858 12.4972 20.0779 13.2258 20.1247L13.29 19.1268C12.602 19.0825 11.9058 18.9953 11.2109 18.8721L11.0364 19.8568ZM15.4475 20.1169C16.2031 20.0583 16.9439 19.9384 17.6566 19.746L17.396 18.7806C16.7503 18.9549 16.0716 19.0655 15.3702 19.1199L15.4475 20.1169ZM19.762 18.9047C20.4217 18.5397 21.0351 18.0863 21.5869 17.5338L20.8793 16.8271C20.3969 17.3102 19.8596 17.7078 19.2779 18.0297L19.762 18.9047ZM22.9608 15.7146C23.1424 15.3937 23.3094 15.0538 23.4608 14.694L22.5392 14.306C22.4023 14.6311 22.2523 14.9361 22.0905 15.222L22.9608 15.7146ZM23.495 14.5707C23.5513 14.1761 23.5867 13.802 23.6021 13.447L22.603 13.4036C22.5892 13.723 22.5572 14.0643 22.505 14.4293L23.495 14.5707ZM23.3733 11.1619C23.1353 10.3132 22.7302 9.63744 22.2117 9.09365L21.488 9.78372C21.8949 10.2104 22.2171 10.7424 22.4104 11.4318L23.3733 11.1619ZM20.2943 7.7774C19.6159 7.46499 18.893 7.23484 18.1982 7.03324L17.9196 7.99362C18.6028 8.19186 19.2675 8.40547 19.8759 8.6857L20.2943 7.7774Z" fill="#323232"/>
</svg>
