<svg width="25" height="25" viewBox="0 0 25 25" fill="none" xmlns="http://www.w3.org/2000/svg">
<path fill-rule="evenodd" clip-rule="evenodd" d="M12.167 6.26523C12.4056 6.32958 12.5481 6.57974 12.4852 6.82397L12.0531 6.70745C12.4852 6.82397 12.4853 6.82389 12.4852 6.82397L12.4848 6.82546L12.4843 6.82745L12.4829 6.83288L12.4783 6.84949C12.4745 6.86307 12.4691 6.88162 12.4619 6.90479C12.4477 6.95113 12.4265 7.01602 12.397 7.0967C12.338 7.258 12.2458 7.48293 12.1096 7.74926L11.3177 7.32523C11.435 7.09586 11.5125 6.9059 11.5599 6.77622C11.5836 6.71142 11.5997 6.66181 11.6095 6.63001C11.6144 6.61412 11.6177 6.60269 11.6196 6.59606L11.6211 6.59037C11.6841 6.34623 11.9284 6.2009 12.167 6.26523ZM9.09938 9.7797C9.61563 9.43408 10.0316 9.05956 10.3651 8.69289L11.0193 9.31611C10.6397 9.73337 10.169 10.1566 9.58866 10.5451L9.09938 9.7797ZM5.99484 11.0254C6.59598 10.9041 7.13368 10.7422 7.61437 10.5525L7.93585 11.4059C7.40554 11.6152 6.81803 11.7916 6.16772 11.9228L5.99484 11.0254ZM3.4469 11.2641C3.7441 11.2641 4.03056 11.2556 4.30665 11.2394L4.32143 11.5024C4.38414 11.5212 4.44652 11.54 4.50857 11.5589L4.35448 12.0906L4.35796 12.1525C4.3507 12.1529 4.34344 12.1533 4.33617 12.1538L4.25445 12.4357C3.95324 12.3443 3.64386 12.253 3.32608 12.1617C3.11116 12.1 2.97375 11.8853 3.00422 11.659C3.03468 11.4327 3.22367 11.2641 3.4469 11.2641ZM7.88146 13.7156C7.32824 13.4823 6.73235 13.2552 6.09072 13.0314L6.37907 12.1657C7.03524 12.3946 7.64883 12.6282 8.22194 12.8699L7.88146 13.7156ZM11.1845 15.5551C10.719 15.197 10.1935 14.8591 9.60065 14.5359L10.0209 13.7287C10.6482 14.0707 11.2138 14.4333 11.7216 14.8241L11.1845 15.5551ZM13.5245 18.4017C13.2533 17.8327 12.9242 17.3153 12.5283 16.8379L13.2097 16.246C13.6548 16.7827 14.0246 17.3645 14.3278 18.0007L13.5245 18.4017ZM14.2105 20.4385C14.1909 20.3513 14.1705 20.265 14.1494 20.1799L15.0156 19.9546C15.0539 20.109 15.0898 20.266 15.1232 20.4256L17.5833 20.3907L15.0655 25L12.4238 20.4639L14.2105 20.4385Z" fill="#323232"/>
<path d="M9.42851 0.751503L8.17597 4.111H7.16699L8.87815 0.0584502H9.52023L9.42851 0.751503ZM10.4691 4.111L9.21342 0.751503L9.11221 0.0584502H9.76062L11.4813 4.111H10.4691ZM10.4122 2.60243V3.25651H7.97987V2.60243H10.4122Z" fill="#323232"/>
<path d="M13.7111 2.33244H12.5282L12.5219 1.75907H13.515C13.6901 1.75907 13.8334 1.73959 13.9452 1.70062C14.057 1.6598 14.1403 1.60135 14.1951 1.52527C14.252 1.44734 14.2805 1.35271 14.2805 1.24137C14.2805 1.11519 14.2531 1.01314 14.1982 0.935204C14.1455 0.85727 14.0622 0.800675 13.9484 0.76542C13.8366 0.730164 13.6922 0.712536 13.515 0.712536H12.8571V4.111H11.9083V0.0584502H13.515C13.7828 0.0584502 14.0222 0.080717 14.233 0.125251C14.446 0.169784 14.6263 0.237512 14.7739 0.328435C14.9215 0.419357 15.0343 0.534402 15.1123 0.673569C15.1904 0.810881 15.2294 0.974171 15.2294 1.16344C15.2294 1.33044 15.1861 1.48445 15.0997 1.62547C15.0153 1.7665 14.8814 1.88154 14.698 1.97061C14.5166 2.05967 14.2794 2.10885 13.9863 2.11812L13.7111 2.33244ZM13.67 4.111H12.2688L12.6389 3.4597H13.67C13.8366 3.4597 13.9726 3.4365 14.078 3.39011C14.1835 3.34187 14.2615 3.27692 14.3121 3.19528C14.3627 3.11363 14.388 3.01993 14.388 2.91416C14.388 2.79541 14.3648 2.69242 14.3184 2.60521C14.2742 2.518 14.2025 2.4512 14.1034 2.40481C14.0042 2.35656 13.8735 2.33244 13.7111 2.33244H12.7971L12.8034 1.75907H13.942L14.1603 1.98452C14.4407 1.98081 14.6664 2.02442 14.8372 2.11534C15.0101 2.20441 15.1355 2.32038 15.2136 2.46326C15.2937 2.60614 15.3337 2.75922 15.3337 2.92251C15.3337 3.18229 15.2694 3.40125 15.1408 3.57938C15.0122 3.75566 14.8235 3.88833 14.5746 3.9774C14.3279 4.06647 14.0264 4.111 13.67 4.111Z" fill="#323232"/>
<path d="M18.7149 2.76664H19.6607C19.6417 3.03941 19.5563 3.28156 19.4045 3.4931C19.2548 3.70463 19.0449 3.86978 18.775 3.98853C18.5072 4.10729 18.1846 4.16667 17.8072 4.16667C17.512 4.16667 17.2473 4.12213 17.0133 4.03307C16.7792 3.94214 16.5789 3.81225 16.4123 3.6434C16.2478 3.47454 16.1224 3.27043 16.0359 3.03106C15.9495 2.79169 15.9062 2.52357 15.9062 2.22668V1.94556C15.9062 1.64867 15.9505 1.38054 16.0391 1.14117C16.1298 0.899948 16.2584 0.694908 16.425 0.526052C16.5937 0.357196 16.795 0.227306 17.0291 0.136384C17.2631 0.0454613 17.5246 0 17.8135 0C18.1973 0 18.5209 0.0612336 18.7845 0.183701C19.0502 0.306168 19.2558 0.475024 19.4013 0.690269C19.5489 0.905515 19.6375 1.15045 19.667 1.42507H18.7181C18.7076 1.26178 18.6707 1.12354 18.6074 1.01035C18.5441 0.895309 18.4482 0.809025 18.3196 0.751503C18.1931 0.692125 18.0244 0.662436 17.8135 0.662436C17.6554 0.662436 17.5172 0.688414 17.3992 0.74037C17.2811 0.792325 17.182 0.871187 17.1018 0.976954C17.0217 1.08272 16.9616 1.21632 16.9215 1.37776C16.8836 1.53733 16.8646 1.72475 16.8646 1.93999V2.22668C16.8646 2.43635 16.8825 2.62098 16.9184 2.78056C16.9542 2.93828 17.0091 3.07188 17.0829 3.18136C17.1588 3.28899 17.2558 3.37063 17.3738 3.4263C17.494 3.48011 17.6385 3.50701 17.8072 3.50701C18.0054 3.50701 18.1688 3.47918 18.2974 3.42351C18.4261 3.36785 18.5241 3.28527 18.5916 3.1758C18.6612 3.06632 18.7023 2.92993 18.7149 2.76664Z" fill="#323232"/>
<path fill-rule="evenodd" clip-rule="evenodd" d="M7 6C7 5.44772 7.44772 5 8 5H19C19.5523 5 20 5.44772 20 6C20 6.55228 19.5523 7 19 7H8C7.44772 7 7 6.55228 7 6Z" fill="#323232"/>
</svg>
