<svg width="25" height="25" viewBox="0 0 25 25" fill="none" xmlns="http://www.w3.org/2000/svg">
<path d="M7.7755 0.858861L6.34404 4.69829H5.19092L7.14653 0.0668003H7.88033L7.7755 0.858861ZM8.96478 4.69829L7.5297 0.858861L7.41402 0.0668003H8.15506L10.1215 4.69829H8.96478ZM8.89971 2.9742V3.72173H6.11992V2.9742H8.89971Z" fill="#323232"/>
<path d="M12.67 2.66565H11.318L11.3108 2.01037H12.4458C12.6459 2.01037 12.8097 1.9881 12.9374 1.94357C13.0652 1.89692 13.1604 1.83012 13.223 1.74317C13.2881 1.6541 13.3206 1.54595 13.3206 1.41871C13.3206 1.27451 13.2893 1.15787 13.2266 1.0688C13.1664 0.979737 13.0712 0.915058 12.9411 0.874765C12.8133 0.834473 12.6483 0.814327 12.4458 0.814327H11.694V4.69829H10.6095V0.0668003H12.4458C12.7519 0.0668003 13.0254 0.092248 13.2664 0.143143C13.5098 0.194039 13.7158 0.271442 13.8845 0.375354C14.0532 0.479265 14.1821 0.610745 14.2713 0.769794C14.3605 0.926721 14.4051 1.11334 14.4051 1.32964C14.4051 1.5205 14.3557 1.69651 14.2569 1.85768C14.1605 2.01885 14.0074 2.15033 13.7978 2.25212C13.5905 2.35391 13.3194 2.41011 12.9844 2.42071L12.67 2.66565ZM12.623 4.69829H11.0216L11.4445 3.95394H12.623C12.8133 3.95394 12.9688 3.92743 13.0893 3.87442C13.2098 3.81928 13.2989 3.74506 13.3568 3.65175C13.4146 3.55844 13.4435 3.45135 13.4435 3.33047C13.4435 3.19475 13.417 3.07705 13.364 2.97738C13.3134 2.87771 13.2315 2.80137 13.1182 2.74835C13.0049 2.69322 12.8555 2.66565 12.67 2.66565H11.6253L11.6325 2.01037H12.9338L13.1833 2.26803C13.5038 2.26379 13.7616 2.31362 13.9568 2.41753C14.1544 2.51932 14.2978 2.65186 14.387 2.81515C14.4786 2.97844 14.5243 3.1534 14.5243 3.34001C14.5243 3.6369 14.4508 3.88714 14.3038 4.09072C14.1568 4.29218 13.9412 4.44381 13.6568 4.5456C13.3748 4.64739 13.0302 4.69829 12.623 4.69829Z" fill="#323232"/>
<path d="M18.3886 3.16188H19.4694C19.4477 3.47361 19.3501 3.75036 19.1766 3.99211C19.0055 4.23386 18.7657 4.4226 18.4573 4.55832C18.1512 4.69404 17.7825 4.7619 17.3511 4.7619C17.0137 4.7619 16.7113 4.71101 16.4438 4.60922C16.1763 4.50531 15.9474 4.35686 15.757 4.16388C15.569 3.9709 15.4256 3.73763 15.3268 3.46407C15.228 3.19051 15.1786 2.88407 15.1786 2.54477V2.22349C15.1786 1.88419 15.2292 1.57776 15.3304 1.3042C15.4341 1.02851 15.5811 0.794181 15.7715 0.601202C15.9642 0.408224 16.1944 0.259779 16.4619 0.155867C16.7294 0.0519558 17.0282 0 17.3584 0C17.797 0 18.1669 0.0699812 18.4681 0.209944C18.7717 0.349906 19.0067 0.542885 19.173 0.788879C19.3417 1.03487 19.4429 1.3148 19.4766 1.62865H18.3922C18.3801 1.44204 18.338 1.28405 18.2657 1.15469C18.1934 1.02321 18.0837 0.924601 17.9367 0.858861C17.7921 0.791 17.5993 0.75707 17.3584 0.75707C17.1776 0.75707 17.0198 0.786759 16.8848 0.846137C16.7499 0.905515 16.6366 0.995642 16.545 1.11652C16.4534 1.2374 16.3848 1.39008 16.339 1.57458C16.2956 1.75695 16.2739 1.97114 16.2739 2.21713V2.54477C16.2739 2.7844 16.2944 2.99541 16.3354 3.17778C16.3763 3.35804 16.439 3.51073 16.5233 3.63584C16.6101 3.75884 16.7209 3.85215 16.8559 3.91577C16.9933 3.97727 17.1583 4.00802 17.3511 4.00802C17.5777 4.00802 17.7644 3.97621 17.9114 3.91259C18.0584 3.84897 18.1705 3.7546 18.2476 3.62948C18.3271 3.50436 18.3741 3.3485 18.3886 3.16188Z" fill="#323232"/>
<path fill-rule="evenodd" clip-rule="evenodd" d="M5 6.85714C5 6.22596 5.51167 5.71429 6.14286 5.71429H18.7143C19.3455 5.71429 19.8571 6.22596 19.8571 6.85714C19.8571 7.48833 19.3455 8 18.7143 8H6.14286C5.51167 8 5 7.48833 5 6.85714Z" fill="#323232"/>
<path fill-rule="evenodd" clip-rule="evenodd" d="M21.9227 6.15156C22.0873 6.17065 22.2048 6.32296 22.1853 6.49176C22.0591 7.57911 21.8122 8.40621 21.3129 8.97116C20.8032 9.54784 20.0796 9.79853 19.1274 9.84984C18.9618 9.85876 18.8213 9.72847 18.8136 9.55884C18.8058 9.3892 18.9338 9.24444 19.0993 9.23552C19.9706 9.18858 20.5098 8.96625 20.8692 8.55962C21.2389 8.14125 21.4672 7.47474 21.5893 6.42263C21.6088 6.25384 21.7581 6.13247 21.9227 6.15156Z" fill="#323232"/>
<path fill-rule="evenodd" clip-rule="evenodd" d="M23.5 5C23.7762 5 24 5.22385 24 5.49999C24 7.2788 23.7501 8.66014 23.0319 9.66556C22.2988 10.6919 21.1489 11.232 19.5823 11.4931C19.3099 11.5385 19.0523 11.3545 19.0069 11.0821C18.9615 10.8097 19.1455 10.5521 19.4179 10.5067C20.8513 10.2678 21.7013 9.80801 22.2182 9.08433C22.75 8.33978 23 7.22115 23 5.49999C23 5.22385 23.2239 5 23.5 5Z" fill="#323232"/>
<path fill-rule="evenodd" clip-rule="evenodd" d="M3.07729 6.15156C2.91271 6.17065 2.79516 6.32296 2.81474 6.49176C2.94086 7.57911 3.18778 8.40621 3.68708 8.97116C4.19675 9.54784 4.92043 9.79853 5.87262 9.84984C6.03817 9.85876 6.17866 9.72847 6.18641 9.55884C6.19415 9.3892 6.06622 9.24444 5.90066 9.23552C5.02943 9.18858 4.49024 8.96625 4.13085 8.55962C3.76109 8.14125 3.53276 7.47474 3.41073 6.42263C3.39115 6.25384 3.24186 6.13247 3.07729 6.15156Z" fill="#323232"/>
<path fill-rule="evenodd" clip-rule="evenodd" d="M1.49998 5C1.22384 5 0.999982 5.22385 0.999982 5.49999C0.999982 7.2788 1.24994 8.66014 1.9681 9.66556C2.70117 10.6919 3.85115 11.232 5.41773 11.4931C5.69011 11.5385 5.94772 11.3545 5.99312 11.0821C6.03852 10.8097 5.85451 10.5521 5.58213 10.5067C4.14874 10.2678 3.29874 9.80801 2.78183 9.08433C2.25 8.33978 1.99997 7.22115 1.99997 5.49999C1.99997 5.22385 1.77611 5 1.49998 5Z" fill="#323232"/>
<path d="M13 10L10.1132 15L15.8868 15L13 10ZM13.5 24.0625C13.5 23.7864 13.2761 23.5625 13 23.5625C12.7239 23.5625 12.5 23.7864 12.5 24.0625L13.5 24.0625ZM12.5 22.1875C12.5 22.4636 12.7239 22.6875 13 22.6875C13.2761 22.6875 13.5 22.4636 13.5 22.1875L12.5 22.1875ZM13.5 20.3125C13.5 20.0364 13.2761 19.8125 13 19.8125C12.7239 19.8125 12.5 20.0364 12.5 20.3125L13.5 20.3125ZM12.5 18.4375C12.5 18.7136 12.7239 18.9375 13 18.9375C13.2761 18.9375 13.5 18.7136 13.5 18.4375L12.5 18.4375ZM13.5 16.5625C13.5 16.2864 13.2761 16.0625 13 16.0625C12.7239 16.0625 12.5 16.2864 12.5 16.5625L13.5 16.5625ZM12.5 14.6875C12.5 14.9636 12.7239 15.1875 13 15.1875C13.2761 15.1875 13.5 14.9636 13.5 14.6875L12.5 14.6875ZM13.5 12.8125C13.5 12.5364 13.2761 12.3125 13 12.3125C12.7239 12.3125 12.5 12.5364 12.5 12.8125L13.5 12.8125ZM12.5 10.9375C12.5 11.2136 12.7239 11.4375 13 11.4375C13.2761 11.4375 13.5 11.2136 13.5 10.9375L12.5 10.9375ZM13.5 25L13.5 24.0625L12.5 24.0625L12.5 25L13.5 25ZM13.5 22.1875L13.5 20.3125L12.5 20.3125L12.5 22.1875L13.5 22.1875ZM13.5 18.4375L13.5 16.5625L12.5 16.5625L12.5 18.4375L13.5 18.4375ZM13.5 14.6875L13.5 12.8125L12.5 12.8125L12.5 14.6875L13.5 14.6875Z" fill="#323232"/>
</svg>
