<svg width="25" height="25" viewBox="0 0 25 25" fill="none" xmlns="http://www.w3.org/2000/svg">
<path fill-rule="evenodd" clip-rule="evenodd" d="M18.7348 15.4164C18.6704 15.1777 18.4203 15.0353 18.176 15.0981L18.2925 15.5303C18.176 15.0981 18.1761 15.0981 18.176 15.0981L18.1745 15.0985L18.1725 15.099L18.1671 15.1005L18.1505 15.1051C18.1369 15.1089 18.1184 15.1143 18.0952 15.1214C18.0489 15.1357 17.984 15.1569 17.9033 15.1864C17.742 15.2454 17.5171 15.3376 17.2507 15.4738L17.6748 16.2657C17.9041 16.1484 18.0941 16.0709 18.2238 16.0235C18.2886 15.9998 18.3382 15.9837 18.37 15.9739C18.3859 15.969 18.3973 15.9657 18.4039 15.9638L18.4096 15.9622C18.6538 15.8993 18.7991 15.655 18.7348 15.4164ZM15.2203 18.484C15.5659 17.9677 15.9404 17.5518 16.3071 17.2182L15.6839 16.5641C15.2666 16.9437 14.8434 17.4144 14.4549 17.9947L15.2203 18.484ZM13.9746 21.5885C14.0959 20.9874 14.2578 20.4497 14.4475 19.969L13.5941 19.6475C13.3848 20.1778 13.2084 20.7653 13.0772 21.4157L13.9746 21.5885ZM13.7359 24.1365C13.7359 23.8393 13.7444 23.5528 13.7606 23.2767L13.4976 23.2619C13.4788 23.1992 13.46 23.1369 13.4411 23.0748L12.9094 23.2289L12.8475 23.2254C12.8471 23.2327 12.8467 23.2399 12.8462 23.2472L12.5643 23.3289C12.6557 23.6301 12.747 23.9395 12.8383 24.2573C12.9 24.4722 13.1147 24.6096 13.341 24.5792C13.5673 24.5487 13.7359 24.3597 13.7359 24.1365ZM11.2844 19.7019C11.5177 20.2551 11.7448 20.851 11.9686 21.4927L12.8343 21.2043C12.6054 20.5481 12.3718 19.9345 12.1301 19.3614L11.2844 19.7019ZM9.44486 16.3989C9.80304 16.8643 10.1409 17.3898 10.4641 17.9827L11.2713 17.5625C10.9293 16.9352 10.5667 16.3696 10.1759 15.8617L9.44486 16.3989ZM6.59834 14.0589C7.16728 14.33 7.68474 14.6592 8.16213 15.0551L8.75396 14.3736C8.21727 13.9286 7.63546 13.5588 6.99927 13.2556L6.59834 14.0589ZM4.56145 13.3729C4.64873 13.3925 4.73495 13.4128 4.82015 13.434L5.04538 12.5678C4.89099 12.5294 4.73402 12.4936 4.57439 12.4602L4.60928 10L1.4388e-07 12.5179L4.53612 15.1595L4.56145 13.3729Z" fill="#323232"/>
<path d="M14.4285 9.7515L13.176 13.111H12.167L13.8782 9.05845H14.5202L14.4285 9.7515ZM15.4691 13.111L14.2134 9.7515L14.1122 9.05845H14.7606L16.4813 13.111H15.4691ZM15.4122 11.6024V12.2565H12.9799V11.6024H15.4122Z" fill="#323232"/>
<path d="M18.7111 11.3324H17.5282L17.5219 10.7591H18.515C18.6901 10.7591 18.8334 10.7396 18.9452 10.7006C19.057 10.6598 19.1403 10.6014 19.1951 10.5253C19.252 10.4473 19.2805 10.3527 19.2805 10.2414C19.2805 10.1152 19.2531 10.0131 19.1982 9.9352C19.1455 9.85727 19.0622 9.80068 18.9484 9.76542C18.8366 9.73016 18.6922 9.71254 18.515 9.71254H17.8571V13.111H16.9083V9.05845H18.515C18.7828 9.05845 19.0222 9.08072 19.233 9.12525C19.446 9.16978 19.6263 9.23751 19.7739 9.32843C19.9215 9.41936 20.0343 9.5344 20.1123 9.67357C20.1904 9.81088 20.2294 9.97417 20.2294 10.1634C20.2294 10.3304 20.1861 10.4845 20.0997 10.6255C20.0153 10.7665 19.8814 10.8815 19.698 10.9706C19.5166 11.0597 19.2794 11.1088 18.9863 11.1181L18.7111 11.3324ZM18.67 13.111H17.2688L17.6389 12.4597H18.67C18.8366 12.4597 18.9726 12.4365 19.078 12.3901C19.1835 12.3419 19.2615 12.2769 19.3121 12.1953C19.3627 12.1136 19.388 12.0199 19.388 11.9142C19.388 11.7954 19.3648 11.6924 19.3184 11.6052C19.2742 11.518 19.2025 11.4512 19.1034 11.4048C19.0042 11.3566 18.8735 11.3324 18.7111 11.3324H17.7971L17.8034 10.7591H18.942L19.1603 10.9845C19.4407 10.9808 19.6664 11.0244 19.8372 11.1153C20.0101 11.2044 20.1355 11.3204 20.2136 11.4633C20.2937 11.6061 20.3337 11.7592 20.3337 11.9225C20.3337 12.1823 20.2694 12.4012 20.1408 12.5794C20.0122 12.7557 19.8235 12.8883 19.5746 12.9774C19.3279 13.0665 19.0264 13.111 18.67 13.111Z" fill="#323232"/>
<path d="M23.7149 11.7666H24.6607C24.6417 12.0394 24.5563 12.2816 24.4045 12.4931C24.2548 12.7046 24.0449 12.8698 23.775 12.9885C23.5072 13.1073 23.1846 13.1667 22.8072 13.1667C22.512 13.1667 22.2473 13.1221 22.0133 13.0331C21.7792 12.9421 21.5789 12.8123 21.4123 12.6434C21.2478 12.4745 21.1224 12.2704 21.0359 12.0311C20.9495 11.7917 20.9062 11.5236 20.9062 11.2267V10.9456C20.9062 10.6487 20.9505 10.3805 21.0391 10.1412C21.1298 9.89995 21.2584 9.69491 21.425 9.52605C21.5937 9.3572 21.795 9.22731 22.0291 9.13638C22.2631 9.04546 22.5246 9 22.8135 9C23.1973 9 23.5209 9.06123 23.7845 9.1837C24.0502 9.30617 24.2558 9.47502 24.4013 9.69027C24.5489 9.90551 24.6375 10.1504 24.667 10.4251H23.7181C23.7076 10.2618 23.6707 10.1235 23.6074 10.0104C23.5441 9.89531 23.4482 9.80903 23.3196 9.7515C23.1931 9.69212 23.0244 9.66244 22.8135 9.66244C22.6554 9.66244 22.5172 9.68841 22.3992 9.74037C22.2811 9.79233 22.182 9.87119 22.1018 9.97695C22.0217 10.0827 21.9616 10.2163 21.9215 10.3778C21.8836 10.5373 21.8646 10.7247 21.8646 10.94V11.2267C21.8646 11.4364 21.8825 11.621 21.9184 11.7806C21.9542 11.9383 22.0091 12.0719 22.0829 12.1814C22.1588 12.289 22.2558 12.3706 22.3738 12.4263C22.494 12.4801 22.6385 12.507 22.8072 12.507C23.0054 12.507 23.1688 12.4792 23.2974 12.4235C23.4261 12.3678 23.5241 12.2853 23.5916 12.1758C23.6612 12.0663 23.7023 11.9299 23.7149 11.7666Z" fill="#323232"/>
<path fill-rule="evenodd" clip-rule="evenodd" d="M12 15C12 14.4477 12.4477 14 13 14H24C24.5523 14 25 14.4477 25 15C25 15.5523 24.5523 16 24 16H13C12.4477 16 12 15.5523 12 15Z" fill="#323232"/>
</svg>
