<svg width="25" height="25" viewBox="0 0 25 25" fill="none" xmlns="http://www.w3.org/2000/svg">
<path fill-rule="evenodd" clip-rule="evenodd" d="M24.5097 2.01416C24.1836 2.01416 23.6871 2.25242 23.6871 2.25242L23.534 2.27074C23.4652 2.28955 23.413 2.29006 23.3449 2.30889L23.5139 2.84061L23.5101 2.90253C23.5181 2.90295 23.5261 2.90337 23.534 2.90379L23.6237 3.18577C23.9542 3.09435 24.2936 3.00308 24.6422 2.91175C24.878 2.84999 25.0288 2.63538 24.9954 2.40907C24.962 2.18275 24.7546 2.01416 24.5097 2.01416ZM19.6443 4.4656C20.2513 4.23233 20.9051 4.00525 21.609 3.78143L21.2927 2.91572C20.5728 3.14461 19.8996 3.37828 19.2708 3.61994L19.6443 4.4656ZM16.0204 6.30518C16.5311 5.947 17.1077 5.60916 17.7581 5.2859L17.2971 4.47869C16.6089 4.82069 15.9883 5.18336 15.4311 5.57415L16.0204 6.30518ZM13.4531 9.15169C13.7506 8.58275 14.1117 8.06529 14.5461 7.5879L13.7985 6.99608C13.3102 7.53277 12.9044 8.11457 12.5718 8.75076L13.4531 9.15169ZM12.7005 11.1886C12.722 11.1013 12.7443 11.0151 12.7675 10.9299L11.8172 10.7047C11.7751 10.859 11.7358 11.016 11.6991 11.1756L9 11.1408L11.7624 15.75L14.6607 11.2139L12.7005 11.1886Z" fill="#323232"/>
<path d="M2.42851 18.7515L1.17597 22.111H0.166992L1.87815 18.0585H2.52023L2.42851 18.7515ZM3.46912 22.111L2.21342 18.7515L2.11221 18.0585H2.76062L4.48126 22.111H3.46912ZM3.41218 20.6024V21.2565H0.979872V20.6024H3.41218Z" fill="#323232"/>
<path d="M6.71115 20.3324H5.5282L5.52188 19.7591H6.51504C6.69006 19.7591 6.83345 19.7396 6.94521 19.7006C7.05696 19.6598 7.14025 19.6014 7.19508 19.5253C7.25201 19.4473 7.28048 19.3527 7.28048 19.2414C7.28048 19.1152 7.25307 19.0131 7.19824 18.9352C7.14553 18.8573 7.06223 18.8007 6.94837 18.7654C6.83661 18.7302 6.69217 18.7125 6.51504 18.7125H5.85715V22.111H4.90826V18.0585H6.51504C6.78284 18.0585 7.02217 18.0807 7.23303 18.1253C7.44601 18.1698 7.6263 18.2375 7.7739 18.3284C7.9215 18.4194 8.03432 18.5344 8.11234 18.6736C8.19036 18.8109 8.22937 18.9742 8.22937 19.1634C8.22937 19.3304 8.18614 19.4845 8.09968 19.6255C8.01534 19.7665 7.88144 19.8815 7.69799 19.9706C7.51665 20.0597 7.27942 20.1088 6.98632 20.1181L6.71115 20.3324ZM6.67003 22.111H5.26884L5.63891 21.4597H6.67003C6.83661 21.4597 6.97262 21.4365 7.07805 21.3901C7.18348 21.3419 7.2615 21.2769 7.31211 21.1953C7.36272 21.1136 7.38802 21.0199 7.38802 20.9142C7.38802 20.7954 7.36482 20.6924 7.31843 20.6052C7.27415 20.518 7.20246 20.4512 7.10335 20.4048C7.00425 20.3566 6.87351 20.3324 6.71115 20.3324H5.79705L5.80338 19.7591H6.94204L7.16029 19.9845C7.44074 19.9808 7.66636 20.0244 7.83716 20.1153C8.01007 20.2044 8.13553 20.3204 8.21355 20.4633C8.29368 20.6061 8.33374 20.7592 8.33374 20.9225C8.33374 21.1823 8.26943 21.4012 8.1408 21.5794C8.01218 21.7557 7.82345 21.8883 7.57463 21.9774C7.32792 22.0665 7.02639 22.111 6.67003 22.111Z" fill="#323232"/>
<path d="M11.7149 20.7666H12.6607C12.6417 21.0394 12.5563 21.2816 12.4045 21.4931C12.2548 21.7046 12.0449 21.8698 11.775 21.9885C11.5072 22.1073 11.1846 22.1667 10.8072 22.1667C10.512 22.1667 10.2473 22.1221 10.0133 22.0331C9.77921 21.9421 9.57889 21.8123 9.41231 21.6434C9.24784 21.4745 9.12237 21.2704 9.03592 21.0311C8.94946 20.7917 8.90624 20.5236 8.90624 20.2267V19.9456C8.90624 19.6487 8.95052 19.3805 9.03908 19.1412C9.12975 18.8999 9.25838 18.6949 9.42496 18.5261C9.59365 18.3572 9.79503 18.2273 10.0291 18.1364C10.2631 18.0455 10.5246 18 10.8135 18C11.1973 18 11.5209 18.0612 11.7845 18.1837C12.0502 18.3062 12.2558 18.475 12.4013 18.6903C12.5489 18.9055 12.6375 19.1504 12.667 19.4251H11.7181C11.7076 19.2618 11.6707 19.1235 11.6074 19.0104C11.5441 18.8953 11.4482 18.809 11.3196 18.7515C11.1931 18.6921 11.0244 18.6624 10.8135 18.6624C10.6554 18.6624 10.5172 18.6884 10.3992 18.7404C10.2811 18.7923 10.182 18.8712 10.1018 18.977C10.0217 19.0827 9.96161 19.2163 9.92155 19.3778C9.88359 19.5373 9.86461 19.7247 9.86461 19.94V20.2267C9.86461 20.4364 9.88254 20.621 9.91838 20.7806C9.95423 20.9383 10.0091 21.0719 10.0829 21.1814C10.1588 21.289 10.2558 21.3706 10.3738 21.4263C10.494 21.4801 10.6385 21.507 10.8072 21.507C11.0054 21.507 11.1688 21.4792 11.2974 21.4235C11.4261 21.3678 11.5241 21.2853 11.5916 21.1758C11.6612 21.0663 11.7023 20.9299 11.7149 20.7666Z" fill="#323232"/>
<path fill-rule="evenodd" clip-rule="evenodd" d="M0 24C0 23.4477 0.447715 23 1 23H12C12.5523 23 13 23.4477 13 24C13 24.5523 12.5523 25 12 25H1C0.447715 25 0 24.5523 0 24Z" fill="#323232"/>
</svg>
