<svg width="25" height="25" viewBox="0 0 25 25" fill="none" xmlns="http://www.w3.org/2000/svg">
<path d="M23.0354 14.4958L6.7751 14.4958C6.02984 14.4958 5.42008 15.1055 5.42008 15.8508C5.42008 16.596 6.02984 17.2058 6.7751 17.2058L23.0354 17.2058C23.7806 17.2058 24.3904 16.596 24.3904 15.8508C24.3904 15.1055 23.7806 14.4958 23.0354 14.4958ZM23.0354 5.41712L6.7751 5.41712C6.02984 5.41712 5.42008 6.02688 5.42008 6.77214C5.42008 7.5174 6.02984 8.12716 6.7751 8.12716L23.0354 8.12716C23.7806 8.12716 24.3904 7.5174 24.3904 6.77214C24.3904 6.02688 23.7806 5.41712 23.0354 5.41712ZM2.71004 5.41712L1.3623e-06 5.41712L1.12538e-06 8.12716L2.71004 8.12716L2.71004 5.41712ZM2.71004 14.4957L5.68619e-07 14.4957L3.317e-07 17.2058L2.71004 17.2058L2.71004 14.4957Z" fill="#323232"/>
<path d="M7.38473 18.29L23.645 18.29C24.3902 18.29 25 18.8997 25 19.645C25 20.3902 24.3902 21 23.645 21L7.38473 21C6.63947 21 6.02971 20.3902 6.02971 19.645C6.02971 18.8997 6.63947 18.29 7.38473 18.29Z" fill="#323232"/>
<path d="M7.38473 9.21132L23.645 9.21132C24.3902 9.21132 25 9.82108 25 10.5663C25 11.3116 24.3902 11.9214 23.645 11.9214L7.38473 11.9214C6.63947 11.9214 6.02971 11.3116 6.02971 10.5663C6.02971 9.82108 6.63947 9.21132 7.38473 9.21132Z" fill="#323232"/>
</svg>
