<svg width="25" height="26" viewBox="0 0 25 26" fill="none" xmlns="http://www.w3.org/2000/svg">
<path d="M11.0503 5.87476C11.0503 5.39126 10.6584 4.99951 10.175 4.99951H0.875253C0.391919 4.99943 0 5.39118 0 5.87476V24.4741C0 24.9574 0.391919 25.3493 0.875253 25.3493H24.1247C24.608 25.3493 24.9999 24.9574 24.9999 24.4741L24.9998 21.3156C24.9875 19.3404 24.3611 17.773 23.1371 16.6561C22.0294 15.6453 20.7031 15.2627 19.7857 15.1197C19.6392 15.097 19.4267 15.0717 19.1577 15.0398C18.2572 14.9329 16.5811 14.7339 15.0488 14.3283C12.8184 13.7379 11.0503 13.0961 11.0503 11.8736C11.0503 10.2076 11.0503 5.87476 11.0503 5.87476ZM23.1936 20.4988H20.5263V17.1049C21.667 17.5154 22.918 18.4374 23.1936 20.4988ZM11.3613 14.7087C11.2669 14.7518 11.1797 14.8105 11.1058 14.8844C10.943 15.0472 10.8494 15.2731 10.8494 15.5033C10.8494 15.7334 10.943 15.9594 11.1058 16.1222C11.2695 16.2849 11.4944 16.3786 11.7247 16.3786C11.955 16.3786 12.1808 16.2849 12.3444 16.1222C12.5072 15.9594 12.6001 15.7335 12.6001 15.5033C12.6001 15.4462 12.5944 15.3893 12.5832 15.3336C13.2199 15.6073 13.8545 15.814 14.3938 15.9641C14.3256 16.0027 14.2621 16.0496 14.2062 16.1055C14.0434 16.2683 13.9497 16.4941 13.9497 16.7243C13.9497 16.9545 14.0434 17.1804 14.2062 17.3432C14.3691 17.5062 14.5948 17.5997 14.8252 17.5997C15.0553 17.5997 15.2812 17.5062 15.444 17.3432C15.6068 17.1804 15.7005 16.9556 15.7005 16.7243C15.7005 16.5555 15.6497 16.3893 15.5587 16.2482C16.7997 16.5134 18.0002 16.6647 18.7758 16.7574V20.4989H1.75067V9.84985H9.24402C9.20859 10.6612 9.19444 11.73 9.32315 12.2756C9.36212 12.4405 9.417 12.5987 9.48291 12.7514C9.46322 12.75 9.44335 12.7484 9.42357 12.7484C9.19327 12.7484 8.96751 12.8421 8.80463 13.0051C8.64175 13.1686 8.54815 13.3935 8.54815 13.6247C8.54815 13.8548 8.64175 14.0807 8.80463 14.2435C8.96751 14.4065 9.19318 14.5 9.42357 14.5C9.6537 14.5 9.87955 14.4065 10.0423 14.2435C10.1472 14.1381 10.223 14.0071 10.264 13.8658C10.5832 14.1828 10.9587 14.4624 11.3613 14.7087ZM9.29966 6.75002V8.05229H1.75067V6.75002H9.29966ZM23.2493 23.5988H1.75067V22.2496H23.2493V23.5988Z" fill="#323232"/>
<path d="M5.52495 13.603C4.18766 13.603 3.09961 14.6909 3.09961 16.0282C3.09961 17.3655 4.18766 18.4535 5.52495 18.4535C6.86224 18.4535 7.9502 17.3655 7.9502 16.0282C7.95011 14.6909 6.86215 13.603 5.52495 13.603ZM5.52495 16.7029C5.15289 16.7029 4.85028 16.4002 4.85028 16.0281C4.85028 15.6562 5.15289 15.3535 5.52495 15.3535C5.89692 15.3535 6.19961 15.6562 6.19961 16.0281C6.19953 16.4002 5.89692 16.7029 5.52495 16.7029Z" fill="#323232"/>
<path d="M21.5 3.01333C20.6307 3.04889 20.1961 3.34222 20.1961 3.89333C20.1961 4.38222 20.6033 4.72889 21.4176 4.93333C21.4268 4.93333 21.4405 4.93778 21.4588 4.94667C21.4863 4.94667 21.5046 4.95111 21.5137 4.96C21.5869 4.97778 21.6235 4.94667 21.6235 4.86667V3.13333C21.6235 3.05333 21.5824 3.01333 21.5 3.01333ZM21.5549 8.97333C22.3784 8.90222 22.7902 8.57778 22.7902 8C22.7902 7.75111 22.6941 7.54222 22.502 7.37333C22.319 7.19556 22.0033 7.04 21.5549 6.90667C21.4725 6.88889 21.4314 6.91556 21.4314 6.98667V8.86667C21.4314 8.93778 21.4725 8.97333 21.5549 8.97333ZM19.8667 6.33333C18.6222 5.75556 18 4.94222 18 3.89333C18 3.12 18.2974 2.50222 18.8922 2.04C19.4961 1.57778 20.3654 1.34222 21.5 1.33333C21.5824 1.33333 21.6235 1.29333 21.6235 1.21333V0.76C21.6235 0.555556 21.6967 0.377778 21.8431 0.226667C21.9987 0.0755557 22.1817 0 22.3922 0H22.4196C22.6301 0 22.8131 0.0755557 22.9686 0.226667C23.1242 0.377778 23.202 0.555556 23.202 0.76V1.32C23.202 1.39111 23.2386 1.43556 23.3118 1.45333C23.5863 1.48889 23.7876 1.52 23.9157 1.54667C24.1353 1.59111 24.3137 1.70667 24.451 1.89333C24.5882 2.07111 24.6569 2.27111 24.6569 2.49333V2.81333C24.6569 2.99111 24.5791 3.13333 24.4235 3.24C24.2771 3.34667 24.1124 3.37778 23.9294 3.33333C23.6549 3.26222 23.449 3.21333 23.3118 3.18667C23.2386 3.16889 23.202 3.19556 23.202 3.26667V5.24C23.202 5.30222 23.1974 5.34667 23.1882 5.37333C23.1699 5.45333 23.1882 5.50667 23.2431 5.53333C23.8745 5.81778 24.3229 6.15555 24.5882 6.54667C24.8627 6.92889 25 7.4 25 7.96C25 8.79556 24.7072 9.44444 24.1216 9.90667C23.5451 10.3689 22.685 10.6178 21.5412 10.6533C21.468 10.6533 21.4314 10.6933 21.4314 10.7733V11.24C21.4314 11.4444 21.3536 11.6222 21.198 11.7733C21.0516 11.9244 20.8732 12 20.6627 12H20.6353C20.4248 12 20.2418 11.9244 20.0863 11.7733C19.9307 11.6222 19.8529 11.4444 19.8529 11.24V10.68C19.8529 10.6 19.8209 10.5556 19.7569 10.5467C19.519 10.5111 19.281 10.4578 19.0431 10.3867C18.8235 10.3244 18.6451 10.2 18.5078 10.0133C18.3706 9.81778 18.302 9.60444 18.302 9.37333V8.98667C18.302 8.81778 18.3752 8.68889 18.5216 8.6C18.6771 8.50222 18.8373 8.48889 19.002 8.56C19.249 8.65778 19.4961 8.73778 19.7431 8.8C19.8163 8.81778 19.8529 8.78667 19.8529 8.70667V6.76C19.8529 6.68 19.8712 6.58667 19.9078 6.48C19.9444 6.40889 19.9307 6.36 19.8667 6.33333Z" fill="#323232"/>
</svg>
