<svg width="25" height="25" viewBox="0 0 25 25" fill="none" xmlns="http://www.w3.org/2000/svg">
<path fill-rule="evenodd" clip-rule="evenodd" d="M6.16667 3.125C6.16667 1.39911 7.56578 0 9.29167 0H14.5C14.7762 0 15.0412 0.109747 15.2366 0.305097L22.5282 7.59676C22.7235 7.79211 22.8333 8.05706 22.8333 8.33333V17.7083C22.8333 19.4343 21.4343 20.8333 19.7083 20.8333H18.6667V21.875C18.6667 23.6009 17.2676 25 15.5417 25H5.125C3.39911 25 2 23.6009 2 21.875V7.29167C2 5.56578 3.39911 4.16667 5.125 4.16667H6.16667V3.125ZM6.16667 6.25H5.125C4.54971 6.25 4.08333 6.71637 4.08333 7.29167V21.875C4.08333 22.4503 4.54971 22.9167 5.125 22.9167H15.5417C16.117 22.9167 16.5833 22.4503 16.5833 21.875V20.8333H9.29167C7.56578 20.8333 6.16667 19.4343 6.16667 17.7083V6.25ZM9.29167 2.08333C8.71637 2.08333 8.25 2.54971 8.25 3.125V17.7083C8.25 18.2836 8.71636 18.75 9.29167 18.75H19.7083C20.2836 18.75 20.75 18.2836 20.75 17.7083V9.375H16.5833C14.8574 9.375 13.4583 7.97588 13.4583 6.25V2.08333H9.29167ZM15.5417 3.55647L19.2769 7.29167H16.5833C16.008 7.29167 15.5417 6.82529 15.5417 6.25V3.55647Z" fill="#323232"/>
</svg>
