<svg width="25" height="25" viewBox="0 0 25 25" fill="none" xmlns="http://www.w3.org/2000/svg">
<path d="M18.2641 11.3494H15.15V13.1973H18.2641C19.1905 13.1973 19.909 13.67 19.909 14.0772V22.2718C19.909 22.6786 19.1905 23.152 18.2641 23.152H6.49256C5.56645 23.152 4.84792 22.6786 4.84792 22.2718V14.0781C4.84792 13.671 5.56645 13.1979 6.49256 13.1979H9.6063V11.35H6.49256C4.53408 11.35 3 12.5484 3 14.0781V22.2721C3 23.8022 4.53408 24.9999 6.49256 24.9999H18.2647C20.2226 24.9999 21.7573 23.8015 21.7573 22.2721V14.0781C21.757 12.5477 20.2229 11.3494 18.2641 11.3494Z" fill="#323232"/>
<path d="M15.1742 17.2116C14.9377 17.2116 14.7014 17.3021 14.5209 17.4826L13.3642 18.6391V14.627V12.7791V11.4896C13.3642 10.9796 12.9505 10.5657 12.4402 10.5657C11.9299 10.5657 11.5162 10.9796 11.5162 11.4896V12.7788V14.6267V18.7013L10.2969 17.4823C10.1164 17.3018 9.87991 17.2113 9.64368 17.2113C9.40746 17.2113 9.17093 17.3018 8.99045 17.4823C8.62949 17.8427 8.62949 18.4278 8.99045 18.7885L11.7491 21.5471C11.9296 21.7276 12.1661 21.8172 12.402 21.8172C12.4045 21.8172 12.4069 21.8172 12.4091 21.8172C12.4112 21.8172 12.4137 21.8172 12.4159 21.8172C12.6524 21.8172 12.8883 21.7276 13.0688 21.5471L15.8274 18.7885C16.1884 18.4278 16.1884 17.8427 15.8274 17.4823C15.6469 17.3021 15.411 17.2116 15.1742 17.2116Z" fill="#323232"/>
<path d="M6.65039 5.40576H8.25635C8.22412 5.93213 8.0791 6.39941 7.82129 6.80762C7.56706 7.21582 7.21077 7.53451 6.75244 7.76367C6.29769 7.99284 5.74984 8.10742 5.10889 8.10742C4.60758 8.10742 4.1582 8.02148 3.76074 7.84961C3.36328 7.67415 3.02311 7.4235 2.74023 7.09766C2.46094 6.77181 2.24788 6.37793 2.10107 5.91602C1.95426 5.4541 1.88086 4.93669 1.88086 4.36377V3.82129C1.88086 3.24837 1.95605 2.73096 2.10645 2.26904C2.26042 1.80355 2.47884 1.40788 2.76172 1.08203C3.04818 0.756185 3.39014 0.505534 3.7876 0.330078C4.18506 0.154622 4.62907 0.0668945 5.11963 0.0668945C5.77132 0.0668945 6.32096 0.185059 6.76855 0.421387C7.21973 0.657715 7.56885 0.983561 7.81592 1.39893C8.06657 1.81429 8.21696 2.28695 8.26709 2.81689H6.65576C6.63786 2.50179 6.5752 2.23503 6.46777 2.0166C6.36035 1.7946 6.19743 1.62809 5.979 1.51709C5.76416 1.40251 5.4777 1.34521 5.11963 1.34521C4.85107 1.34521 4.61654 1.39535 4.41602 1.49561C4.21549 1.59587 4.0472 1.74805 3.91113 1.95215C3.77507 2.15625 3.67301 2.41406 3.60498 2.72559C3.54053 3.03353 3.5083 3.39518 3.5083 3.81055V4.36377C3.5083 4.76839 3.53874 5.12467 3.59961 5.43262C3.66048 5.73698 3.75358 5.99479 3.87891 6.20605C4.00781 6.41374 4.17253 6.57129 4.37305 6.67871C4.57715 6.78255 4.82243 6.83447 5.10889 6.83447C5.44548 6.83447 5.72298 6.78076 5.94141 6.67334C6.15983 6.56592 6.32633 6.40658 6.44092 6.19531C6.55908 5.98405 6.62891 5.72087 6.65039 5.40576Z" fill="#323232"/>
<path d="M13.3857 5.95361C13.3857 5.81396 13.3643 5.68864 13.3213 5.57764C13.2819 5.46305 13.2067 5.35921 13.0957 5.26611C12.9847 5.16943 12.8289 5.07454 12.6284 4.98145C12.4279 4.88835 12.1683 4.79167 11.8496 4.69141C11.4951 4.57682 11.1585 4.44792 10.8398 4.30469C10.5247 4.16146 10.2454 3.99495 10.002 3.80518C9.76204 3.61182 9.57227 3.38802 9.43262 3.13379C9.29655 2.87956 9.22852 2.58415 9.22852 2.24756C9.22852 1.92171 9.30013 1.6263 9.44336 1.36133C9.58659 1.09277 9.78711 0.863607 10.0449 0.673828C10.3027 0.480469 10.6071 0.331868 10.958 0.228027C11.3125 0.124186 11.701 0.0722656 12.1235 0.0722656C12.7 0.0722656 13.2031 0.176107 13.6328 0.383789C14.0625 0.591471 14.3955 0.876139 14.6318 1.23779C14.8717 1.59945 14.9917 2.01302 14.9917 2.47852H13.3911C13.3911 2.24935 13.3428 2.04883 13.2461 1.87695C13.153 1.7015 13.0098 1.56364 12.8164 1.46338C12.6266 1.36312 12.3867 1.31299 12.0967 1.31299C11.8174 1.31299 11.5846 1.35596 11.3984 1.44189C11.2122 1.52425 11.0726 1.63704 10.9795 1.78027C10.8864 1.91992 10.8398 2.07747 10.8398 2.25293C10.8398 2.38542 10.8721 2.50537 10.9365 2.61279C11.0046 2.72021 11.1048 2.82048 11.2373 2.91357C11.3698 3.00667 11.5327 3.0944 11.7261 3.17676C11.9194 3.25911 12.1432 3.33968 12.3975 3.41846C12.8236 3.54736 13.1978 3.69238 13.52 3.85352C13.8459 4.01465 14.118 4.19548 14.3364 4.396C14.5549 4.59652 14.7196 4.82389 14.8306 5.07812C14.9416 5.33236 14.9971 5.62061 14.9971 5.94287C14.9971 6.28304 14.9308 6.5874 14.7983 6.85596C14.6659 7.12451 14.4743 7.35189 14.2236 7.53809C13.973 7.72428 13.674 7.86572 13.3267 7.9624C12.9793 8.05908 12.5908 8.10742 12.1611 8.10742C11.7744 8.10742 11.3931 8.05729 11.0171 7.95703C10.6411 7.85319 10.2992 7.69743 9.99121 7.48975C9.68685 7.28206 9.44336 7.01709 9.26074 6.69482C9.07812 6.37256 8.98682 5.99121 8.98682 5.55078H10.6035C10.6035 5.79427 10.6411 6.00016 10.7163 6.16846C10.7915 6.33675 10.8971 6.47282 11.0332 6.57666C11.1729 6.6805 11.3376 6.7557 11.5273 6.80225C11.7207 6.8488 11.932 6.87207 12.1611 6.87207C12.4404 6.87207 12.6696 6.83268 12.8486 6.75391C13.0312 6.67513 13.1655 6.56592 13.2515 6.42627C13.341 6.28662 13.3857 6.12907 13.3857 5.95361Z" fill="#323232"/>
<path d="M18.9126 6.36719L20.7549 0.179688H22.5488L19.8257 8H18.644L18.9126 6.36719ZM17.2153 0.179688L19.0522 6.36719L19.3315 8H18.1392L15.4321 0.179688H17.2153Z" fill="#323232"/>
</svg>
