<svg width="25" height="25" viewBox="0 0 25 25" fill="none" xmlns="http://www.w3.org/2000/svg">
<path d="M20.0351 3.8405C19.9431 3.8405 19.8511 3.8175 19.7706 3.7715C17.5626 2.633 15.6536 2.15 13.3651 2.15C11.0881 2.15 8.92613 2.6905 6.95963 3.7715C6.68363 3.921 6.33863 3.8175 6.17763 3.5415C6.02813 3.2655 6.13163 2.909 6.40763 2.7595C8.54663 1.598 10.8926 1 13.3651 1C15.8146 1 17.9536 1.5405 20.2996 2.748C20.5871 2.8975 20.6906 3.2425 20.5411 3.5185C20.4376 3.7255 20.2421 3.8405 20.0351 3.8405ZM3.57863 9.878C3.46363 9.878 3.34863 9.8435 3.24513 9.7745C2.98063 9.5905 2.92313 9.234 3.10713 8.9695C4.24563 7.3595 5.69463 6.0945 7.41963 5.209C11.0306 3.346 15.6536 3.3345 19.2761 5.1975C21.0011 6.083 22.4501 7.3365 23.5886 8.935C23.7726 9.188 23.7151 9.556 23.4506 9.74C23.1861 9.924 22.8296 9.8665 22.6456 9.602C21.6106 8.153 20.2996 7.0145 18.7471 6.221C15.4466 4.5305 11.2261 4.5305 7.93713 6.2325C6.37313 7.0375 5.06213 8.1875 4.02713 9.6365C3.93513 9.7975 3.76263 9.878 3.57863 9.878ZM10.7661 23.7585C10.6166 23.7585 10.4671 23.701 10.3636 23.586C9.36313 22.5855 8.82263 21.9415 8.05213 20.55C7.25863 19.1355 6.84463 17.4105 6.84463 15.559C6.84463 12.1435 9.76563 9.3605 13.3536 9.3605C16.9416 9.3605 19.8626 12.1435 19.8626 15.559C19.8626 15.881 19.6096 16.134 19.2876 16.134C18.9656 16.134 18.7126 15.881 18.7126 15.559C18.7126 12.776 16.3091 10.5105 13.3536 10.5105C10.3981 10.5105 7.99463 12.776 7.99463 15.559C7.99463 17.215 8.36263 18.7445 9.06413 19.9865C9.80013 21.309 10.3061 21.8725 11.1916 22.7695C11.4101 22.9995 11.4101 23.356 11.1916 23.586C11.0651 23.701 10.9156 23.7585 10.7661 23.7585ZM19.0116 21.631C17.6431 21.631 16.4356 21.286 15.4466 20.6075C13.7331 19.446 12.7096 17.56 12.7096 15.559C12.7096 15.237 12.9626 14.984 13.2846 14.984C13.6066 14.984 13.8596 15.237 13.8596 15.559C13.8596 17.1805 14.6876 18.71 16.0906 19.653C16.9071 20.205 17.8616 20.4695 19.0116 20.4695C19.2876 20.4695 19.7476 20.435 20.2076 20.3545C20.5181 20.297 20.8171 20.504 20.8746 20.826C20.9321 21.1365 20.7251 21.4355 20.4031 21.493C19.7476 21.6195 19.1726 21.631 19.0116 21.631ZM16.7001 24C16.6541 24 16.5966 23.9885 16.5506 23.977C14.7221 23.471 13.5261 22.7925 12.2726 21.562C10.6626 19.9635 9.77713 17.836 9.77713 15.559C9.77713 13.696 11.3641 12.178 13.3191 12.178C15.2741 12.178 16.8611 13.696 16.8611 15.559C16.8611 16.7895 17.9306 17.79 19.2531 17.79C20.5756 17.79 21.6451 16.7895 21.6451 15.559C21.6451 11.2235 17.9076 7.7045 13.3076 7.7045C10.0416 7.7045 7.05163 9.5215 5.70613 12.339C5.25763 13.2705 5.02763 14.363 5.02763 15.559C5.02763 16.456 5.10813 17.8705 5.79813 19.7105C5.91313 20.0095 5.76363 20.343 5.46463 20.4465C5.16563 20.5615 4.83213 20.4005 4.72863 20.113C4.16513 18.6065 3.88913 17.1115 3.88913 15.559C3.88913 14.179 4.15363 12.9255 4.67113 11.833C6.20063 8.6245 9.59313 6.543 13.3076 6.543C18.5401 6.543 22.7951 10.5795 22.7951 15.5475C22.7951 17.4105 21.2081 18.9285 19.2531 18.9285C17.2981 18.9285 15.7111 17.4105 15.7111 15.5475C15.7111 14.317 14.6416 13.3165 13.3191 13.3165C11.9966 13.3165 10.9271 14.317 10.9271 15.5475C10.9271 17.514 11.6861 19.354 13.0776 20.734C14.1701 21.815 15.2166 22.413 16.8381 22.8615C17.1486 22.942 17.3211 23.264 17.2406 23.563C17.1831 23.8275 16.9416 24 16.7001 24Z" fill="#323232"/>
</svg>
