<svg width="25" height="25" viewBox="0 0 25 25" fill="none" xmlns="http://www.w3.org/2000/svg">
<path fill-rule="evenodd" clip-rule="evenodd" d="M0 12.5C0 5.59646 5.59646 0 12.5 0C19.4035 0 25 5.59646 25 12.5C25 19.4035 19.4035 25 12.5 25C5.59646 25 0 19.4035 0 12.5ZM12.482 9.17776C13.4976 9.17776 14.1828 9.61714 14.5734 9.98427L16.0999 8.49167C15.1623 7.61896 13.9423 7.08333 12.482 7.08333C10.3665 7.08333 8.53953 8.29906 7.65005 10.0685C7.28344 10.8028 7.07312 11.6273 7.07312 12.5C7.07312 13.3727 7.28344 14.1972 7.65005 14.9315L9.40495 13.5713L7.65604 14.9315C8.54552 16.7009 10.3665 17.9167 12.482 17.9167C13.9423 17.9167 15.1683 17.4352 16.0638 16.6046C17.0855 15.6597 17.6745 14.2694 17.6745 12.6204C17.6745 12.175 17.6384 11.85 17.5603 11.513H12.482V13.5231H15.4629C15.4028 14.0227 15.0782 14.775 14.357 15.2806C13.9003 15.5995 13.2873 15.8222 12.482 15.8222C11.0516 15.8222 9.83766 14.8773 9.40495 13.5713C9.29073 13.2343 9.22464 12.8731 9.22464 12.5C9.22464 12.1269 9.29073 11.7657 9.39891 11.4287C9.83766 10.1227 11.0516 9.17776 12.482 9.17776Z" fill="#323232"/>
</svg>
