<svg width="25" height="25" viewBox="0 0 25 25" fill="none" xmlns="http://www.w3.org/2000/svg">
<path d="M25 12.2687C25 7.71345 19.404 4 12.5004 4C5.59745 4 0.00143972 7.71363 0.00143972 12.2687C0.00143972 12.3867 0 12.7119 0 12.7531C0 17.5857 4.89124 21.4998 12.4989 21.4998C20.1538 21.4998 25 17.5871 25 12.7538C25 12.5852 25 12.4877 25 12.2687Z" fill="#323232"/>
<path d="M24.5214 12.265C24.5214 16.5598 19.1406 20.0414 12.5029 20.0414C5.86521 20.0414 0.484375 16.5598 0.484375 12.265C0.484375 7.96952 5.86521 4.48792 12.5029 4.48792C19.1406 4.48792 24.5214 7.96952 24.5214 12.265Z" fill="white"/>
<path d="M8.51202 9.81148C8.50571 9.8235 8.38615 9.94952 8.4634 10.0499C8.65337 10.2954 9.23929 10.4354 9.83152 10.301C10.1839 10.2212 10.6362 9.85773 11.0743 9.50569C11.5484 9.12433 12.0197 8.74297 12.493 8.5909C12.9938 8.42936 13.3152 8.49911 13.5277 8.56395C13.7605 8.6337 14.034 8.78869 14.4709 9.12033C15.293 9.74573 18.5997 12.6653 19.1709 13.1696C19.6317 12.9591 21.6763 12.069 24.4554 11.4495C24.2141 9.95116 23.3123 8.57961 21.9456 7.45702C20.0409 8.26654 17.7127 8.68925 15.4367 7.56447C15.4248 7.55955 14.1925 6.96966 12.9778 6.99898C11.1708 7.04087 10.3886 7.832 9.56071 8.66867L8.51202 9.81148Z" fill="white"/>
<path d="M19.0368 13.4865C18.9981 13.4517 15.1485 10.0448 14.277 9.38243C13.7719 8.99961 13.4914 8.90145 13.1966 8.86375C13.0432 8.84317 12.8309 8.87231 12.6831 8.91346C12.2772 9.0251 11.7469 9.3837 11.2757 9.76142C10.7883 10.1541 10.3282 10.5241 9.90199 10.6208C9.35694 10.7447 8.69142 10.5981 8.38766 10.391C8.26449 10.3071 8.17806 10.2103 8.13647 10.1122C8.02393 9.84902 8.23064 9.63831 8.26521 9.60352L9.32723 8.44104C9.45111 8.31647 9.57481 8.19208 9.70212 8.06897C9.35964 8.1145 9.04237 8.20265 8.73428 8.28952C8.34948 8.39915 7.97963 8.50296 7.60474 8.50296C7.44863 8.50296 6.61079 8.36419 6.45198 8.32012C5.49044 8.05404 4.64648 7.79506 3.38676 7.19971C1.87657 8.33723 0.86659 9.75869 0.574707 11.3244C0.792044 11.3827 1.14155 11.4879 1.28866 11.5207C4.70572 12.2891 5.7699 13.0808 5.96328 13.2467C6.17216 13.0112 6.47395 12.8626 6.81084 12.8626C7.18862 12.8633 7.52965 13.0547 7.73655 13.3521C7.9321 13.1957 8.20219 13.0625 8.55097 13.0625C8.70925 13.0625 8.87383 13.0924 9.03985 13.1494C9.42536 13.2831 9.62433 13.5428 9.72769 13.7776C9.85715 13.7185 10.0162 13.6752 10.2032 13.6757C10.3874 13.6757 10.5788 13.7176 10.7715 13.8023C11.4017 14.0755 11.4995 14.7016 11.4426 15.1731C11.4876 15.1682 11.5326 15.166 11.5784 15.166C12.3253 15.1668 12.933 15.7807 12.933 16.5369C12.933 16.7709 12.8739 16.9907 12.7706 17.1836C12.9739 17.2996 13.4923 17.5606 13.9473 17.5023C14.311 17.456 14.4488 17.3302 14.4981 17.2597C14.532 17.2113 14.5678 17.1544 14.5347 17.1138L13.5704 16.0304C13.5704 16.0304 13.4114 15.8781 13.4642 15.8199C13.5184 15.7594 13.6169 15.8463 13.6857 15.9045C14.1767 16.3192 14.7759 16.9446 14.7759 16.9446C14.7858 16.9517 14.8258 17.0308 15.0475 17.0712C15.2382 17.1054 15.5758 17.0854 15.8091 16.8913C15.8682 16.8421 15.9273 16.7811 15.9766 16.7177C15.973 16.7206 15.9696 16.7255 15.966 16.727C16.2121 16.4076 15.9386 16.0847 15.9386 16.0847L14.8125 14.8062C14.8125 14.8062 14.6521 14.6554 14.7063 14.5949C14.7554 14.5423 14.859 14.6219 14.9299 14.6811C15.2859 14.9826 15.7893 15.4935 16.2726 15.9716C16.3663 16.042 16.791 16.3074 17.3523 15.9339C17.6935 15.7077 17.7616 15.4301 17.7519 15.2203C17.7286 14.9429 17.5142 14.7452 17.5142 14.7452L15.9766 13.1815C15.9766 13.1815 15.8142 13.0412 15.8718 12.9702C15.919 12.9105 16.0245 12.9966 16.0933 13.0549C16.5829 13.4696 17.9094 14.6996 17.9094 14.6996C17.9283 14.7131 18.3862 15.0433 18.9525 14.6783C19.1551 14.5474 19.2846 14.3503 19.2957 14.1207C19.3146 13.7227 19.0368 13.4865 19.0368 13.4865Z" fill="white"/>
<path d="M11.5781 15.4693C11.3397 15.4664 11.0787 15.6095 11.0449 15.5888C11.026 15.576 11.0589 15.4791 11.0814 15.423C11.1047 15.3675 11.4183 14.4121 10.6531 14.0799C10.0671 13.8258 9.70918 14.112 9.58602 14.2414C9.55361 14.2757 9.53956 14.2728 9.53542 14.2294C9.52425 14.0573 9.44755 13.592 8.94247 13.4356C8.22005 13.2121 7.75513 13.7222 7.63701 13.9065C7.58425 13.4896 7.23673 13.1667 6.8098 13.166C6.34632 13.166 5.9707 13.5452 5.9707 14.014C5.96998 14.482 6.3456 14.8619 6.80908 14.8619C7.03416 14.8627 7.23817 14.7716 7.3887 14.6257C7.39356 14.6299 7.39572 14.6377 7.39284 14.6541C7.35773 14.8632 7.29291 15.6259 8.08213 15.9368C8.39868 16.0606 8.66805 15.9681 8.89097 15.8102C8.95706 15.7625 8.9684 15.7825 8.9585 15.8457C8.93041 16.0421 8.96624 16.4619 9.54856 16.7001C9.99098 16.8822 10.2533 16.6959 10.4249 16.5358C10.4995 16.4668 10.5198 16.4775 10.5234 16.5842C10.5445 17.1519 11.0109 17.6023 11.5764 17.603C12.1595 17.603 12.6321 17.1264 12.6321 16.5373C12.6332 15.9474 12.1613 15.4757 11.5781 15.4693Z" fill="white"/>
<path d="M11.5783 17.5267C11.05 17.526 10.6203 17.1106 10.6005 16.5819C10.5998 16.5363 10.5949 16.4154 10.4943 16.4154C10.4522 16.4154 10.4161 16.4411 10.3747 16.4788C10.2586 16.5877 10.1109 16.6986 9.89503 16.6986C9.79654 16.6986 9.6903 16.6751 9.57848 16.6289C9.01993 16.4005 9.01218 16.0127 9.03469 15.857C9.04099 15.8151 9.04316 15.7716 9.01507 15.7383L8.98067 15.7077H8.94628C8.91819 15.7077 8.88866 15.719 8.84923 15.7476C8.68753 15.8621 8.53268 15.9177 8.37512 15.9177C8.28869 15.9177 8.19992 15.8998 8.11061 15.865C7.37631 15.5762 7.43465 14.8747 7.47048 14.6641C7.47534 14.6208 7.4649 14.588 7.43807 14.566L7.38603 14.5226L7.33742 14.5696C7.19463 14.7091 7.00682 14.786 6.81055 14.786C6.3892 14.7852 6.04672 14.4396 6.04744 14.0141C6.04744 13.588 6.39064 13.243 6.81127 13.243C7.19175 13.243 7.51532 13.5326 7.56393 13.9167L7.59004 14.1238L7.70258 13.9488C7.71519 13.9282 8.02328 13.4565 8.5903 13.4572C8.69797 13.4572 8.80907 13.4743 8.92161 13.5098C9.37321 13.6494 9.44992 14.0633 9.4618 14.2361C9.46955 14.3365 9.54067 14.3414 9.55472 14.3414C9.59343 14.3414 9.62224 14.3165 9.64259 14.2944C9.72776 14.2048 9.9134 14.0555 10.2038 14.0555C10.3367 14.0555 10.4788 14.0875 10.6245 14.1507C11.3426 14.4623 11.017 15.385 11.0134 15.395C10.9515 15.548 10.9488 15.6155 11.0071 15.6547L11.0352 15.6682H11.0563C11.0887 15.6682 11.1287 15.654 11.1949 15.6312C11.2927 15.597 11.4403 15.5458 11.5783 15.5458H11.579C12.1192 15.5522 12.5587 15.9969 12.5587 16.5374C12.5582 17.0827 12.1185 17.5267 11.5783 17.5267ZM19.1859 13.0789C18 12.0325 15.2597 9.62284 14.5176 9.05881C14.0936 8.73646 13.8044 8.56581 13.5505 8.48969C13.4365 8.4549 13.2782 8.41501 13.075 8.41501C12.8864 8.41501 12.6839 8.44925 12.4721 8.51737C11.9924 8.67108 11.5149 9.05517 11.0519 9.42651L11.028 9.44564C10.5975 9.79203 10.1531 10.1499 9.81617 10.226C9.66923 10.2595 9.51798 10.2765 9.36745 10.2765C8.98968 10.2765 8.65134 10.1663 8.52403 10.0026C8.50296 9.97488 8.51629 9.93135 8.56545 9.86816L8.57247 9.8596L9.61558 8.7228C10.4322 7.89615 11.2037 7.11649 12.9806 7.07515C13.0094 7.07442 13.0397 7.07369 13.0692 7.07369C14.175 7.07442 15.2798 7.57526 15.4037 7.63281C16.4405 8.14438 17.511 8.40391 18.5865 8.40463C19.7078 8.40536 20.8647 8.12435 22.0808 7.55814C21.9451 7.44285 21.8037 7.33049 21.658 7.2203C20.5895 7.68835 19.5718 7.92529 18.5899 7.92529C17.5863 7.92383 16.5846 7.68052 15.6111 7.20045C15.5598 7.1755 14.3395 6.59362 13.0692 6.5929C13.0361 6.5929 13.0024 6.59362 12.9693 6.59435C11.4774 6.62914 10.6369 7.16567 10.0713 7.63517C9.52194 7.64865 9.04712 7.78251 8.62595 7.90198C8.24889 8.00725 7.92406 8.09904 7.60679 8.09904C7.47588 8.09904 7.24108 8.08702 7.22001 8.08629C6.85574 8.075 5.01784 7.61969 3.55609 7.05967C3.40699 7.16639 3.26348 7.27658 3.12357 7.38913C4.65051 8.02236 6.50894 8.51172 7.09559 8.55015C7.25873 8.56144 7.43249 8.58002 7.60625 8.58002C7.99447 8.58002 8.38142 8.47038 8.75631 8.36439C8.97725 8.30101 9.22124 8.23271 9.47873 8.18299C9.40976 8.25129 9.34152 8.32031 9.27256 8.38934L8.21324 9.5489C8.12951 9.63431 7.94801 9.86197 8.06757 10.1415C8.11547 10.2546 8.2118 10.3628 8.34685 10.4546C8.59858 10.6267 9.0509 10.7427 9.47153 10.7434C9.63052 10.7434 9.78177 10.727 9.92024 10.6957C10.3641 10.5946 10.8305 10.2191 11.3242 9.82208C11.7175 9.50628 12.2758 9.10489 12.7042 8.98687C12.8238 8.95409 12.9707 8.93351 13.0883 8.93351C13.1234 8.93424 13.1572 8.93497 13.1882 8.93989C13.4709 8.9754 13.7439 9.07284 14.232 9.44363C15.1021 10.1046 18.9517 13.5108 18.9897 13.545C18.9918 13.5472 19.2373 13.7606 19.2203 14.117C19.2112 14.3156 19.1022 14.492 18.913 14.6142C18.7484 14.7195 18.579 14.7729 18.4079 14.7729C18.1504 14.7729 17.9732 14.6505 17.9613 14.6426C17.9473 14.6306 16.6285 13.4077 16.1431 12.9965C16.0656 12.9318 15.9904 12.8733 15.9144 12.8733C15.8742 12.8733 15.8384 12.8905 15.8137 12.9218C15.7377 13.017 15.8229 13.1487 15.9241 13.2356L17.4645 14.8014C17.4667 14.8036 17.6565 14.9836 17.677 15.224C17.6896 15.4837 17.5666 15.7006 17.3113 15.87C17.1298 15.9909 16.9456 16.0528 16.7655 16.0528C16.5293 16.0528 16.3625 15.9432 16.326 15.9177L16.1051 15.6971C15.7014 15.2952 15.2842 14.8798 14.9789 14.6222C14.9044 14.5596 14.825 14.502 14.749 14.502C14.7117 14.502 14.6779 14.5155 14.6519 14.5434C14.6176 14.5825 14.5929 14.653 14.68 14.7696C14.7152 14.8173 14.7575 14.857 14.7575 14.857L15.8821 16.1348C15.8913 16.146 16.1135 16.4136 15.9075 16.6797L15.8674 16.7301C15.8342 16.7678 15.7977 16.8026 15.7633 16.8325C15.5714 16.9918 15.3153 17.0089 15.2139 17.0089C15.1597 17.0089 15.107 17.004 15.062 16.9955C14.9509 16.9756 14.8763 16.9443 14.8398 16.9008L14.8264 16.8866C14.7652 16.8224 14.1984 16.2371 13.7291 15.8415C13.6679 15.7889 13.5905 15.7228 13.5111 15.7228C13.4716 15.7228 13.4365 15.7385 13.4092 15.7691C13.3162 15.8714 13.4556 16.0251 13.5147 16.0821L14.474 17.1514C14.4726 17.1606 14.4607 17.1827 14.4375 17.2167C14.4031 17.2645 14.287 17.3825 13.9387 17.4265C13.8973 17.4322 13.8543 17.4344 13.8114 17.4344C13.4527 17.4344 13.0701 17.2579 12.8731 17.1526C12.9631 16.9605 13.0096 16.7492 13.0096 16.538C13.0096 15.739 12.3687 15.0896 11.5797 15.0896C11.5628 15.0896 11.5453 15.0896 11.5284 15.0903C11.5538 14.7261 11.503 14.036 10.8026 13.7322C10.6007 13.6441 10.3996 13.5993 10.2047 13.5993C10.0513 13.5993 9.9044 13.6257 9.76647 13.679C9.6208 13.3938 9.38023 13.186 9.06584 13.0779C8.89208 13.0174 8.71904 12.9861 8.5523 12.9861C8.26042 12.9861 7.99249 13.0729 7.75264 13.245C7.52342 12.9569 7.17662 12.7856 6.81145 12.7856C6.4922 12.7856 6.18483 12.915 5.95759 13.1434C5.65868 12.9129 4.47495 12.1518 1.30547 11.424C1.15206 11.3892 0.800395 11.2867 0.584499 11.2233C0.548666 11.3962 0.521116 11.5719 0.50293 11.7491C0.50293 11.7491 1.08742 11.8906 1.20284 11.917C4.44038 12.644 5.50959 13.4004 5.6911 13.5434C5.62915 13.692 5.59746 13.8521 5.59746 14.0143C5.59674 14.6902 6.14125 15.2415 6.81001 15.2422C6.88528 15.2422 6.95982 15.2351 7.03221 15.2216C7.1334 15.7195 7.45572 16.0974 7.94729 16.2908C8.09152 16.3464 8.23701 16.3755 8.3798 16.3755C8.472 16.3755 8.56545 16.3642 8.6562 16.3407C8.74695 16.574 8.95168 16.8651 9.40886 17.0528C9.5693 17.1182 9.72956 17.1524 9.88513 17.1524C10.0124 17.1524 10.1369 17.1297 10.2559 17.0856C10.4747 17.6256 10.9965 17.9827 11.5775 17.9827C11.9631 17.9835 12.3329 17.8248 12.603 17.5438C12.8337 17.674 13.3211 17.9088 13.8136 17.9095C13.8775 17.9095 13.9375 17.9046 13.9972 17.8975C14.4868 17.8356 14.7139 17.6414 14.8187 17.4914C14.8376 17.465 14.8545 17.4373 14.8693 17.4081C14.9847 17.4424 15.1113 17.4693 15.2568 17.4701C15.524 17.4701 15.7808 17.3775 16.0397 17.1861C16.2943 17.0011 16.4751 16.7345 16.501 16.5074C16.5017 16.5037 16.5025 16.501 16.5032 16.4974C16.5884 16.5152 16.6769 16.5243 16.7648 16.5243C17.0398 16.5243 17.3099 16.4374 17.5688 16.2661C18.0676 15.9361 18.154 15.5041 18.1463 15.2211C18.2327 15.2396 18.3222 15.2487 18.4108 15.2487C18.669 15.2487 18.9229 15.1704 19.1642 15.0147C19.4737 14.8147 19.6593 14.509 19.6874 14.1526C19.707 13.9107 19.648 13.6667 19.5214 13.4569C20.3571 13.0926 22.2666 12.3883 24.5153 11.8753C24.502 11.6988 24.4766 11.5245 24.4456 11.351C21.7252 11.9613 19.6946 12.8498 19.1859 13.0789Z" fill="#323232"/>
</svg>
