<svg width="25" height="26" viewBox="0 0 25 26" fill="none" xmlns="http://www.w3.org/2000/svg">
<path d="M25 16.2687C25 11.7134 19.404 8 12.5004 8C5.59745 8 0.00143972 11.7136 0.00143972 16.2687C0.00143972 16.3867 0 16.7119 0 16.7531C0 21.5857 4.89124 25.4998 12.4989 25.4998C20.1538 25.4998 25 21.5871 25 16.7538C25 16.5852 25 16.4877 25 16.2687Z" fill="#323232"/>
<path d="M24.5214 16.265C24.5214 20.5598 19.1406 24.0414 12.5029 24.0414C5.86521 24.0414 0.484375 20.5598 0.484375 16.265C0.484375 11.9695 5.86521 8.48792 12.5029 8.48792C19.1406 8.48792 24.5214 11.9695 24.5214 16.265Z" fill="white"/>
<path d="M8.51202 13.8115C8.50571 13.8235 8.38615 13.9495 8.4634 14.0499C8.65337 14.2954 9.23929 14.4354 9.83152 14.301C10.1839 14.2212 10.6362 13.8577 11.0743 13.5057C11.5484 13.1243 12.0197 12.743 12.493 12.5909C12.9938 12.4294 13.3152 12.4991 13.5277 12.5639C13.7605 12.6337 14.034 12.7887 14.4709 13.1203C15.293 13.7457 18.5997 16.6653 19.1709 17.1696C19.6317 16.9591 21.6763 16.069 24.4554 15.4495C24.2141 13.9512 23.3123 12.5796 21.9456 11.457C20.0409 12.2665 17.7127 12.6892 15.4367 11.5645C15.4248 11.5596 14.1925 10.9697 12.9778 10.999C11.1708 11.0409 10.3886 11.832 9.56071 12.6687L8.51202 13.8115Z" fill="white"/>
<path d="M19.0368 17.4865C18.9981 17.4517 15.1485 14.0448 14.277 13.3824C13.7719 12.9996 13.4914 12.9014 13.1966 12.8637C13.0432 12.8432 12.8309 12.8723 12.6831 12.9135C12.2772 13.0251 11.7469 13.3837 11.2757 13.7614C10.7883 14.1541 10.3282 14.5241 9.90199 14.6208C9.35694 14.7447 8.69142 14.5981 8.38766 14.391C8.26449 14.3071 8.17806 14.2103 8.13647 14.1122C8.02393 13.849 8.23064 13.6383 8.26521 13.6035L9.32723 12.441C9.45111 12.3165 9.57481 12.1921 9.70212 12.069C9.35964 12.1145 9.04237 12.2026 8.73428 12.2895C8.34948 12.3992 7.97963 12.503 7.60474 12.503C7.44863 12.503 6.61079 12.3642 6.45198 12.3201C5.49044 12.054 4.64648 11.7951 3.38676 11.1997C1.87657 12.3372 0.86659 13.7587 0.574707 15.3244C0.792044 15.3827 1.14155 15.4879 1.28866 15.5207C4.70572 16.2891 5.7699 17.0808 5.96328 17.2467C6.17216 17.0112 6.47395 16.8626 6.81084 16.8626C7.18862 16.8633 7.52965 17.0547 7.73655 17.3521C7.9321 17.1957 8.20219 17.0625 8.55097 17.0625C8.70925 17.0625 8.87383 17.0924 9.03985 17.1494C9.42536 17.2831 9.62433 17.5428 9.72769 17.7776C9.85715 17.7185 10.0162 17.6752 10.2032 17.6757C10.3874 17.6757 10.5788 17.7176 10.7715 17.8023C11.4017 18.0755 11.4995 18.7016 11.4426 19.1731C11.4876 19.1682 11.5326 19.166 11.5784 19.166C12.3253 19.1668 12.933 19.7807 12.933 20.5369C12.933 20.7709 12.8739 20.9907 12.7706 21.1836C12.9739 21.2996 13.4923 21.5606 13.9473 21.5023C14.311 21.456 14.4488 21.3302 14.4981 21.2597C14.532 21.2113 14.5678 21.1544 14.5347 21.1138L13.5704 20.0304C13.5704 20.0304 13.4114 19.8781 13.4642 19.8199C13.5184 19.7594 13.6169 19.8463 13.6857 19.9045C14.1767 20.3192 14.7759 20.9446 14.7759 20.9446C14.7858 20.9517 14.8258 21.0308 15.0475 21.0712C15.2382 21.1054 15.5758 21.0854 15.8091 20.8913C15.8682 20.8421 15.9273 20.7811 15.9766 20.7177C15.973 20.7206 15.9696 20.7255 15.966 20.727C16.2121 20.4076 15.9386 20.0847 15.9386 20.0847L14.8125 18.8062C14.8125 18.8062 14.6521 18.6554 14.7063 18.5949C14.7554 18.5423 14.859 18.6219 14.9299 18.6811C15.2859 18.9826 15.7893 19.4935 16.2726 19.9716C16.3663 20.042 16.791 20.3074 17.3523 19.9339C17.6935 19.7077 17.7616 19.4301 17.7519 19.2203C17.7286 18.9429 17.5142 18.7452 17.5142 18.7452L15.9766 17.1815C15.9766 17.1815 15.8142 17.0412 15.8718 16.9702C15.919 16.9105 16.0245 16.9966 16.0933 17.0549C16.5829 17.4696 17.9094 18.6996 17.9094 18.6996C17.9283 18.7131 18.3862 19.0433 18.9525 18.6783C19.1551 18.5474 19.2846 18.3503 19.2957 18.1207C19.3146 17.7227 19.0368 17.4865 19.0368 17.4865Z" fill="white"/>
<path d="M11.5781 19.4693C11.3397 19.4664 11.0787 19.6095 11.0449 19.5888C11.026 19.576 11.0589 19.4791 11.0814 19.423C11.1047 19.3675 11.4183 18.4121 10.6531 18.0799C10.0671 17.8258 9.70918 18.112 9.58602 18.2414C9.55361 18.2757 9.53956 18.2728 9.53542 18.2294C9.52425 18.0573 9.44755 17.592 8.94247 17.4356C8.22005 17.2121 7.75513 17.7222 7.63701 17.9065C7.58425 17.4896 7.23673 17.1667 6.8098 17.166C6.34632 17.166 5.9707 17.5452 5.9707 18.014C5.96998 18.482 6.3456 18.8619 6.80908 18.8619C7.03416 18.8627 7.23817 18.7716 7.3887 18.6257C7.39356 18.6299 7.39572 18.6377 7.39284 18.6541C7.35773 18.8632 7.29291 19.6259 8.08213 19.9368C8.39868 20.0606 8.66805 19.9681 8.89097 19.8102C8.95706 19.7625 8.9684 19.7825 8.9585 19.8457C8.93041 20.0421 8.96624 20.4619 9.54856 20.7001C9.99098 20.8822 10.2533 20.6959 10.4249 20.5358C10.4995 20.4668 10.5198 20.4775 10.5234 20.5842C10.5445 21.1519 11.0109 21.6023 11.5764 21.603C12.1595 21.603 12.6321 21.1264 12.6321 20.5373C12.6332 19.9474 12.1613 19.4757 11.5781 19.4693Z" fill="white"/>
<path d="M11.5783 21.5267C11.05 21.526 10.6203 21.1106 10.6005 20.5819C10.5998 20.5363 10.5949 20.4154 10.4943 20.4154C10.4522 20.4154 10.4161 20.4411 10.3747 20.4788C10.2586 20.5877 10.1109 20.6986 9.89503 20.6986C9.79654 20.6986 9.6903 20.6751 9.57848 20.6289C9.01993 20.4005 9.01218 20.0127 9.03469 19.857C9.04099 19.8151 9.04316 19.7716 9.01507 19.7383L8.98067 19.7077H8.94628C8.91819 19.7077 8.88866 19.719 8.84923 19.7476C8.68753 19.8621 8.53268 19.9177 8.37512 19.9177C8.28869 19.9177 8.19992 19.8998 8.11061 19.865C7.37631 19.5762 7.43465 18.8747 7.47048 18.6641C7.47534 18.6208 7.4649 18.588 7.43807 18.566L7.38603 18.5226L7.33742 18.5696C7.19463 18.7091 7.00682 18.786 6.81055 18.786C6.3892 18.7852 6.04672 18.4396 6.04744 18.0141C6.04744 17.588 6.39064 17.243 6.81127 17.243C7.19175 17.243 7.51532 17.5326 7.56393 17.9167L7.59004 18.1238L7.70258 17.9488C7.71519 17.9282 8.02328 17.4565 8.5903 17.4572C8.69797 17.4572 8.80907 17.4743 8.92161 17.5098C9.37321 17.6494 9.44992 18.0633 9.4618 18.2361C9.46955 18.3365 9.54067 18.3414 9.55472 18.3414C9.59343 18.3414 9.62224 18.3165 9.64259 18.2944C9.72776 18.2048 9.9134 18.0555 10.2038 18.0555C10.3367 18.0555 10.4788 18.0875 10.6245 18.1507C11.3426 18.4623 11.017 19.385 11.0134 19.395C10.9515 19.548 10.9488 19.6155 11.0071 19.6547L11.0352 19.6682H11.0563C11.0887 19.6682 11.1287 19.654 11.1949 19.6312C11.2927 19.597 11.4403 19.5458 11.5783 19.5458H11.579C12.1192 19.5522 12.5587 19.9969 12.5587 20.5374C12.5582 21.0827 12.1185 21.5267 11.5783 21.5267ZM19.1859 17.0789C18 16.0325 15.2597 13.6228 14.5176 13.0588C14.0936 12.7365 13.8044 12.5658 13.5505 12.4897C13.4365 12.4549 13.2782 12.415 13.075 12.415C12.8864 12.415 12.6839 12.4493 12.4721 12.5174C11.9924 12.6711 11.5149 13.0552 11.0519 13.4265L11.028 13.4456C10.5975 13.792 10.1531 14.1499 9.81617 14.226C9.66923 14.2595 9.51798 14.2765 9.36745 14.2765C8.98968 14.2765 8.65134 14.1663 8.52403 14.0026C8.50296 13.9749 8.51629 13.9314 8.56545 13.8682L8.57247 13.8596L9.61558 12.7228C10.4322 11.8962 11.2037 11.1165 12.9806 11.0752C13.0094 11.0744 13.0397 11.0737 13.0692 11.0737C14.175 11.0744 15.2798 11.5753 15.4037 11.6328C16.4405 12.1444 17.511 12.4039 18.5865 12.4046C19.7078 12.4054 20.8647 12.1243 22.0808 11.5581C21.9451 11.4429 21.8037 11.3305 21.658 11.2203C20.5895 11.6884 19.5718 11.9253 18.5899 11.9253C17.5863 11.9238 16.5846 11.6805 15.6111 11.2005C15.5598 11.1755 14.3395 10.5936 13.0692 10.5929C13.0361 10.5929 13.0024 10.5936 12.9693 10.5944C11.4774 10.6291 10.6369 11.1657 10.0713 11.6352C9.52194 11.6487 9.04712 11.7825 8.62595 11.902C8.24889 12.0072 7.92406 12.099 7.60679 12.099C7.47588 12.099 7.24108 12.087 7.22001 12.0863C6.85574 12.075 5.01784 11.6197 3.55609 11.0597C3.40699 11.1664 3.26348 11.2766 3.12357 11.3891C4.65051 12.0224 6.50894 12.5117 7.09559 12.5501C7.25873 12.5614 7.43249 12.58 7.60625 12.58C7.99447 12.58 8.38142 12.4704 8.75631 12.3644C8.97725 12.301 9.22124 12.2327 9.47873 12.183C9.40976 12.2513 9.34152 12.3203 9.27256 12.3893L8.21324 13.5489C8.12951 13.6343 7.94801 13.862 8.06757 14.1415C8.11547 14.2546 8.2118 14.3628 8.34685 14.4546C8.59858 14.6267 9.0509 14.7427 9.47153 14.7434C9.63052 14.7434 9.78177 14.727 9.92024 14.6957C10.3641 14.5946 10.8305 14.2191 11.3242 13.8221C11.7175 13.5063 12.2758 13.1049 12.7042 12.9869C12.8238 12.9541 12.9707 12.9335 13.0883 12.9335C13.1234 12.9342 13.1572 12.935 13.1882 12.9399C13.4709 12.9754 13.7439 13.0728 14.232 13.4436C15.1021 14.1046 18.9517 17.5108 18.9897 17.545C18.9918 17.5472 19.2373 17.7606 19.2203 18.117C19.2112 18.3156 19.1022 18.492 18.913 18.6142C18.7484 18.7195 18.579 18.7729 18.4079 18.7729C18.1504 18.7729 17.9732 18.6505 17.9613 18.6426C17.9473 18.6306 16.6285 17.4077 16.1431 16.9965C16.0656 16.9318 15.9904 16.8733 15.9144 16.8733C15.8742 16.8733 15.8384 16.8905 15.8137 16.9218C15.7377 17.017 15.8229 17.1487 15.9241 17.2356L17.4645 18.8014C17.4667 18.8036 17.6565 18.9836 17.677 19.224C17.6896 19.4837 17.5666 19.7006 17.3113 19.87C17.1298 19.9909 16.9456 20.0528 16.7655 20.0528C16.5293 20.0528 16.3625 19.9432 16.326 19.9177L16.1051 19.6971C15.7014 19.2952 15.2842 18.8798 14.9789 18.6222C14.9044 18.5596 14.825 18.502 14.749 18.502C14.7117 18.502 14.6779 18.5155 14.6519 18.5434C14.6176 18.5825 14.5929 18.653 14.68 18.7696C14.7152 18.8173 14.7575 18.857 14.7575 18.857L15.8821 20.1348C15.8913 20.146 16.1135 20.4136 15.9075 20.6797L15.8674 20.7301C15.8342 20.7678 15.7977 20.8026 15.7633 20.8325C15.5714 20.9918 15.3153 21.0089 15.2139 21.0089C15.1597 21.0089 15.107 21.004 15.062 20.9955C14.9509 20.9756 14.8763 20.9443 14.8398 20.9008L14.8264 20.8866C14.7652 20.8224 14.1984 20.2371 13.7291 19.8415C13.6679 19.7889 13.5905 19.7228 13.5111 19.7228C13.4716 19.7228 13.4365 19.7385 13.4092 19.7691C13.3162 19.8714 13.4556 20.0251 13.5147 20.0821L14.474 21.1514C14.4726 21.1606 14.4607 21.1827 14.4375 21.2167C14.4031 21.2645 14.287 21.3825 13.9387 21.4265C13.8973 21.4322 13.8543 21.4344 13.8114 21.4344C13.4527 21.4344 13.0701 21.2579 12.8731 21.1526C12.9631 20.9605 13.0096 20.7492 13.0096 20.538C13.0096 19.739 12.3687 19.0896 11.5797 19.0896C11.5628 19.0896 11.5453 19.0896 11.5284 19.0903C11.5538 18.7261 11.503 18.036 10.8026 17.7322C10.6007 17.6441 10.3996 17.5993 10.2047 17.5993C10.0513 17.5993 9.9044 17.6257 9.76647 17.679C9.6208 17.3938 9.38023 17.186 9.06584 17.0779C8.89208 17.0174 8.71904 16.9861 8.5523 16.9861C8.26042 16.9861 7.99249 17.0729 7.75264 17.245C7.52342 16.9569 7.17662 16.7856 6.81145 16.7856C6.4922 16.7856 6.18483 16.915 5.95759 17.1434C5.65868 16.9129 4.47495 16.1518 1.30547 15.424C1.15206 15.3892 0.800395 15.2867 0.584499 15.2233C0.548666 15.3962 0.521116 15.5719 0.50293 15.7491C0.50293 15.7491 1.08742 15.8906 1.20284 15.917C4.44038 16.644 5.50959 17.4004 5.6911 17.5434C5.62915 17.692 5.59746 17.8521 5.59746 18.0143C5.59674 18.6902 6.14125 19.2415 6.81001 19.2422C6.88528 19.2422 6.95982 19.2351 7.03221 19.2216C7.1334 19.7195 7.45572 20.0974 7.94729 20.2908C8.09152 20.3464 8.23701 20.3755 8.3798 20.3755C8.472 20.3755 8.56545 20.3642 8.6562 20.3407C8.74695 20.574 8.95168 20.8651 9.40886 21.0528C9.5693 21.1182 9.72956 21.1524 9.88513 21.1524C10.0124 21.1524 10.1369 21.1297 10.2559 21.0856C10.4747 21.6256 10.9965 21.9827 11.5775 21.9827C11.9631 21.9835 12.3329 21.8248 12.603 21.5438C12.8337 21.674 13.3211 21.9088 13.8136 21.9095C13.8775 21.9095 13.9375 21.9046 13.9972 21.8975C14.4868 21.8356 14.7139 21.6414 14.8187 21.4914C14.8376 21.465 14.8545 21.4373 14.8693 21.4081C14.9847 21.4424 15.1113 21.4693 15.2568 21.4701C15.524 21.4701 15.7808 21.3775 16.0397 21.1861C16.2943 21.0011 16.4751 20.7345 16.501 20.5074C16.5017 20.5037 16.5025 20.501 16.5032 20.4974C16.5884 20.5152 16.6769 20.5243 16.7648 20.5243C17.0398 20.5243 17.3099 20.4374 17.5688 20.2661C18.0676 19.9361 18.154 19.5041 18.1463 19.2211C18.2327 19.2396 18.3222 19.2487 18.4108 19.2487C18.669 19.2487 18.9229 19.1704 19.1642 19.0147C19.4737 18.8147 19.6593 18.509 19.6874 18.1526C19.707 17.9107 19.648 17.6667 19.5214 17.4569C20.3571 17.0926 22.2666 16.3883 24.5153 15.8753C24.502 15.6988 24.4766 15.5245 24.4456 15.351C21.7252 15.9613 19.6946 16.8498 19.1859 17.0789Z" fill="#323232"/>
<path d="M13 0L13.8981 2.76393H16.8042L14.4531 4.47214L15.3511 7.23607L13 5.52786L10.6489 7.23607L11.5469 4.47214L9.19577 2.76393H12.1019L13 0Z" fill="#323232"/>
</svg>
