<svg width="26" height="25" viewBox="0 0 26 25" fill="none" xmlns="http://www.w3.org/2000/svg">
<path d="M5.34211 17.6232L2.93725 24.8798H1L4.28543 16.1263H5.51822L5.34211 17.6232ZM7.34008 24.8798L4.92915 17.6232L4.73482 16.1263H5.97976L9.2834 24.8798H7.34008ZM7.23077 21.6212V23.0341H2.56073V21.6212H7.23077Z" fill="#323232"/>
<path d="M13.5648 21.0381H11.2935L11.2814 19.7996H13.1883C13.5243 19.7996 13.7996 19.7575 14.0142 19.6733C14.2287 19.5852 14.3887 19.4589 14.4939 19.2946C14.6032 19.1263 14.6579 18.9218 14.6579 18.6814C14.6579 18.4088 14.6053 18.1884 14.5 18.02C14.3988 17.8517 14.2389 17.7295 14.0202 17.6533C13.8057 17.5772 13.5283 17.5391 13.1883 17.5391H11.9251V24.8798H10.1032V16.1263H13.1883C13.7024 16.1263 14.1619 16.1743 14.5668 16.2705C14.9757 16.3667 15.3219 16.513 15.6053 16.7094C15.8887 16.9058 16.1053 17.1543 16.2551 17.4549C16.4049 17.7515 16.4798 18.1042 16.4798 18.513C16.4798 18.8737 16.3968 19.2064 16.2308 19.511C16.0688 19.8156 15.8117 20.0641 15.4595 20.2565C15.1113 20.4489 14.6559 20.5551 14.0931 20.5752L13.5648 21.0381ZM13.4858 24.8798H10.7955L11.5061 23.4729H13.4858C13.8057 23.4729 14.0668 23.4228 14.2692 23.3226C14.4717 23.2184 14.6215 23.0782 14.7186 22.9018C14.8158 22.7255 14.8644 22.523 14.8644 22.2946C14.8644 22.0381 14.8198 21.8156 14.7308 21.6273C14.6458 21.4389 14.5081 21.2946 14.3178 21.1944C14.1275 21.0902 13.8765 21.0381 13.5648 21.0381H11.8097L11.8219 19.7996H14.0081L14.4271 20.2866C14.9656 20.2786 15.3988 20.3727 15.7267 20.5691C16.0587 20.7615 16.2996 21.012 16.4494 21.3206C16.6032 21.6293 16.6802 21.9599 16.6802 22.3126C16.6802 22.8737 16.5567 23.3467 16.3097 23.7315C16.0628 24.1122 15.7004 24.3988 15.2227 24.5912C14.749 24.7836 14.17 24.8798 13.4858 24.8798Z" fill="#323232"/>
<path d="M23.1721 21.976H24.9879C24.9514 22.5651 24.7875 23.0882 24.496 23.5451C24.2085 24.002 23.8057 24.3587 23.2875 24.6152C22.7733 24.8717 22.1538 25 21.4292 25C20.8623 25 20.3543 24.9038 19.9049 24.7114C19.4555 24.515 19.0709 24.2345 18.751 23.8697C18.4352 23.505 18.1943 23.0641 18.0283 22.5471C17.8623 22.0301 17.7794 21.4509 17.7794 20.8096V20.2024C17.7794 19.5611 17.8644 18.982 18.0344 18.4649C18.2085 17.9439 18.4555 17.501 18.7753 17.1363C19.0992 16.7715 19.4858 16.491 19.9352 16.2946C20.3846 16.0982 20.8866 16 21.4413 16C22.1781 16 22.7996 16.1323 23.3057 16.3968C23.8158 16.6613 24.2105 17.0261 24.4899 17.491C24.7733 17.9559 24.9433 18.485 25 19.0782H23.1781C23.1579 18.7255 23.087 18.4269 22.9656 18.1824C22.8441 17.9339 22.6599 17.7475 22.413 17.6232C22.17 17.495 21.8462 17.4309 21.4413 17.4309C21.1377 17.4309 20.8725 17.487 20.6458 17.5992C20.419 17.7114 20.2287 17.8818 20.0749 18.1102C19.9211 18.3387 19.8057 18.6273 19.7287 18.976C19.6559 19.3206 19.6194 19.7255 19.6194 20.1904V20.8096C19.6194 21.2625 19.6538 21.6613 19.7227 22.006C19.7915 22.3467 19.8968 22.6353 20.0385 22.8717C20.1842 23.1042 20.3704 23.2806 20.5972 23.4008C20.8279 23.517 21.1053 23.5752 21.4292 23.5752C21.8097 23.5752 22.1235 23.515 22.3704 23.3948C22.6174 23.2745 22.8057 23.0962 22.9352 22.8597C23.0688 22.6232 23.1478 22.3287 23.1721 21.976Z" fill="#323232"/>
<path d="M23.6071 6.02295C23.4148 5.77706 18.834 0 13.0003 0C7.16603 0 2.58517 5.77706 2.39293 6.02295L2 6.52588L2.39293 7.02881C2.58517 7.2747 7.16603 13.052 13.0003 13.052C18.834 13.052 23.4148 7.2747 23.6071 7.02881L24 6.52588L23.6071 6.02295ZM13.0003 11.4185C8.89729 11.4185 5.31604 7.86613 4.11167 6.52615C5.31658 5.1859 8.89757 1.63406 13.0003 1.63406C17.1027 1.63406 20.684 5.18618 21.8886 6.52615C20.6834 7.8664 17.1024 11.4185 13.0003 11.4185Z" fill="#323232"/>
<path d="M13.0003 2.05664C10.5355 2.05664 8.53027 4.06157 8.53027 6.52613C8.53027 8.99124 10.5355 10.9964 13.0003 10.9964C15.4651 10.9964 17.4703 8.99124 17.4703 6.52613C17.4703 4.06157 15.4651 2.05664 13.0003 2.05664ZM13.0003 9.36238C11.4362 9.36238 10.1641 8.08993 10.1641 6.52586C10.1641 4.96233 11.4362 3.69015 13.0003 3.69015C14.5641 3.69015 15.8366 4.96233 15.8366 6.52586C15.8366 8.08993 14.5641 9.36238 13.0003 9.36238Z" fill="#323232"/>
</svg>
