<svg width="25" height="25" viewBox="0 0 25 25" fill="none" xmlns="http://www.w3.org/2000/svg">
<path fill-rule="evenodd" clip-rule="evenodd" d="M5.66406 19.4963C5.66406 19.0326 6.03994 18.6567 6.50361 18.6567H14.6659C15.1296 18.6567 15.5055 19.0326 15.5055 19.4963C15.5055 19.96 15.1296 20.3358 14.6659 20.3358H6.50361C6.03994 20.3358 5.66406 19.96 5.66406 19.4963Z" fill="#323232"/>
<path fill-rule="evenodd" clip-rule="evenodd" d="M5.66406 14.832C5.66406 14.3683 6.03994 13.9924 6.50361 13.9924H7.66966C8.13333 13.9924 8.50921 14.3683 8.50921 14.832C8.50921 15.2957 8.13333 15.6715 7.66966 15.6715H6.50361C6.03994 15.6715 5.66406 15.2957 5.66406 14.832Z" fill="#323232"/>
<path fill-rule="evenodd" clip-rule="evenodd" d="M5.66406 10.1679C5.66406 9.70425 6.03994 9.32837 6.50361 9.32837H10.0017C10.4654 9.32837 10.8413 9.70425 10.8413 10.1679C10.8413 10.6316 10.4654 11.0075 10.0017 11.0075H6.50361C6.03994 11.0075 5.66406 10.6316 5.66406 10.1679Z" fill="#323232"/>
<path fill-rule="evenodd" clip-rule="evenodd" d="M5.66406 0.839552C5.66406 0.37588 6.03994 0 6.50361 0H17.581C17.8037 0 18.0172 0.0884526 18.1747 0.245899L23.4219 5.4931C23.5793 5.65055 23.6678 5.86409 23.6678 6.08675V20.6623C23.6678 21.126 23.2919 21.5019 22.8282 21.5019C22.3646 21.5019 21.9887 21.126 21.9887 20.6623V6.43451L17.2333 1.6791H6.50361C6.03994 1.6791 5.66406 1.30322 5.66406 0.839552Z" fill="#323232"/>
<path fill-rule="evenodd" clip-rule="evenodd" d="M3.58862 5.17715C3.0863 5.17715 2.6791 5.58435 2.6791 6.08667V22.4113C2.6791 22.9136 3.08632 23.3208 3.58862 23.3208H17.5812C18.0834 23.3208 18.4907 22.9136 18.4907 22.4113V8.76646L14.9013 5.17715H3.58862ZM14.8602 5.13609L14.8603 5.13618C14.8603 5.13615 14.8602 5.13612 14.8602 5.13609ZM1 6.08667C1 4.65701 2.15896 3.49805 3.58862 3.49805H14.9593C15.3675 3.49805 15.7589 3.66019 16.0476 3.94886C16.0476 3.94889 16.0476 3.94892 16.0477 3.94895L19.719 7.62017L19.7191 7.62026C20.0077 7.90893 20.1698 8.30039 20.1698 8.70855V22.4113C20.1698 23.8409 19.0108 24.9999 17.5812 24.9999H3.58862C2.15895 24.9999 1 23.8409 1 22.4113V6.08667Z" fill="#323232"/>
<path d="M14.666 8.3022V4.7499C14.666 4.52222 14.8506 4.33765 15.0783 4.33765C15.1876 4.33765 15.2924 4.38108 15.3698 4.45839L19.2094 8.29806C19.2868 8.37537 19.3302 8.48023 19.3302 8.58957C19.3302 8.81725 19.1456 9.00183 18.9179 9.00183H15.3656C14.9792 9.00183 14.666 8.68859 14.666 8.3022Z" fill="#323232"/>
<path fill-rule="evenodd" clip-rule="evenodd" d="M15.5058 5.7814L17.8865 8.16223H15.5058V5.7814ZM13.8267 4.74985C13.8267 4.05841 14.3872 3.49805 15.0785 3.49805C15.4107 3.49805 15.7287 3.6301 15.9632 3.86424L19.8028 7.70391C20.038 7.93899 20.1699 8.25799 20.1699 8.58952C20.1699 9.28097 19.6094 9.84133 18.9181 9.84133H15.3658C14.5157 9.84133 13.8267 9.15219 13.8267 8.30215V4.74985Z" fill="#323232"/>
</svg>
