<svg width="25" height="25" viewBox="0 0 25 25" fill="none" xmlns="http://www.w3.org/2000/svg">
<path d="M19.6875 2.5H2.8125C2.06658 2.5 1.35121 2.79632 0.823762 3.32376C0.296316 3.85121 0 4.56658 0 5.3125L0 22.1875C0 22.9334 0.296316 23.6488 0.823762 24.1762C1.35121 24.7037 2.06658 25 2.8125 25H19.6875C20.4334 25 21.1488 24.7037 21.6762 24.1762C22.2037 23.6488 22.5 22.9334 22.5 22.1875V5.3125C22.5 4.56658 22.2037 3.85121 21.6762 3.32376C21.1488 2.79632 20.4334 2.5 19.6875 2.5V2.5ZM2.8125 4.375H19.6875C19.9361 4.375 20.1746 4.47377 20.3504 4.64959C20.5262 4.8254 20.625 5.06386 20.625 5.3125V17.3687L13.2938 11.2656C12.454 10.5686 11.3997 10.1824 10.3084 10.1722C9.21719 10.1619 8.15577 10.5282 7.30312 11.2094L1.875 15.55V5.3125C1.875 5.06386 1.97377 4.8254 2.14959 4.64959C2.3254 4.47377 2.56386 4.375 2.8125 4.375V4.375ZM19.6875 23.125H2.8125C2.56386 23.125 2.3254 23.0262 2.14959 22.8504C1.97377 22.6746 1.875 22.4361 1.875 22.1875V17.95L8.4375 12.6719C8.94891 12.2562 9.58785 12.0293 10.2469 12.0293C10.9059 12.0293 11.5448 12.2562 12.0562 12.6719L20.625 19.8156V22.1875C20.625 22.4361 20.5262 22.6746 20.3504 22.8504C20.1746 23.0262 19.9361 23.125 19.6875 23.125Z" fill="black"/>
<path d="M16.875 10.9375C17.4313 10.9375 17.975 10.7726 18.4375 10.4635C18.9001 10.1545 19.2605 9.71522 19.4734 9.2013C19.6863 8.68738 19.742 8.12188 19.6335 7.57631C19.5249 7.03074 19.2571 6.5296 18.8637 6.13626C18.4704 5.74293 17.9693 5.47506 17.4237 5.36654C16.8781 5.25802 16.3126 5.31372 15.7987 5.52659C15.2848 5.73946 14.8455 6.09995 14.5365 6.56246C14.2275 7.02497 14.0625 7.56874 14.0625 8.125C14.0625 8.87092 14.3588 9.58629 14.8863 10.1137C15.4137 10.6412 16.1291 10.9375 16.875 10.9375ZM16.875 7.1875C17.0604 7.1875 17.2417 7.24248 17.3958 7.3455C17.55 7.44851 17.6702 7.59493 17.7411 7.76624C17.8121 7.93754 17.8307 8.12604 17.7945 8.3079C17.7583 8.48976 17.669 8.6568 17.5379 8.78791C17.4068 8.91903 17.2398 9.00831 17.0579 9.04449C16.876 9.08066 16.6875 9.0621 16.5162 8.99114C16.3449 8.92018 16.1985 8.80002 16.0955 8.64585C15.9925 8.49168 15.9375 8.31042 15.9375 8.125C15.9375 7.87636 16.0363 7.6379 16.2121 7.46209C16.3879 7.28627 16.6264 7.1875 16.875 7.1875V7.1875Z" fill="black"/>
<rect x="3.75" width="21.25" height="21.25" rx="2" fill="white"/>
<path d="M22.1875 0H5.3125C4.56658 0 3.85121 0.296316 3.32376 0.823762C2.79632 1.35121 2.5 2.06658 2.5 2.8125L2.5 19.6875C2.5 20.4334 2.79632 21.1488 3.32376 21.6762C3.85121 22.2037 4.56658 22.5 5.3125 22.5H22.1875C22.9334 22.5 23.6488 22.2037 24.1762 21.6762C24.7037 21.1488 25 20.4334 25 19.6875V2.8125C25 2.06658 24.7037 1.35121 24.1762 0.823762C23.6488 0.296316 22.9334 0 22.1875 0V0ZM5.3125 1.875H22.1875C22.4361 1.875 22.6746 1.97377 22.8504 2.14959C23.0262 2.3254 23.125 2.56386 23.125 2.8125V14.8687L15.7938 8.76563C14.954 8.06861 13.8997 7.68242 12.8084 7.67218C11.7172 7.66193 10.6558 8.02825 9.80312 8.70937L4.375 13.05V2.8125C4.375 2.56386 4.47377 2.3254 4.64959 2.14959C4.8254 1.97377 5.06386 1.875 5.3125 1.875V1.875ZM22.1875 20.625H5.3125C5.06386 20.625 4.8254 20.5262 4.64959 20.3504C4.47377 20.1746 4.375 19.9361 4.375 19.6875V15.45L10.9375 10.1719C11.4489 9.75621 12.0878 9.52931 12.7469 9.52931C13.4059 9.52931 14.0448 9.75621 14.5562 10.1719L23.125 17.3156V19.6875C23.125 19.9361 23.0262 20.1746 22.8504 20.3504C22.6746 20.5262 22.4361 20.625 22.1875 20.625Z" fill="black"/>
<path d="M19.375 8.4375C19.9313 8.4375 20.475 8.27255 20.9375 7.96351C21.4001 7.65447 21.7605 7.21522 21.9734 6.7013C22.1863 6.18738 22.242 5.62188 22.1335 5.07631C22.0249 4.53074 21.7571 4.0296 21.3637 3.63626C20.9704 3.24293 20.4693 2.97506 19.9237 2.86654C19.3781 2.75802 18.8126 2.81372 18.2987 3.02659C17.7848 3.23946 17.3455 3.59995 17.0365 4.06246C16.7275 4.52497 16.5625 5.06874 16.5625 5.625C16.5625 6.37092 16.8588 7.08629 17.3863 7.61374C17.9137 8.14118 18.6291 8.4375 19.375 8.4375ZM19.375 4.6875C19.5604 4.6875 19.7417 4.74248 19.8958 4.8455C20.05 4.94851 20.1702 5.09493 20.2411 5.26624C20.3121 5.43754 20.3307 5.62604 20.2945 5.8079C20.2583 5.98976 20.169 6.1568 20.0379 6.28791C19.9068 6.41903 19.7398 6.50831 19.5579 6.54449C19.376 6.58066 19.1875 6.5621 19.0162 6.49114C18.8449 6.42018 18.6985 6.30002 18.5955 6.14585C18.4925 5.99168 18.4375 5.81042 18.4375 5.625C18.4375 5.37636 18.5363 5.1379 18.7121 4.96209C18.8879 4.78627 19.1264 4.6875 19.375 4.6875V4.6875Z" fill="black"/>
</svg>
