<svg width="24" height="24" viewBox="0 0 24 24" fill="none" xmlns="http://www.w3.org/2000/svg">
<path d="M6.45405 11.5776C7.32905 12.3838 8.2978 12.9213 9.5103 12.7526C9.9353 12.6963 10.379 12.6026 10.7665 12.4213C11.9978 11.8526 11.9853 11.8338 12.8728 13.0463C12.7103 13.2463 12.4916 13.4338 12.3791 13.6713C11.9916 14.4776 11.579 15.2838 11.3103 16.1338C11.1478 16.6463 11.0915 17.3588 11.8415 17.5151C12.6915 17.6901 12.7353 16.9838 12.8541 16.3838C13.1541 14.8213 14.0666 13.9276 15.6541 13.6401C16.1978 13.5401 16.7728 13.4526 16.7041 12.7213C16.6416 11.9963 16.0478 12.0151 15.5041 11.9776C13.6166 11.8463 12.5853 10.6526 12.8353 8.79007C12.8728 8.51507 13.2978 8.08382 13.5478 8.07132C15.5728 8.02132 17.6103 7.99007 19.6353 8.08382C21.0915 8.15257 22.1978 9.39007 22.3478 10.8588C22.904 16.3776 18.9728 21.4963 13.604 22.2526C7.9603 23.0463 2.7728 19.3088 1.7853 13.7401C1.5978 12.6776 1.76655 12.5026 2.8103 12.6838C4.14155 12.9151 4.69155 12.7526 6.4603 11.5588L6.45405 11.5776Z" fill="#323232"/>
<path d="M11.1953 6.79499C11.1953 7.54499 11.2391 8.29499 11.1891 9.03874C11.1016 10.3325 10.2266 11.2012 9.13906 11.145C8.03906 11.095 7.30156 10.2887 7.27031 8.98874C7.23281 7.52624 7.23281 6.05749 7.27031 4.59499C7.30156 3.28874 8.03281 2.48874 9.13281 2.44499C10.2391 2.40124 11.0891 3.23874 11.1891 4.54499C11.2453 5.28874 11.2016 6.03874 11.2016 6.78874L11.1953 6.79499Z" fill="#323232"/>
<path d="M1.58984 7.99584C1.62734 7.46459 1.62734 6.92709 1.72109 6.41459C1.89609 5.47084 2.61484 4.88959 3.55859 4.85834C4.45859 4.83334 5.27734 5.32084 5.40234 6.24584C5.55234 7.37084 5.55234 8.53959 5.43359 9.67084C5.33359 10.6083 4.45234 11.1896 3.55859 11.1583C2.65859 11.1208 1.89609 10.4958 1.72734 9.57709C1.63359 9.05834 1.63359 8.52709 1.59609 7.99584H1.58984Z" fill="#323232"/>
<path d="M14.7255 6.39122C12.7067 6.39122 12.4317 6.02872 12.9005 4.02872C13.1317 3.04122 13.9692 2.38497 14.9192 2.44747C15.9005 2.50997 16.6005 3.20997 16.7192 4.25997C16.9505 6.24747 16.8255 6.38497 14.7255 6.38497V6.39122Z" fill="#323232"/>
</svg>
