<svg width="24" height="24" viewBox="0 0 24 24" fill="none" xmlns="http://www.w3.org/2000/svg">
<mask id="mask0_4176_370" style="mask-type:alpha" maskUnits="userSpaceOnUse" x="0" y="0" width="24" height="24">
<rect width="24" height="24" fill="#D9D9D9"/>
</mask>
<g mask="url(#mask0_4176_370)">
<path d="M0.0249939 21.65V17.075C0.0249939 16.3583 0.27916 15.75 0.787494 15.25C1.29583 14.75 1.89999 14.5 2.59999 14.5H6.02499C6.40833 14.5 6.72083 14.5583 6.96249 14.675C7.20416 14.7917 7.39999 14.9667 7.54999 15.2C8.06666 15.9333 8.71249 16.5 9.48749 16.9C10.2625 17.3 11.1 17.5 12 17.5C12.9 17.5 13.7417 17.3 14.525 16.9C15.3083 16.5 15.9583 15.9333 16.475 15.2C16.625 14.9667 16.8208 14.7917 17.0625 14.675C17.3042 14.5583 17.6083 14.5 17.975 14.5H21.425C22.1417 14.5 22.75 14.75 23.25 15.25C23.75 15.75 24 16.3583 24 17.075V21.65H15.85V19.15C15.2667 19.4667 14.65 19.7125 14 19.8875C13.35 20.0625 12.6833 20.15 12 20.15C11.3333 20.15 10.675 20.0625 10.025 19.8875C9.37499 19.7125 8.75833 19.4667 8.17499 19.15V21.65H0.0249939ZM12 16C11.45 16 10.9292 15.8708 10.4375 15.6125C9.94583 15.3542 9.53333 15 9.19999 14.55C8.81666 14 8.35833 13.6042 7.82499 13.3625C7.29166 13.1208 6.69166 13 6.02499 13C6.55833 12.4167 7.42499 11.925 8.62499 11.525C9.82499 11.125 10.95 10.925 12 10.925C13.05 10.925 14.1792 11.125 15.3875 11.525C16.5958 11.925 17.4667 12.4167 18 13C17.3333 13 16.7333 13.1167 16.2 13.35C15.6667 13.5833 15.2083 13.9833 14.825 14.55C14.5083 15 14.1 15.3542 13.6 15.6125C13.1 15.8708 12.5667 16 12 16ZM3.99999 12.5C3.09999 12.5 2.33333 12.1833 1.69999 11.55C1.06666 10.9167 0.749994 10.15 0.749994 9.24999C0.749994 8.34999 1.06666 7.58332 1.69999 6.94999C2.33333 6.31665 3.09999 5.99999 3.99999 5.99999C4.89999 5.99999 5.66666 6.31665 6.29999 6.94999C6.93333 7.58332 7.24999 8.34999 7.24999 9.24999C7.24999 10.15 6.93333 10.9167 6.29999 11.55C5.66666 12.1833 4.89999 12.5 3.99999 12.5ZM20 12.5C19.1 12.5 18.3333 12.1833 17.7 11.55C17.0667 10.9167 16.75 10.15 16.75 9.24999C16.75 8.34999 17.0667 7.58332 17.7 6.94999C18.3333 6.31665 19.1 5.99999 20 5.99999C20.9 5.99999 21.6667 6.31665 22.3 6.94999C22.9333 7.58332 23.25 8.34999 23.25 9.24999C23.25 10.15 22.9333 10.9167 22.3 11.55C21.6667 12.1833 20.9 12.5 20 12.5ZM12 8.92499C11.1 8.92499 10.3333 8.60832 9.69999 7.97499C9.06666 7.34165 8.74999 6.57499 8.74999 5.67499C8.74999 4.77499 9.06666 4.00832 9.69999 3.37499C10.3333 2.74165 11.1 2.42499 12 2.42499C12.9 2.42499 13.6667 2.74165 14.3 3.37499C14.9333 4.00832 15.25 4.77499 15.25 5.67499C15.25 6.57499 14.9333 7.34165 14.3 7.97499C13.6667 8.60832 12.9 8.92499 12 8.92499Z" fill="#6F52ED"/>
</g>
</svg>
