<svg width="24" height="24" viewBox="0 0 24 24" fill="none" xmlns="http://www.w3.org/2000/svg">
<mask id="mask0_4176_163" style="mask-type:alpha" maskUnits="userSpaceOnUse" x="0" y="0" width="24" height="24">
<rect width="24" height="24" fill="#D9D9D9"/>
</mask>
<g mask="url(#mask0_4176_163)">
<path d="M12 22.575C9.38335 22.575 7.09585 21.7292 5.13751 20.0375C3.17918 18.3458 1.98335 16.2083 1.55001 13.625H4.75001C5.18335 15.3083 6.06668 16.6958 7.40001 17.7875C8.73335 18.8792 10.2667 19.425 12 19.425C13.1 19.425 14.1333 19.1958 15.1 18.7375C16.0667 18.2792 16.9 17.625 17.6 16.775H15.575V13.625H22.925V20.95H19.775V19.15C18.775 20.25 17.6 21.0958 16.25 21.6875C14.9 22.2792 13.4833 22.575 12 22.575ZM12 15C11.1667 15 10.4583 14.7083 9.87501 14.125C9.29168 13.5417 9.00001 12.8333 9.00001 12C9.00001 11.1667 9.29168 10.4583 9.87501 9.87499C10.4583 9.29165 11.1667 8.99999 12 8.99999C12.8333 8.99999 13.5417 9.29165 14.125 9.87499C14.7083 10.4583 15 11.1667 15 12C15 12.8333 14.7083 13.5417 14.125 14.125C13.5417 14.7083 12.8333 15 12 15ZM1.07501 10.375V3.04999H4.22501V4.84999C5.22501 3.74999 6.40001 2.90415 7.75001 2.31249C9.10001 1.72082 10.5167 1.42499 12 1.42499C14.6167 1.42499 16.9042 2.27082 18.8625 3.96249C20.8208 5.65415 22.0167 7.79165 22.45 10.375H19.25C18.8167 8.69165 17.9333 7.30415 16.6 6.21249C15.2667 5.12082 13.7333 4.57499 12 4.57499C10.9 4.57499 9.86668 4.80415 8.90001 5.26249C7.93335 5.72082 7.10001 6.37499 6.40001 7.22499H8.42501V10.375H1.07501Z" fill="#6F52ED"/>
</g>
</svg>
