<svg width="28" height="24" viewBox="0 0 28 24" fill="none" xmlns="http://www.w3.org/2000/svg">
<path d="M14.75 11.475C15.3833 10.8084 15.8542 10.0625 16.1625 9.23752C16.4708 8.41252 16.625 7.57502 16.625 6.72502C16.625 5.85836 16.4542 5.00002 16.1125 4.15002C15.7708 3.30002 15.3 2.57502 14.7 1.97502C15.9667 2.24169 16.9375 2.83752 17.6125 3.76252C18.2875 4.68752 18.625 5.67502 18.625 6.72502C18.625 7.84169 18.2792 8.85419 17.5875 9.76252C16.8958 10.6709 15.95 11.2417 14.75 11.475ZM20.625 21.275V17.525C20.625 16.6917 20.5 15.9625 20.25 15.3375C20 14.7125 19.6083 14.1417 19.075 13.625C20.2417 13.8417 21.1917 14.2875 21.925 14.9625C22.6583 15.6375 23.025 16.4917 23.025 17.525V21.275H20.625ZM22.95 12.375V10.3H20.875V8.30002H22.95V6.22502H24.95V8.30002H27.025V10.3H24.95V12.375H22.95ZM9.8 11.575C8.45 11.575 7.30416 11.1042 6.3625 10.1625C5.42083 9.22086 4.95 8.07502 4.95 6.72502C4.95 5.37502 5.42083 4.23336 6.3625 3.30002C7.30416 2.36669 8.45 1.90002 9.8 1.90002C11.15 1.90002 12.2917 2.36669 13.225 3.30002C14.1583 4.23336 14.625 5.37502 14.625 6.72502C14.625 8.07502 14.1583 9.22086 13.225 10.1625C12.2917 11.1042 11.15 11.575 9.8 11.575ZM0.949997 21.275V17.575C0.949997 16.8584 1.13333 16.1959 1.5 15.5875C1.86666 14.9792 2.36666 14.5167 3 14.2C4.1 13.6667 5.22083 13.2625 6.3625 12.9875C7.50416 12.7125 8.65 12.575 9.8 12.575C11 12.575 12.1667 12.7084 13.3 12.975C14.4333 13.2417 15.525 13.6417 16.575 14.175C17.2083 14.4917 17.7083 14.95 18.075 15.55C18.4417 16.15 18.625 16.825 18.625 17.575V21.275H0.949997Z" fill="#6F52ED"/>
</svg>
