<svg width="24" height="24" viewBox="0 0 24 24" fill="none" xmlns="http://www.w3.org/2000/svg">
<mask id="mask0_4176_50" style="mask-type:alpha" maskUnits="userSpaceOnUse" x="0" y="0" width="24" height="24">
<rect width="24" height="24" fill="#D9D9D9"/>
</mask>
<g mask="url(#mask0_4176_50)">
<path d="M0.225006 21.275V17.575C0.225006 16.8533 0.414173 16.19 0.792506 15.585C1.17067 14.98 1.67317 14.5183 2.30001 14.2C3.38334 13.6666 4.49134 13.2625 5.62401 12.9875C6.75667 12.7125 7.90701 12.575 9.07501 12.575C10.275 12.575 11.4417 12.7083 12.575 12.975C13.7083 13.2416 14.8 13.6416 15.85 14.175C16.4768 14.491 16.9793 14.9491 17.3575 15.5495C17.7358 16.1498 17.925 16.8246 17.925 17.5737V21.275H0.225006ZM20.3 21.275V17.45C20.3 16.65 20.1042 15.8708 19.7125 15.1125C19.3208 14.3541 18.725 13.6083 17.925 12.875C18.5917 13.0083 19.2333 13.1833 19.85 13.4C20.4667 13.6166 21.0667 13.875 21.65 14.175C22.3167 14.5083 22.8375 14.9734 23.2125 15.5702C23.5875 16.1671 23.775 16.8186 23.775 17.525V21.275H20.3ZM9.07501 11.575C7.84167 11.575 6.79584 11.1458 5.93751 10.2875C5.07917 9.42914 4.65001 8.38331 4.65001 7.14998C4.65001 5.91664 5.07917 4.87081 5.93751 4.01248C6.79584 3.15414 7.84167 2.72498 9.07501 2.72498C10.3083 2.72498 11.3542 3.15414 12.2125 4.01248C13.0708 4.87081 13.5 5.91664 13.5 7.14998C13.5 8.38331 13.0708 9.42914 12.2125 10.2875C11.3542 11.1458 10.3083 11.575 9.07501 11.575ZM20.3 7.14973C20.3 8.36656 19.8671 9.40831 19.0013 10.275C18.1356 11.1416 17.0948 11.575 15.879 11.575C15.6763 11.575 15.4417 11.55 15.175 11.5C14.9083 11.45 14.65 11.3833 14.4 11.3C14.8833 10.7333 15.25 10.0929 15.5 9.37873C15.75 8.66456 15.875 7.92289 15.875 7.15373C15.875 6.38456 15.75 5.64164 15.5 4.92498C15.25 4.20831 14.8833 3.56664 14.4 2.99998C14.65 2.89998 14.8917 2.82914 15.125 2.78748C15.3583 2.74581 15.6044 2.72498 15.8633 2.72498C17.0834 2.72498 18.1279 3.15823 18.9968 4.02473C19.8656 4.89123 20.3 5.93289 20.3 7.14973Z" fill="#6F52ED"/>
</g>
</svg>
