<svg width="24" height="24" viewBox="0 0 24 24" fill="none" xmlns="http://www.w3.org/2000/svg">
<mask id="mask0_4176_13" style="mask-type:alpha" maskUnits="userSpaceOnUse" x="0" y="0" width="24" height="24">
<rect width="24" height="24" fill="#D9D9D9"/>
</mask>
<g mask="url(#mask0_4176_13)">
<path d="M0.849976 23.35V7.05002H23.15V23.35H0.849976ZM7.99998 19.2H16V17.2H7.99998V19.2ZM4.99998 16.2H6.99998V14.2H4.99998V16.2ZM7.99998 16.2H9.99998V14.2H7.99998V16.2ZM11 16.2H13V14.2H11V16.2ZM14 16.2H16V14.2H14V16.2ZM17 16.2H19V14.2H17V16.2ZM4.99998 13.2H6.99998V11.2H4.99998V13.2ZM7.99998 13.2H9.99998V11.2H7.99998V13.2ZM11 13.2H13V11.2H11V13.2ZM14 13.2H16V11.2H14V13.2ZM17 13.2H19V11.2H17V13.2ZM5.67498 6.05002V-0.349976H8.32498V1.32502C8.89164 0.808358 9.52998 0.400024 10.24 0.100024C10.95 -0.199976 11.7033 -0.349976 12.5 -0.349976C14.2166 -0.349976 15.675 0.275024 16.875 1.52502C18.075 2.77502 18.7333 4.28336 18.85 6.05002H16.2C16.1166 5.01669 15.7291 4.13336 15.0375 3.40002C14.3458 2.66669 13.5 2.30002 12.5 2.30002C12.0118 2.30002 11.5481 2.40002 11.109 2.60002C10.6696 2.80002 10.2833 3.06669 9.94998 3.40002H12.075V6.05002H5.67498Z" fill="#6F52ED"/>
</g>
</svg>
