<svg width="25" height="25" viewBox="0 0 25 25" fill="none" xmlns="http://www.w3.org/2000/svg">
<path d="M2.02703 10.1081C0.905405 10.1081 0 11.0135 0 12.1351C0 13.2568 0.905405 14.1622 2.02703 14.1622C3.14865 14.1622 4.05405 13.2568 4.05405 12.1351C4.05405 11.0135 3.14865 10.1081 2.02703 10.1081ZM2.02703 2C0.905405 2 0 2.90541 0 4.02703C0 5.14865 0.905405 6.05405 2.02703 6.05405C3.14865 6.05405 4.05405 5.14865 4.05405 4.02703C4.05405 2.90541 3.14865 2 2.02703 2ZM2.02703 18.2162C0.905405 18.2162 0 19.1351 0 20.2432C0 21.3514 0.918919 22.2703 2.02703 22.2703C3.13514 22.2703 4.05405 21.3514 4.05405 20.2432C4.05405 19.1351 3.14865 18.2162 2.02703 18.2162ZM7.43243 21.5946H23.6486C24.3919 21.5946 25 20.9865 25 20.2432C25 19.5 24.3919 18.8919 23.6486 18.8919H7.43243C6.68919 18.8919 6.08108 19.5 6.08108 20.2432C6.08108 20.9865 6.68919 21.5946 7.43243 21.5946ZM7.43243 13.4865H23.6486C24.3919 13.4865 25 12.8784 25 12.1351C25 11.3919 24.3919 10.7838 23.6486 10.7838H7.43243C6.68919 10.7838 6.08108 11.3919 6.08108 12.1351C6.08108 12.8784 6.68919 13.4865 7.43243 13.4865ZM6.08108 4.02703C6.08108 4.77027 6.68919 5.37838 7.43243 5.37838H23.6486C24.3919 5.37838 25 4.77027 25 4.02703C25 3.28378 24.3919 2.67568 23.6486 2.67568H7.43243C6.68919 2.67568 6.08108 3.28378 6.08108 4.02703Z" fill="#323232"/>
</svg>
